<?xml version="1.0" encoding="utf-8"?>
<!-- Generator: Adobe Illustrator 26.3.1, SVG Export Plug-In . SVG Version: 6.00 Build 0)  -->
<svg version="1.1" id="Layer_1" xmlns="http://www.w3.org/2000/svg" xmlns:xlink="http://www.w3.org/1999/xlink" x="0px" y="0px"
	 viewBox="0 0 720 720" style="enable-background:new 0 0 720 720;" xml:space="preserve">
<style type="text/css">
	.st0{opacity:0.39;enable-background:new    ;}
	.st1{fill:none;}
	.st2{fill:#FFFFFF;}
</style>
<rect class="st0" width="720" height="720"/>
<rect x="-739.1" y="300" class="st1" width="720" height="407"/>
<text transform="matrix(1 0 0 1 -661.8281 365.6877)" style="font-family:'Raleway-Bold'; font-size:90px;">JUNE &amp; JULY</text>
<text transform="matrix(1 0 0 1 -659.3281 420.8877)" style="font-family:'Roboto-LightItalic'; font-size:46px;">CALENDER ILLUSTRATIONS</text>
<rect x="-678.2" y="3.4" class="st1" width="571.4" height="248.8"/>
<text transform="matrix(1 0 0 1 -510.5484 69.1435)" style="font-family:'Raleway-Bold'; font-size:90px;">POLY </text>
<text transform="matrix(1 0 0 1 -555.7484 177.1435)" style="font-family:'Raleway-Bold'; font-size:90px;">KROMA</text>
<text transform="matrix(1 0 0 1 -623.4484 235.1435)" style="font-family:'Roboto-LightItalic'; font-size:46px;">3D MOTION GRAPHICS</text>
<g>
	<path class="st2" d="M92.8,254.3h12.6l23.5,63.9h-12.8l-5.3-15.9H87.4L82,318.2H69.3L92.8,254.3z M107.9,293.6l-8.8-26.4l-8.8,26.4
		H107.9z"/>
	<path class="st2" d="M135.9,318.2v-63.9h28.3c2.9,0,5.7,0.6,8.1,1.8c2.5,1.2,4.6,2.8,6.5,4.9c1.8,2,3.2,4.3,4.2,6.8
		s1.5,5.1,1.5,7.7c0,2.7-0.5,5.3-1.4,7.8s-2.3,4.7-4,6.5c-1.7,1.9-3.8,3.3-6.1,4.3l14.6,24h-13.7l-13.1-21.4h-12.4v21.4h-12.5V318.2
		z M148.4,285.9H164c1.6,0,2.9-0.5,4.1-1.4c1.2-0.9,2.2-2.2,2.9-3.7c0.7-1.6,1.1-3.3,1.1-5.2c0-2-0.4-3.8-1.3-5.4
		c-0.8-1.5-1.9-2.7-3.2-3.6s-2.7-1.3-4.2-1.3h-15L148.4,285.9L148.4,285.9z"/>
	<path class="st2" d="M242.9,265.2h-20.4v53h-12.3v-53h-20.4v-10.9H243v10.9H242.9z"/>
	<path class="st2" d="M323.5,254.3v63.9h-12.3v-27.3h-29v27.3h-12.4v-63.9h12.4v25.8h29v-25.8H323.5z"/>
	<path class="st2" d="M336.8,318.2v-63.9h12.4v63.9H336.8z"/>
	<path class="st2" d="M400.6,271.1c-0.4-0.4-1.2-1-2.3-1.7c-1.1-0.7-2.5-1.4-4-2.1c-1.6-0.7-3.3-1.2-5.2-1.8
		c-1.9-0.5-3.8-0.8-5.7-0.8c-3.4,0-5.9,0.6-7.6,1.9s-2.6,3-2.6,5.3c0,1.7,0.5,3.1,1.6,4.1s2.7,1.9,4.9,2.6c2.2,0.7,4.9,1.5,8.1,2.3
		c4.2,1,7.8,2.3,10.9,3.7c3.1,1.5,5.5,3.4,7.1,5.7c1.6,2.4,2.5,5.5,2.5,9.4c0,3.4-0.6,6.3-1.9,8.7c-1.3,2.4-3,4.4-5.2,5.9
		s-4.7,2.6-7.6,3.3c-2.8,0.7-5.8,1-9,1s-6.4-0.3-9.5-1c-3.2-0.7-6.2-1.6-9.2-2.8c-2.9-1.2-5.6-2.7-8.1-4.5l5.5-10.7
		c0.5,0.5,1.5,1.2,2.9,2.1s3.1,1.7,5,2.6c2,0.9,4.1,1.6,6.5,2.2c2.3,0.6,4.7,0.9,7.1,0.9c3.4,0,5.9-0.6,7.7-1.7
		c1.7-1.1,2.6-2.7,2.6-4.8c0-1.9-0.7-3.4-2.1-4.5s-3.3-2-5.8-2.8s-5.4-1.7-8.7-2.6c-4-1.1-7.4-2.4-10.1-3.8s-4.7-3.2-6-5.3
		c-1.3-2.1-2-4.8-2-8.1c0-4.4,1-8,3.1-11s4.9-5.2,8.4-6.7c3.5-1.5,7.5-2.3,11.8-2.3c3,0,5.8,0.3,8.5,1s5.2,1.5,7.5,2.6
		s4.4,2.2,6.3,3.5L400.6,271.1z"/>
	<path class="st2" d="M465.5,265.2h-20.4v53h-12.3v-53h-20.4v-10.9h53.2v10.9H465.5z"/>
	<path class="st2" d="M499.3,318.7c-4.7,0-8.9-0.9-12.7-2.7c-3.8-1.8-7.1-4.2-9.8-7.3c-2.7-3.1-4.8-6.6-6.3-10.4
		c-1.5-3.9-2.2-7.8-2.2-11.9c0-4.3,0.8-8.3,2.4-12.2s3.8-7.3,6.6-10.4c2.8-3,6.1-5.4,9.9-7.2c3.8-1.8,8-2.7,12.6-2.7
		s8.8,0.9,12.6,2.8c3.8,1.9,7.1,4.4,9.8,7.5c2.7,3.1,4.8,6.6,6.3,10.4c1.5,3.8,2.2,7.8,2.2,11.9c0,4.2-0.8,8.2-2.3,12.1
		c-1.6,3.9-3.7,7.3-6.5,10.4c-2.8,3-6.1,5.4-9.9,7.2C507.9,317.8,503.8,318.7,499.3,318.7z M480.7,286.3c0,2.8,0.4,5.4,1.3,8
		c0.8,2.6,2.1,4.9,3.6,6.9c1.6,2,3.5,3.6,5.9,4.8c2.3,1.2,4.9,1.8,7.9,1.8s5.7-0.6,8-1.8c2.3-1.2,4.3-2.9,5.8-5
		c1.6-2.1,2.7-4.4,3.6-6.9c0.8-2.5,1.2-5.1,1.2-7.7c0-2.8-0.4-5.4-1.3-8c-0.9-2.5-2.1-4.8-3.7-6.8c-1.6-2-3.5-3.6-5.8-4.8
		c-2.3-1.2-4.9-1.8-7.8-1.8c-3.1,0-5.7,0.6-8.1,1.8c-2.3,1.2-4.2,2.9-5.8,4.9c-1.6,2-2.7,4.3-3.6,6.8
		C481.1,281.1,480.7,283.6,480.7,286.3z"/>
	<path class="st2" d="M540,318.2v-63.9h28.3c2.9,0,5.7,0.6,8.1,1.8c2.5,1.2,4.6,2.8,6.5,4.9c1.8,2,3.2,4.3,4.2,6.8s1.5,5.1,1.5,7.7
		c0,2.7-0.5,5.3-1.4,7.8s-2.3,4.7-4,6.5c-1.7,1.9-3.8,3.3-6.1,4.3l14.6,24H578l-13.1-21.4h-12.4v21.4H540V318.2z M552.5,285.9H568
		c1.6,0,2.9-0.5,4.1-1.4c1.2-0.9,2.2-2.2,2.9-3.7c0.7-1.6,1.1-3.3,1.1-5.2c0-2-0.4-3.8-1.3-5.4c-0.8-1.5-1.9-2.7-3.2-3.6
		s-2.7-1.3-4.2-1.3h-15v20.6H552.5z"/>
	<path class="st2" d="M603.9,254.3l15.8,30.1l16-30.1H649l-23.2,41.6v22.3h-12.3v-22.5l-23.1-41.4H603.9z"/>
	<path class="st2" d="M75.1,366.4v41H62.6v-63.9h9.9l33,42.1v-42H118v63.8h-10.3L75.1,366.4z"/>
	<path class="st2" d="M175.7,396.5v10.9h-44.4v-63.9h43.6v10.9h-31.1v15.4h26.9v10.1h-26.9v16.6H175.7z"/>
	<path class="st2" d="M207.3,343.7h11.5l7.3,21.2l7.4-21.2h11.4l-11,29.1l8.1,20.3l18.1-49.6h13.5L248,407.4h-10.7l-11.2-26.8
		l-11.2,26.8h-10.7l-25.5-63.9H192l18.2,49.6l7.9-20.3L207.3,343.7z"/>
	<path class="st2" d="M316.4,360.3c-0.4-0.4-1.2-1-2.3-1.7c-1.1-0.7-2.5-1.4-4.1-2.1s-3.3-1.2-5.2-1.8c-1.9-0.5-3.8-0.8-5.7-0.8
		c-3.4,0-5.9,0.6-7.6,1.9s-2.6,3-2.6,5.3c0,1.7,0.5,3.1,1.6,4.1s2.7,1.9,4.9,2.6c2.2,0.7,4.9,1.5,8.1,2.3c4.2,1,7.8,2.3,10.9,3.7
		c3.1,1.5,5.5,3.4,7.1,5.7c1.6,2.4,2.5,5.5,2.5,9.4c0,3.4-0.6,6.3-1.9,8.7c-1.3,2.4-3,4.4-5.2,5.9s-4.7,2.6-7.6,3.3
		c-2.8,0.7-5.8,1-9,1s-6.4-0.3-9.5-1c-3.2-0.7-6.2-1.6-9.2-2.8c-2.9-1.2-5.6-2.7-8.1-4.5l5.5-10.7c0.5,0.5,1.5,1.2,2.9,2.1
		s3.1,1.7,5,2.6c2,0.9,4.1,1.6,6.5,2.2c2.3,0.6,4.7,0.9,7.1,0.9c3.4,0,5.9-0.6,7.6-1.7s2.6-2.7,2.6-4.8c0-1.9-0.7-3.4-2.1-4.5
		s-3.3-2-5.8-2.8s-5.4-1.7-8.7-2.6c-4-1.1-7.4-2.4-10.1-3.8s-4.7-3.2-6-5.3c-1.3-2.1-2-4.8-2-8.1c0-4.4,1-8,3.1-11s4.9-5.2,8.4-6.7
		s7.5-2.3,11.8-2.3c3,0,5.8,0.3,8.5,1s5.2,1.5,7.5,2.6s4.4,2.2,6.3,3.5L316.4,360.3z"/>
	<path class="st2" d="M333.5,407.4v-63.9H346v53h32.6v10.9H333.5z"/>
	<path class="st2" d="M430.5,396.5v10.9h-44.4v-63.9h43.6v10.9h-31.1v15.4h26.9v10.1h-26.9v16.6H430.5z"/>
	<path class="st2" d="M488,354.4h-20.4v53h-12.3v-53h-20.4v-10.9H488V354.4z"/>
	<path class="st2" d="M543.7,354.4h-20.4v53H511v-53h-20.4v-10.9h53.2L543.7,354.4L543.7,354.4z"/>
	<path class="st2" d="M596,396.5v10.9h-44.4v-63.9h43.6v10.9H564v15.4h26.9v10.1H564v16.6H596z"/>
	<path class="st2" d="M605.7,407.4v-63.9H634c2.9,0,5.7,0.6,8.1,1.8c2.5,1.2,4.6,2.8,6.5,4.9c1.8,2,3.2,4.3,4.2,6.8s1.5,5.1,1.5,7.7
		c0,2.7-0.5,5.3-1.4,7.8s-2.3,4.7-4,6.5c-1.7,1.9-3.8,3.3-6.1,4.3l14.6,24h-13.7l-13.1-21.4h-12.4v21.4h-12.5V407.4z M618.1,375.1
		h15.6c1.6,0,2.9-0.5,4.1-1.4c1.2-0.9,2.2-2.2,2.9-3.7c0.7-1.6,1.1-3.3,1.1-5.2c0-2-0.4-3.8-1.3-5.4c-0.8-1.5-1.9-2.7-3.2-3.6
		s-2.7-1.3-4.2-1.3h-15L618.1,375.1L618.1,375.1z"/>
	<path class="st2" d="M85.9,465.6l5.7-32.7h9.2c3.1,0.1,5.5,0.8,7.1,2.3c1.6,1.5,2.3,3.5,2,6.1c-0.2,1.7-0.8,3.2-1.9,4.5
		c-1.1,1.3-2.5,2.2-4.4,2.9c1.6,0.5,2.8,1.4,3.6,2.8c0.9,1.4,1.2,3,1.1,4.8c-0.2,2.8-1.4,5.1-3.4,6.8c-2.1,1.7-4.8,2.6-8.1,2.6
		L85.9,465.6L85.9,465.6z M91.3,449.9L89,463.3h7.9c2.4,0,4.4-0.6,6-1.9c1.6-1.2,2.5-3,2.8-5.1c0.2-1.9-0.2-3.4-1.3-4.5
		s-2.6-1.7-4.6-1.8L91.3,449.9z M91.7,447.6h7.2c2.3,0,4.2-0.6,5.7-1.8s2.3-2.7,2.5-4.6c0.4-3.8-1.8-5.8-6.4-5.9h-6.8L91.7,447.6z"
		/>
	<path class="st2" d="M127.7,452h-9.2l-2.4,13.6h-2.8l5.7-32.7h9.7c3.3,0,5.8,0.9,7.5,2.5c1.8,1.7,2.5,4,2.2,6.9
		c-0.2,2.2-1,4.1-2.5,5.7c-1.4,1.6-3.3,2.7-5.6,3.5l5.6,13.8v0.3H133L127.7,452z M118.9,449.7h8.1c2.3,0,4.3-0.7,5.9-2
		c1.6-1.4,2.6-3.1,2.8-5.3c0.3-2.1-0.2-3.8-1.4-5.1c-1.2-1.3-2.9-1.9-5.2-2h-7.7L118.9,449.7z"/>
	<path class="st2" d="M160.7,456.5h-14.3l-4.9,9.2h-3l17.7-32.7h2.6l6.3,32.7h-2.7L160.7,456.5z M147.6,454.1h12.6l-3.2-17.7
		L147.6,454.1z"/>
	<path class="st2" d="M193.8,465.6h-2.7l-13.4-28l-4.9,28H170l5.7-32.7h2.7l13.4,28.1l4.9-28.1h2.7L193.8,465.6z"/>
	<path class="st2" d="M202,465.6l5.7-32.7h8.5c2.5,0,4.7,0.6,6.6,1.9c1.9,1.3,3.2,3.1,4,5.4s1.1,4.8,0.7,7.5l-0.4,2.7
		c-0.7,4.5-2.5,8.2-5.4,11s-6.5,4.2-10.8,4.2H202z M210,435.3l-4.9,28h5.8c2.3,0,4.4-0.5,6.3-1.6c1.9-1,3.4-2.5,4.7-4.4
		s2-4.1,2.4-6.5s0.6-4.1,0.6-5s0-1.8-0.1-2.7c-0.3-2.4-1.3-4.3-2.7-5.7c-1.5-1.4-3.4-2.1-5.8-2.2L210,435.3z"/>
	<path class="st2" d="M234.7,465.6H232l5.7-32.7h2.7L234.7,465.6z"/>
	<path class="st2" d="M267.2,465.6h-2.7l-13.4-28l-4.9,28h-2.8l5.7-32.7h2.7l13.4,28.1l4.9-28.1h2.7L267.2,465.6z"/>
	<path class="st2" d="M299.2,461.8c-1.1,1.4-2.7,2.5-4.8,3.3c-2.1,0.8-4.4,1.1-6.9,1.1c-3,0-5.5-1.1-7.4-3.1
		c-1.9-2.1-2.9-4.8-3.1-8.2c-0.1-1.2,0-2.4,0.1-3.6l0.6-3.7c0.7-4.6,2.4-8.2,5-11c2.6-2.7,5.9-4.1,9.7-4c3,0.1,5.4,0.9,7.2,2.7
		s2.7,4,2.8,7h-2.7c-0.1-2.3-0.8-4.1-2.1-5.3c-1.3-1.3-3.1-1.9-5.4-2c-3.1-0.1-5.6,1-7.8,3.3c-2.1,2.3-3.5,5.4-4.1,9.4l-0.5,3.5
		c-0.1,1-0.2,2-0.2,3c0,3,0.8,5.3,2.2,7.1s3.3,2.6,5.7,2.6c3.8,0.1,6.8-0.9,8.9-2.8l1.5-8.5h-8.5l0.4-2.3h11.3L299.2,461.8z"/>
	<path class="st2" d="M325.2,447.8l-0.8-1.5c-1.2-2.3-1.8-4.4-1.6-6.2c0.2-2.3,1-4.1,2.5-5.5s3.4-2.1,5.7-2.1
		c1.9,0.1,3.4,0.7,4.6,1.9c1.1,1.2,1.6,2.6,1.5,4.4c-0.2,2.5-1.9,4.9-5.1,7.1l-3.4,2.3l7,10.4c1.7-2.2,2.7-4.7,3.2-7.5h2.4
		c-0.5,3.7-1.9,6.9-4.2,9.5l3.4,5.1h-3l-2.2-3.2c-2.9,2.5-6,3.7-9.3,3.7c-2.7,0-4.9-0.8-6.5-2.4c-1.7-1.6-2.4-3.6-2.2-6.2
		c0.1-1.6,0.8-3.2,2-4.8C320.4,451.2,322.4,449.5,325.2,447.8z M326.1,463.8c2.6,0,5.2-1.1,7.7-3.4l-7.1-10.5l-0.2-0.3l-1.1,0.8
		l-1.2,0.9c-2.6,2.1-4,4.2-4.2,6.2c-0.3,1.8,0.2,3.3,1.4,4.5C322.5,463.2,324.1,463.8,326.1,463.8z M325.4,440
		c-0.2,1.8,0.4,3.9,1.9,6.3l4-2.9c1.9-1.5,2.9-3,3-4.7c0.1-1.1-0.2-2.1-0.9-2.8c-0.7-0.7-1.6-1.1-2.8-1.1c-1.4,0-2.6,0.5-3.6,1.5
		C326.1,437.2,325.6,438.5,325.4,440z"/>
	<path class="st2" d="M361,452.3l-2.3,13.3H356l5.7-32.7h10.6c3.1,0.1,5.4,1,7.1,2.7s2.4,4,2.1,6.9c-0.3,3.1-1.5,5.5-3.7,7.2
		s-5,2.6-8.5,2.6H361z M361.4,450h8c2.6,0,4.7-0.7,6.4-2c1.7-1.3,2.7-3.1,2.9-5.5c0.2-2.2-0.2-4-1.4-5.2s-2.9-2-5.1-2H364L361.4,450
		z"/>
	<path class="st2" d="M411.3,432.9l-3.8,22.1c-0.5,3.4-2,6.2-4.3,8.2c-2.4,2-5.2,3-8.6,2.9c-2.1,0-3.9-0.5-5.5-1.5
		c-1.5-0.9-2.7-2.2-3.3-3.9c-0.7-1.7-0.9-3.6-0.7-5.6l3.8-22.2h2.7l-3.8,22.2c-0.3,2.5,0.1,4.6,1.4,6.1c1.2,1.6,3.1,2.4,5.5,2.5
		c2.5,0.1,4.7-0.6,6.5-2.1s3-3.5,3.5-6.2l3.9-22.6h2.7V432.9z"/>
	<path class="st2" d="M413.2,465.6l5.7-32.7h9.2c3.1,0.1,5.5,0.8,7.1,2.3s2.3,3.5,2,6.1c-0.2,1.7-0.8,3.2-1.9,4.5s-2.5,2.2-4.4,2.9
		c1.6,0.5,2.8,1.4,3.6,2.8c0.9,1.4,1.2,3,1.1,4.8c-0.2,2.8-1.4,5.1-3.4,6.8c-2.1,1.7-4.8,2.6-8.1,2.6L413.2,465.6L413.2,465.6z
		 M418.7,449.9l-2.3,13.3h7.9c2.4,0,4.4-0.6,6-1.9s2.5-3,2.8-5.1c0.2-1.9-0.2-3.4-1.3-4.5s-2.6-1.7-4.6-1.8H418.7z M419.1,447.6h7.2
		c2.3,0,4.2-0.6,5.7-1.8s2.3-2.7,2.5-4.6c0.4-3.8-1.8-5.8-6.4-5.9h-6.8L419.1,447.6z"/>
	<path class="st2" d="M443.9,463.3h15.7l-0.4,2.3h-18.4l5.7-32.7h2.8L443.9,463.3z"/>
	<path class="st2" d="M467.8,465.6h-2.7l5.7-32.7h2.7L467.8,465.6z"/>
	<path class="st2" d="M500.8,455.4c-0.8,3.4-2.3,6-4.6,7.9s-5.2,2.8-8.6,2.7c-2.9-0.1-5.2-1.1-7-3.1c-1.7-2-2.7-4.7-2.8-8.1
		c0-1.2,0-2.3,0.2-3.5l0.6-4c0.5-3,1.4-5.7,2.8-8s3.1-4.1,5.1-5.2c2-1.2,4.2-1.7,6.6-1.7c3.1,0.1,5.5,1,7.3,3
		c1.8,1.9,2.6,4.5,2.6,7.7h-2.7c0-2.6-0.6-4.7-1.9-6.1s-3.1-2.2-5.4-2.3c-3-0.1-5.5,1-7.6,3.3s-3.4,5.4-4.1,9.5l-0.7,4.5l-0.1,2
		c0,1.8,0.2,3.4,0.8,4.9c0.5,1.5,1.4,2.7,2.5,3.5s2.4,1.2,3.9,1.3c2.6,0.1,4.8-0.6,6.5-2c1.8-1.4,3-3.5,3.9-6.3L500.8,455.4z"/>
	<path class="st2" d="M524.6,456.5h-14.3l-4.9,9.2h-3l17.7-32.7h2.6l6.3,32.7h-2.7L524.6,456.5z M511.5,454.1h12.6l-3.2-17.7
		L511.5,454.1z"/>
	<path class="st2" d="M557.9,435.3H547l-5.3,30.4H539l5.3-30.4h-10.9l0.4-2.3h24.5L557.9,435.3z"/>
	<path class="st2" d="M561.2,465.6h-2.7l5.7-32.7h2.7L561.2,465.6z"/>
	<path class="st2" d="M581.3,466.1c-3.1-0.1-5.5-1.1-7.3-3.2s-2.8-4.8-2.9-8.3c-0.1-1.2,0-2.4,0.2-3.6l0.4-3.1
		c0.7-4.6,2.3-8.3,4.9-11.2c2.7-2.9,6-4.4,9.9-4.3c2,0,3.8,0.5,5.3,1.5c1.5,0.9,2.7,2.3,3.5,4.1c0.8,1.8,1.3,3.8,1.4,5.9
		c0,1.3,0,2.5-0.2,3.8l-0.5,3.5c-0.5,3.1-1.5,5.8-2.9,8.1c-1.4,2.3-3.1,4-5.2,5.2S583.7,466.1,581.3,466.1z M593.9,447.5
		c0.1-0.9,0.2-1.9,0.2-2.9c0-1.8-0.3-3.5-0.9-5c-0.6-1.5-1.4-2.6-2.6-3.4c-1.1-0.8-2.5-1.2-4.2-1.3c-3-0.1-5.5,1-7.7,3.2
		s-3.5,5.2-4.2,9c-0.5,3.1-0.8,5.3-0.8,6.8c0,3,0.7,5.4,2,7.1s3.2,2.6,5.6,2.7c3.2,0.1,5.8-1.1,7.9-3.5s3.4-5.5,4-9.4L593.9,447.5z"
		/>
	<path class="st2" d="M624.1,465.6h-2.7l-13.4-28l-4.9,28h-2.8l5.7-32.7h2.7l13.4,28.1l4.9-28.1h2.7L624.1,465.6z"/>
</g>
</svg>
