<?xml version="1.0" encoding="utf-8"?>
<!-- Generator: Adobe Illustrator 26.5.0, SVG Export Plug-In . SVG Version: 6.00 Build 0)  -->
<svg version="1.1" id="Layer_1" xmlns="http://www.w3.org/2000/svg" xmlns:xlink="http://www.w3.org/1999/xlink" x="0px" y="0px"
	 viewBox="0 0 720 720" style="enable-background:new 0 0 720 720;" xml:space="preserve">
<style type="text/css">
	.st0{opacity:0.39;enable-background:new    ;}
	.st1{fill:none;}
	.st2{enable-background:new    ;}
	.st3{fill:#FFFFFF;}
</style>
<rect class="st0" width="720" height="720"/>
<rect x="-678.2" y="3.4" class="st1" width="571.4" height="248.8"/>
<text transform="matrix(1 0 0 1 -510.5484 69.1435)" style="font-family:'Raleway-Bold'; font-size:90px;">POLY </text>
<text transform="matrix(1 0 0 1 -555.7484 177.1435)" style="font-family:'Raleway-Bold'; font-size:90px;">KROMA</text>
<text transform="matrix(1 0 0 1 -623.4484 235.1435)" style="font-family:'Roboto-LightItalic'; font-size:46px;">3D MOTION GRAPHICS</text>
<g>
	<g class="st2">
		<path class="st3" d="M128.2,450.6l-2.3,13.3h-2.7l5.7-32.7l10.6,0c3.1,0.1,5.4,1,7.1,2.7c1.7,1.7,2.4,4,2.1,6.9
			c-0.3,3.1-1.5,5.5-3.7,7.2c-2.2,1.7-5,2.6-8.5,2.6L128.2,450.6z M128.6,448.3l8,0c2.6,0,4.7-0.7,6.4-2c1.7-1.3,2.7-3.1,2.9-5.5
			c0.2-2.2-0.2-4-1.4-5.2c-1.2-1.3-2.9-2-5.1-2l-8.2,0L128.6,448.3z"/>
		<path class="st3" d="M165.1,450.3h-9.2l-2.4,13.6h-2.8l5.7-32.7l9.7,0c3.3,0,5.8,0.8,7.5,2.5c1.8,1.7,2.5,4,2.2,6.9
			c-0.2,2.2-1,4.1-2.5,5.7s-3.3,2.7-5.6,3.5l5.6,13.8l0,0.3h-2.9L165.1,450.3z M156.3,448l8.1,0c2.3,0,4.3-0.7,5.9-2
			c1.6-1.4,2.6-3.1,2.8-5.3c0.3-2.1-0.2-3.8-1.4-5.1c-1.2-1.3-2.9-1.9-5.2-2l-7.7,0L156.3,448z"/>
		<path class="st3" d="M190.7,464.4c-3.1-0.1-5.5-1.1-7.3-3.2c-1.8-2.1-2.8-4.8-2.9-8.3c-0.1-1.2,0-2.4,0.2-3.6l0.4-3.1
			c0.7-4.6,2.3-8.3,4.9-11.2c2.7-3,6-4.4,9.9-4.3c2,0,3.8,0.5,5.3,1.5c1.5,0.9,2.7,2.3,3.5,4.1c0.8,1.8,1.3,3.8,1.4,5.9
			c0,1.3,0,2.5-0.2,3.8l-0.5,3.5c-0.5,3.1-1.5,5.8-2.9,8.1s-3.1,4-5.2,5.2C195.3,463.9,193.1,464.4,190.7,464.4z M203.2,445.8
			c0.1-0.9,0.2-1.9,0.2-2.9c0-1.8-0.3-3.5-0.9-5c-0.6-1.5-1.4-2.6-2.6-3.4c-1.1-0.8-2.5-1.2-4.2-1.3c-3-0.1-5.5,1-7.7,3.2
			c-2.1,2.2-3.5,5.2-4.2,9c-0.5,3.1-0.8,5.3-0.8,6.8c0,3,0.7,5.4,2,7.1s3.2,2.6,5.6,2.7c3.2,0.1,5.8-1.1,7.9-3.5s3.4-5.5,4-9.4
			L203.2,445.8z"/>
		<path class="st3" d="M219,431.2l6.7,28.8l16.7-28.8h3.7l-5.7,32.7h-2.7l2.5-14.4l2.7-14.2l-16.6,28.5h-2.1l-6.8-28.7l-2.3,14.5
			l-2.5,14.2h-2.7l5.7-32.7H219z"/>
		<path class="st3" d="M259.9,464.4c-3.1-0.1-5.5-1.1-7.3-3.2c-1.8-2.1-2.8-4.8-2.9-8.3c-0.1-1.2,0-2.4,0.2-3.6l0.4-3.1
			c0.7-4.6,2.3-8.3,4.9-11.2c2.7-3,6-4.4,9.9-4.3c2,0,3.8,0.5,5.3,1.5c1.5,0.9,2.7,2.3,3.5,4.1c0.8,1.8,1.3,3.8,1.4,5.9
			c0,1.3,0,2.5-0.2,3.8l-0.5,3.5c-0.5,3.1-1.5,5.8-2.9,8.1s-3.1,4-5.2,5.2C264.6,463.9,262.3,464.4,259.9,464.4z M272.5,445.8
			c0.1-0.9,0.2-1.9,0.2-2.9c0-1.8-0.3-3.5-0.9-5c-0.6-1.5-1.4-2.6-2.6-3.4c-1.1-0.8-2.5-1.2-4.2-1.3c-3-0.1-5.5,1-7.7,3.2
			c-2.1,2.2-3.5,5.2-4.2,9c-0.5,3.1-0.8,5.3-0.8,6.8c0,3,0.7,5.4,2,7.1s3.2,2.6,5.6,2.7c3.2,0.1,5.8-1.1,7.9-3.5s3.4-5.5,4-9.4
			L272.5,445.8z"/>
		<path class="st3" d="M305.2,433.6h-10.8l-5.3,30.4h-2.7l5.3-30.4h-10.9l0.4-2.3h24.5L305.2,433.6z"/>
		<path class="st3" d="M308.6,463.9h-2.7l5.7-32.7h2.7L308.6,463.9z"/>
		<path class="st3" d="M328.7,464.4c-3.1-0.1-5.5-1.1-7.3-3.2c-1.8-2.1-2.8-4.8-2.9-8.3c-0.1-1.2,0-2.4,0.2-3.6l0.4-3.1
			c0.7-4.6,2.3-8.3,4.9-11.2c2.7-3,6-4.4,9.9-4.3c2,0,3.8,0.5,5.3,1.5c1.5,0.9,2.7,2.3,3.5,4.1c0.8,1.8,1.3,3.8,1.4,5.9
			c0,1.3,0,2.5-0.2,3.8l-0.5,3.5c-0.5,3.1-1.5,5.8-2.9,8.1s-3.1,4-5.2,5.2C333.3,463.9,331.1,464.4,328.7,464.4z M341.2,445.8
			c0.1-0.9,0.2-1.9,0.2-2.9c0-1.8-0.3-3.5-0.9-5c-0.6-1.5-1.4-2.6-2.6-3.4c-1.1-0.8-2.5-1.2-4.2-1.3c-3-0.1-5.5,1-7.7,3.2
			c-2.1,2.2-3.5,5.2-4.2,9c-0.5,3.1-0.8,5.3-0.8,6.8c0,3,0.7,5.4,2,7.1s3.2,2.6,5.6,2.7c3.2,0.1,5.8-1.1,7.9-3.5s3.4-5.5,4-9.4
			L341.2,445.8z"/>
		<path class="st3" d="M371.5,463.9h-2.7l-13.4-28l-4.9,28h-2.8l5.7-32.7h2.7l13.4,28.1l4.9-28.1h2.7L371.5,463.9z"/>
		<path class="st3" d="M398.9,454.7h-14.3l-4.9,9.2h-3l17.7-32.7h2.6l6.3,32.7h-2.7L398.9,454.7z M385.8,452.4h12.6l-3.2-17.7
			L385.8,452.4z"/>
		<path class="st3" d="M411.3,461.6H427l-0.4,2.3h-18.4l5.7-32.7h2.8L411.3,461.6z"/>
		<path class="st3" d="M452.2,431.2l6.7,28.8l16.7-28.8h3.7l-5.7,32.7h-2.7l2.5-14.4l2.7-14.2l-16.6,28.5h-2.1l-6.8-28.7l-2.3,14.5
			l-2.5,14.2H443l5.7-32.7H452.2z"/>
		<path class="st3" d="M501,454.7h-14.3l-4.9,9.2h-3l17.7-32.7h2.6l6.3,32.7h-2.7L501,454.7z M487.9,452.4h12.6l-3.2-17.7
			L487.9,452.4z"/>
		<path class="st3" d="M513.6,463.9h-2.7l5.7-32.7h2.7L513.6,463.9z"/>
		<path class="st3" d="M525.6,461.6h15.7l-0.4,2.3h-18.4l5.7-32.7h2.8L525.6,461.6z"/>
		<path class="st3" d="M566.5,448.2h-14.8l-2.3,13.3h17.1l-0.4,2.3h-19.8l5.7-32.7h19.7l-0.4,2.3h-16.9l-2.2,12.4h14.8L566.5,448.2z
			"/>
		<path class="st3" d="M586.1,450.3h-9.2l-2.4,13.6h-2.8l5.7-32.7l9.7,0c3.3,0,5.8,0.8,7.5,2.5c1.8,1.7,2.5,4,2.2,6.9
			c-0.2,2.2-1,4.1-2.5,5.7c-1.4,1.6-3.3,2.7-5.6,3.5l5.6,13.8l0,0.3h-2.9L586.1,450.3z M577.3,448l8.1,0c2.3,0,4.3-0.7,5.9-2
			c1.6-1.4,2.6-3.1,2.8-5.3c0.3-2.1-0.2-3.8-1.4-5.1s-2.9-1.9-5.2-2l-7.7,0L577.3,448z"/>
	</g>
	<g>
		<g class="st2">
			<path class="st3" d="M101.2,287.5c0-3.9,0.7-7.7,2.1-11.5c1.4-3.7,3.5-7.2,6.2-10.3c2.7-3.1,6-5.5,9.9-7.4
				c3.9-1.8,8.3-2.7,13.3-2.7c5.9,0,11,1.3,15.3,3.9c4.3,2.6,7.5,5.9,9.6,10.1l-9.5,6.6c-1.1-2.4-2.5-4.3-4.2-5.7
				c-1.7-1.4-3.6-2.4-5.6-3s-3.9-0.9-5.8-0.9c-3.1,0-5.8,0.6-8.1,1.9c-2.3,1.3-4.2,2.9-5.8,5c-1.6,2-2.7,4.3-3.5,6.8
				c-0.8,2.5-1.1,5-1.1,7.6c0,2.8,0.4,5.5,1.4,8.1c0.9,2.6,2.2,4.9,3.8,6.9c1.6,2,3.6,3.6,5.9,4.8c2.3,1.2,4.8,1.8,7.6,1.8
				c2,0,4-0.3,6-1c2-0.7,3.9-1.7,5.7-3.2c1.7-1.4,3.1-3.3,4-5.6l10.2,5.8c-1.3,3.2-3.3,5.9-6.2,8.1c-2.9,2.2-6,3.9-9.6,5
				c-3.5,1.1-7.1,1.7-10.5,1.7c-4.6,0-8.7-0.9-12.5-2.8c-3.8-1.9-7-4.4-9.8-7.6c-2.7-3.1-4.9-6.7-6.4-10.6
				C101.9,295.5,101.2,291.5,101.2,287.5z"/>
			<path class="st3" d="M193.2,320.4c-4.7,0-8.9-0.9-12.7-2.7c-3.8-1.8-7.1-4.2-9.8-7.3c-2.7-3.1-4.8-6.6-6.3-10.4
				c-1.5-3.9-2.2-7.8-2.2-11.9c0-4.3,0.8-8.3,2.4-12.2c1.6-3.9,3.8-7.3,6.6-10.4c2.8-3,6.1-5.4,9.9-7.2c3.8-1.8,8-2.7,12.6-2.7
				c4.6,0,8.8,0.9,12.6,2.8c3.8,1.9,7.1,4.4,9.8,7.5c2.7,3.1,4.8,6.6,6.3,10.4c1.5,3.8,2.2,7.8,2.2,11.9c0,4.2-0.8,8.2-2.3,12.1
				c-1.6,3.9-3.7,7.3-6.5,10.3c-2.8,3-6.1,5.4-9.9,7.2C201.9,319.6,197.7,320.4,193.2,320.4z M174.7,288c0,2.8,0.4,5.4,1.3,8
				c0.8,2.6,2.1,4.9,3.6,6.9c1.6,2,3.5,3.6,5.9,4.8c2.3,1.2,4.9,1.8,7.9,1.8c3,0,5.7-0.6,8-1.8c2.3-1.2,4.3-2.9,5.9-5
				c1.6-2.1,2.7-4.4,3.6-6.9c0.8-2.5,1.2-5.1,1.2-7.7c0-2.8-0.4-5.4-1.3-8c-0.9-2.5-2.1-4.8-3.7-6.8c-1.6-2-3.5-3.6-5.8-4.8
				c-2.3-1.2-4.9-1.8-7.8-1.8c-3.1,0-5.7,0.6-8.1,1.8c-2.3,1.2-4.2,2.9-5.8,4.9c-1.6,2-2.7,4.3-3.6,6.8
				C175.1,282.8,174.7,285.4,174.7,288z"/>
			<path class="st3" d="M238.1,256.1l17.3,49.1l17.1-49.1h13.1L261.4,320h-12l-24.3-63.9H238.1z"/>
			<path class="st3" d="M292.4,320v-63.9h12.4V320H292.4z"/>
			<path class="st3" d="M318.2,320v-63.9h23.2c7,0,12.8,1.4,17.5,4.3c4.7,2.9,8.2,6.7,10.5,11.5c2.3,4.8,3.5,10.2,3.5,16.1
				c0,6.5-1.3,12.1-3.9,16.9c-2.6,4.8-6.2,8.5-10.9,11.2c-4.7,2.6-10.3,4-16.7,4H318.2z M360.4,287.9c0-4.1-0.8-7.8-2.2-10.9
				c-1.5-3.2-3.7-5.6-6.5-7.4c-2.8-1.8-6.2-2.7-10.3-2.7h-10.8v42.1h10.8c4.1,0,7.5-0.9,10.4-2.7c2.8-1.8,5-4.3,6.4-7.6
				C359.6,295.6,360.4,292,360.4,287.9z"/>
			<path class="st3" d="M449.4,267h-20.4v53h-12.3v-53h-20.4v-10.9h53.2V267z"/>
			<path class="st3" d="M468.7,256.1h12.6l23.5,63.9H492l-5.3-15.9h-23.5l-5.3,15.9h-12.8L468.7,256.1z M483.8,295.3l-8.8-26.4
				l-8.8,26.4H483.8z"/>
			<path class="st3" d="M511.8,320v-63.9h12.4v53h32.6V320H511.8z"/>
			<path class="st3" d="M564.4,320v-63.9h12.4v30.4l26.8-30.5h13.7l-24.5,28.4l26,35.6h-14l-19.9-27.6l-8.1,8.5V320H564.4z"/>
		</g>
		<g>
			<path class="st3" d="M189.8,406.4v-63.9h27.1c2.9,0,5.6,0.6,8.1,1.8c2.5,1.2,4.6,2.8,6.4,4.9c1.8,2,3.3,4.3,4.3,6.8
				c1,2.5,1.5,5.1,1.5,7.7c0,3.6-0.8,7-2.5,10.3c-1.7,3.2-4,5.9-6.9,7.9c-2.9,2-6.4,3.1-10.4,3.1h-15.1v21.4H189.8z M202.2,374.1
				h14.4c1.5,0,2.8-0.4,4-1.3c1.2-0.8,2.2-2.1,2.9-3.6c0.7-1.6,1.1-3.4,1.1-5.4c0-2.2-0.4-4.1-1.2-5.7c-0.8-1.6-1.9-2.7-3.1-3.5
				c-1.3-0.8-2.7-1.2-4.2-1.2h-13.9V374.1z"/>
			<path class="st3" d="M273.1,406.8c-4.7,0-8.9-0.9-12.7-2.7c-3.8-1.8-7.1-4.2-9.8-7.3c-2.7-3.1-4.8-6.6-6.3-10.4
				c-1.5-3.9-2.2-7.8-2.2-11.9c0-4.3,0.8-8.3,2.4-12.2c1.6-3.9,3.8-7.3,6.6-10.4c2.8-3,6.1-5.4,9.9-7.2c3.8-1.8,8-2.7,12.6-2.7
				c4.6,0,8.8,0.9,12.6,2.8c3.8,1.9,7.1,4.4,9.8,7.5c2.7,3.1,4.8,6.6,6.3,10.4c1.5,3.8,2.2,7.8,2.2,11.9c0,4.2-0.8,8.2-2.3,12.1
				c-1.6,3.9-3.7,7.3-6.5,10.3c-2.8,3-6.1,5.4-9.9,7.2C281.8,405.9,277.6,406.8,273.1,406.8z M254.6,374.4c0,2.8,0.4,5.4,1.3,8
				c0.8,2.6,2.1,4.9,3.6,6.9c1.6,2,3.5,3.6,5.9,4.8c2.3,1.2,4.9,1.8,7.9,1.8c3,0,5.7-0.6,8-1.8c2.3-1.2,4.3-2.9,5.9-5
				c1.6-2.1,2.7-4.4,3.6-6.9c0.8-2.5,1.2-5.1,1.2-7.7c0-2.8-0.4-5.4-1.3-8c-0.9-2.5-2.1-4.8-3.7-6.8c-1.6-2-3.5-3.6-5.8-4.8
				c-2.3-1.2-4.9-1.8-7.8-1.8c-3.1,0-5.7,0.6-8.1,1.8c-2.3,1.2-4.2,2.9-5.8,4.9c-1.6,2-2.7,4.3-3.6,6.8
				C255,369.2,254.6,371.8,254.6,374.4z"/>
			<path class="st3" d="M351.7,359.2c-0.4-0.4-1.2-1-2.3-1.7c-1.1-0.7-2.5-1.4-4.1-2.1c-1.6-0.7-3.3-1.2-5.2-1.8
				c-1.9-0.5-3.8-0.8-5.7-0.8c-3.4,0-5.9,0.6-7.6,1.9c-1.7,1.3-2.6,3-2.6,5.3c0,1.7,0.5,3.1,1.6,4.1c1.1,1,2.7,1.9,4.9,2.6
				c2.2,0.7,4.9,1.5,8.1,2.3c4.2,1,7.8,2.3,10.9,3.7c3.1,1.5,5.5,3.4,7.1,5.7c1.6,2.4,2.5,5.5,2.5,9.4c0,3.4-0.6,6.3-1.9,8.7
				c-1.3,2.4-3,4.4-5.2,5.9c-2.2,1.5-4.7,2.6-7.6,3.3c-2.8,0.7-5.8,1-9,1c-3.2,0-6.4-0.3-9.5-1c-3.2-0.7-6.2-1.6-9.2-2.8
				c-2.9-1.2-5.6-2.7-8.1-4.5l5.5-10.7c0.5,0.5,1.5,1.2,2.9,2.1c1.4,0.9,3.1,1.7,5,2.6c2,0.9,4.1,1.6,6.5,2.2
				c2.3,0.6,4.7,0.9,7.1,0.9c3.4,0,5.9-0.6,7.6-1.7c1.7-1.1,2.6-2.7,2.6-4.8c0-1.9-0.7-3.4-2.1-4.5c-1.4-1.1-3.3-2-5.8-2.8
				c-2.5-0.8-5.4-1.7-8.7-2.6c-4-1.1-7.4-2.4-10.1-3.8c-2.7-1.4-4.7-3.2-6-5.3c-1.3-2.2-2-4.8-2-8.1c0-4.4,1-8,3.1-11
				c2.1-3,4.9-5.2,8.4-6.7c3.5-1.5,7.5-2.3,11.8-2.3c3,0,5.8,0.3,8.5,1c2.7,0.7,5.2,1.5,7.5,2.6s4.4,2.2,6.3,3.5L351.7,359.2z"/>
			<path class="st3" d="M416.6,353.4h-20.4v53h-12.3v-53h-20.4v-10.9h53.2V353.4z"/>
			<path class="st3" d="M468.9,395.5v10.9h-44.4v-63.9H468v10.9h-31.1v15.4h26.9v10.1h-26.9v16.7H468.9z"/>
			<path class="st3" d="M478.6,406.4v-63.9h28.3c2.9,0,5.7,0.6,8.1,1.8c2.5,1.2,4.6,2.8,6.5,4.9c1.8,2,3.2,4.3,4.2,6.8
				c1,2.5,1.5,5.1,1.5,7.7c0,2.7-0.5,5.3-1.4,7.8c-0.9,2.5-2.3,4.7-4,6.5c-1.7,1.9-3.8,3.3-6.1,4.3l14.6,24h-13.7l-13.1-21.4H491
				v21.4H478.6z M491,374.1h15.6c1.6,0,2.9-0.5,4.1-1.4c1.2-0.9,2.2-2.2,2.9-3.7c0.7-1.6,1.1-3.3,1.1-5.2c0-2-0.4-3.8-1.3-5.4
				c-0.8-1.5-1.9-2.7-3.2-3.6c-1.3-0.9-2.7-1.3-4.2-1.3h-15V374.1z"/>
		</g>
	</g>
</g>
</svg>
