<?xml version="1.0" encoding="utf-8"?>
<!-- Generator: Adobe Illustrator 26.3.1, SVG Export Plug-In . SVG Version: 6.00 Build 0)  -->
<svg version="1.1" id="Layer_1" xmlns="http://www.w3.org/2000/svg" xmlns:xlink="http://www.w3.org/1999/xlink" x="0px" y="0px"
	 viewBox="0 0 720 720" style="enable-background:new 0 0 720 720;" xml:space="preserve">
<style type="text/css">
	.st0{opacity:0.39;enable-background:new    ;}
	.st1{fill:none;}
	.st2{enable-background:new    ;}
	.st3{fill:#FFFFFF;}
</style>
<rect class="st0" width="720" height="720"/>
<rect x="-739.1" y="300" class="st1" width="720" height="407"/>
<text transform="matrix(1 0 0 1 -661.8281 365.6877)" style="font-family:'Raleway-Bold'; font-size:90px;">JUNE &amp; JULY</text>
<text transform="matrix(1 0 0 1 -659.3281 420.8877)" style="font-family:'Roboto-LightItalic'; font-size:46px;">CALENDER ILLUSTRATIONS</text>
<g>
	<g>
		<text transform="matrix(1 0 0 1 -649.8616 69.1436)" style="font-family:'Raleway-Bold'; font-size:90px;">DEMOCRAT </text>
		<text transform="matrix(1 0 0 1 -654.4616 152.1435)" style="font-family:'Raleway-Bold'; font-size:90px;">ANIMATION</text>
	</g>
	<text transform="matrix(1 0 0 1 -679.4562 210.1435)" style="font-family:'Roboto-LightItalic'; font-size:46px;">3D CHARACTER ANIMATION</text>
</g>
<g>
	<g class="st2">
		<path class="st3" d="M111,318.2v-63.9h23.2c7,0,12.8,1.4,17.5,4.3c4.7,2.9,8.2,6.7,10.5,11.5s3.5,10.2,3.5,16.1
			c0,6.5-1.3,12.1-3.9,16.9c-2.6,4.8-6.2,8.5-10.9,11.2c-4.7,2.6-10.3,4-16.7,4H111V318.2z M153.2,286.2c0-4.1-0.8-7.8-2.2-10.9
			c-1.5-3.2-3.7-5.6-6.5-7.4s-6.2-2.7-10.3-2.7h-10.8v42.1h10.8c4.1,0,7.5-0.9,10.4-2.7c2.8-1.8,5-4.3,6.4-7.6
			C152.5,293.8,153.2,290.2,153.2,286.2z"/>
		<path class="st3" d="M219.8,307.4v10.9h-44.4v-63.9H219v10.9h-31.1v15.4h26.9v10.1h-26.9v16.7h31.9V307.4z"/>
		<path class="st3" d="M281.6,318.2v-41.9l-16.4,31.2h-6.9L242,276.3v41.9h-12.4v-63.9h13.3l18.9,36.4l19.1-36.4h13.2v63.9H281.6z"
			/>
		<path class="st3" d="M334.7,318.7c-4.7,0-8.9-0.9-12.7-2.7s-7.1-4.2-9.8-7.3c-2.7-3.1-4.8-6.6-6.3-10.4c-1.5-3.9-2.2-7.8-2.2-11.9
			c0-4.3,0.8-8.3,2.4-12.2c1.6-3.9,3.8-7.3,6.6-10.4c2.8-3,6.1-5.4,9.9-7.2c3.8-1.8,8-2.7,12.6-2.7s8.8,0.9,12.6,2.8
			c3.8,1.9,7.1,4.4,9.8,7.5c2.7,3.1,4.8,6.6,6.3,10.4s2.2,7.8,2.2,11.9c0,4.2-0.8,8.2-2.3,12.1s-3.7,7.3-6.5,10.3s-6.1,5.4-9.9,7.2
			C343.3,317.8,339.2,318.7,334.7,318.7z M316.1,286.3c0,2.8,0.4,5.4,1.3,8c0.8,2.6,2.1,4.9,3.6,6.9c1.6,2,3.5,3.6,5.9,4.8
			c2.3,1.2,4.9,1.8,7.9,1.8s5.7-0.6,8-1.8c2.3-1.2,4.3-2.9,5.8-5c1.6-2.1,2.7-4.4,3.6-6.9c0.8-2.5,1.2-5.1,1.2-7.7
			c0-2.8-0.4-5.4-1.3-8c-0.9-2.5-2.1-4.8-3.7-6.8s-3.5-3.6-5.8-4.8c-2.3-1.2-4.9-1.8-7.8-1.8c-3.1,0-5.7,0.6-8.1,1.8
			c-2.3,1.2-4.2,2.9-5.8,4.9c-1.6,2-2.7,4.3-3.6,6.8C316.5,281.1,316.1,283.7,316.1,286.3z"/>
		<path class="st3" d="M371.6,285.8c0-3.9,0.7-7.7,2.1-11.5c1.4-3.7,3.5-7.2,6.2-10.3c2.7-3.1,6-5.5,9.9-7.4
			c3.9-1.8,8.3-2.7,13.3-2.7c5.9,0,11,1.3,15.3,3.9c4.3,2.6,7.5,5.9,9.6,10.1l-9.5,6.6c-1.1-2.4-2.5-4.3-4.2-5.7
			c-1.7-1.4-3.6-2.4-5.6-3s-3.9-0.9-5.8-0.9c-3.1,0-5.8,0.6-8.1,1.9c-2.3,1.3-4.2,2.9-5.8,5c-1.6,2-2.7,4.3-3.5,6.8s-1.1,5-1.1,7.6
			c0,2.8,0.5,5.5,1.4,8.1s2.2,4.9,3.8,6.9c1.6,2,3.6,3.6,5.9,4.8c2.3,1.2,4.8,1.8,7.6,1.8c2,0,4-0.3,6-1s3.9-1.7,5.7-3.2
			c1.7-1.4,3.1-3.3,4-5.6l10.2,5.8c-1.3,3.2-3.3,5.9-6.2,8.1c-2.9,2.2-6,3.9-9.6,5c-3.5,1.1-7.1,1.7-10.5,1.7
			c-4.6,0-8.7-0.9-12.5-2.8s-7-4.4-9.8-7.6c-2.7-3.1-4.9-6.7-6.4-10.6C372.3,293.8,371.6,289.8,371.6,285.8z"/>
		<path class="st3" d="M437.2,318.2v-63.9h28.3c2.9,0,5.7,0.6,8.1,1.8c2.5,1.2,4.6,2.8,6.5,4.9c1.8,2,3.2,4.3,4.2,6.8
			s1.5,5.1,1.5,7.7c0,2.7-0.5,5.3-1.4,7.8s-2.3,4.7-4,6.5c-1.7,1.9-3.8,3.3-6.1,4.3l14.6,24h-13.7L462,296.8h-12.4v21.4H437.2z
			 M449.6,285.9h15.6c1.6,0,2.9-0.5,4.1-1.4s2.2-2.2,2.9-3.7c0.7-1.6,1.1-3.3,1.1-5.2c0-2-0.4-3.8-1.3-5.4c-0.8-1.5-1.9-2.7-3.2-3.6
			c-1.3-0.9-2.7-1.3-4.2-1.3h-15V285.9z"/>
		<path class="st3" d="M514.4,254.3H527l23.5,63.9h-12.8l-5.3-15.9h-23.5l-5.3,15.9h-12.8L514.4,254.3z M529.5,293.6l-8.8-26.4
			l-8.8,26.4H529.5z"/>
		<path class="st3" d="M599.3,265.2h-20.4v53h-12.3v-53h-20.4v-10.9h53.2L599.3,265.2L599.3,265.2z"/>
	</g>
	<g class="st2">
		<path class="st3" d="M123.8,343.7h12.6l23.5,63.9h-12.8l-5.3-15.9h-23.5l-5.3,15.9h-12.8L123.8,343.7z M138.9,383l-8.8-26.4
			l-8.8,26.4H138.9z"/>
		<path class="st3" d="M179.3,366.6v41h-12.4v-63.9h9.9l33,42.1v-42h12.4v63.8h-10.3L179.3,366.6z"/>
		<path class="st3" d="M235.6,407.6v-63.9H248v63.9H235.6z"/>
		<path class="st3" d="M313.4,407.6v-41.9L297,396.9h-6.9l-16.4-31.2v41.9h-12.4v-63.9h13.3l18.9,36.4l19.1-36.4h13.2v63.9H313.4z"
			/>
		<path class="st3" d="M356.5,343.7h12.6l23.5,63.9h-12.8l-5.3-15.9H351l-5.3,15.9h-12.8L356.5,343.7z M371.6,383l-8.8-26.4L354,383
			H371.6z"/>
		<path class="st3" d="M441.5,354.6H421v53h-12.3v-53h-20.4v-10.9h53.2L441.5,354.6L441.5,354.6z"/>
		<path class="st3" d="M449.4,407.6v-63.9h12.4v63.9H449.4z"/>
		<path class="st3" d="M502.4,408.1c-4.7,0-8.9-0.9-12.7-2.7c-3.8-1.8-7.1-4.2-9.8-7.3c-2.7-3.1-4.8-6.6-6.3-10.4
			c-1.5-3.9-2.2-7.8-2.2-11.9c0-4.3,0.8-8.3,2.4-12.2c1.6-3.9,3.8-7.3,6.6-10.4c2.8-3,6.1-5.4,9.9-7.2c3.8-1.8,8-2.7,12.6-2.7
			s8.8,0.9,12.6,2.8s7.1,4.4,9.8,7.5s4.8,6.6,6.3,10.4s2.2,7.8,2.2,11.9c0,4.2-0.8,8.2-2.3,12.1c-1.6,3.9-3.7,7.3-6.5,10.3
			s-6.1,5.4-9.9,7.2C511.1,407.2,506.9,408.1,502.4,408.1z M483.9,375.7c0,2.8,0.4,5.4,1.3,8c0.8,2.6,2.1,4.9,3.6,6.9
			c1.6,2,3.5,3.6,5.9,4.8c2.3,1.2,4.9,1.8,7.9,1.8s5.7-0.6,8-1.8c2.3-1.2,4.3-2.9,5.8-5c1.6-2.1,2.7-4.4,3.6-6.9
			c0.8-2.5,1.2-5.1,1.2-7.7c0-2.8-0.4-5.4-1.3-8c-0.9-2.5-2.1-4.8-3.7-6.8c-1.6-2-3.5-3.6-5.8-4.8c-2.3-1.2-4.9-1.8-7.8-1.8
			c-3.1,0-5.7,0.6-8.1,1.8c-2.3,1.2-4.2,2.9-5.8,4.9c-1.6,2-2.7,4.3-3.6,6.8C484.3,370.5,483.9,373.1,483.9,375.7z"/>
		<path class="st3" d="M555.6,366.6v41h-12.4v-63.9h9.9l33,42.1v-42h12.4v63.8h-10.3L555.6,366.6z"/>
	</g>
	<g class="st2">
		<path class="st3" d="M84.3,447.8h2.6c2.3,0,4.2-0.6,5.8-1.8c1.6-1.2,2.5-2.8,2.7-4.8s-0.2-3.5-1.2-4.7s-2.5-1.8-4.4-1.8
			c-2.1,0-3.8,0.6-5.2,1.8c-1.4,1.2-2.3,2.9-2.7,4.9h-2.6c0.3-2.7,1.5-4.9,3.5-6.6s4.4-2.5,7.2-2.5c2.7,0.1,4.8,0.9,6.3,2.6
			s2.1,3.8,1.9,6.4c-0.1,1.6-0.8,3.1-1.9,4.4s-2.7,2.4-4.7,3.2c1.6,0.6,2.9,1.5,3.7,2.9s1.2,2.9,1,4.7c-0.2,2.9-1.4,5.2-3.4,6.9
			s-4.6,2.6-7.5,2.6c-2.8-0.1-5-1-6.7-2.7s-2.4-3.9-2.2-6.6H79c-0.2,2,0.3,3.7,1.5,5s2.8,2,4.9,2.1c2.2,0.1,4.1-0.6,5.6-1.9
			s2.4-3.1,2.6-5.3c0.2-1.9-0.3-3.4-1.3-4.6s-2.7-1.8-4.9-1.9h-0.5h-2.8L84.3,447.8z"/>
		<path class="st3" d="M101.3,465.6l5.7-32.7h8.5c2.5,0,4.7,0.6,6.6,1.9s3.2,3.1,4,5.4s1.1,4.8,0.7,7.5l-0.4,2.7
			c-0.7,4.5-2.5,8.2-5.4,11s-6.5,4.2-10.8,4.2H101.3z M109.4,435.3l-4.9,28h5.8c2.3,0,4.4-0.5,6.3-1.6s3.4-2.5,4.7-4.4
			c1.2-1.9,2-4.1,2.4-6.5s0.6-4.1,0.6-5s0-1.8-0.1-2.7c-0.3-2.4-1.3-4.3-2.7-5.7s-3.4-2.1-5.8-2.2L109.4,435.3z"/>
		<path class="st3" d="M166.1,455.4c-0.8,3.4-2.3,6-4.6,7.9s-5.2,2.8-8.6,2.7c-2.9-0.1-5.2-1.1-7-3.1c-1.7-2-2.7-4.7-2.8-8.1
			c0-1.2,0-2.3,0.2-3.5l0.6-4c0.5-3,1.4-5.7,2.8-8c1.4-2.3,3.1-4.1,5.1-5.2s4.2-1.7,6.6-1.7c3.1,0.1,5.5,1,7.3,3s2.6,4.5,2.6,7.7
			h-2.7c0-2.6-0.6-4.7-1.9-6.1c-1.3-1.4-3.1-2.2-5.4-2.3c-3-0.1-5.5,1-7.6,3.3s-3.4,5.4-4.1,9.5l-0.7,4.5l-0.1,2
			c0,1.8,0.2,3.4,0.8,4.9c0.5,1.5,1.4,2.7,2.5,3.5s2.4,1.2,3.9,1.3c2.6,0.1,4.8-0.6,6.5-2c1.8-1.4,3-3.5,3.9-6.3L166.1,455.4z"/>
		<path class="st3" d="M194.6,465.6h-2.8l2.7-15.7h-18.1l-2.7,15.7H171l5.7-32.7h2.7l-2.6,14.7H195l2.6-14.7h2.8L194.6,465.6z"/>
		<path class="st3" d="M222.1,456.5h-14.3l-4.9,9.2h-3l17.7-32.7h2.6l6.3,32.7h-2.7L222.1,456.5z M209,454.1h12.6l-3.2-17.7
			L209,454.1z"/>
		<path class="st3" d="M245.7,452h-9.2l-2.4,13.6h-2.8l5.7-32.7h9.7c3.3,0,5.8,0.8,7.5,2.5c1.8,1.7,2.5,4,2.2,6.9
			c-0.2,2.2-1,4.1-2.5,5.7s-3.3,2.7-5.6,3.5l5.6,13.8v0.3H251L245.7,452z M236.9,449.7h8.1c2.3,0,4.3-0.7,5.9-2
			c1.6-1.4,2.6-3.1,2.8-5.3c0.3-2.1-0.2-3.8-1.4-5.1s-2.9-1.9-5.2-2h-7.7L236.9,449.7z"/>
		<path class="st3" d="M278.7,456.5h-14.3l-4.9,9.2h-3l17.7-32.7h2.6l6.3,32.7h-2.7L278.7,456.5z M265.6,454.1h12.6l-3.2-17.7
			L265.6,454.1z"/>
		<path class="st3" d="M312,455.4c-0.8,3.4-2.3,6-4.6,7.9c-2.3,1.9-5.2,2.8-8.6,2.7c-2.9-0.1-5.2-1.1-7-3.1c-1.7-2-2.7-4.7-2.8-8.1
			c0-1.2,0-2.3,0.2-3.5l0.6-4c0.5-3,1.4-5.7,2.8-8s3.1-4.1,5.1-5.2s4.2-1.7,6.6-1.7c3.1,0.1,5.5,1,7.3,3s2.6,4.5,2.6,7.7h-2.7
			c0-2.6-0.6-4.7-1.9-6.1s-3.1-2.2-5.4-2.3c-3-0.1-5.5,1-7.6,3.3s-3.4,5.4-4.1,9.5l-0.7,4.5l-0.1,2c0,1.8,0.2,3.4,0.8,4.9
			c0.5,1.5,1.4,2.7,2.5,3.5s2.4,1.2,3.9,1.3c2.6,0.1,4.8-0.6,6.5-2c1.8-1.4,3-3.5,3.9-6.3L312,455.4z"/>
		<path class="st3" d="M343.2,435.3h-10.8l-5.3,30.4h-2.7l5.3-30.4h-10.9l0.4-2.3h24.5L343.2,435.3z"/>
		<path class="st3" d="M363.5,450h-14.8l-2.3,13.3h17.1l-0.4,2.3h-19.8l5.7-32.7h19.7l-0.4,2.3h-16.9l-2.2,12.4H364L363.5,450z"/>
		<path class="st3" d="M383.1,452h-9.2l-2.4,13.6h-2.8l5.7-32.7h9.7c3.3,0,5.8,0.8,7.5,2.5c1.8,1.7,2.5,4,2.2,6.9
			c-0.2,2.2-1,4.1-2.5,5.7s-3.3,2.7-5.6,3.5l5.6,13.8v0.3h-2.9L383.1,452z M374.3,449.7h8.1c2.3,0,4.3-0.7,5.9-2
			c1.6-1.4,2.6-3.1,2.8-5.3c0.3-2.1-0.2-3.8-1.4-5.1s-2.9-1.9-5.2-2h-7.7L374.3,449.7z"/>
		<path class="st3" d="M427.2,456.5h-14.3l-4.9,9.2h-3l17.7-32.7h2.6l6.3,32.7h-2.7L427.2,456.5z M414.1,454.1h12.6l-3.2-17.7
			L414.1,454.1z"/>
		<path class="st3" d="M460.2,465.6h-2.7l-13.4-28l-4.9,28h-2.8l5.7-32.7h2.7l13.4,28.1l4.9-28.1h2.7L460.2,465.6z"/>
		<path class="st3" d="M471.7,465.6H469l5.7-32.7h2.7L471.7,465.6z"/>
		<path class="st3" d="M489.7,432.9l6.7,28.8l16.7-28.8h3.7l-5.7,32.7h-2.7l2.5-14.4l2.7-14.2L497,465.5h-2.1l-6.8-28.7l-2.3,14.5
			l-2.5,14.2h-2.7l5.7-32.7h3.4V432.9z"/>
		<path class="st3" d="M538.5,456.5h-14.3l-4.9,9.2h-3L534,433h2.6l6.3,32.7h-2.7L538.5,456.5z M525.4,454.1H538l-3.2-17.7
			L525.4,454.1z"/>
		<path class="st3" d="M571.8,435.3H561l-5.3,30.4H553l5.3-30.4h-10.9l0.4-2.3h24.5L571.8,435.3z"/>
		<path class="st3" d="M575.1,465.6h-2.7l5.7-32.7h2.7L575.1,465.6z"/>
		<path class="st3" d="M595.2,466.1c-3.1-0.1-5.5-1.1-7.3-3.2s-2.8-4.8-2.9-8.3c-0.1-1.2,0-2.4,0.2-3.6l0.4-3.1
			c0.7-4.6,2.3-8.3,4.9-11.2c2.7-3,6-4.4,9.9-4.3c2,0,3.8,0.5,5.3,1.5c1.5,0.9,2.7,2.3,3.5,4.1c0.8,1.8,1.3,3.8,1.4,5.9
			c0,1.3,0,2.5-0.2,3.8l-0.4,3.5c-0.5,3.1-1.5,5.8-2.9,8.1s-3.1,4-5.2,5.2C599.9,465.6,597.7,466.1,595.2,466.1z M607.8,447.5
			c0.1-0.9,0.2-1.9,0.2-2.9c0-1.8-0.3-3.5-0.9-5s-1.4-2.6-2.6-3.4c-1.1-0.8-2.5-1.2-4.2-1.3c-3-0.1-5.5,1-7.7,3.2
			c-2.1,2.2-3.5,5.2-4.2,9c-0.5,3.1-0.8,5.3-0.8,6.8c0,3,0.7,5.4,2,7.1s3.2,2.6,5.6,2.7c3.2,0.1,5.8-1.1,7.9-3.5s3.4-5.5,4-9.4
			L607.8,447.5z"/>
		<path class="st3" d="M638,465.6h-2.7l-13.4-28l-4.9,28h-2.8l5.7-32.7h2.7L636,461l4.9-28.1h2.7L638,465.6z"/>
	</g>
</g>
</svg>
