<?xml version="1.0" encoding="UTF-8"?>
<svg id="Layer_1" xmlns="http://www.w3.org/2000/svg" version="1.1" viewBox="0 0 720 720">
  <!-- Generator: Adobe Illustrator 29.5.1, SVG Export Plug-In . SVG Version: 2.1.0 Build 141)  -->
  <defs>
    <style>
      .st0, .st1, .st2, .st3, .st4 {
        isolation: isolate;
      }

      .st0, .st4 {
        font-family: Raleway-Bold, Raleway;
        font-size: 90px;
        font-weight: 700;
      }

      .st5 {
        fill: #fff;
      }

      .st6 {
        fill: none;
      }

      .st2 {
        font-family: Roboto-LightItalic, Roboto;
        font-size: 46px;
        font-style: italic;
        font-weight: 300;
      }

      .st3 {
        opacity: .4;
      }

      .st4 {
        letter-spacing: 0em;
      }
    </style>
  </defs>
  <rect class="st3" width="720" height="720"/>
  <rect class="st6" x="-739.1" y="300" width="720" height="407"/>
  <text class="st0" transform="translate(-661.8 365.7)"><tspan x="0" y="0">JUNE &amp; JULY</tspan></text>
  <text class="st2" transform="translate(-659.3 420.9)"><tspan x="0" y="0">CALENDER ILLUSTRATIONS</tspan></text>
  <g class="st1">
    <path class="st5" d="M170.7,452.3h-9.3l.4-2.4h8.9c1.6,0,3-.3,4.3-.8,1.3-.5,2.4-1.4,3.3-2.4.9-1.1,1.5-2.4,1.7-4.1.2-1.5.1-2.8-.4-3.9s-1.3-1.9-2.3-2.5c-1.1-.6-2.3-.9-3.8-.9h-8.3l-5.3,30.3h-2.7l5.7-32.7h10.6c1.9,0,3.6.4,5.1,1.2,1.5.8,2.6,1.8,3.3,3.3.7,1.4,1,3.2.7,5.2-.3,2.2-1,4-2.1,5.4s-2.6,2.5-4.3,3.2c-1.7.7-3.6,1.1-5.7,1.1Z"/>
    <path class="st5" d="M197.5,435l-16.2,30.6h-2.9l17.6-32.7h2l-.5,2.1ZM202.2,454.1l-.4,2.4h-16.9l.4-2.4h16.9ZM202.2,465.6l-5.7-30.9.2-1.8h1.9l6.4,32.7h-2.7Z"/>
    <path class="st5" d="M230.8,455.5h2.7c-.5,2.1-1.4,4-2.6,5.6-1.2,1.6-2.7,2.9-4.5,3.7-1.8.9-3.8,1.3-6.1,1.3-2,0-3.7-.5-5.1-1.4-1.4-.9-2.4-2-3.1-3.5s-1.2-3-1.4-4.8c-.2-1.7-.2-3.5,0-5.2l.7-4.1c.3-1.9.8-3.7,1.6-5.5s1.8-3.4,3-4.8,2.6-2.5,4.3-3.3,3.5-1.2,5.6-1.2c2.2,0,4,.5,5.5,1.4,1.5.9,2.6,2.2,3.3,3.8.7,1.6,1.1,3.4,1.1,5.6h-2.7c0-1.6-.2-3.1-.7-4.3s-1.3-2.2-2.4-2.9-2.5-1.1-4.2-1.1c-1.7,0-3.2.3-4.6,1-1.3.7-2.5,1.7-3.4,2.9s-1.8,2.5-2.4,4c-.6,1.5-1,3-1.3,4.5l-.7,4.1c-.2,1.3-.3,2.7-.2,4.1,0,1.4.4,2.8.9,4,.5,1.2,1.2,2.2,2.3,3,1,.8,2.4,1.2,4,1.2,1.9,0,3.5-.3,4.8-1,1.4-.7,2.5-1.6,3.4-2.9.9-1.2,1.6-2.7,2.2-4.4Z"/>
    <path class="st5" d="M246.7,432.9l-5.7,32.7h-2.7l5.7-32.7h2.7ZM266.5,432.9l-16.3,15-8.2,7,.3-3.3,6.5-5.9,14.1-12.9h3.7ZM258.5,465.6l-10.6-16.9,1.9-2.1,11.8,19h-3.1Z"/>
    <path class="st5" d="M282.3,435l-16.2,30.6h-2.9l17.6-32.7h2l-.5,2.1ZM286.9,454.1l-.4,2.4h-16.9l.4-2.4h16.9ZM286.9,465.6l-5.7-30.9.2-1.8h1.9l6.4,32.7h-2.7Z"/>
    <path class="st5" d="M319.7,450.1l-1.9,11.7c-.9,1.1-2,2-3.3,2.6-1.3.6-2.7,1.1-4.2,1.3s-2.9.4-4.2.4c-2.1,0-3.8-.5-5.3-1.3s-2.6-2-3.4-3.4c-.8-1.4-1.4-3-1.7-4.8s-.3-3.6,0-5.4l.6-4c.3-1.9.9-3.8,1.6-5.5s1.8-3.3,3-4.7c1.2-1.4,2.7-2.5,4.4-3.3,1.7-.8,3.6-1.2,5.7-1.2,2,0,3.7.4,5.2,1.2s2.6,1.9,3.5,3.3,1.3,3.2,1.3,5.1h-2.7c0-1.5-.4-2.8-1-3.9-.6-1.1-1.4-1.9-2.5-2.5-1.1-.6-2.4-.9-3.9-.9-1.7,0-3.3.3-4.6,1s-2.5,1.6-3.5,2.8-1.8,2.5-2.4,4c-.6,1.5-1,3-1.3,4.5l-.7,4c-.2,1.4-.3,2.9-.1,4.3.1,1.5.5,2.8,1.1,4.1.6,1.2,1.4,2.2,2.5,3,1.1.8,2.5,1.1,4.2,1.2,1,0,2.1,0,3.2-.2s2.1-.5,3.1-.9c1-.4,1.9-1,2.7-1.7l1.5-8.4h-8.5l.4-2.4h11.3Z"/>
    <path class="st5" d="M333.6,432.9l-5.7,32.7h-2.7l5.7-32.7h2.7Z"/>
    <path class="st5" d="M365.8,432.9l-5.6,32.7h-2.7l-13.4-28.1-4.9,28.1h-2.7l5.6-32.7h2.7l13.5,28,4.9-28h2.7Z"/>
    <path class="st5" d="M393.9,450.1l-1.9,11.7c-.9,1.1-2,2-3.3,2.6-1.3.6-2.7,1.1-4.2,1.3s-2.9.4-4.2.4c-2.1,0-3.8-.5-5.3-1.3s-2.6-2-3.4-3.4c-.8-1.4-1.4-3-1.7-4.8-.3-1.8-.3-3.6,0-5.4l.6-4c.3-1.9.9-3.8,1.6-5.5.8-1.8,1.8-3.3,3-4.7,1.2-1.4,2.7-2.5,4.4-3.3,1.7-.8,3.6-1.2,5.7-1.2,2,0,3.7.4,5.2,1.2s2.6,1.9,3.5,3.3,1.3,3.2,1.3,5.1h-2.7c0-1.5-.4-2.8-1-3.9-.6-1.1-1.4-1.9-2.5-2.5-1.1-.6-2.4-.9-3.9-.9-1.7,0-3.3.3-4.6,1s-2.5,1.6-3.5,2.8c-1,1.2-1.8,2.5-2.4,4s-1,3-1.3,4.5l-.7,4c-.2,1.4-.3,2.9-.1,4.3.1,1.5.5,2.8,1.1,4.1.6,1.2,1.4,2.2,2.5,3,1.1.8,2.5,1.1,4.2,1.2,1,0,2.1,0,3.2-.2s2.1-.5,3.1-.9c1-.4,1.9-1,2.7-1.7l1.5-8.4h-8.5l.4-2.4h11.3Z"/>
    <path class="st5" d="M418.2,432.9l-5.7,32.7h-2.7l5.7-32.7h2.7ZM418.7,465.6h-7.4l.4-2.4h7c2.4,0,4.6-.6,6.4-1.7,1.9-1.1,3.4-2.6,4.6-4.5,1.2-1.9,2-4,2.4-6.3l.5-3c.2-1.6.3-3.1,0-4.5-.2-1.5-.6-2.8-1.3-4-.7-1.2-1.6-2.1-2.8-2.8-1.2-.7-2.7-1.1-4.4-1.1h-7.7l.4-2.4h7.3c2.1,0,3.9.5,5.4,1.3,1.5.8,2.8,1.9,3.7,3.3.9,1.4,1.6,3,1.9,4.7.3,1.8.4,3.6.1,5.5l-.5,3c-.3,2.1-1,4-1.9,5.8s-2.1,3.4-3.5,4.7c-1.4,1.3-3,2.4-4.8,3.2s-3.8,1.2-6,1.2Z"/>
    <path class="st5" d="M447.5,432.9l-5.7,32.7h-2.7l5.7-32.7h2.7ZM459.3,463.3l-.4,2.4h-17.9l.4-2.4h17.9ZM459.7,447.6l-.4,2.4h-15.7l.4-2.4h15.6ZM464.4,432.9l-.4,2.4h-17.8l.4-2.4h17.8Z"/>
    <path class="st5" d="M483.8,457.5c.2-1.2.1-2.1-.3-2.9-.4-.8-.9-1.4-1.7-2s-1.6-1-2.5-1.4c-.9-.4-1.8-.7-2.7-1-1.1-.4-2.2-.8-3.4-1.3-1.1-.5-2.1-1.1-3-1.8s-1.6-1.6-2.1-2.6c-.5-1-.6-2.2-.5-3.6.2-1.5.6-2.7,1.4-3.8.8-1.1,1.7-2,2.8-2.7,1.1-.7,2.4-1.2,3.7-1.6s2.7-.5,4-.5c1.9,0,3.6.4,5.1,1.2s2.6,1.9,3.4,3.4c.8,1.5,1.1,3.2.9,5.1h-2.7c.2-1.5,0-2.8-.5-3.9-.5-1.1-1.3-2-2.4-2.5s-2.4-.9-3.9-.9c-1.3,0-2.6.2-3.9.6-1.3.4-2.4,1.1-3.4,2-.9.9-1.5,2.1-1.8,3.5-.2,1.1,0,2,.3,2.7.4.8,1,1.4,1.7,1.9s1.6.9,2.5,1.3c.9.4,1.8.7,2.6.9,1.2.4,2.3.8,3.5,1.3,1.1.5,2.2,1.1,3.1,1.9s1.6,1.6,2,2.7.6,2.3.4,3.8c-.2,1.5-.7,2.8-1.4,3.9-.8,1.1-1.7,2-2.9,2.7s-2.4,1.2-3.8,1.6-2.7.5-4.1.5c-1.5,0-2.9-.2-4.2-.7-1.3-.4-2.5-1.1-3.4-1.9s-1.7-1.8-2.2-3.1c-.5-1.2-.7-2.6-.5-4.2h2.7c-.1,1.3,0,2.4.3,3.3.4.9.9,1.7,1.6,2.3s1.6,1.1,2.6,1.4c1,.3,2.1.5,3.2.5,1.3,0,2.7-.2,4-.6,1.3-.4,2.5-1.1,3.5-2,1-.9,1.6-2.1,1.8-3.6Z"/>
    <path class="st5" d="M499.9,432.9l-5.7,32.7h-2.7l5.7-32.7h2.7Z"/>
    <path class="st5" d="M528.4,450.1l-1.9,11.7c-.9,1.1-2,2-3.3,2.6-1.3.6-2.7,1.1-4.2,1.3s-2.9.4-4.2.4c-2.1,0-3.8-.5-5.3-1.3s-2.6-2-3.4-3.4c-.8-1.4-1.4-3-1.7-4.8-.3-1.8-.3-3.6,0-5.4l.6-4c.3-1.9.9-3.8,1.6-5.5.8-1.8,1.8-3.3,3-4.7,1.2-1.4,2.7-2.5,4.4-3.3,1.7-.8,3.6-1.2,5.7-1.2,2,0,3.7.4,5.2,1.2s2.6,1.9,3.5,3.3,1.3,3.2,1.3,5.1h-2.7c0-1.5-.4-2.8-1-3.9-.6-1.1-1.4-1.9-2.5-2.5-1.1-.6-2.4-.9-3.9-.9-1.7,0-3.3.3-4.6,1s-2.5,1.6-3.5,2.8c-1,1.2-1.8,2.5-2.4,4s-1,3-1.3,4.5l-.7,4c-.2,1.4-.3,2.9-.1,4.3.1,1.5.5,2.8,1.1,4.1.6,1.2,1.4,2.2,2.5,3,1.1.8,2.5,1.1,4.2,1.2,1,0,2.1,0,3.2-.2s2.1-.5,3.1-.9c1-.4,1.9-1,2.7-1.7l1.5-8.4h-8.5l.4-2.4h11.3Z"/>
    <path class="st5" d="M562.7,432.9l-5.6,32.7h-2.7l-13.4-28.1-4.9,28.1h-2.7l5.6-32.7h2.7l13.5,28,4.9-28h2.7Z"/>
  </g>
  <rect class="st6" x="-626.3" y="-148" width="571.4" height="347.1"/>
  <text class="st0" transform="translate(-501.9 -82.3)"><tspan x="0" y="0">THRI</tspan></text>
  <text class="st4" transform="translate(-293.6 -82.3)"><tspan x="0" y="0">FT</tspan></text>
  <text class="st0" transform="translate(-172.7 -82.3)"><tspan x="0" y="0"> </tspan></text>
  <text class="st0" transform="translate(-536.3 25.7)"><tspan x="0" y="0">SAVINGS </tspan></text>
  <text class="st0" transform="translate(-459.6 133.7)"><tspan x="0" y="0">PLAN</tspan></text>
  <text class="st2" transform="translate(-484.6 191.7)"><tspan x="0" y="0">INFOGRAPHIC</tspan></text>
  <g class="st1">
    <path class="st5" d="M118.4,254.4v63.9h-12.3v-27.3h-29v27.3h-12.4v-63.9h12.4v25.8h29v-25.8h12.3Z"/>
    <path class="st5" d="M149.1,254.4h12.6l23.5,63.9h-12.8l-5.3-15.9h-23.5l-5.3,15.9h-12.8l23.6-63.9ZM164.2,293.6l-8.8-26.4-8.8,26.4h17.6Z"/>
    <path class="st5" d="M192.2,318.3v-63.9h28.3c2.9,0,5.7.6,8.1,1.8,2.5,1.2,4.6,2.8,6.5,4.9,1.8,2,3.2,4.3,4.2,6.8s1.5,5.1,1.5,7.7-.5,5.3-1.4,7.8-2.3,4.7-4,6.5c-1.7,1.9-3.8,3.3-6.1,4.3l14.6,24h-13.7l-13.1-21.4h-12.4v21.4h-12.5ZM204.7,286h15.6c1.6,0,2.9-.5,4.1-1.4,1.2-.9,2.2-2.2,2.9-3.7.7-1.6,1.1-3.3,1.1-5.2s-.4-3.8-1.3-5.4c-.8-1.5-1.9-2.7-3.2-3.6s-2.7-1.3-4.2-1.3h-15v20.6h0Z"/>
    <path class="st5" d="M304.2,318.3v-41.9l-16.4,31.2h-6.9l-16.4-31.2v41.9h-12.4v-63.9h13.3l18.9,36.4,19.1-36.4h13.2v63.9h-12.4Z"/>
    <path class="st5" d="M357.2,318.7c-4.7,0-8.9-.9-12.7-2.7-3.8-1.8-7.1-4.2-9.8-7.3-2.7-3.1-4.8-6.6-6.3-10.4-1.5-3.9-2.2-7.8-2.2-11.9s.8-8.3,2.4-12.2c1.6-3.9,3.8-7.3,6.6-10.4,2.8-3,6.1-5.4,9.9-7.2,3.8-1.8,8-2.7,12.6-2.7s8.8.9,12.6,2.8,7.1,4.4,9.8,7.5c2.7,3.1,4.8,6.6,6.3,10.4s2.2,7.8,2.2,11.9-.8,8.2-2.3,12.1c-1.6,3.9-3.7,7.3-6.5,10.3s-6.1,5.4-9.9,7.2c-4,1.8-8.2,2.6-12.7,2.6ZM338.7,286.3c0,2.8.4,5.4,1.3,8,.8,2.6,2.1,4.9,3.6,6.9,1.6,2,3.5,3.6,5.8,4.8s4.9,1.8,7.9,1.8,5.7-.6,8-1.8c2.3-1.2,4.3-2.9,5.8-5,1.6-2.1,2.7-4.4,3.6-6.9.8-2.5,1.2-5.1,1.2-7.7s-.4-5.4-1.3-8c-.9-2.5-2.1-4.8-3.7-6.8s-3.5-3.6-5.9-4.8c-2.3-1.2-4.9-1.8-7.8-1.8s-5.7.6-8.1,1.8c-2.3,1.2-4.2,2.9-5.8,4.9-1.6,2-2.7,4.3-3.6,6.8-.6,2.6-1,5.2-1,7.8Z"/>
    <path class="st5" d="M410.4,277.3v41h-12.4v-63.9h9.9l33,42.1v-42h12.4v63.8h-10.3l-32.6-41Z"/>
    <path class="st5" d="M473.8,254.4l15.8,30.1,16-30.1h13.4l-23.2,41.6v22.3h-12.3v-22.5l-23.1-41.4h13.4Z"/>
    <path class="st5" d="M571.6,318.7c-4.7,0-8.9-.9-12.7-2.7-3.8-1.8-7.1-4.2-9.8-7.3-2.7-3.1-4.8-6.6-6.3-10.4-1.5-3.9-2.2-7.8-2.2-11.9s.8-8.3,2.4-12.2c1.6-3.9,3.8-7.3,6.6-10.4,2.8-3,6.1-5.4,9.9-7.2,3.8-1.8,8-2.7,12.6-2.7s8.8.9,12.6,2.8c3.8,1.9,7.1,4.4,9.8,7.5s4.8,6.6,6.3,10.4,2.2,7.8,2.2,11.9-.8,8.2-2.3,12.1c-1.6,3.9-3.7,7.3-6.5,10.3s-6.1,5.4-9.9,7.2c-4.1,1.8-8.2,2.6-12.7,2.6ZM553,286.3c0,2.8.4,5.4,1.3,8,.8,2.6,2.1,4.9,3.6,6.9,1.6,2,3.5,3.6,5.8,4.8s4.9,1.8,7.9,1.8,5.7-.6,8-1.8c2.3-1.2,4.3-2.9,5.8-5,1.6-2.1,2.7-4.4,3.6-6.9.8-2.5,1.2-5.1,1.2-7.7s-.4-5.4-1.3-8c-.9-2.5-2.1-4.8-3.7-6.8-1.6-2-3.5-3.6-5.9-4.8-2.3-1.2-4.9-1.8-7.8-1.8s-5.7.6-8.1,1.8c-2.3,1.2-4.2,2.9-5.8,4.9s-2.7,4.3-3.6,6.8c-.5,2.6-1,5.2-1,7.8Z"/>
    <path class="st5" d="M612.4,318.3v-63.9h42.9v10.9h-30.5v16.5h25.4v10.1h-25.4v26.5h-12.4Z"/>
  </g>
  <g>
    <path class="st5" d="M91.8,407.5v-63.9h23.2c7,0,12.8,1.4,17.5,4.3s8.2,6.7,10.5,11.5,3.5,10.2,3.5,16.1-1.3,12.1-3.9,16.9c-2.6,4.8-6.2,8.5-10.9,11.2-4.7,2.6-10.3,4-16.7,4h-23.2ZM134.1,375.5c0-4.1-.8-7.8-2.2-10.9-1.5-3.2-3.7-5.6-6.5-7.4s-6.2-2.7-10.3-2.7h-10.8v42.1h10.8c4.1,0,7.5-.9,10.4-2.7,2.8-1.8,5-4.3,6.4-7.6,1.4-3.2,2.2-6.8,2.2-10.8Z"/>
    <path class="st5" d="M156.3,407.5v-63.9h12.4v63.9h-12.4Z"/>
    <path class="st5" d="M182,407.5v-63.9h43v10.9h-30.5v16.5h25.4v10.1h-25.4v26.5h-12.5Z"/>
    <path class="st5" d="M233.7,407.5v-63.9h42.9v10.9h-30.5v16.5h25.4v10.1h-25.4v26.5h-12.4Z"/>
    <path class="st5" d="M329.7,396.7v10.9h-44.4v-63.9h43.6v10.9h-31.1v15.4h26.9v10h-26.9v16.7h31.9Z"/>
    <path class="st5" d="M339.4,407.5v-63.9h28.3c2.9,0,5.7.6,8.1,1.8,2.5,1.2,4.6,2.8,6.5,4.9,1.8,2,3.2,4.3,4.2,6.8s1.5,5.1,1.5,7.7-.5,5.3-1.4,7.8-2.3,4.7-4,6.5c-1.7,1.9-3.8,3.3-6.1,4.3l14.6,24h-13.7l-13.1-21.4h-12.4v21.4h-12.5ZM351.9,375.2h15.6c1.6,0,2.9-.5,4.1-1.4s2.2-2.2,2.9-3.7c.7-1.6,1.1-3.3,1.1-5.2s-.4-3.8-1.3-5.4c-.8-1.5-1.9-2.7-3.2-3.6-1.3-.9-2.7-1.3-4.2-1.3h-15v20.6Z"/>
    <path class="st5" d="M443.7,396.7v10.9h-44.4v-63.9h43.6v10.9h-31.1v15.4h26.9v10h-26.9v16.7h31.9Z"/>
    <path class="st5" d="M465.8,366.5v41h-12.4v-63.9h9.9l33,42.1v-42h12.4v63.8h-10.3l-32.6-41Z"/>
    <path class="st5" d="M518.2,375.1c0-3.9.7-7.7,2.1-11.5,1.4-3.7,3.5-7.2,6.2-10.3,2.7-3.1,6-5.5,9.9-7.4,3.9-1.8,8.3-2.7,13.3-2.7s11,1.3,15.3,3.9,7.5,5.9,9.6,10.1l-9.5,6.6c-1.1-2.4-2.5-4.3-4.2-5.7-1.7-1.4-3.6-2.4-5.6-3s-3.9-.9-5.8-.9c-3.1,0-5.8.6-8.1,1.9s-4.2,2.9-5.8,5c-1.6,2-2.7,4.3-3.5,6.8s-1.1,5-1.1,7.6.4,5.5,1.4,8.1c.9,2.6,2.2,4.9,3.8,6.9s3.6,3.6,5.9,4.8c2.3,1.2,4.8,1.8,7.6,1.8s4-.3,6-1,3.9-1.7,5.7-3.2c1.7-1.4,3.1-3.3,4-5.6l10.2,5.8c-1.3,3.2-3.3,5.9-6.2,8.1s-6,3.9-9.6,5c-3.5,1.1-7.1,1.7-10.5,1.7s-8.7-.9-12.5-2.8-7-4.4-9.8-7.6c-2.7-3.1-4.9-6.7-6.4-10.6-1.7-3.8-2.4-7.8-2.4-11.8Z"/>
    <path class="st5" d="M628.2,396.7v10.9h-44.4v-63.9h43.6v10.9h-31.1v15.4h26.9v10h-26.9v16.7h31.9Z"/>
  </g>
</svg>