<?xml version="1.0" encoding="utf-8"?>
<!-- Generator: Adobe Illustrator 26.5.0, SVG Export Plug-In . SVG Version: 6.00 Build 0)  -->
<svg version="1.1" id="Layer_1" xmlns="http://www.w3.org/2000/svg" xmlns:xlink="http://www.w3.org/1999/xlink" x="0px" y="0px"
	 viewBox="0 0 720 720" style="enable-background:new 0 0 720 720;" xml:space="preserve">
<style type="text/css">
	.st0{opacity:0.39;enable-background:new    ;}
	.st1{fill:none;}
	.st2{enable-background:new    ;}
	.st3{fill:#FFFFFF;}
</style>
<rect class="st0" width="720" height="720"/>
<rect x="-739.1" y="300" class="st1" width="720" height="407"/>
<text transform="matrix(1 0 0 1 -661.8281 365.6877)" style="font-family:'Raleway-Bold'; font-size:90px;">JUNE &amp; JULY</text>
<text transform="matrix(1 0 0 1 -659.3281 420.8877)" style="font-family:'Roboto-LightItalic'; font-size:46px;">CALENDER ILLUSTRATIONS</text>
<rect x="-626.3" y="-148" class="st1" width="571.4" height="347.1"/>
<text transform="matrix(1 0 0 1 -501.8652 -82.2682)" style="font-family:'Raleway-Bold'; font-size:90px;">THRI</text>
<text transform="matrix(1 0 0 1 -293.5652 -82.2682)" style="font-family:'Raleway-Bold'; font-size:90px; letter-spacing:4;">FT</text>
<text transform="matrix(1 0 0 1 -172.6652 -82.2682)" style="font-family:'Raleway-Bold'; font-size:90px;"> </text>
<text transform="matrix(1 0 0 1 -536.2652 25.7318)" style="font-family:'Raleway-Bold'; font-size:90px;">SAVINGS </text>
<text transform="matrix(1 0 0 1 -459.5652 133.7318)" style="font-family:'Raleway-Bold'; font-size:90px;">PLAN</text>
<text transform="matrix(1 0 0 1 -484.5652 191.7318)" style="font-family:'Roboto-LightItalic'; font-size:46px;">INFOGRAPHIC</text>
<rect x="601.5" y="-158.7" class="st1" width="720" height="407"/>
<g>
	<g class="st2">
		<path class="st3" d="M118.4,254.4v63.9h-12.3V291h-29v27.3H64.7v-63.9h12.4v25.8h29v-25.8H118.4z"/>
		<path class="st3" d="M149.1,254.4h12.6l23.5,63.9h-12.8l-5.3-15.9h-23.5l-5.3,15.9h-12.8L149.1,254.4z M164.2,293.6l-8.8-26.4
			l-8.8,26.4H164.2z"/>
		<path class="st3" d="M192.2,318.3v-63.9h28.3c2.9,0,5.7,0.6,8.1,1.8c2.5,1.2,4.6,2.8,6.5,4.9c1.8,2,3.2,4.3,4.2,6.8
			c1,2.5,1.5,5.1,1.5,7.7c0,2.7-0.5,5.3-1.4,7.8c-0.9,2.5-2.3,4.7-4,6.5c-1.7,1.9-3.8,3.3-6.1,4.3l14.6,24h-13.7l-13.1-21.4h-12.4
			v21.4H192.2z M204.7,286h15.6c1.6,0,2.9-0.5,4.1-1.4c1.2-0.9,2.2-2.2,2.9-3.7c0.7-1.6,1.1-3.3,1.1-5.2c0-2-0.4-3.8-1.3-5.4
			c-0.8-1.5-1.9-2.7-3.2-3.6c-1.3-0.9-2.7-1.3-4.2-1.3h-15V286z"/>
		<path class="st3" d="M304.2,318.3v-41.9l-16.4,31.2h-6.9l-16.4-31.2v41.9h-12.4v-63.9h13.3l18.9,36.4l19.1-36.4h13.2v63.9H304.2z"
			/>
		<path class="st3" d="M357.2,318.7c-4.7,0-8.9-0.9-12.7-2.7c-3.8-1.8-7.1-4.2-9.8-7.3c-2.7-3.1-4.8-6.6-6.3-10.4
			c-1.5-3.9-2.2-7.8-2.2-11.9c0-4.3,0.8-8.3,2.4-12.2c1.6-3.9,3.8-7.3,6.6-10.4c2.8-3,6.1-5.4,9.9-7.2c3.8-1.8,8-2.7,12.6-2.7
			c4.6,0,8.8,0.9,12.6,2.8c3.8,1.9,7.1,4.4,9.8,7.5c2.7,3.1,4.8,6.6,6.3,10.4c1.5,3.8,2.2,7.8,2.2,11.9c0,4.2-0.8,8.2-2.3,12.1
			c-1.6,3.9-3.7,7.3-6.5,10.3c-2.8,3-6.1,5.4-9.9,7.2C365.9,317.9,361.7,318.7,357.2,318.7z M338.7,286.3c0,2.8,0.4,5.4,1.3,8
			c0.8,2.6,2.1,4.9,3.6,6.9c1.6,2,3.5,3.6,5.8,4.8s4.9,1.8,7.9,1.8c3,0,5.7-0.6,8-1.8c2.3-1.2,4.3-2.9,5.8-5
			c1.6-2.1,2.7-4.4,3.6-6.9c0.8-2.5,1.2-5.1,1.2-7.7c0-2.8-0.4-5.4-1.3-8c-0.9-2.5-2.1-4.8-3.7-6.8c-1.6-2-3.5-3.6-5.9-4.8
			c-2.3-1.2-4.9-1.8-7.8-1.8c-3.1,0-5.7,0.6-8.1,1.8c-2.3,1.2-4.2,2.9-5.8,4.9c-1.6,2-2.7,4.3-3.6,6.8
			C339.1,281.1,338.7,283.7,338.7,286.3z"/>
		<path class="st3" d="M410.4,277.3v41H398v-63.9h9.9l33,42.1v-42h12.4v63.8H443L410.4,277.3z"/>
		<path class="st3" d="M473.8,254.4l15.8,30.1l16-30.1H519L495.8,296v22.3h-12.3v-22.5l-23.1-41.4H473.8z"/>
		<path class="st3" d="M571.6,318.7c-4.7,0-8.9-0.9-12.7-2.7c-3.8-1.8-7.1-4.2-9.8-7.3c-2.7-3.1-4.8-6.6-6.3-10.4
			c-1.5-3.9-2.2-7.8-2.2-11.9c0-4.3,0.8-8.3,2.4-12.2c1.6-3.9,3.8-7.3,6.6-10.4c2.8-3,6.1-5.4,9.9-7.2c3.8-1.8,8-2.7,12.6-2.7
			c4.6,0,8.8,0.9,12.6,2.8c3.8,1.9,7.1,4.4,9.8,7.5c2.7,3.1,4.8,6.6,6.3,10.4c1.5,3.8,2.2,7.8,2.2,11.9c0,4.2-0.8,8.2-2.3,12.1
			c-1.6,3.9-3.7,7.3-6.5,10.3c-2.8,3-6.1,5.4-9.9,7.2C580.2,317.9,576.1,318.7,571.6,318.7z M553,286.3c0,2.8,0.4,5.4,1.3,8
			c0.8,2.6,2.1,4.9,3.6,6.9c1.6,2,3.5,3.6,5.8,4.8s4.9,1.8,7.9,1.8c3,0,5.7-0.6,8-1.8c2.3-1.2,4.3-2.9,5.8-5
			c1.6-2.1,2.7-4.4,3.6-6.9c0.8-2.5,1.2-5.1,1.2-7.7c0-2.8-0.4-5.4-1.3-8c-0.9-2.5-2.1-4.8-3.7-6.8c-1.6-2-3.5-3.6-5.9-4.8
			c-2.3-1.2-4.9-1.8-7.8-1.8c-3.1,0-5.7,0.6-8.1,1.8c-2.3,1.2-4.2,2.9-5.8,4.9c-1.6,2-2.7,4.3-3.6,6.8
			C553.5,281.1,553,283.7,553,286.3z"/>
		<path class="st3" d="M612.4,318.3v-63.9h42.9v10.9h-30.5v16.5h25.4v10.1h-25.4v26.5H612.4z"/>
	</g>
	<g class="st2">
		<path class="st3" d="M251.7,465.6l5.7-32.7l9.2,0c3.1,0.1,5.5,0.8,7.1,2.3c1.6,1.5,2.3,3.5,2,6.1c-0.2,1.7-0.8,3.2-1.9,4.5
			c-1.1,1.3-2.5,2.2-4.4,2.9c1.6,0.5,2.8,1.4,3.6,2.8c0.9,1.4,1.2,3,1.1,4.8c-0.2,2.8-1.4,5.1-3.4,6.8c-2.1,1.7-4.8,2.6-8.1,2.6
			H251.7z M257.2,449.9l-2.3,13.3l7.9,0c2.4,0,4.4-0.6,6-1.9c1.6-1.2,2.5-3,2.8-5.1c0.2-1.9-0.2-3.4-1.3-4.5
			c-1.1-1.1-2.6-1.7-4.6-1.8L257.2,449.9z M257.6,447.6l7.2,0c2.3,0,4.2-0.6,5.7-1.8s2.3-2.7,2.5-4.6c0.4-3.8-1.8-5.8-6.4-5.9
			l-6.8,0L257.6,447.6z"/>
		<path class="st3" d="M293.6,452h-9.2l-2.4,13.6h-2.8l5.7-32.7l9.7,0c3.3,0,5.8,0.8,7.5,2.5c1.8,1.7,2.5,4,2.2,6.9
			c-0.2,2.2-1,4.1-2.5,5.7s-3.3,2.7-5.6,3.5l5.6,13.8l0,0.3h-2.9L293.6,452z M284.8,449.6l8.1,0c2.3,0,4.3-0.7,5.9-2
			c1.6-1.4,2.6-3.1,2.8-5.3c0.3-2.1-0.2-3.8-1.4-5.1c-1.2-1.3-2.9-1.9-5.2-2l-7.7,0L284.8,449.6z"/>
		<path class="st3" d="M326.6,456.4h-14.3l-4.9,9.2h-3l17.7-32.7h2.6l6.3,32.7h-2.7L326.6,456.4z M313.5,454.1h12.6l-3.2-17.7
			L313.5,454.1z"/>
		<path class="st3" d="M359.6,465.6H357l-13.4-28l-4.9,28h-2.8l5.7-32.7h2.7l13.4,28.1l4.9-28.1h2.7L359.6,465.6z"/>
		<path class="st3" d="M367.8,465.6l5.7-32.7l8.5,0c2.5,0,4.7,0.6,6.6,1.9c1.9,1.3,3.2,3.1,4,5.4c0.8,2.3,1.1,4.8,0.7,7.5l-0.4,2.7
			c-0.7,4.5-2.5,8.2-5.4,11c-2.9,2.8-6.5,4.2-10.8,4.2H367.8z M375.8,435.2l-4.9,28l5.8,0c2.3,0,4.4-0.5,6.3-1.6s3.4-2.5,4.7-4.4
			c1.2-1.9,2-4.1,2.4-6.5c0.4-2.4,0.6-4.1,0.6-5s0-1.8-0.1-2.7c-0.3-2.4-1.3-4.3-2.7-5.7s-3.4-2.1-5.8-2.2L375.8,435.2z"/>
		<path class="st3" d="M400.6,465.6h-2.7l5.7-32.7h2.7L400.6,465.6z"/>
		<path class="st3" d="M433.1,465.6h-2.7l-13.4-28l-4.9,28h-2.8l5.7-32.7h2.7l13.4,28.1l4.9-28.1h2.7L433.1,465.6z"/>
		<path class="st3" d="M465,461.7c-1.1,1.4-2.7,2.5-4.8,3.3c-2.1,0.8-4.4,1.1-6.9,1.1c-3,0-5.5-1.1-7.4-3.1s-2.9-4.8-3.1-8.2
			c-0.1-1.2,0-2.4,0.1-3.6l0.6-3.7c0.7-4.6,2.4-8.2,5-11c2.6-2.7,5.9-4.1,9.7-4c3,0.1,5.4,0.9,7.2,2.7s2.7,4,2.8,7h-2.7
			c-0.1-2.3-0.8-4.1-2.1-5.3c-1.3-1.3-3.1-1.9-5.4-2c-3.1-0.1-5.6,1-7.8,3.3c-2.1,2.3-3.5,5.4-4.1,9.4l-0.5,3.5c-0.1,1-0.2,2-0.2,3
			c0,3,0.8,5.3,2.2,7.1c1.4,1.7,3.3,2.6,5.7,2.6c3.8,0.1,6.8-0.9,8.9-2.8l1.5-8.5h-8.5l0.4-2.3h11.3L465,461.7z"/>
	</g>
	<g>
		<path class="st3" d="M91.8,407.5v-63.9h23.2c7,0,12.8,1.4,17.5,4.3c4.7,2.9,8.2,6.7,10.5,11.5c2.3,4.8,3.5,10.2,3.5,16.1
			c0,6.5-1.3,12.1-3.9,16.9c-2.6,4.8-6.2,8.5-10.9,11.2c-4.7,2.6-10.3,4-16.7,4H91.8z M134.1,375.5c0-4.1-0.8-7.8-2.2-10.9
			c-1.5-3.2-3.7-5.6-6.5-7.4c-2.8-1.8-6.2-2.7-10.3-2.7h-10.8v42.1h10.8c4.1,0,7.5-0.9,10.4-2.7c2.8-1.8,5-4.3,6.4-7.6
			C133.3,383.1,134.1,379.5,134.1,375.5z"/>
		<path class="st3" d="M156.3,407.5v-63.9h12.4v63.9H156.3z"/>
		<path class="st3" d="M182,407.5v-63.9H225v10.9h-30.5V371h25.4v10.1h-25.4v26.5H182z"/>
		<path class="st3" d="M233.7,407.5v-63.9h42.9v10.9h-30.5V371h25.4v10.1h-25.4v26.5H233.7z"/>
		<path class="st3" d="M329.7,396.7v10.9h-44.4v-63.9h43.6v10.9h-31.1v15.4h26.9V380h-26.9v16.7H329.7z"/>
		<path class="st3" d="M339.4,407.5v-63.9h28.3c2.9,0,5.7,0.6,8.1,1.8c2.5,1.2,4.6,2.8,6.5,4.9c1.8,2,3.2,4.3,4.2,6.8
			c1,2.5,1.5,5.1,1.5,7.7c0,2.7-0.5,5.3-1.4,7.8c-0.9,2.5-2.3,4.7-4,6.5c-1.7,1.9-3.8,3.3-6.1,4.3l14.6,24h-13.7l-13.1-21.4h-12.4
			v21.4H339.4z M351.9,375.2h15.6c1.6,0,2.9-0.5,4.1-1.4c1.2-0.9,2.2-2.2,2.9-3.7c0.7-1.6,1.1-3.3,1.1-5.2c0-2-0.4-3.8-1.3-5.4
			c-0.8-1.5-1.9-2.7-3.2-3.6c-1.3-0.9-2.7-1.3-4.2-1.3h-15V375.2z"/>
		<path class="st3" d="M443.7,396.7v10.9h-44.4v-63.9h43.6v10.9h-31.1v15.4h26.9V380h-26.9v16.7H443.7z"/>
		<path class="st3" d="M465.8,366.5v41h-12.4v-63.9h9.9l33,42.1v-42h12.4v63.8h-10.3L465.8,366.5z"/>
		<path class="st3" d="M518.2,375.1c0-3.9,0.7-7.7,2.1-11.5c1.4-3.7,3.5-7.2,6.2-10.3c2.7-3.1,6-5.5,9.9-7.4
			c3.9-1.8,8.3-2.7,13.3-2.7c5.9,0,11,1.3,15.3,3.9c4.3,2.6,7.5,5.9,9.6,10.1l-9.5,6.6c-1.1-2.4-2.5-4.3-4.2-5.7
			c-1.7-1.4-3.6-2.4-5.6-3s-3.9-0.9-5.8-0.9c-3.1,0-5.8,0.6-8.1,1.9c-2.3,1.3-4.2,2.9-5.8,5c-1.6,2-2.7,4.3-3.5,6.8
			c-0.8,2.5-1.1,5-1.1,7.6c0,2.8,0.4,5.5,1.4,8.1c0.9,2.6,2.2,4.9,3.8,6.9c1.6,2,3.6,3.6,5.9,4.8c2.3,1.2,4.8,1.8,7.6,1.8
			c2,0,4-0.3,6-1c2-0.7,3.9-1.7,5.7-3.2c1.7-1.4,3.1-3.3,4-5.6l10.2,5.8c-1.3,3.2-3.3,5.9-6.2,8.1c-2.9,2.2-6,3.9-9.6,5
			c-3.5,1.1-7.1,1.7-10.5,1.7c-4.6,0-8.7-0.9-12.5-2.8c-3.8-1.9-7-4.4-9.8-7.6c-2.7-3.1-4.9-6.7-6.4-10.6
			C518.9,383.1,518.2,379.1,518.2,375.1z"/>
		<path class="st3" d="M628.2,396.7v10.9h-44.4v-63.9h43.6v10.9h-31.1v15.4h26.9V380h-26.9v16.7H628.2z"/>
	</g>
</g>
</svg>
