<?xml version="1.0" encoding="utf-8"?>
<!-- Generator: Adobe Illustrator 26.3.1, SVG Export Plug-In . SVG Version: 6.00 Build 0)  -->
<svg version="1.1" id="Layer_1" xmlns="http://www.w3.org/2000/svg" xmlns:xlink="http://www.w3.org/1999/xlink" x="0px" y="0px"
	 viewBox="0 0 720 720" style="enable-background:new 0 0 720 720;" xml:space="preserve">
<style type="text/css">
	.st0{opacity:0.39;enable-background:new    ;}
	.st1{fill:none;}
	.st2{enable-background:new    ;}
	.st3{fill:#FFFFFF;}
</style>
<rect class="st0" width="720" height="720"/>
<rect x="-739.1" y="300" class="st1" width="720" height="407"/>
<text transform="matrix(1 0 0 1 -661.8281 365.6877)" style="font-family:'Raleway-Bold'; font-size:90px;">JUNE &amp; JULY</text>
<text transform="matrix(1 0 0 1 -659.3281 420.8877)" style="font-family:'Roboto-LightItalic'; font-size:46px;">CALENDER ILLUSTRATIONS</text>
<g>
	<g>
		<text transform="matrix(1 0 0 1 -504.5266 109.416)" style="font-family:'Raleway-Bold'; font-size:90px;">LIVID </text>
		<text transform="matrix(1 0 0 1 -645.5266 191.967)" style="font-family:'Raleway-Bold'; font-size:90px;">ANIMATION</text>
	</g>
	<text transform="matrix(1 0 0 1 -677.7263 249.967)" style="font-family:'Roboto-LightItalic'; font-size:46px;">2D CHARACTER ANIMATION</text>
</g>
<g>
	<g class="st2">
		<path class="st3" d="M255,318v-63.9h12.4v53H300V318H255z"/>
		<path class="st3" d="M307.5,318v-63.9h12.4V318H307.5z"/>
		<path class="st3" d="M339.8,254.1l17.3,49.1l17.1-49.1h13L363,318h-12l-24.3-63.9H339.8z"/>
		<path class="st3" d="M394.1,318v-63.9h12.4V318H394.1z"/>
		<path class="st3" d="M419.8,318v-63.9H443c7,0,12.8,1.4,17.5,4.3s8.2,6.7,10.5,11.5s3.5,10.2,3.5,16.1c0,6.5-1.3,12.1-3.9,16.9
			s-6.2,8.5-10.9,11.2c-4.7,2.6-10.3,4-16.7,4h-23.2V318z M462.1,286c0-4.1-0.8-7.8-2.2-10.9c-1.5-3.2-3.7-5.6-6.5-7.4
			s-6.2-2.7-10.3-2.7h-10.8v42.1h10.8c4.1,0,7.5-0.9,10.4-2.7c2.8-1.8,5-4.3,6.4-7.6C461.3,293.6,462.1,290,462.1,286z"/>
	</g>
	<g class="st2">
		<path class="st3" d="M131.3,343.5h12.6l23.5,63.9h-12.8l-5.3-15.9h-23.5l-5.3,15.9h-12.8L131.3,343.5z M146.4,382.7l-8.8-26.4
			l-8.8,26.4H146.4z"/>
		<path class="st3" d="M186.9,366.4v41h-12.4v-63.9h9.9l33,42.1v-42h12.4v63.8h-10.3L186.9,366.4z"/>
		<path class="st3" d="M243.1,407.4v-63.9h12.4v63.9H243.1z"/>
		<path class="st3" d="M321,407.4v-41.9l-16.4,31.2h-6.9l-16.4-31.2v41.9h-12.4v-63.9h13.3l18.9,36.4l19.1-36.4h13.2v63.9H321z"/>
		<path class="st3" d="M364.1,343.5h12.6l23.5,63.9h-12.8l-5.3-15.9h-23.5l-5.3,15.9h-12.8L364.1,343.5z M379.2,382.7l-8.8-26.4
			l-8.8,26.4H379.2z"/>
		<path class="st3" d="M449,354.4h-20.4v53h-12.3v-53h-20.4v-10.9H449V354.4z"/>
		<path class="st3" d="M457,407.4v-63.9h12.4v63.9H457z"/>
		<path class="st3" d="M510,407.8c-4.7,0-8.9-0.9-12.7-2.7c-3.8-1.8-7.1-4.2-9.8-7.3c-2.7-3.1-4.8-6.6-6.3-10.4
			c-1.5-3.9-2.2-7.8-2.2-11.9c0-4.3,0.8-8.3,2.4-12.2c1.6-3.9,3.8-7.3,6.6-10.4c2.8-3,6.1-5.4,9.9-7.2c3.8-1.8,8-2.7,12.6-2.7
			s8.8,0.9,12.6,2.8c3.8,1.9,7.1,4.4,9.8,7.5c2.7,3.1,4.8,6.6,6.3,10.4s2.2,7.8,2.2,11.9c0,4.2-0.8,8.2-2.3,12.1
			c-1.6,3.9-3.7,7.3-6.5,10.3c-2.8,3-6.1,5.4-9.9,7.2C518.6,407,514.5,407.8,510,407.8z M491.4,375.4c0,2.8,0.4,5.4,1.3,8
			c0.8,2.6,2.1,4.9,3.6,6.9c1.6,2,3.5,3.6,5.8,4.8c2.3,1.2,4.9,1.8,7.9,1.8c3,0,5.7-0.6,8-1.8c2.3-1.2,4.3-2.9,5.8-5
			c1.6-2.1,2.7-4.4,3.6-6.9c0.8-2.5,1.2-5.1,1.2-7.7c0-2.8-0.4-5.4-1.3-8c-0.9-2.5-2.1-4.8-3.7-6.8s-3.5-3.6-5.8-4.8
			c-2.3-1.2-4.9-1.8-7.8-1.8c-3.1,0-5.7,0.6-8.1,1.8c-2.3,1.2-4.2,2.9-5.8,4.9c-1.6,2-2.7,4.3-3.6,6.8
			C491.8,370.2,491.4,372.8,491.4,375.4z"/>
		<path class="st3" d="M563.2,366.4v41h-12.4v-63.9h9.9l33,42.1v-42h12.4v63.8h-10.3L563.2,366.4z"/>
	</g>
	<g class="st2">
		<path class="st3" d="M95.9,465.5H76l0.3-2.2l14.2-14c3-3,4.6-5.7,4.9-8.1c0.2-1.9-0.1-3.4-1.1-4.6s-2.4-1.9-4.4-1.9
			c-2.1-0.1-3.9,0.6-5.4,2s-2.5,3.3-2.9,5.6H79c0.4-2.9,1.5-5.3,3.6-7.2s4.5-2.8,7.4-2.7c2.7,0.1,4.8,0.9,6.3,2.5s2.1,3.7,1.9,6.1
			c-0.3,3-2.2,6.1-5.6,9.6l-12.8,12.7h16.6L95.9,465.5z"/>
		<path class="st3" d="M101.7,465.5l5.7-32.7h8.5c2.5,0,4.7,0.6,6.6,1.9s3.2,3.1,4,5.4s1.1,4.8,0.7,7.5l-0.4,2.7
			c-0.7,4.5-2.5,8.2-5.4,11s-6.5,4.2-10.8,4.2H101.7z M109.7,435.1l-4.9,28h5.8c2.3,0,4.4-0.5,6.3-1.6s3.4-2.5,4.7-4.4
			c1.2-1.9,2-4.1,2.4-6.5s0.6-4.1,0.6-5s0-1.8-0.1-2.7c-0.3-2.4-1.3-4.3-2.7-5.7s-3.4-2.1-5.8-2.2L109.7,435.1z"/>
		<path class="st3" d="M166.4,455.3c-0.8,3.4-2.3,6-4.6,7.9s-5.2,2.8-8.6,2.7c-2.9-0.1-5.2-1.1-7-3.1c-1.7-2-2.7-4.7-2.8-8.1
			c0-1.2,0-2.3,0.2-3.5l0.6-4c0.5-3,1.4-5.7,2.8-8c1.4-2.3,3.1-4.1,5.1-5.2s4.2-1.7,6.6-1.7c3.1,0.1,5.5,1,7.3,3s2.6,4.5,2.6,7.7
			h-2.7c0-2.6-0.6-4.7-1.9-6.1c-1.3-1.4-3.1-2.2-5.4-2.3c-3-0.1-5.5,1-7.6,3.3s-3.4,5.4-4.1,9.5l-0.7,4.5l-0.1,2
			c0,1.8,0.2,3.4,0.8,4.9c0.5,1.5,1.4,2.7,2.5,3.5s2.4,1.2,3.9,1.3c2.6,0.1,4.8-0.6,6.5-2c1.8-1.4,3-3.5,3.9-6.3L166.4,455.3z"/>
		<path class="st3" d="M195,465.5h-2.8l2.7-15.7h-18.1l-2.7,15.7h-2.7l5.7-32.7h2.7l-2.6,14.7h18.1l2.6-14.7h2.8L195,465.5z"/>
		<path class="st3" d="M222.4,456.3h-14.3l-4.9,9.2h-3l17.7-32.7h2.6l6.3,32.7h-2.7L222.4,456.3z M209.3,454H222l-3.2-17.7
			L209.3,454z"/>
		<path class="st3" d="M246,451.9h-9.2l-2.4,13.6h-2.8l5.7-32.7h9.7c3.3,0,5.8,0.8,7.5,2.5c1.8,1.7,2.5,4,2.2,6.9
			c-0.2,2.2-1,4.1-2.5,5.7s-3.3,2.7-5.6,3.5l5.6,13.8v0.3h-2.9L246,451.9z M237.2,449.5h8.1c2.3,0,4.3-0.7,5.9-2
			c1.6-1.4,2.6-3.1,2.8-5.3c0.3-2.1-0.2-3.8-1.4-5.1s-2.9-1.9-5.2-2h-7.7L237.2,449.5z"/>
		<path class="st3" d="M279.1,456.3h-14.3l-4.9,9.2h-3l17.7-32.7h2.6l6.3,32.7h-2.7L279.1,456.3z M266,454h12.6l-3.2-17.7L266,454z"
			/>
		<path class="st3" d="M312.3,455.3c-0.8,3.4-2.3,6-4.6,7.9c-2.3,1.9-5.2,2.8-8.6,2.7c-2.9-0.1-5.2-1.1-7-3.1
			c-1.7-2-2.7-4.7-2.8-8.1c0-1.2,0-2.3,0.2-3.5l0.6-4c0.5-3,1.4-5.7,2.8-8s3.1-4.1,5.1-5.2s4.2-1.7,6.6-1.7c3.1,0.1,5.5,1,7.3,3
			s2.6,4.5,2.6,7.7h-2.7c0-2.6-0.6-4.7-1.9-6.1s-3.1-2.2-5.4-2.3c-3-0.1-5.5,1-7.6,3.3s-3.4,5.4-4.1,9.5l-0.7,4.5l-0.1,2
			c0,1.8,0.2,3.4,0.8,4.9c0.5,1.5,1.4,2.7,2.5,3.5s2.4,1.2,3.9,1.3c2.6,0.1,4.8-0.6,6.5-2c1.8-1.4,3-3.5,3.9-6.3L312.3,455.3z"/>
		<path class="st3" d="M343.5,435.1h-10.8l-5.3,30.4h-2.7l5.3-30.4h-10.9l0.4-2.3H344L343.5,435.1z"/>
		<path class="st3" d="M363.8,449.8H349l-2.3,13.3h17.1l-0.4,2.3h-19.8l5.7-32.7H369l-0.4,2.3h-16.9l-2.2,12.4h14.8L363.8,449.8z"/>
		<path class="st3" d="M383.4,451.9h-9.2l-2.4,13.6H369l5.7-32.7h9.7c3.3,0,5.8,0.8,7.5,2.5c1.8,1.7,2.5,4,2.2,6.9
			c-0.2,2.2-1,4.1-2.5,5.7s-3.3,2.7-5.6,3.5l5.6,13.8v0.3h-2.9L383.4,451.9z M374.6,449.5h8.1c2.3,0,4.3-0.7,5.9-2
			c1.6-1.4,2.6-3.1,2.8-5.3c0.3-2.1-0.2-3.8-1.4-5.1s-2.9-1.9-5.2-2h-7.7L374.6,449.5z"/>
		<path class="st3" d="M427.5,456.3h-14.3l-4.9,9.2h-3l17.7-32.7h2.6l6.4,32.7h-2.7L427.5,456.3z M414.4,454H427l-3.2-17.7
			L414.4,454z"/>
		<path class="st3" d="M460.6,465.5h-2.7l-13.4-28l-4.9,28h-2.8l5.7-32.7h2.7l13.4,28.1l4.9-28.1h2.7L460.6,465.5z"/>
		<path class="st3" d="M472.1,465.5h-2.7l5.7-32.7h2.7L472.1,465.5z"/>
		<path class="st3" d="M490.1,432.8l6.7,28.8l16.7-28.8h3.7l-5.7,32.7h-2.7l2.5-14.4l2.7-14.2l-16.7,28.6h-2.1l-6.8-28.7l-2.3,14.5
			l-2.5,14.2h-2.7l5.7-32.7H490.1z"/>
		<path class="st3" d="M538.9,456.3h-14.3l-4.9,9.2h-3l17.7-32.7h2.6l6.3,32.7h-2.7L538.9,456.3z M525.8,454h12.6l-3.2-17.7
			L525.8,454z"/>
		<path class="st3" d="M572.1,435.1h-10.8l-5.3,30.4h-2.7l5.3-30.4h-10.9l0.4-2.3h24.5L572.1,435.1z"/>
		<path class="st3" d="M575.5,465.5h-2.7l5.7-32.7h2.7L575.5,465.5z"/>
		<path class="st3" d="M595.6,465.9c-3.1-0.1-5.5-1.1-7.3-3.2c-1.8-2.1-2.8-4.8-2.9-8.3c-0.1-1.2,0-2.4,0.2-3.6l0.4-3.1
			c0.7-4.6,2.3-8.3,4.9-11.2c2.7-3,6-4.4,9.9-4.3c2,0,3.8,0.5,5.3,1.5c1.5,0.9,2.7,2.3,3.5,4.1c0.8,1.8,1.3,3.8,1.4,5.9
			c0,1.3,0,2.5-0.2,3.8l-0.5,3.5c-0.5,3.1-1.5,5.8-2.9,8.1s-3.1,4-5.2,5.2C600.2,465.4,598,466,595.6,465.9z M608.1,447.3
			c0.1-0.9,0.2-1.9,0.2-2.9c0-1.8-0.3-3.5-0.9-5c-0.6-1.5-1.4-2.6-2.6-3.4c-1.1-0.8-2.5-1.2-4.2-1.3c-3-0.1-5.5,1-7.7,3.2
			c-2.1,2.2-3.5,5.2-4.2,9c-0.5,3.1-0.8,5.3-0.8,6.8c0,3,0.7,5.4,2,7.1c1.3,1.7,3.2,2.6,5.6,2.7c3.2,0.1,5.8-1.1,7.9-3.5
			c2.1-2.4,3.4-5.5,4-9.4L608.1,447.3z"/>
		<path class="st3" d="M638.4,465.5h-2.7l-13.4-28l-4.9,28h-2.8l5.7-32.7h2.7l13.4,28.1l4.9-28.1h2.7L638.4,465.5z"/>
	</g>
</g>
</svg>
