<?xml version="1.0" encoding="utf-8"?>
<!-- Generator: Adobe Illustrator 26.3.1, SVG Export Plug-In . SVG Version: 6.00 Build 0)  -->
<svg version="1.1" id="Layer_1" xmlns="http://www.w3.org/2000/svg" xmlns:xlink="http://www.w3.org/1999/xlink" x="0px" y="0px"
	 viewBox="0 0 720 720" style="enable-background:new 0 0 720 720;" xml:space="preserve">
<style type="text/css">
	.st0{opacity:0.39;enable-background:new    ;}
	.st1{fill:none;}
	.st2{fill:#FFFFFF;}
</style>
<rect class="st0" width="720" height="720"/>
<rect x="-739.1" y="300" class="st1" width="720" height="407"/>
<text transform="matrix(1 0 0 1 -661.8281 365.6877)" style="font-family:'Raleway-Bold'; font-size:90px;">JUNE &amp; JULY</text>
<text transform="matrix(1 0 0 1 -659.3281 420.8877)" style="font-family:'Roboto-LightItalic'; font-size:46px;">CALENDER ILLUSTRATIONS</text>
<rect x="-678.2" y="3.4" class="st1" width="571.4" height="248.8"/>
<text transform="matrix(1 0 0 1 -510.5484 69.1435)" style="font-family:'Raleway-Bold'; font-size:90px;">POLY </text>
<text transform="matrix(1 0 0 1 -555.7484 177.1435)" style="font-family:'Raleway-Bold'; font-size:90px;">KROMA</text>
<text transform="matrix(1 0 0 1 -623.4484 235.1435)" style="font-family:'Roboto-LightItalic'; font-size:46px;">3D MOTION GRAPHICS</text>
<g>
	<path class="st2" d="M77.9,362.9V299H105c2.9,0,5.6,0.6,8.1,1.8c2.5,1.2,4.6,2.8,6.4,4.9c1.8,2,3.3,4.3,4.3,6.8s1.5,5.1,1.5,7.7
		c0,3.6-0.8,7-2.5,10.3c-1.7,3.2-4,5.9-6.9,7.9c-2.9,2-6.4,3.1-10.4,3.1H90.4v21.4L77.9,362.9L77.9,362.9z M90.4,330.6h14.4
		c1.5,0,2.8-0.4,4-1.3c1.2-0.8,2.2-2.1,2.9-3.6c0.7-1.6,1.1-3.4,1.1-5.4c0-2.2-0.4-4.1-1.2-5.7c-0.8-1.6-1.9-2.7-3.1-3.5
		c-1.3-0.8-2.7-1.2-4.2-1.2H90.4V330.6z"/>
	<path class="st2" d="M161.3,363.4c-4.7,0-8.9-0.9-12.7-2.7c-3.8-1.8-7.1-4.2-9.8-7.3c-2.7-3.1-4.8-6.6-6.3-10.4
		c-1.5-3.9-2.2-7.8-2.2-11.9c0-4.3,0.8-8.3,2.4-12.2c1.6-3.9,3.8-7.3,6.6-10.4c2.8-3,6.1-5.4,9.9-7.2c3.8-1.8,8-2.7,12.6-2.7
		s8.8,0.9,12.6,2.8s7.1,4.4,9.8,7.5s4.8,6.6,6.3,10.4s2.2,7.8,2.2,11.9c0,4.2-0.8,8.2-2.3,12.1c-1.6,3.9-3.7,7.3-6.5,10.4
		c-2.8,3-6.1,5.4-9.9,7.2C169.9,362.5,165.8,363.4,161.3,363.4z M142.7,331c0,2.8,0.4,5.4,1.3,8c0.8,2.6,2.1,4.9,3.6,6.9
		c1.6,2,3.5,3.6,5.9,4.8c2.3,1.2,4.9,1.8,7.9,1.8s5.7-0.6,8-1.8c2.3-1.2,4.3-2.9,5.9-5c1.6-2.1,2.7-4.4,3.6-6.9
		c0.8-2.5,1.2-5.1,1.2-7.7c0-2.8-0.4-5.4-1.3-8c-0.9-2.5-2.1-4.8-3.7-6.8c-1.6-2-3.5-3.6-5.8-4.8c-2.3-1.2-4.9-1.8-7.8-1.8
		c-3.1,0-5.7,0.6-8.1,1.8c-2.3,1.2-4.2,2.9-5.8,4.9s-2.7,4.3-3.6,6.8S142.7,328.4,142.7,331z"/>
	<path class="st2" d="M202.1,362.9V299h12.4v53h32.6v10.9H202.1z"/>
	<path class="st2" d="M252.5,299l15.8,30.1l16-30.1h13.4l-23.2,41.6v22.3h-12.3v-22.5L239,299H252.5z"/>
	<path class="st2" d="M323,362.9V299h12.4v30.4l26.8-30.5h13.7l-24.5,28.4l26,35.6h-14l-19.9-27.6l-8.1,8.5v19.1H323z"/>
	<path class="st2" d="M383.2,362.9V299h28.3c2.9,0,5.7,0.6,8.1,1.8c2.5,1.2,4.6,2.8,6.5,4.9c1.8,2,3.2,4.3,4.2,6.8s1.5,5.1,1.5,7.7
		c0,2.7-0.5,5.3-1.4,7.8s-2.3,4.7-4,6.5c-1.7,1.9-3.8,3.3-6.1,4.3l14.6,24h-13.7l-13.1-21.4h-12.4v21.4h-12.5V362.9z M395.6,330.6
		h15.6c1.6,0,2.9-0.5,4.1-1.4s2.2-2.2,2.9-3.7c0.7-1.6,1.1-3.3,1.1-5.2c0-2-0.4-3.8-1.3-5.4c-0.8-1.5-1.9-2.7-3.2-3.6
		c-1.3-0.9-2.7-1.3-4.2-1.3h-15V330.6z"/>
	<path class="st2" d="M470,363.4c-4.7,0-8.9-0.9-12.7-2.7c-3.8-1.8-7.1-4.2-9.8-7.3c-2.7-3.1-4.8-6.6-6.3-10.4
		c-1.5-3.9-2.2-7.8-2.2-11.9c0-4.3,0.8-8.3,2.4-12.2c1.6-3.9,3.8-7.3,6.6-10.4c2.8-3,6.1-5.4,9.9-7.2c3.8-1.8,8-2.7,12.6-2.7
		s8.8,0.9,12.6,2.8c3.8,1.9,7.1,4.4,9.8,7.5c2.7,3.1,4.8,6.6,6.3,10.4s2.2,7.8,2.2,11.9c0,4.2-0.8,8.2-2.3,12.1
		c-1.6,3.9-3.7,7.3-6.5,10.4c-2.8,3-6.1,5.4-9.9,7.2C478.6,362.5,474.5,363.4,470,363.4z M451.4,331c0,2.8,0.4,5.4,1.3,8
		c0.8,2.6,2.1,4.9,3.6,6.9c1.6,2,3.5,3.6,5.8,4.8c2.3,1.2,4.9,1.8,7.9,1.8s5.7-0.6,8-1.8c2.3-1.2,4.3-2.9,5.9-5s2.7-4.4,3.6-6.9
		c0.8-2.5,1.2-5.1,1.2-7.7c0-2.8-0.4-5.4-1.3-8c-0.9-2.5-2.1-4.8-3.7-6.8s-3.5-3.6-5.8-4.8c-2.3-1.2-4.9-1.8-7.8-1.8
		c-3.1,0-5.7,0.6-8.1,1.8c-2.3,1.2-4.2,2.9-5.8,4.9c-1.6,2-2.7,4.3-3.6,6.8C451.8,325.8,451.4,328.4,451.4,331z"/>
	<path class="st2" d="M562.9,362.9V321l-16.4,31.2h-6.9L523.2,321v41.9h-12.4V299h13.3l18.9,36.4l19-36.4h13.2v63.9H562.9z"/>
	<path class="st2" d="M606,299h12.6l23.5,63.9h-12.8L624,347h-23.5l-5.3,15.9h-12.8L606,299z M621.1,338.2l-8.8-26.4l-8.8,26.4
		H621.1z"/>
	<path class="st2" d="M134.4,403.1h2.6c2.3,0,4.2-0.6,5.8-1.8c1.6-1.2,2.5-2.8,2.7-4.8s-0.2-3.5-1.2-4.7s-2.5-1.8-4.4-1.8
		c-2.1,0-3.8,0.6-5.2,1.8c-1.4,1.2-2.3,2.9-2.7,4.9h-2.6c0.3-2.7,1.5-4.9,3.5-6.6s4.4-2.5,7.2-2.5c2.7,0.1,4.8,0.9,6.3,2.6
		s2.1,3.8,1.9,6.4c-0.1,1.6-0.8,3.1-1.9,4.4c-1.1,1.3-2.7,2.4-4.7,3.2c1.6,0.6,2.9,1.5,3.7,2.9s1.2,2.9,1,4.7
		c-0.2,2.9-1.4,5.2-3.4,6.9c-2.1,1.8-4.6,2.6-7.5,2.6c-2.8-0.1-5-1-6.7-2.7s-2.4-3.9-2.2-6.6h2.7c-0.2,2,0.3,3.7,1.5,5
		s2.8,2,4.9,2.1c2.2,0.1,4.1-0.6,5.6-1.9s2.4-3.1,2.6-5.3c0.2-1.9-0.3-3.4-1.3-4.6c-1.1-1.1-2.7-1.8-4.9-1.9h-0.5h-2.8L134.4,403.1z
		"/>
	<path class="st2" d="M151.4,420.9l5.7-32.7h8.5c2.5,0,4.7,0.6,6.6,1.9c1.9,1.3,3.2,3.1,4,5.4s1.1,4.8,0.7,7.5l-0.4,2.7
		c-0.7,4.5-2.5,8.2-5.4,11s-6.5,4.2-10.8,4.2H151.4z M159.4,390.6l-4.9,28h5.8c2.3,0,4.4-0.5,6.3-1.6c1.9-1,3.4-2.5,4.7-4.4
		s2-4.1,2.4-6.5s0.6-4.1,0.6-5s0-1.8-0.1-2.7c-0.3-2.4-1.3-4.3-2.7-5.7c-1.5-1.4-3.4-2.1-5.8-2.2L159.4,390.6z"/>
	<path class="st2" d="M201.1,388.2l6.7,28.8l16.7-28.8h3.7l-5.7,32.7h-2.7l2.5-14.4l2.7-14.2l-16.6,28.5h-2.1l-6.8-28.7l-2.3,14.5
		l-2.5,14.2H192l5.7-32.7h3.4V388.2z"/>
	<path class="st2" d="M242.1,421.4c-3.1-0.1-5.5-1.1-7.3-3.2s-2.8-4.8-2.9-8.3c-0.1-1.2,0-2.4,0.2-3.6l0.4-3.1
		c0.7-4.6,2.3-8.3,4.9-11.2c2.7-2.9,6-4.4,9.9-4.3c2,0,3.8,0.5,5.3,1.5c1.5,0.9,2.7,2.3,3.5,4.1c0.8,1.8,1.3,3.8,1.4,5.9
		c0,1.3,0,2.5-0.2,3.8l-0.5,3.5c-0.5,3.1-1.5,5.8-2.9,8.1c-1.4,2.3-3.1,4-5.2,5.2S244.5,421.4,242.1,421.4z M254.6,402.8
		c0.1-0.9,0.2-1.9,0.2-2.9c0-1.8-0.3-3.5-0.9-5c-0.6-1.5-1.4-2.6-2.6-3.4c-1.1-0.8-2.5-1.2-4.2-1.3c-3-0.1-5.5,1-7.7,3.2
		s-3.5,5.2-4.2,9c-0.5,3.1-0.8,5.3-0.8,6.8c0,3,0.7,5.4,2,7.1s3.2,2.6,5.6,2.7c3.2,0.1,5.8-1.1,7.9-3.5s3.4-5.5,4-9.4L254.6,402.8z"
		/>
	<path class="st2" d="M287.4,390.6h-10.8l-5.3,30.4h-2.7l5.3-30.4H263l0.4-2.3h24.5L287.4,390.6z"/>
	<path class="st2" d="M290.7,420.9H288l5.7-32.7h2.7L290.7,420.9z"/>
	<path class="st2" d="M310.8,421.4c-3.1-0.1-5.5-1.1-7.3-3.2s-2.8-4.8-2.9-8.3c-0.1-1.2,0-2.4,0.2-3.6l0.4-3.1
		c0.7-4.6,2.3-8.3,4.9-11.2c2.7-2.9,6-4.4,9.9-4.3c2,0,3.8,0.5,5.3,1.5c1.5,0.9,2.7,2.3,3.5,4.1c0.8,1.8,1.3,3.8,1.4,5.9
		c0,1.3,0,2.5-0.2,3.8l-0.5,3.5c-0.5,3.1-1.5,5.8-2.9,8.1c-1.4,2.3-3.1,4-5.2,5.2S313.3,421.4,310.8,421.4z M323.4,402.8
		c0.1-0.9,0.2-1.9,0.2-2.9c0-1.8-0.3-3.5-0.9-5s-1.4-2.6-2.6-3.4c-1.1-0.8-2.5-1.2-4.2-1.3c-3-0.1-5.5,1-7.7,3.2s-3.5,5.2-4.2,9
		c-0.5,3.1-0.8,5.3-0.8,6.8c0,3,0.7,5.4,2,7.1s3.2,2.6,5.6,2.7c3.2,0.1,5.8-1.1,7.9-3.5s3.4-5.5,4-9.4L323.4,402.8z"/>
	<path class="st2" d="M353.6,420.9H351l-13.4-28l-4.9,28h-2.8l5.7-32.7h2.7l13.4,28.1l4.9-28.1h2.7L353.6,420.9z"/>
	<path class="st2" d="M396.7,417.1c-1.1,1.4-2.7,2.5-4.8,3.3s-4.4,1.1-6.9,1.1c-3,0-5.5-1.1-7.4-3.1c-1.9-2.1-2.9-4.8-3.1-8.2
		c-0.1-1.2,0-2.4,0.1-3.6l0.6-3.7c0.7-4.6,2.4-8.2,5-11c2.6-2.7,5.9-4.1,9.7-4c3,0.1,5.4,0.9,7.2,2.7s2.7,4,2.8,7h-2.7
		c-0.1-2.3-0.8-4.1-2.1-5.3c-1.3-1.3-3.1-1.9-5.4-2c-3.1-0.1-5.6,1-7.8,3.3c-2.1,2.3-3.5,5.4-4.1,9.4l-0.5,3.5c-0.1,1-0.2,2-0.2,3
		c0,3,0.8,5.3,2.2,7.1s3.3,2.6,5.7,2.6c3.8,0.1,6.8-0.9,8.9-2.8l1.5-8.5h-8.5l0.4-2.3h11.3L396.7,417.1z"/>
	<path class="st2" d="M417.9,407.2h-9.2l-2.4,13.6h-2.8l5.7-32.7h9.7c3.3,0,5.8,0.9,7.5,2.5c1.8,1.7,2.5,4,2.2,6.9
		c-0.2,2.2-1,4.1-2.5,5.7c-1.4,1.6-3.3,2.7-5.6,3.5l5.6,13.8v0.3h-2.9L417.9,407.2z M409.1,405h8.1c2.3,0,4.3-0.7,5.9-2
		c1.6-1.4,2.6-3.1,2.8-5.3c0.3-2.1-0.2-3.8-1.4-5.1c-1.2-1.3-2.9-1.9-5.2-2h-7.7L409.1,405z"/>
	<path class="st2" d="M451,411.8h-14.3l-4.9,9.2h-3l17.7-32.7h2.6l6.3,32.7h-2.7L451,411.8z M437.9,409.4h12.6l-3.2-17.7
		L437.9,409.4z"/>
	<path class="st2" d="M465.3,407.6l-2.3,13.3h-2.7l5.7-32.7h10.6c3.1,0.1,5.4,1,7.1,2.7s2.4,4,2.1,6.9c-0.3,3.1-1.5,5.5-3.7,7.2
		s-5,2.6-8.5,2.6H465.3z M465.7,405.2h8c2.6,0,4.7-0.7,6.4-2c1.7-1.3,2.7-3.1,2.9-5.5c0.2-2.2-0.2-4-1.4-5.2s-2.9-2-5.1-2h-8.2
		L465.7,405.2z"/>
	<path class="st2" d="M511.5,420.9h-2.8l2.7-15.7h-18.1l-2.7,15.7H488l5.7-32.7h2.7l-2.6,14.7h18.1l2.6-14.7h2.8L511.5,420.9z"/>
	<path class="st2" d="M523.1,420.9h-2.7l5.7-32.7h2.7L523.1,420.9z"/>
	<path class="st2" d="M556.1,410.8c-0.8,3.4-2.3,6-4.6,7.9s-5.2,2.8-8.6,2.7c-2.9-0.1-5.2-1.1-7-3.1c-1.7-2-2.7-4.7-2.8-8.1
		c0-1.2,0-2.3,0.2-3.5l0.6-4c0.5-3,1.4-5.7,2.8-8c1.4-2.3,3.1-4.1,5.1-5.2c2-1.2,4.2-1.7,6.6-1.7c3.1,0.1,5.5,1,7.3,3
		c1.8,1.9,2.6,4.5,2.6,7.7h-2.7c0-2.6-0.6-4.7-1.9-6.1c-1.3-1.4-3.1-2.2-5.4-2.3c-3-0.1-5.5,1-7.6,3.3s-3.4,5.4-4.1,9.5l-0.7,4.5
		l-0.1,2c0,1.8,0.2,3.4,0.8,4.9c0.5,1.5,1.4,2.7,2.5,3.5s2.4,1.2,3.9,1.3c2.6,0.1,4.8-0.6,6.5-2c1.8-1.4,3-3.5,3.9-6.3L556.1,410.8z
		"/>
	<path class="st2" d="M580.5,412.8c0.3-2.8-1.2-4.9-4.5-6.2l-4.3-1.6l-1.4-0.6c-4.3-1.8-6.2-4.5-5.9-8c0.1-1.7,0.7-3.3,1.8-4.6
		c1.1-1.3,2.5-2.3,4.3-3s3.7-1,5.7-1c1.9,0,3.7,0.5,5.2,1.3s2.7,2,3.4,3.5c0.8,1.5,1.1,3.1,0.9,5h-2.8c0.2-2.2-0.3-4-1.6-5.3
		c-1.2-1.3-3-2-5.3-2.1c-2.4,0-4.4,0.5-6.1,1.6c-1.7,1.1-2.6,2.6-2.9,4.6c-0.2,1.5,0.3,2.9,1.4,3.9s3,2,5.7,2.8
		c3.5,1.1,5.9,2.4,7.2,4c1.4,1.5,1.9,3.4,1.8,5.6c-0.2,1.8-0.8,3.4-1.9,4.7c-1.1,1.3-2.6,2.3-4.4,3c-1.8,0.7-3.8,1-5.9,1
		c-2.1,0-4-0.4-5.6-1.3s-2.9-2-3.8-3.4s-1.2-3.1-1-5.1h2.7c-0.2,2.3,0.4,4.1,1.8,5.4s3.4,2,5.9,2.1c2.5,0,4.6-0.5,6.3-1.7
		S580.2,414.7,580.5,412.8z"/>
</g>
</svg>
