<?xml version="1.0" encoding="utf-8"?>
<!-- Generator: Adobe Illustrator 26.5.0, SVG Export Plug-In . SVG Version: 6.00 Build 0)  -->
<svg version="1.1" id="Layer_1" xmlns="http://www.w3.org/2000/svg" xmlns:xlink="http://www.w3.org/1999/xlink" x="0px" y="0px"
	 viewBox="0 0 720 720" style="enable-background:new 0 0 720 720;" xml:space="preserve">
<style type="text/css">
	.st0{opacity:0.39;enable-background:new    ;}
	.st1{fill:none;}
	.st2{enable-background:new    ;}
	.st3{fill:#FFFFFF;}
</style>
<rect class="st0" width="720" height="720"/>
<rect x="-814.8" y="300" class="st1" width="720" height="407"/>
<text transform="matrix(1 0 0 1 -648.6546 365.6877)" style="font-family:'Raleway-Bold'; font-size:90px;">RECYBIN</text>
<text transform="matrix(1 0 0 1 -596.8504 420.8877)" style="font-family:'Roboto-LightItalic'; font-size:46px;">UX/UI DESIGN</text>
<g>
	<g class="st2">
		<path class="st3" d="M172.8,363.2v-63.9H201c2.9,0,5.7,0.6,8.1,1.8c2.5,1.2,4.6,2.8,6.5,4.9c1.8,2,3.2,4.3,4.2,6.8
			c1,2.5,1.5,5.1,1.5,7.7c0,2.7-0.5,5.3-1.4,7.8c-0.9,2.5-2.3,4.7-4,6.5c-1.7,1.9-3.8,3.3-6.1,4.3l14.6,24h-13.7l-13.1-21.4h-12.4
			v21.4H172.8z M185.2,330.9h15.6c1.6,0,2.9-0.5,4.1-1.4c1.2-0.9,2.2-2.2,2.9-3.7c0.7-1.6,1.1-3.3,1.1-5.2c0-2-0.4-3.8-1.3-5.4
			c-0.8-1.5-1.9-2.7-3.2-3.6c-1.3-0.9-2.7-1.3-4.2-1.3h-15V330.9z"/>
		<path class="st3" d="M277,352.3v10.9h-44.4v-63.9h43.6v10.9H245v15.4h26.9v10.1H245v16.7H277z"/>
		<path class="st3" d="M281.7,330.7c0-3.9,0.7-7.7,2.1-11.5c1.4-3.7,3.5-7.2,6.2-10.3c2.7-3.1,6-5.5,9.9-7.4
			c3.9-1.8,8.3-2.7,13.3-2.7c5.9,0,11,1.3,15.3,3.9c4.3,2.6,7.5,5.9,9.6,10.1l-9.5,6.6c-1.1-2.4-2.5-4.3-4.2-5.7
			c-1.7-1.4-3.6-2.4-5.6-3c-2-0.6-3.9-0.9-5.8-0.9c-3.1,0-5.8,0.6-8.1,1.9c-2.3,1.3-4.2,2.9-5.8,5c-1.6,2-2.7,4.3-3.5,6.8
			c-0.8,2.5-1.1,5-1.1,7.6c0,2.8,0.5,5.5,1.4,8.1c0.9,2.6,2.2,4.9,3.8,6.9c1.6,2,3.6,3.6,5.9,4.8c2.3,1.2,4.8,1.8,7.6,1.8
			c2,0,4-0.3,6-1c2-0.7,3.9-1.7,5.7-3.2c1.7-1.4,3.1-3.3,4-5.6l10.2,5.8c-1.3,3.2-3.3,5.9-6.2,8.1c-2.9,2.2-6,3.9-9.6,5
			c-3.5,1.1-7.1,1.7-10.5,1.7c-4.6,0-8.7-0.9-12.5-2.8c-3.8-1.9-7-4.4-9.8-7.6c-2.7-3.1-4.9-6.7-6.4-10.6
			C282.4,338.7,281.7,334.7,281.7,330.7z"/>
		<path class="st3" d="M352.8,299.3l15.8,30.1l16-30.1h13.4l-23.2,41.6v22.3h-12.3v-22.5l-23.1-41.4H352.8z"/>
		<path class="st3" d="M456.4,346.7c0,3.6-0.9,6.6-2.8,9c-1.9,2.4-4.4,4.3-7.5,5.5c-3.2,1.3-6.6,1.9-10.3,1.9H405v-63.9h34.2
			c3,0,5.6,0.8,7.8,2.4c2.2,1.6,3.9,3.6,5,6.1c1.2,2.5,1.8,5.1,1.8,7.8c0,3.1-0.8,6-2.3,8.7c-1.6,2.8-3.8,4.8-6.8,6.1
			c3.7,1.1,6.6,3,8.7,5.8C455.4,339.1,456.4,342.6,456.4,346.7z M417.4,309.9V326h16.6c1.4,0,2.6-0.3,3.8-1c1.1-0.7,2.1-1.6,2.7-2.8
			c0.7-1.2,1-2.6,1-4.3c0-1.6-0.3-3-0.9-4.2c-0.6-1.2-1.5-2.1-2.5-2.8c-1.1-0.7-2.2-1-3.6-1H417.4z M443.9,344.4
			c0-1.6-0.3-3.1-1-4.4c-0.7-1.3-1.5-2.3-2.7-3.1c-1.1-0.7-2.4-1.1-3.8-1.1h-19.1v16.8h18.5c1.5,0,2.9-0.4,4.1-1.1
			c1.2-0.7,2.2-1.8,2.9-3C443.6,347.2,443.9,345.9,443.9,344.4z"/>
		<path class="st3" d="M466.2,363.2v-63.9h12.4v63.9H466.2z"/>
		<path class="st3" d="M504.3,322.1v41h-12.4v-63.9h9.9l33,42.1v-42h12.4v63.8h-10.3L504.3,322.1z"/>
	</g>
	<g class="st2">
		<path class="st3" d="M247.2,385.7l-3.8,22.1c-0.5,3.4-2,6.2-4.3,8.2s-5.2,3-8.6,2.9c-2.1,0-3.9-0.5-5.5-1.5
			c-1.5-0.9-2.7-2.2-3.3-3.9s-0.9-3.6-0.7-5.6l3.8-22.2h2.7l-3.8,22.2c-0.3,2.5,0.1,4.6,1.4,6.1c1.2,1.6,3.1,2.4,5.5,2.5
			c2.5,0.1,4.7-0.6,6.5-2.1c1.8-1.5,3-3.5,3.5-6.2l3.9-22.6H247.2z"/>
		<path class="st3" d="M261.9,399.5l11.1-13.8h3.4l-13.1,16.3l8.2,16.4h-3.1l-7-14.2l-11.5,14.2h-3.4l13.5-16.7l-8-16h3.1
			L261.9,399.5z"/>
		<path class="st3" d="M275.3,421.2h-2.6l19.4-35.5h2.5L275.3,421.2z"/>
		<path class="st3" d="M322.3,385.7l-3.8,22.1c-0.5,3.4-2,6.2-4.3,8.2s-5.2,3-8.6,2.9c-2.1,0-3.9-0.5-5.5-1.5
			c-1.5-0.9-2.7-2.2-3.3-3.9s-0.9-3.6-0.7-5.6l3.8-22.2h2.7l-3.8,22.2c-0.3,2.5,0.1,4.6,1.4,6.1c1.2,1.6,3.1,2.4,5.5,2.5
			c2.5,0.1,4.7-0.6,6.5-2.1c1.8-1.5,3-3.5,3.5-6.2l3.9-22.6H322.3z"/>
		<path class="st3" d="M327.4,418.4h-2.7l5.7-32.7h2.7L327.4,418.4z"/>
		<path class="st3" d="M347.3,418.4l5.7-32.7l8.5,0c2.5,0,4.7,0.6,6.6,1.9c1.9,1.3,3.2,3.1,4,5.4c0.8,2.3,1.1,4.8,0.7,7.5l-0.4,2.7
			c-0.7,4.5-2.5,8.2-5.4,11s-6.5,4.2-10.8,4.2H347.3z M355.3,388l-4.9,28l5.8,0c2.3,0,4.4-0.5,6.3-1.6s3.4-2.5,4.7-4.4
			c1.2-1.9,2-4.1,2.4-6.5c0.4-2.4,0.6-4.1,0.6-5s0-1.8-0.1-2.7c-0.3-2.4-1.3-4.3-2.7-5.7s-3.4-2.1-5.8-2.2L355.3,388z"/>
		<path class="st3" d="M397,402.7h-14.8l-2.3,13.3H397l-0.4,2.3h-19.8l5.7-32.7h19.7l-0.4,2.3h-16.9l-2.2,12.4h14.8L397,402.7z"/>
		<path class="st3" d="M421.7,410.2c0.3-2.8-1.2-4.9-4.5-6.2l-4.3-1.6l-1.4-0.6c-4.3-1.8-6.2-4.5-5.9-8c0.1-1.7,0.7-3.3,1.8-4.6
			s2.5-2.3,4.3-3c1.8-0.7,3.7-1,5.7-1c1.9,0,3.7,0.5,5.2,1.3c1.5,0.8,2.7,2,3.4,3.5c0.8,1.5,1.1,3.1,0.9,5h-2.8
			c0.2-2.2-0.3-4-1.6-5.3c-1.3-1.3-3-2-5.3-2.1c-2.4,0-4.4,0.5-6.1,1.6c-1.7,1.1-2.6,2.6-2.9,4.6c-0.2,1.5,0.3,2.9,1.4,3.9
			c1.1,1.1,3,2,5.7,2.8c3.5,1.1,5.9,2.4,7.2,4c1.4,1.5,1.9,3.4,1.8,5.6c-0.2,1.8-0.8,3.4-1.9,4.7c-1.1,1.3-2.6,2.3-4.4,3
			s-3.8,1-5.9,1c-2.1,0-4-0.4-5.6-1.3c-1.7-0.8-2.9-2-3.8-3.4c-0.8-1.5-1.2-3.1-1-5.1h2.7c-0.2,2.3,0.4,4.1,1.8,5.4
			c1.4,1.3,3.4,2,5.9,2.1s4.6-0.5,6.3-1.7C420.5,413.7,421.5,412.1,421.7,410.2z"/>
		<path class="st3" d="M432.3,418.4h-2.7l5.7-32.7h2.7L432.3,418.4z"/>
		<path class="st3" d="M464.9,414.5c-1.1,1.4-2.7,2.5-4.8,3.3c-2.1,0.8-4.4,1.1-6.9,1.1c-3,0-5.5-1.1-7.4-3.1s-2.9-4.8-3.1-8.2
			c-0.1-1.2,0-2.4,0.1-3.6l0.6-3.7c0.7-4.6,2.4-8.2,5-11c2.6-2.7,5.9-4.1,9.7-4c3,0.1,5.4,0.9,7.2,2.7s2.7,4,2.8,7h-2.7
			c-0.1-2.3-0.8-4.1-2.1-5.3s-3.1-1.9-5.4-2c-3.1-0.1-5.6,1-7.8,3.3c-2.1,2.3-3.5,5.4-4.1,9.4l-0.5,3.5c-0.1,1-0.2,2-0.2,3
			c0,3,0.8,5.3,2.2,7.1c1.4,1.7,3.3,2.6,5.7,2.6c3.8,0.1,6.8-0.9,8.9-2.8l1.5-8.5h-8.5l0.4-2.3h11.3L464.9,414.5z"/>
		<path class="st3" d="M495.5,418.4h-2.7l-13.4-28l-4.9,28h-2.8l5.7-32.7h2.7l13.4,28.1l4.9-28.1h2.7L495.5,418.4z"/>
	</g>
</g>
<rect x="-678.2" y="3.4" class="st1" width="571.4" height="248.8"/>
<text transform="matrix(1 0 0 1 -510.5484 69.1435)" style="font-family:'Raleway-Bold'; font-size:90px;">POLY </text>
<text transform="matrix(1 0 0 1 -555.7484 177.1435)" style="font-family:'Raleway-Bold'; font-size:90px;">KROMA</text>
<text transform="matrix(1 0 0 1 -623.4484 235.1435)" style="font-family:'Roboto-LightItalic'; font-size:46px;">3D MOTION GRAPHICS</text>
</svg>
