<?xml version="1.0" encoding="UTF-8"?>
<svg id="Layer_1" xmlns="http://www.w3.org/2000/svg" version="1.1" viewBox="0 0 720 720">
  <!-- Generator: Adobe Illustrator 29.7.1, SVG Export Plug-In . SVG Version: 2.1.1 Build 8)  -->
  <defs>
    <style>
      .st0 {
        font-family: Raleway-Bold, Raleway;
        font-size: 90px;
        font-weight: 700;
      }

      .st0, .st1, .st2, .st3 {
        isolation: isolate;
      }

      .st4 {
        fill: #fff;
      }

      .st5 {
        fill: none;
      }

      .st2 {
        opacity: .4;
      }

      .st3 {
        font-family: Roboto-LightItalic, Roboto;
        font-size: 46px;
        font-style: italic;
        font-weight: 300;
      }
    </style>
  </defs>
  <rect class="st2" width="720" height="720"/>
  <rect class="st5" x="-739.1" y="300" width="720" height="407"/>
  <g class="st1">
    <text class="st3" transform="translate(-659.3 420.9)"><tspan x="0" y="0">PRODUCT DEVELOPMENT</tspan></text>
  </g>
  <g>
    <g class="st1">
      <g class="st1">
        <path class="st4" d="M145.6,207.6c-.4-.4-1.2-1-2.3-1.7-1.1-.7-2.5-1.4-4-2.1-1.6-.7-3.3-1.2-5.2-1.8-1.9-.5-3.8-.8-5.7-.8-3.4,0-5.9.6-7.6,1.9-1.7,1.3-2.6,3-2.6,5.3s.5,3.1,1.6,4.1c1.1,1,2.7,1.9,4.9,2.6,2.2.7,4.9,1.5,8.1,2.3,4.2,1,7.8,2.3,10.9,3.7,3.1,1.5,5.5,3.4,7.1,5.7,1.6,2.4,2.5,5.5,2.5,9.4s-.6,6.3-1.9,8.7c-1.3,2.4-3,4.4-5.2,5.9-2.2,1.5-4.7,2.6-7.6,3.3-2.8.7-5.8,1-9,1s-6.4-.3-9.5-1c-3.2-.7-6.2-1.6-9.2-2.8-2.9-1.2-5.6-2.7-8.1-4.5l5.5-10.7c.5.5,1.5,1.2,2.9,2.1,1.4.9,3.1,1.7,5,2.6,2,.9,4.1,1.6,6.5,2.2,2.3.6,4.7.9,7.1.9s5.9-.6,7.7-1.7c1.7-1.1,2.6-2.7,2.6-4.8s-.7-3.4-2.1-4.5c-1.4-1.1-3.3-2-5.8-2.8-2.5-.8-5.4-1.7-8.7-2.6-4-1.1-7.4-2.4-10.1-3.8-2.7-1.4-4.7-3.2-6-5.3-1.3-2.2-2-4.8-2-8.1s1-8,3.1-11c2.1-3,4.9-5.2,8.4-6.7,3.5-1.5,7.5-2.3,11.8-2.3s5.8.3,8.5,1c2.7.7,5.2,1.5,7.5,2.6s4.4,2.2,6.3,3.5l-5.5,10.1Z"/>
        <path class="st4" d="M189.8,255.2c-5.1,0-9.4-.9-13-2.6-3.6-1.7-6.5-4.1-8.6-7.1-2.2-3-3.8-6.4-4.8-10.2-1-3.8-1.5-7.8-1.5-11.9v-32.6h12.4v32.6c0,2.6.3,5.2.8,7.7.5,2.5,1.4,4.7,2.6,6.7,1.2,2,2.8,3.5,4.8,4.7,2,1.1,4.4,1.7,7.4,1.7s5.5-.6,7.5-1.8c2-1.2,3.6-2.7,4.8-4.7,1.2-2,2-4.2,2.6-6.7.5-2.5.8-5,.8-7.6v-32.6h12.3v32.6c0,4.4-.5,8.5-1.6,12.3-1.1,3.8-2.7,7.2-5,10.1-2.2,2.9-5.1,5.2-8.7,6.8-3.5,1.7-7.8,2.5-12.7,2.5Z"/>
        <path class="st4" d="M230.2,254.8v-63.9h27.1c2.9,0,5.6.6,8.1,1.8,2.5,1.2,4.6,2.8,6.4,4.9,1.8,2,3.3,4.3,4.3,6.8,1,2.5,1.5,5.1,1.5,7.7s-.8,7-2.5,10.3c-1.7,3.2-4,5.9-6.9,7.9-2.9,2-6.4,3.1-10.4,3.1h-15.1v21.4h-12.4ZM242.6,222.5h14.4c1.5,0,2.8-.4,4-1.3,1.2-.8,2.2-2.1,2.9-3.6.7-1.6,1.1-3.4,1.1-5.4s-.4-4.1-1.2-5.7c-.8-1.6-1.9-2.7-3.2-3.5-1.3-.8-2.7-1.2-4.2-1.2h-13.9v20.7Z"/>
        <path class="st4" d="M330.7,243.9v10.9h-44.4v-63.9h43.6v10.9h-31.1v15.4h26.9v10.1h-26.9v16.7h32Z"/>
        <path class="st4" d="M340.4,254.8v-63.9h28.3c2.9,0,5.7.6,8.1,1.8,2.5,1.2,4.6,2.8,6.5,4.9,1.8,2,3.2,4.3,4.2,6.8,1,2.5,1.5,5.1,1.5,7.7s-.5,5.3-1.4,7.8c-.9,2.5-2.3,4.7-4,6.5-1.7,1.9-3.8,3.3-6.1,4.3l14.6,24h-13.7l-13.1-21.4h-12.4v21.4h-12.4ZM352.8,222.5h15.6c1.6,0,2.9-.5,4.1-1.4,1.2-.9,2.2-2.2,2.9-3.7.7-1.6,1.1-3.3,1.1-5.2s-.4-3.8-1.3-5.4c-.8-1.5-1.9-2.7-3.2-3.6-1.3-.9-2.7-1.3-4.2-1.3h-15v20.7Z"/>
        <path class="st4" d="M452.3,254.8v-41.9l-16.4,31.2h-6.9l-16.4-31.2v41.9h-12.4v-63.9h13.3l18.9,36.4,19.1-36.4h13.2v63.9h-12.4Z"/>
        <path class="st4" d="M495.4,190.9h12.6l23.5,63.9h-12.8l-5.3-15.9h-23.5l-5.3,15.9h-12.8l23.6-63.9ZM510.5,230.1l-8.8-26.4-8.8,26.4h17.6Z"/>
        <path class="st4" d="M551,213.7v41h-12.4v-63.9h9.9l33,42.1v-42h12.4v63.8h-10.3l-32.6-41Z"/>
        <path class="st4" d="M340.1,316.1l9.9,14.6.7,1.6.9-1.6,9.8-14.6h12.7l-16.4,23.3,16.6,23.4h-12.7l-10.2-14.5-.8-1.5-.7,1.5-10.1,14.5h-12.7l16.7-23.2-16.4-23.5h12.6Z"/>
        <path class="st4" d="M68.5,407.1h11.5l7.3,21.1,7.4-21.1h11.4l-11,29.1,8.1,20.3,18.1-49.6h13.5l-25.6,63.9h-10.7l-11.2-26.8-11.2,26.8h-10.7l-25.5-63.9h13.3l18.2,49.6,7.9-20.3-10.9-29.1Z"/>
        <path class="st4" d="M166.2,471.2c-4.7,0-8.9-.9-12.7-2.7-3.8-1.8-7.1-4.2-9.8-7.3-2.7-3.1-4.8-6.6-6.3-10.4-1.5-3.9-2.2-7.8-2.2-11.9s.8-8.3,2.4-12.2c1.6-3.9,3.8-7.3,6.6-10.4,2.8-3,6.1-5.4,9.9-7.2,3.8-1.8,8-2.7,12.6-2.7s8.8.9,12.6,2.8c3.8,1.9,7.1,4.4,9.8,7.5,2.7,3.1,4.8,6.6,6.3,10.4,1.5,3.8,2.2,7.8,2.2,11.9s-.8,8.2-2.3,12.1c-1.6,3.9-3.7,7.3-6.5,10.3-2.8,3-6.1,5.4-9.9,7.2-3.8,1.7-8,2.6-12.5,2.6ZM147.7,438.8c0,2.8.4,5.4,1.3,8,.8,2.6,2.1,4.9,3.6,6.9,1.6,2,3.5,3.6,5.9,4.8,2.3,1.2,4.9,1.8,7.9,1.8s5.7-.6,8-1.8c2.3-1.2,4.3-2.9,5.8-5,1.6-2.1,2.7-4.4,3.6-6.9.8-2.5,1.2-5.1,1.2-7.7s-.4-5.4-1.3-8c-.9-2.5-2.1-4.8-3.7-6.8-1.6-2-3.5-3.6-5.8-4.8-2.3-1.2-4.9-1.8-7.8-1.8s-5.7.6-8.1,1.8c-2.3,1.2-4.2,2.9-5.8,4.9-1.6,2-2.7,4.3-3.6,6.8-.8,2.5-1.2,5.1-1.2,7.7Z"/>
        <path class="st4" d="M219.4,429.7v41h-12.4v-63.9h9.9l33,42.1v-42h12.4v63.8h-10.3l-32.6-41Z"/>
        <path class="st4" d="M275.7,470.8v-63.9h23.2c7,0,12.8,1.4,17.5,4.3,4.7,2.9,8.2,6.7,10.5,11.5,2.3,4.8,3.5,10.2,3.5,16.1s-1.3,12.1-3.9,16.9c-2.6,4.8-6.2,8.5-10.9,11.2-4.7,2.6-10.3,4-16.7,4h-23.2ZM317.9,438.7c0-4.1-.8-7.8-2.2-10.9-1.5-3.2-3.7-5.6-6.5-7.4-2.8-1.8-6.2-2.7-10.3-2.7h-10.8v42.1h10.8c4.1,0,7.5-.9,10.3-2.7,2.8-1.8,5-4.3,6.4-7.6,1.5-3.2,2.2-6.8,2.2-10.8Z"/>
        <path class="st4" d="M384.5,459.9v10.9h-44.4v-63.9h43.6v10.9h-31.1v15.4h26.9v10.1h-26.9v16.7h32Z"/>
        <path class="st4" d="M394.2,470.8v-63.9h28.3c2.9,0,5.7.6,8.1,1.8,2.5,1.2,4.6,2.8,6.5,4.9,1.8,2,3.2,4.3,4.2,6.8,1,2.5,1.5,5.1,1.5,7.7s-.5,5.3-1.4,7.8c-.9,2.5-2.3,4.7-4,6.5-1.7,1.9-3.8,3.3-6.1,4.3l14.6,24h-13.7l-13.1-21.4h-12.4v21.4h-12.4ZM406.6,438.5h15.6c1.6,0,2.9-.5,4.1-1.4,1.2-.9,2.2-2.2,2.9-3.7.7-1.6,1.1-3.3,1.1-5.2s-.4-3.8-1.3-5.4c-.8-1.5-1.9-2.7-3.2-3.6-1.3-.9-2.7-1.3-4.2-1.3h-15v20.7Z"/>
        <path class="st4" d="M454,470.8v-63.9h42.9v10.9h-30.5v16.5h25.4v10.1h-25.4v26.5h-12.4Z"/>
        <path class="st4" d="M532,471.2c-4.7,0-8.9-.9-12.7-2.7-3.8-1.8-7.1-4.2-9.8-7.3-2.7-3.1-4.8-6.6-6.3-10.4-1.5-3.9-2.2-7.8-2.2-11.9s.8-8.3,2.4-12.2c1.6-3.9,3.8-7.3,6.6-10.4,2.8-3,6.1-5.4,9.9-7.2,3.8-1.8,8-2.7,12.6-2.7s8.8.9,12.6,2.8c3.8,1.9,7.1,4.4,9.8,7.5,2.7,3.1,4.8,6.6,6.3,10.4,1.5,3.8,2.2,7.8,2.2,11.9s-.8,8.2-2.3,12.1c-1.6,3.9-3.7,7.3-6.5,10.3-2.8,3-6.1,5.4-9.9,7.2-3.8,1.7-8,2.6-12.5,2.6ZM513.4,438.8c0,2.8.4,5.4,1.3,8,.8,2.6,2.1,4.9,3.6,6.9,1.6,2,3.5,3.6,5.9,4.8,2.3,1.2,4.9,1.8,7.9,1.8s5.7-.6,8-1.8c2.3-1.2,4.3-2.9,5.8-5,1.6-2.1,2.7-4.4,3.6-6.9.8-2.5,1.2-5.1,1.2-7.7s-.4-5.4-1.3-8c-.9-2.5-2.1-4.8-3.7-6.8-1.6-2-3.5-3.6-5.8-4.8-2.3-1.2-4.9-1.8-7.8-1.8s-5.7.6-8.1,1.8c-2.3,1.2-4.2,2.9-5.8,4.9-1.6,2-2.7,4.3-3.6,6.8-.8,2.5-1.2,5.1-1.2,7.7Z"/>
        <path class="st4" d="M572.8,470.8v-63.9h12.4v53h32.6v10.9h-45Z"/>
        <path class="st4" d="M625.3,470.8v-63.9h23.2c7,0,12.8,1.4,17.5,4.3,4.7,2.9,8.2,6.7,10.5,11.5,2.3,4.8,3.5,10.2,3.5,16.1s-1.3,12.1-3.9,16.9c-2.6,4.8-6.2,8.5-10.9,11.2-4.7,2.6-10.3,4-16.7,4h-23.2ZM667.5,438.7c0-4.1-.8-7.8-2.2-10.9-1.5-3.2-3.7-5.6-6.5-7.4-2.8-1.8-6.2-2.7-10.3-2.7h-10.8v42.1h10.8c4.1,0,7.5-.9,10.3-2.7,2.8-1.8,5-4.3,6.4-7.6,1.5-3.2,2.2-6.8,2.2-10.8Z"/>
      </g>
    </g>
    <g class="st1">
      <path class="st4" d="M113.7,515.8h-9.3l.4-2.4h8.9c1.6,0,3-.3,4.3-.8,1.3-.5,2.4-1.4,3.3-2.4.9-1.1,1.5-2.4,1.7-4.1.2-1.5.1-2.8-.4-3.9-.5-1.1-1.3-1.9-2.3-2.5s-2.3-.9-3.8-.9h-8.3l-5.3,30.3h-2.7l5.7-32.7h10.6c1.9,0,3.6.4,5.1,1.2,1.5.8,2.6,1.8,3.3,3.3.7,1.4,1,3.2.7,5.2-.3,2.2-1,4-2.1,5.4-1.1,1.4-2.6,2.5-4.3,3.2-1.7.7-3.6,1.1-5.7,1.1Z"/>
      <path class="st4" d="M133.4,496.4h10.1c1.9,0,3.6.4,5.1,1.2,1.5.7,2.6,1.8,3.4,3.2.8,1.4,1,3.1.8,5.2-.2,1.7-.7,3.1-1.5,4.3-.8,1.2-1.8,2.2-3.1,3-1.2.8-2.6,1.4-4.1,1.9l-1,.4h-11.2l.4-2.4h9c1.5,0,2.8-.3,4.1-.9s2.3-1.4,3.2-2.5,1.4-2.3,1.6-3.8c.2-1.5.1-2.8-.4-3.9-.5-1-1.3-1.8-2.4-2.4s-2.4-.8-3.8-.9h-7.8l-5.3,30.3h-2.7l5.7-32.7ZM147.4,529.1l-5.7-14.6h2.8s5.8,14.3,5.8,14.3v.3h-2.9Z"/>
      <path class="st4" d="M182.7,511l-.5,3.5c-.3,1.9-.9,3.8-1.6,5.6-.8,1.8-1.8,3.4-3,4.9s-2.7,2.6-4.4,3.4c-1.7.8-3.6,1.2-5.8,1.2-2.1,0-3.8-.5-5.2-1.4s-2.5-2.1-3.3-3.5c-.8-1.5-1.3-3.1-1.5-4.8-.2-1.8-.2-3.6,0-5.4l.6-3.5c.3-1.9.8-3.8,1.6-5.6.8-1.8,1.8-3.4,3-4.9,1.2-1.4,2.7-2.6,4.4-3.4,1.7-.8,3.6-1.2,5.7-1.2,2.1,0,3.8.5,5.3,1.3,1.4.9,2.5,2.1,3.3,3.5.8,1.5,1.3,3.1,1.5,4.8.2,1.8.2,3.6,0,5.4ZM179.5,514.5l.6-3.5c.2-1.4.3-2.9.2-4.3,0-1.5-.4-2.8-.9-4.1-.5-1.2-1.3-2.2-2.4-3s-2.5-1.2-4.2-1.2c-1.8,0-3.3.3-4.7,1-1.4.7-2.5,1.7-3.5,2.9-1,1.2-1.8,2.6-2.4,4.1s-1.1,3-1.3,4.6l-.6,3.5c-.2,1.4-.3,2.8-.2,4.3s.4,2.8,1,4.1c.5,1.2,1.3,2.3,2.4,3,1.1.8,2.5,1.2,4.2,1.2,1.8,0,3.3-.3,4.7-1,1.4-.7,2.5-1.7,3.5-2.9,1-1.2,1.8-2.6,2.4-4.1.6-1.5,1-3,1.3-4.6Z"/>
      <path class="st4" d="M194.7,496.4l-5.7,32.7h-2.7l5.7-32.7h2.7ZM195.2,529.1h-7.4l.4-2.4h7c2.4,0,4.6-.6,6.4-1.7,1.9-1.1,3.4-2.6,4.6-4.5,1.2-1.9,2-4,2.4-6.3l.5-3c.2-1.6.3-3.1,0-4.5-.2-1.5-.6-2.8-1.3-4-.7-1.2-1.6-2.1-2.8-2.8-1.2-.7-2.7-1.1-4.4-1.1h-7.7l.4-2.4h7.3c2.1,0,3.9.5,5.4,1.3,1.5.8,2.8,1.9,3.7,3.3.9,1.4,1.6,3,1.9,4.7.3,1.8.4,3.6.1,5.5l-.5,3c-.3,2.1-1,4-1.9,5.8-.9,1.8-2.1,3.4-3.5,4.7s-3,2.4-4.8,3.2c-1.8.8-3.8,1.2-6,1.2Z"/>
      <path class="st4" d="M240.4,496.4h2.7l-3.8,22.1c-.4,2.2-1.1,4.2-2.3,5.8-1.2,1.7-2.7,3-4.5,3.9-1.8.9-3.8,1.4-6.1,1.3-2.2,0-4-.5-5.5-1.4s-2.6-2.2-3.3-3.9c-.7-1.6-.9-3.5-.6-5.7l3.8-22.1h2.7l-3.8,22.1c-.2,1.6-.1,3.1.3,4.4.4,1.3,1.2,2.3,2.3,3.1,1.1.8,2.5,1.1,4.2,1.2,1.8,0,3.4-.3,4.8-1,1.4-.7,2.6-1.7,3.5-3,.9-1.3,1.5-2.8,1.8-4.5l3.8-22.1Z"/>
      <path class="st4" d="M266.4,518.9h2.7c-.5,2.1-1.4,4-2.6,5.6-1.2,1.6-2.7,2.9-4.5,3.7-1.8.9-3.8,1.3-6.1,1.3-2,0-3.7-.5-5.1-1.4-1.4-.9-2.4-2-3.1-3.5-.7-1.4-1.2-3-1.4-4.8-.2-1.7-.2-3.5,0-5.2l.7-4.1c.3-1.9.8-3.7,1.6-5.5s1.8-3.4,3-4.8,2.6-2.5,4.3-3.3c1.7-.8,3.5-1.2,5.6-1.2,2.2,0,4,.5,5.5,1.4,1.5.9,2.6,2.2,3.3,3.8.7,1.6,1.1,3.4,1.1,5.6h-2.7c0-1.6-.2-3.1-.7-4.3s-1.3-2.2-2.4-2.9-2.5-1.1-4.2-1.1c-1.7,0-3.2.3-4.6,1s-2.5,1.7-3.4,2.9c-1,1.2-1.8,2.5-2.4,4-.6,1.5-1,3-1.3,4.5l-.7,4.1c-.2,1.3-.3,2.7-.2,4.1,0,1.4.4,2.8.9,4,.5,1.2,1.2,2.2,2.3,3,1,.8,2.4,1.2,4,1.2,1.9,0,3.5-.3,4.8-1,1.4-.7,2.5-1.6,3.4-2.9.9-1.2,1.6-2.7,2.2-4.4Z"/>
      <path class="st4" d="M300.5,496.4l-.4,2.4h-24.4l.4-2.4h24.4ZM289.6,496.4l-5.6,32.7h-2.7l5.7-32.7h2.7Z"/>
      <path class="st4" d="M318.5,496.4l-5.7,32.7h-2.7l5.7-32.7h2.7ZM319,529.1h-7.4l.4-2.4h7c2.4,0,4.6-.6,6.4-1.7,1.9-1.1,3.4-2.6,4.6-4.5,1.2-1.9,2-4,2.4-6.3l.5-3c.2-1.6.3-3.1,0-4.5-.2-1.5-.6-2.8-1.3-4-.7-1.2-1.6-2.1-2.8-2.8-1.2-.7-2.7-1.1-4.4-1.1h-7.7l.4-2.4h7.3c2.1,0,3.9.5,5.4,1.3,1.5.8,2.8,1.9,3.7,3.3.9,1.4,1.6,3,1.9,4.7.3,1.8.4,3.6.1,5.5l-.5,3c-.3,2.1-1,4-1.9,5.8s-2.1,3.4-3.5,4.7c-1.4,1.3-3,2.4-4.8,3.2s-3.8,1.2-6,1.2Z"/>
      <path class="st4" d="M347.7,496.4l-5.7,32.7h-2.7l5.7-32.7h2.7ZM359.5,526.7l-.4,2.4h-17.9l.4-2.4h17.9ZM360,511.1l-.4,2.4h-15.7l.4-2.4h15.6ZM364.7,496.4l-.4,2.4h-17.8l.4-2.4h17.8Z"/>
      <path class="st4" d="M369.6,496.4l5.5,28.8.4,4h-2.1l-6.7-32.7h2.9ZM375.5,524.9l14.4-28.5h3.1l-16.9,32.7h-2.3l1.7-4.2Z"/>
      <path class="st4" d="M400.6,496.4l-5.7,32.7h-2.7l5.7-32.7h2.7ZM412.4,526.7l-.4,2.4h-17.9l.4-2.4h17.9ZM412.9,511.1l-.4,2.4h-15.7l.4-2.4h15.6ZM417.6,496.4l-.4,2.4h-17.8l.4-2.4h17.8Z"/>
      <path class="st4" d="M426,496.4l-5.7,32.7h-2.7l5.7-32.7h2.7ZM436.4,526.7l-.4,2.4h-16.5l.4-2.4h16.5Z"/>
      <path class="st4" d="M466.3,511l-.5,3.5c-.3,1.9-.9,3.8-1.6,5.6-.8,1.8-1.8,3.4-3,4.9-1.2,1.4-2.7,2.6-4.4,3.4-1.7.8-3.6,1.2-5.8,1.2-2.1,0-3.8-.5-5.2-1.4-1.4-.9-2.5-2.1-3.3-3.5-.8-1.5-1.3-3.1-1.5-4.8-.2-1.8-.2-3.6,0-5.4l.6-3.5c.3-1.9.8-3.8,1.6-5.6.8-1.8,1.8-3.4,3-4.9,1.2-1.4,2.7-2.6,4.4-3.4,1.7-.8,3.6-1.2,5.7-1.2,2.1,0,3.8.5,5.3,1.3s2.5,2.1,3.3,3.5,1.3,3.1,1.5,4.8c.2,1.8.2,3.6,0,5.4ZM463,514.5l.6-3.5c.2-1.4.3-2.9.2-4.3,0-1.5-.4-2.8-.9-4.1s-1.3-2.2-2.4-3c-1.1-.8-2.5-1.2-4.2-1.2-1.8,0-3.3.3-4.7,1-1.4.7-2.5,1.7-3.5,2.9-1,1.2-1.8,2.6-2.4,4.1-.6,1.5-1.1,3-1.3,4.6l-.6,3.5c-.2,1.4-.3,2.8-.2,4.3.1,1.5.4,2.8,1,4.1.5,1.2,1.3,2.3,2.4,3s2.5,1.2,4.2,1.2c1.8,0,3.3-.3,4.7-1,1.4-.7,2.5-1.7,3.5-2.9,1-1.2,1.8-2.6,2.4-4.1.6-1.5,1-3,1.3-4.6Z"/>
      <path class="st4" d="M483.3,515.8h-9.3l.4-2.4h8.9c1.6,0,3-.3,4.3-.8,1.3-.5,2.4-1.4,3.3-2.4.9-1.1,1.5-2.4,1.7-4.1.2-1.5.1-2.8-.4-3.9s-1.3-1.9-2.3-2.5c-1.1-.6-2.3-.9-3.8-.9h-8.3l-5.3,30.3h-2.7l5.7-32.7h10.6c1.9,0,3.6.4,5.1,1.2,1.5.8,2.6,1.8,3.3,3.3.7,1.4,1,3.2.7,5.2-.3,2.2-1,4-2.1,5.4-1.1,1.4-2.6,2.5-4.3,3.2-1.7.7-3.7,1.1-5.7,1.1Z"/>
      <path class="st4" d="M503.1,496.4h2.4l-2.9,18.5-2.4,14.2h-2.7l5.7-32.7ZM503.9,496.4h2.6l6.7,28.8,16.7-28.8h2.9l-19.1,32.7h-2.1l-7.8-32.7ZM531.2,496.4h2.4l-5.7,32.7h-2.7l2.5-14.4,3.5-18.3Z"/>
      <path class="st4" d="M544.4,496.4l-5.7,32.7h-2.7l5.7-32.7h2.7ZM556.2,526.7l-.4,2.4h-17.9l.4-2.4h17.9ZM556.7,511.1l-.4,2.4h-15.7l.4-2.4h15.6ZM561.3,496.4l-.4,2.4h-17.8l.4-2.4h17.8Z"/>
      <path class="st4" d="M590.7,496.4l-5.6,32.7h-2.7l-13.4-28.1-4.9,28.1h-2.7l5.6-32.7h2.7l13.5,28,4.9-28h2.7Z"/>
      <path class="st4" d="M619.7,496.4l-.4,2.4h-24.4l.4-2.4h24.4ZM608.8,496.4l-5.6,32.7h-2.7l5.7-32.7h2.7Z"/>
    </g>
  </g>
  <g>
    <g class="st1">
      <path class="st4" d="M635.9-143.2h11.5l7.3,21.1,7.4-21.1h11.4l-11,29.1,8.1,20.3,18.1-49.6h13.5l-25.6,63.9h-10.7l-11.2-26.8-11.2,26.8h-10.7l-25.5-63.9h13.3l18.2,49.6,7.9-20.3-10.9-29.1h0Z"/>
      <path class="st4" d="M733.8-79c-4.7,0-8.9-.9-12.7-2.7-3.8-1.8-7.1-4.2-9.8-7.3-2.7-3.1-4.8-6.6-6.3-10.4-1.5-3.9-2.2-7.8-2.2-11.9s.8-8.3,2.4-12.2c1.6-3.9,3.8-7.3,6.6-10.4,2.8-3,6.1-5.4,9.9-7.2,3.8-1.8,8-2.7,12.6-2.7s8.8.9,12.6,2.8,7.1,4.4,9.8,7.5,4.8,6.6,6.3,10.4,2.2,7.8,2.2,11.9-.8,8.2-2.3,12.1c-1.6,3.9-3.7,7.3-6.5,10.3s-6.1,5.4-9.9,7.2c-3.8,1.7-8,2.6-12.5,2.6h-.2ZM715.1-111.4c0,2.8.4,5.4,1.3,8,.8,2.6,2.1,4.9,3.6,6.9,1.6,2,3.5,3.6,5.9,4.8,2.3,1.2,4.9,1.8,7.9,1.8s5.7-.6,8-1.8c2.3-1.2,4.3-2.9,5.9-5,1.6-2.1,2.7-4.4,3.6-6.9.8-2.5,1.2-5.1,1.2-7.7s-.4-5.4-1.3-8c-.9-2.5-2.1-4.8-3.7-6.8-1.6-2-3.5-3.6-5.8-4.8-2.3-1.2-4.9-1.8-7.8-1.8s-5.7.6-8.1,1.8c-2.3,1.2-4.2,2.9-5.8,4.9s-2.7,4.3-3.6,6.8c-.8,2.5-1.2,5.1-1.2,7.7h0Z"/>
      <path class="st4" d="M786.9-120.5v41h-12.4v-63.9h9.9l33,42.1v-42h12.4v63.8h-10.3l-32.6-41Z"/>
      <path class="st4" d="M843.1-79.4v-63.9h23.2c7,0,12.8,1.4,17.5,4.3s8.2,6.7,10.5,11.5,3.5,10.2,3.5,16.1-1.3,12.1-3.9,16.9-6.2,8.5-10.9,11.2c-4.7,2.6-10.3,4-16.7,4h-23.2ZM885.4-111.5c0-4.1-.8-7.8-2.2-10.9-1.5-3.2-3.7-5.6-6.5-7.4s-6.2-2.7-10.3-2.7h-10.8v42.1h10.8c4.1,0,7.5-.9,10.4-2.7,2.8-1.8,5-4.3,6.4-7.6,1.5-3.2,2.2-6.8,2.2-10.8Z"/>
      <path class="st4" d="M951.9-90.3v10.9h-44.4v-63.9h43.6v10.9h-31.1v15.4h26.9v10.1h-26.9v16.7h32-.1Z"/>
      <path class="st4" d="M961.6-79.4v-63.9h28.3c2.9,0,5.7.6,8.1,1.8,2.5,1.2,4.6,2.8,6.5,4.9,1.8,2,3.2,4.3,4.2,6.8s1.5,5.1,1.5,7.7-.5,5.3-1.4,7.8-2.3,4.7-4,6.5c-1.7,1.9-3.8,3.3-6.1,4.3l14.6,24h-13.7l-13.1-21.4h-12.4v21.4h-12.5ZM974-111.8h15.6c1.6,0,2.9-.5,4.1-1.4s2.2-2.2,2.9-3.7c.7-1.6,1.1-3.3,1.1-5.2s-.4-3.8-1.3-5.4c-.8-1.5-1.9-2.7-3.2-3.6-1.3-.9-2.7-1.3-4.2-1.3h-15v20.7h0Z"/>
      <path class="st4" d="M1059.6-126.6c-.4-.4-1.2-1-2.3-1.7s-2.5-1.4-4-2.1c-1.6-.7-3.3-1.2-5.2-1.8-1.9-.5-3.8-.8-5.7-.8-3.4,0-5.9.6-7.6,1.9-1.7,1.3-2.6,3-2.6,5.3s.5,3.1,1.6,4.1,2.7,1.9,4.9,2.6,4.9,1.5,8.1,2.3c4.2,1,7.8,2.3,10.9,3.7,3.1,1.5,5.5,3.4,7.1,5.7,1.6,2.4,2.5,5.5,2.5,9.4s-.6,6.3-1.9,8.7c-1.3,2.4-3,4.4-5.2,5.9s-4.7,2.6-7.6,3.3c-2.8.7-5.8,1-9,1s-6.4-.3-9.5-1c-3.2-.7-6.2-1.6-9.2-2.8-2.9-1.2-5.6-2.7-8.1-4.5l5.5-10.7c.5.5,1.5,1.2,2.9,2.1s3.1,1.7,5,2.6c2,.9,4.1,1.6,6.5,2.2,2.3.6,4.7.9,7.1.9s5.9-.6,7.6-1.7c1.7-1.1,2.6-2.7,2.6-4.8s-.7-3.4-2.1-4.5c-1.4-1.1-3.3-2-5.8-2.8s-5.4-1.7-8.7-2.6c-4-1.1-7.4-2.4-10.1-3.8s-4.7-3.2-6-5.3c-1.3-2.2-2-4.8-2-8.1s1-8,3.1-11,4.9-5.2,8.4-6.7c3.5-1.5,7.5-2.3,11.8-2.3s5.8.3,8.5,1,5.2,1.5,7.5,2.6,4.4,2.2,6.3,3.5l-5.5,10.1h.2Z"/>
      <path class="st4" d="M1076.6-79.4v-63.9h12.4v63.9h-12.4Z"/>
      <path class="st4" d="M1102.4-79.4v-63.9h27.1c2.9,0,5.6.6,8.1,1.8,2.5,1.2,4.6,2.8,6.4,4.9,1.8,2,3.3,4.3,4.3,6.8s1.5,5.1,1.5,7.7-.8,7-2.5,10.3c-1.7,3.2-4,5.9-6.9,7.9s-6.4,3.1-10.4,3.1h-15.1v21.4h-12.5ZM1114.9-111.8h14.4c1.5,0,2.8-.4,4-1.3,1.2-.8,2.2-2.1,2.9-3.6.7-1.6,1.1-3.4,1.1-5.4s-.4-4.1-1.2-5.7-1.9-2.7-3.2-3.5-2.7-1.2-4.2-1.2h-13.9v20.7h.1Z"/>
    </g>
    <g class="st1">
      <path class="st4" d="M784.9-36.8h-9.1l.4-2.4h7.5c1.4,0,2.7-.2,3.9-.7s2.2-1.1,3.1-2c.8-.9,1.4-2.1,1.6-3.6s0-2.6-.5-3.5-1.3-1.5-2.4-1.9-2.2-.6-3.5-.6h-6.9l-5.3,30.3h-2.7l5.7-32.7h9.2c1.3,0,2.6.2,3.8.5,1.2.3,2.2.8,3.1,1.5s1.5,1.5,1.9,2.6.5,2.3.3,3.8-.6,2.8-1.4,3.9c-.8,1-1.8,1.9-3,2.5s-2.5,1.1-3.9,1.3l-1.8.9h0ZM782-21.1h-9.9l1.8-2.4h8.2c1.5,0,2.8-.3,4-.8s2.3-1.3,3.1-2.3c.8-1,1.4-2.3,1.6-3.8.2-1.3,0-2.5-.4-3.4-.5-1-1.2-1.7-2.2-2.2s-2.1-.8-3.4-.8h-5.8l.4-2.4h7.7l.4.9c1.3.2,2.4.7,3.4,1.5.9.7,1.6,1.7,2.1,2.8.4,1.1.6,2.3.4,3.6-.2,2-.9,3.7-2,5.1s-2.5,2.4-4.2,3.1-3.5,1.1-5.4,1.1h.2Z"/>
      <path class="st4" d="M804-53.8h10.1c1.9,0,3.6.4,5.1,1.2,1.5.7,2.6,1.8,3.4,3.2.8,1.4,1,3.1.8,5.2-.2,1.7-.7,3.1-1.5,4.3-.8,1.2-1.8,2.2-3.1,3-1.3.8-2.6,1.4-4.1,1.9l-1,.4h-11.2l.4-2.4h9c1.5,0,2.8-.3,4.1-.9s2.3-1.4,3.2-2.5,1.4-2.3,1.6-3.8.1-2.8-.4-3.9-1.3-1.8-2.4-2.4-2.4-.8-3.8-.9h-7.8l-5.3,30.3h-2.7l5.7-32.7h-.1ZM818-21.1l-5.7-14.6h2.8l5.8,14.3v.3h-2.9,0Z"/>
      <path class="st4" d="M842.5-51.7l-16.2,30.6h-2.9l17.6-32.7h2l-.5,2.1ZM847.2-32.6l-.4,2.4h-16.9l.4-2.4h16.9ZM847.2-21.1l-5.7-30.9.2-1.8h1.9l6.4,32.7h-2.8Z"/>
      <path class="st4" d="M883.9-53.8l-5.6,32.7h-2.7l-13.4-28.1-4.9,28.1h-2.7l5.6-32.7h2.7l13.5,28,4.9-28h2.7-.1Z"/>
      <path class="st4" d="M894.8-53.8l-5.7,32.7h-2.7l5.7-32.7h2.7ZM895.2-21.1h-7.4l.4-2.4h7c2.4,0,4.6-.6,6.4-1.7,1.9-1.1,3.4-2.6,4.6-4.5s2-4,2.4-6.3l.5-3c.2-1.6.3-3.1,0-4.5-.2-1.5-.6-2.8-1.3-4-.7-1.2-1.6-2.1-2.8-2.8s-2.7-1.1-4.4-1.1h-7.7l.4-2.4h7.3c2.1,0,3.9.5,5.4,1.3s2.8,1.9,3.7,3.3c.9,1.4,1.6,3,1.9,4.7s.4,3.6.1,5.5l-.5,3c-.3,2.1-1,4-1.9,5.8s-2.1,3.4-3.5,4.7c-1.4,1.3-3,2.4-4.8,3.2-1.8.8-3.8,1.2-6,1.2h.2Z"/>
      <path class="st4" d="M924.5-53.8l-5.7,32.7h-2.7l5.7-32.7h2.7Z"/>
      <path class="st4" d="M956.9-53.8l-5.6,32.7h-2.7l-13.4-28.1-4.9,28.1h-2.7l5.6-32.7h2.7l13.5,28,4.9-28h2.7-.1Z"/>
      <path class="st4" d="M984.9-36.6l-1.9,11.7c-.9,1.1-2,2-3.3,2.6s-2.7,1.1-4.2,1.3-2.9.4-4.2.4c-2.1,0-3.8-.5-5.3-1.3s-2.6-2-3.4-3.4-1.4-3-1.7-4.8c-.3-1.8-.3-3.6,0-5.4l.6-4c.3-1.9.9-3.8,1.6-5.5.8-1.8,1.8-3.3,3-4.7,1.2-1.4,2.7-2.5,4.4-3.3,1.7-.8,3.6-1.2,5.7-1.2s3.7.4,5.2,1.2,2.6,1.9,3.5,3.3,1.3,3.2,1.3,5.1h-2.7c0-1.5-.4-2.8-1-3.9s-1.4-1.9-2.5-2.5-2.4-.9-3.9-.9-3.3.3-4.6,1-2.5,1.6-3.5,2.8c-1,1.2-1.8,2.5-2.4,4s-1,3-1.3,4.5l-.7,4c-.2,1.4-.3,2.9-.1,4.3.1,1.5.5,2.8,1.1,4.1.6,1.2,1.4,2.2,2.5,3s2.5,1.1,4.2,1.2c1,0,2.1,0,3.2-.2s2.1-.5,3.1-.9,1.9-1,2.7-1.7l1.5-8.4h-8.5l.4-2.4h11.3-.1Z"/>
    </g>
  </g>
  <rect class="st5" x="-626.3" y="-148" width="571.4" height="347.1"/>
  <g class="st1">
    <text class="st0" transform="translate(-501.9 -82.3)"><tspan x="0" y="0">THRI</tspan></text>
  </g>
  <g class="st1">
    <text class="st0" transform="translate(-293.6 -82.3)"><tspan x="0" y="0">FT</tspan></text>
  </g>
  <g class="st1">
    <text class="st0" transform="translate(-536.3 25.7)"><tspan x="0" y="0">SAVINGS</tspan></text>
  </g>
  <g class="st1">
    <text class="st0" transform="translate(-459.6 133.7)"><tspan x="0" y="0">PLAN</tspan></text>
  </g>
  <g class="st1">
    <text class="st3" transform="translate(-484.6 191.7)"><tspan x="0" y="0">INFOGRAPHIC</tspan></text>
  </g>
</svg>