<?xml version="1.0" encoding="utf-8"?>
<!-- Generator: Adobe Illustrator 26.3.1, SVG Export Plug-In . SVG Version: 6.00 Build 0)  -->
<svg version="1.1" id="Layer_1" xmlns="http://www.w3.org/2000/svg" xmlns:xlink="http://www.w3.org/1999/xlink" x="0px" y="0px"
	 viewBox="0 0 720 720" style="enable-background:new 0 0 720 720;" xml:space="preserve">
<style type="text/css">
	.st0{opacity:0.39;enable-background:new    ;}
	.st1{fill:none;}
	.st2{fill:#FFFFFF;}
</style>
<rect class="st0" width="720" height="720"/>
<rect x="-739.1" y="300" class="st1" width="720" height="407"/>
<text transform="matrix(1 0 0 1 -661.8281 365.6877)" style="font-family:'Raleway-Bold'; font-size:90px;">JUNE &amp; JULY</text>
<text transform="matrix(1 0 0 1 -659.3281 420.8877)" style="font-family:'Roboto-LightItalic'; font-size:46px;">CALENDER ILLUSTRATIONS</text>
<rect x="-626.3" y="-148" class="st1" width="571.4" height="347.1"/>
<text transform="matrix(1 0 0 1 -501.8652 -82.2682)" style="font-family:'Raleway-Bold'; font-size:90px;">THRI</text>
<text transform="matrix(1 0 0 1 -293.5652 -82.2682)" style="font-family:'Raleway-Bold'; font-size:90px; letter-spacing:5;">FT</text>
<text transform="matrix(1 0 0 1 -172.6652 -82.2682)" style="font-family:'Raleway-Bold'; font-size:90px;"> </text>
<text transform="matrix(1 0 0 1 -536.2652 25.7318)" style="font-family:'Raleway-Bold'; font-size:90px;">SAVINGS </text>
<text transform="matrix(1 0 0 1 -459.5652 133.7318)" style="font-family:'Raleway-Bold'; font-size:90px;">PLAN</text>
<text transform="matrix(1 0 0 1 -484.5652 191.7318)" style="font-family:'Roboto-LightItalic'; font-size:46px;">INFOGRAPHIC</text>
<g>
	<path class="st2" d="M256.1,220.4h-20.4v53h-12.3v-53H203v-10.9h53.1V220.4z"/>
	<path class="st2" d="M317.8,209.5v63.9h-12.3v-27.3h-29v27.3h-12.4v-63.9h12.4v25.8h29v-25.8L317.8,209.5L317.8,209.5z"/>
	<path class="st2" d="M331.1,273.4v-63.9h28.3c2.9,0,5.7,0.6,8.1,1.8c2.5,1.2,4.6,2.8,6.5,4.9c1.8,2,3.2,4.3,4.2,6.8
		s1.5,5.1,1.5,7.7c0,2.7-0.5,5.3-1.4,7.8c-0.9,2.5-2.3,4.7-4,6.5c-1.7,1.9-3.8,3.3-6.1,4.3l14.6,24h-13.7L356,251.9h-12.4v21.4
		h-12.5V273.4z M343.5,241.1h15.6c1.6,0,2.9-0.5,4.1-1.4s2.2-2.2,2.9-3.7c0.7-1.6,1.1-3.3,1.1-5.2c0-2-0.4-3.8-1.3-5.4
		c-0.8-1.5-1.9-2.7-3.2-3.6c-1.3-0.9-2.7-1.3-4.2-1.3h-15V241.1z"/>
	<path class="st2" d="M390.9,273.4v-63.9h12.4v63.9H390.9L390.9,273.4z"/>
	<path class="st2" d="M416.8,273.4v-63.9h42.9v10.9h-30.5v16.5h25.4V247h-25.4v26.5h-12.4V273.4z"/>
	<path class="st2" d="M520.6,220.4h-20.4v53H488v-53h-20.4v-10.9h53.2v10.9H520.6z"/>
	<g>
		<path class="st2" d="M212.9,315.6c-0.4-0.4-1.2-1-2.3-1.7s-2.5-1.4-4.1-2.1s-3.3-1.2-5.2-1.8c-1.9-0.5-3.8-0.8-5.7-0.8
			c-3.4,0-5.9,0.6-7.6,1.9s-2.6,3-2.6,5.3c0,1.7,0.5,3.1,1.6,4.1s2.7,1.9,4.9,2.6s4.9,1.5,8.1,2.3c4.2,1,7.8,2.3,10.9,3.7
			c3.1,1.5,5.5,3.4,7.1,5.7c1.6,2.4,2.5,5.5,2.5,9.4c0,3.4-0.6,6.3-1.9,8.7c-1.3,2.4-3,4.4-5.2,5.9s-4.7,2.6-7.6,3.3
			c-2.8,0.7-5.8,1-9,1s-6.4-0.3-9.5-1c-3.2-0.7-6.2-1.6-9.2-2.8c-2.9-1.2-5.6-2.7-8.1-4.5l5.5-10.7c0.5,0.5,1.5,1.2,2.9,2.1
			s3.1,1.7,5,2.6c2,0.9,4.1,1.6,6.5,2.2c2.3,0.6,4.7,0.9,7.1,0.9c3.4,0,5.9-0.6,7.6-1.7c1.7-1.1,2.6-2.7,2.6-4.8
			c0-1.9-0.7-3.4-2.1-4.5c-1.4-1.1-3.3-2-5.8-2.8s-5.4-1.7-8.7-2.6c-4-1.1-7.4-2.4-10.1-3.8c-2.7-1.4-4.7-3.2-6-5.3
			c-1.3-2.1-2-4.8-2-8.1c0-4.4,1-8,3.1-11s4.9-5.2,8.4-6.7s7.5-2.3,11.8-2.3c3,0,5.8,0.3,8.5,1s5.2,1.5,7.5,2.6s4.4,2.2,6.3,3.5
			L212.9,315.6z"/>
		<path class="st2" d="M245.9,298.8h12.6l23.5,63.9h-12.8l-5.3-15.9h-23.5l-5.3,15.9h-12.8L245.9,298.8z M261,338.1l-8.8-26.4
			l-8.8,26.4H261z"/>
		<path class="st2" d="M290.4,298.8l17.3,49.1l17.1-49.1h13.1l-24.2,63.9h-12l-24.3-63.9H290.4z"/>
		<path class="st2" d="M344.6,362.7v-63.9H357v63.9H344.6z"/>
		<path class="st2" d="M382.8,321.7v41h-12.4v-63.9h9.9l33,42.1v-42h12.4v63.8h-10.3L382.8,321.7z"/>
		<path class="st2" d="M465.6,363.2c-4.1,0-8.1-0.8-11.7-2.5c-3.7-1.7-6.9-4-9.7-7c-2.8-3-5-6.4-6.5-10.4c-1.6-4-2.3-8.2-2.3-12.9
			c0-4.4,0.8-8.5,2.3-12.4c1.6-3.9,3.7-7.3,6.6-10.2c2.8-2.9,6.1-5.2,9.9-6.9c3.8-1.7,7.9-2.5,12.3-2.5c6,0,11.1,1.3,15.4,3.8
			c4.3,2.6,7.5,5.9,9.7,10.1l-9.3,6.8c-1.6-3.2-3.9-5.6-6.8-7.3c-2.9-1.7-6.1-2.5-9.5-2.5c-2.7,0-5.2,0.6-7.4,1.7s-4.1,2.7-5.8,4.7
			c-1.6,2-2.9,4.3-3.7,6.8c-0.9,2.6-1.3,5.3-1.3,8.2c0,3.1,0.5,5.9,1.4,8.5c0.9,2.6,2.2,4.8,4,6.8c1.7,1.9,3.7,3.4,6,4.5
			s4.8,1.7,7.6,1.7c3.2,0,6.3-0.8,9.3-2.5s5.7-4.1,8.3-7.4v12.2C479,360.3,472.8,363.2,465.6,363.2z M483.4,339h-12.9v-9.1h23.1
			v32.9h-10.3L483.4,339L483.4,339z"/>
		<path class="st2" d="M542.3,315.6c-0.4-0.4-1.2-1-2.3-1.7s-2.5-1.4-4.1-2.1s-3.3-1.2-5.2-1.8c-1.9-0.5-3.8-0.8-5.7-0.8
			c-3.4,0-5.9,0.6-7.6,1.9s-2.6,3-2.6,5.3c0,1.7,0.5,3.1,1.6,4.1s2.7,1.9,4.9,2.6s4.9,1.5,8.1,2.3c4.2,1,7.8,2.3,10.9,3.7
			c3.1,1.5,5.5,3.4,7.1,5.7c1.6,2.4,2.5,5.5,2.5,9.4c0,3.4-0.6,6.3-1.9,8.7c-1.3,2.4-3,4.4-5.2,5.9s-4.7,2.6-7.6,3.3
			c-2.8,0.7-5.8,1-9,1s-6.4-0.3-9.5-1c-3.2-0.7-6.2-1.6-9.2-2.8c-2.9-1.2-5.6-2.7-8.1-4.5l5.5-10.7c0.5,0.5,1.5,1.2,2.9,2.1
			c1.4,0.9,3.1,1.7,5,2.6c2,0.9,4.1,1.6,6.5,2.2c2.3,0.6,4.7,0.9,7.1,0.9c3.4,0,5.9-0.6,7.6-1.7s2.6-2.7,2.6-4.8
			c0-1.9-0.7-3.4-2.1-4.5c-1.4-1.1-3.3-2-5.8-2.8s-5.4-1.7-8.7-2.6c-4-1.1-7.4-2.4-10.1-3.8c-2.7-1.4-4.7-3.2-6-5.3
			c-1.3-2.1-2-4.8-2-8.1c0-4.4,1-8,3.1-11c2.1-3,4.9-5.2,8.4-6.7s7.5-2.3,11.8-2.3c3,0,5.8,0.3,8.5,1s5.2,1.5,7.5,2.6
			s4.4,2.2,6.3,3.5L542.3,315.6z"/>
	</g>
	<g>
		<path class="st2" d="M248.2,452v-63.9h27.1c2.9,0,5.6,0.6,8.1,1.8c2.5,1.2,4.6,2.8,6.4,4.9c1.8,2,3.3,4.3,4.3,6.8s1.5,5.1,1.5,7.7
			c0,3.6-0.8,7-2.5,10.3c-1.7,3.2-4,5.9-6.9,7.9c-2.9,2-6.4,3.1-10.4,3.1h-15.1V452L248.2,452L248.2,452z M260.8,419.7h14.4
			c1.5,0,2.8-0.4,4-1.3c1.2-0.8,2.2-2.1,2.9-3.6c0.7-1.6,1.1-3.4,1.1-5.4c0-2.2-0.4-4.1-1.2-5.7c-0.8-1.6-1.9-2.7-3.1-3.5
			c-1.3-0.8-2.7-1.2-4.2-1.2h-13.9L260.8,419.7L260.8,419.7z"/>
		<path class="st2" d="M304.3,452v-63.9h12.4v53h32.6V452H304.3z"/>
		<path class="st2" d="M374.2,388.1h12.6l23.5,63.9h-12.8l-5.3-15.9h-23.5l-5.3,15.9h-12.8L374.2,388.1z M389.3,427.4l-8.8-26.4
			l-8.8,26.4H389.3z"/>
		<path class="st2" d="M429.8,411v41h-12.4v-63.9h9.9l33,42.1v-42h12.4V452h-10.3L429.8,411z"/>
	</g>
	<g>
		<path class="st2" d="M221.5,510h-2.7l5.7-32.7h2.7L221.5,510z"/>
		<path class="st2" d="M253.9,510h-2.7l-13.4-28l-4.9,28h-2.8l5.7-32.7h2.7l13.4,28.1l4.9-28.1h2.7L253.9,510z"/>
		<path class="st2" d="M282.3,494.7h-14.8l-2.7,15.3h-2.7l5.7-32.7h19.7l-0.4,2.3h-17l-2.2,12.7h14.8L282.3,494.7z"/>
		<path class="st2" d="M298.8,510.5c-3.1-0.1-5.5-1.1-7.3-3.2c-1.8-2.1-2.8-4.8-2.9-8.3c-0.1-1.2,0-2.4,0.2-3.6l0.4-3.1
			c0.7-4.6,2.3-8.3,4.9-11.2c2.7-3,6-4.4,9.9-4.3c2,0,3.8,0.5,5.3,1.5c1.5,0.9,2.7,2.3,3.5,4.1c0.8,1.8,1.3,3.8,1.4,5.9
			c0,1.3,0,2.5-0.2,3.8l-0.5,3.5c-0.5,3.1-1.5,5.8-2.9,8.1c-1.4,2.3-3.1,4-5.2,5.2C303.3,510.1,301.2,510.5,298.8,510.5z
			 M311.3,491.9c0.1-0.9,0.2-1.9,0.2-2.9c0-1.8-0.3-3.5-0.9-5c-0.6-1.5-1.4-2.6-2.6-3.4c-1.1-0.8-2.5-1.2-4.2-1.3
			c-3-0.1-5.5,1-7.7,3.2s-3.5,5.2-4.2,9c-0.5,3.1-0.8,5.3-0.8,6.8c0,3,0.7,5.4,2,7.1s3.2,2.6,5.6,2.7c3.2,0.1,5.8-1.1,7.9-3.5
			c2.1-2.4,3.4-5.5,4-9.4L311.3,491.9z"/>
		<path class="st2" d="M341.6,506.1c-1.1,1.4-2.7,2.5-4.8,3.3s-4.4,1.1-6.9,1.1c-3,0-5.5-1.1-7.4-3.1c-1.9-2-2.9-4.8-3.1-8.2
			c-0.1-1.2,0-2.4,0.1-3.6l0.6-3.7c0.7-4.6,2.4-8.2,5-11c2.6-2.7,5.9-4.1,9.7-4c3,0.1,5.4,0.9,7.2,2.7c1.8,1.8,2.7,4,2.8,7h-2.7
			c-0.1-2.3-0.8-4.1-2.1-5.3c-1.3-1.3-3.1-1.9-5.4-2c-3.1-0.1-5.6,1-7.8,3.3c-2.1,2.3-3.5,5.4-4.1,9.4l-0.5,3.5c-0.1,1-0.2,2-0.2,3
			c0,3,0.8,5.3,2.2,7.1s3.3,2.6,5.7,2.6c3.8,0.1,6.8-0.9,8.9-2.8l1.5-8.5h-8.5l0.4-2.3h11.3L341.6,506.1z"/>
		<path class="st2" d="M362.9,496.4h-9.2l-2.4,13.6h-2.8l5.7-32.7h9.7c3.3,0,5.8,0.8,7.5,2.5c1.8,1.7,2.5,4,2.2,6.9
			c-0.2,2.2-1,4.1-2.5,5.7c-1.4,1.6-3.3,2.7-5.6,3.5l5.6,13.8v0.3h-2.9L362.9,496.4z M354.1,494.1h8.1c2.3,0,4.3-0.7,5.9-2
			c1.6-1.4,2.6-3.1,2.8-5.3c0.3-2.1-0.2-3.8-1.4-5.1c-1.2-1.3-2.9-1.9-5.2-2h-7.7L354.1,494.1z"/>
		<path class="st2" d="M395.9,500.8h-14.3l-4.9,9.2h-3l17.7-32.7h2.6l6.3,32.7h-2.7L395.9,500.8z M382.8,498.5h12.6l-3.2-17.7
			L382.8,498.5z"/>
		<path class="st2" d="M410.3,496.7L408,510h-2.7l5.7-32.7h10.6c3.1,0.1,5.4,1,7.1,2.7s2.4,4,2.1,6.9c-0.3,3.1-1.5,5.5-3.7,7.2
			c-2.2,1.7-5,2.6-8.5,2.6L410.3,496.7z M410.8,494.4h8c2.6,0,4.7-0.7,6.4-2c1.7-1.3,2.7-3.1,2.9-5.5c0.2-2.2-0.2-4-1.4-5.2
			c-1.2-1.2-2.9-2-5.1-2h-8.2L410.8,494.4z"/>
		<path class="st2" d="M456.5,510h-2.8l2.7-15.7h-18.1l-2.7,15.7h-2.7l5.7-32.7h2.7l-2.6,14.7h18.1l2.6-14.7h2.8L456.5,510z"/>
		<path class="st2" d="M468.1,510h-2.7l5.7-32.7h2.7L468.1,510z"/>
		<path class="st2" d="M501,499.8c-0.8,3.4-2.3,6-4.6,7.9c-2.3,1.9-5.2,2.8-8.6,2.7c-2.9-0.1-5.2-1.1-7-3.1c-1.7-2-2.7-4.7-2.8-8.1
			c0-1.2,0-2.3,0.2-3.5l0.6-4c0.5-3,1.4-5.7,2.8-8c1.4-2.3,3.1-4.1,5.1-5.2c2-1.2,4.2-1.7,6.6-1.7c3.1,0.1,5.5,1,7.3,3
			s2.6,4.5,2.6,7.7h-2.7c0-2.6-0.6-4.7-1.9-6.1s-3.1-2.2-5.4-2.3c-3-0.1-5.5,1-7.6,3.3c-2.1,2.3-3.4,5.4-4.1,9.5l-0.7,4.5l-0.1,2
			c0,1.8,0.2,3.4,0.8,4.9s1.4,2.7,2.5,3.5c1.1,0.8,2.4,1.2,3.9,1.3c2.6,0.1,4.8-0.6,6.5-2c1.8-1.4,3-3.5,3.9-6.3L501,499.8z"/>
	</g>
</g>
</svg>
