<?xml version="1.0" encoding="UTF-8"?>
<svg id="Layer_1" xmlns="http://www.w3.org/2000/svg" version="1.1" viewBox="0 0 720 720">
  <!-- Generator: Adobe Illustrator 29.7.1, SVG Export Plug-In . SVG Version: 2.1.1 Build 8)  -->
  <defs>
    <style>
      .st0, .st1, .st2, .st3, .st4 {
        isolation: isolate;
      }

      .st0, .st2 {
        font-family: Raleway-Bold, Raleway;
        font-size: 90px;
        font-weight: 700;
      }

      .st5 {
        fill: #fff;
      }

      .st6 {
        fill: none;
      }

      .st2 {
        letter-spacing: 0em;
      }

      .st3 {
        font-family: Roboto-LightItalic, Roboto;
        font-size: 46px;
        font-style: italic;
        font-weight: 300;
      }

      .st4 {
        opacity: .4;
      }
    </style>
  </defs>
  <rect class="st4" width="720" height="720"/>
  <rect class="st6" x="-739.1" y="300" width="720" height="407"/>
  <text class="st0" transform="translate(-661.8 365.7)"><tspan x="0" y="0">JUNE &amp; JULY</tspan></text>
  <rect class="st6" x="-626.3" y="-148" width="571.4" height="347.1"/>
  <text class="st0" transform="translate(-501.9 -82.3)"><tspan x="0" y="0">THRI</tspan></text>
  <text class="st2" transform="translate(-293.6 -82.3)"><tspan x="0" y="0">FT</tspan></text>
  <text class="st0" transform="translate(-172.7 -82.3)"><tspan x="0" y="0"> </tspan></text>
  <text class="st0" transform="translate(-536.3 25.7)"><tspan x="0" y="0">SAVINGS </tspan></text>
  <text class="st0" transform="translate(-459.6 133.7)"><tspan x="0" y="0">PLAN</tspan></text>
  <text class="st3" transform="translate(-484.6 191.7)"><tspan x="0" y="0">INFOGRAPHIC</tspan></text>
  <g>
    <g class="st1">
      <path class="st5" d="M115.9,507.7l-.3,2.3h-19.9l.3-2.2,12.2-12.1c.9-.9,1.8-1.9,2.8-2.9,1-1,1.9-2.1,2.6-3.3.8-1.2,1.2-2.4,1.4-3.8.2-1.3,0-2.4-.3-3.4s-1-1.8-1.9-2.3c-.9-.6-2-.9-3.3-.9-1.5,0-2.8.3-4,1-1.2.7-2.1,1.6-2.8,2.7s-1.2,2.4-1.5,3.8h-2.6c.3-1.9.9-3.6,1.9-5.1,1-1.5,2.3-2.7,3.9-3.5s3.3-1.3,5.3-1.3c1.7,0,3.2.4,4.5,1.1,1.3.7,2.3,1.7,2.9,3,.7,1.3.9,2.8.7,4.6-.1,1.2-.5,2.3-1,3.4-.5,1.1-1.2,2.1-2,3.1-.8,1-1.6,1.9-2.5,2.8-.9.9-1.7,1.7-2.5,2.5l-10.5,10.3h16.6Z"/>
      <path class="st5" d="M129.6,477.3l-5.7,32.7h-2.7l5.7-32.7h2.7ZM130.1,510h-7.4l.4-2.4h7c2.4,0,4.6-.6,6.4-1.7,1.9-1.1,3.4-2.6,4.6-4.5s2-4,2.4-6.3l.5-3c.2-1.6.3-3.1,0-4.5-.2-1.5-.6-2.8-1.3-4-.7-1.2-1.6-2.1-2.8-2.8s-2.7-1.1-4.4-1.1h-7.7l.4-2.4h7.3c2.1,0,3.9.5,5.4,1.3,1.5.8,2.8,1.9,3.7,3.3.9,1.4,1.6,3,1.9,4.7s.4,3.6.1,5.5l-.5,3c-.3,2.1-1,4-1.9,5.8-.9,1.8-2.1,3.4-3.5,4.7-1.4,1.3-3,2.4-4.8,3.2-1.8.8-3.8,1.2-6,1.2Z"/>
      <path class="st5" d="M167.2,477.3h2.4l-2.9,18.5-2.4,14.2h-2.7l5.7-32.7ZM168.1,477.3h2.6l6.7,28.8,16.7-28.8h2.9l-19.1,32.7h-2.1l-7.8-32.7ZM195.4,477.3h2.4l-5.7,32.7h-2.7l2.5-14.4,3.5-18.3Z"/>
      <path class="st5" d="M226.7,491.9l-.5,3.5c-.3,1.9-.9,3.8-1.6,5.6-.8,1.8-1.8,3.4-3,4.9-1.2,1.4-2.7,2.6-4.4,3.4-1.7.8-3.6,1.2-5.8,1.2-2.1,0-3.8-.5-5.2-1.4-1.4-.9-2.5-2.1-3.3-3.5s-1.3-3.1-1.5-4.8c-.2-1.8-.2-3.6,0-5.4l.6-3.5c.3-1.9.8-3.8,1.6-5.6.8-1.8,1.8-3.4,3-4.9s2.7-2.6,4.4-3.4,3.6-1.2,5.7-1.2c2.1,0,3.8.5,5.3,1.3,1.4.9,2.5,2.1,3.3,3.5.8,1.5,1.3,3.1,1.5,4.8.2,1.8.2,3.6,0,5.4ZM223.5,495.4l.6-3.5c.2-1.4.3-2.9.2-4.3,0-1.5-.4-2.8-.9-4.1-.5-1.2-1.3-2.2-2.4-3-1.1-.8-2.5-1.2-4.2-1.2-1.8,0-3.3.3-4.7,1-1.4.7-2.5,1.7-3.5,2.9-1,1.2-1.8,2.6-2.4,4.1-.6,1.5-1.1,3-1.3,4.6l-.6,3.5c-.2,1.4-.3,2.8-.2,4.3.1,1.5.4,2.8,1,4.1.5,1.2,1.3,2.3,2.4,3,1.1.8,2.5,1.2,4.2,1.2,1.8,0,3.3-.3,4.7-1,1.4-.7,2.5-1.7,3.5-2.9,1-1.2,1.8-2.6,2.4-4.1.6-1.5,1-3,1.3-4.6Z"/>
      <path class="st5" d="M257,477.3l-.4,2.4h-24.4l.4-2.4h24.4ZM246.1,477.3l-5.6,32.7h-2.7l5.7-32.7h2.7Z"/>
      <path class="st5" d="M265.4,477.3l-5.7,32.7h-2.7l5.7-32.7h2.7Z"/>
      <path class="st5" d="M294.9,491.9l-.5,3.5c-.3,1.9-.9,3.8-1.6,5.6-.8,1.8-1.8,3.4-3,4.9-1.2,1.4-2.7,2.6-4.4,3.4-1.7.8-3.6,1.2-5.8,1.2-2.1,0-3.8-.5-5.2-1.4-1.4-.9-2.5-2.1-3.3-3.5s-1.3-3.1-1.5-4.8c-.2-1.8-.2-3.6,0-5.4l.6-3.5c.3-1.9.8-3.8,1.6-5.6.8-1.8,1.8-3.4,3-4.9s2.7-2.6,4.4-3.4,3.6-1.2,5.7-1.2c2.1,0,3.8.5,5.3,1.3,1.4.9,2.5,2.1,3.3,3.5.8,1.5,1.3,3.1,1.5,4.8.2,1.8.2,3.6,0,5.4ZM291.6,495.4l.6-3.5c.2-1.4.3-2.9.2-4.3,0-1.5-.4-2.8-.9-4.1-.5-1.2-1.3-2.2-2.4-3-1.1-.8-2.5-1.2-4.2-1.2-1.8,0-3.3.3-4.7,1-1.4.7-2.5,1.7-3.5,2.9-1,1.2-1.8,2.6-2.4,4.1-.6,1.5-1.1,3-1.3,4.6l-.6,3.5c-.2,1.4-.3,2.8-.2,4.3.1,1.5.4,2.8,1,4.1.5,1.2,1.3,2.3,2.4,3,1.1.8,2.5,1.2,4.2,1.2,1.8,0,3.3-.3,4.7-1,1.4-.7,2.5-1.7,3.5-2.9,1-1.2,1.8-2.6,2.4-4.1.6-1.5,1-3,1.3-4.6Z"/>
      <path class="st5" d="M327.8,477.3l-5.6,32.7h-2.7l-13.4-28.1-4.9,28.1h-2.7l5.6-32.7h2.7l13.5,28,4.9-28h2.7Z"/>
      <path class="st5" d="M350.3,477.3l-5.7,32.7h-2.7l5.7-32.7h2.7Z"/>
      <path class="st5" d="M382.5,477.3l-5.6,32.7h-2.7l-13.4-28.1-4.9,28.1h-2.7l5.6-32.7h2.7l13.5,28,4.9-28h2.7Z"/>
      <path class="st5" d="M393.3,477.3l-5.7,32.7h-2.7l5.7-32.7h2.7ZM405.5,492.4l-.4,2.4h-15.7l.4-2.4h15.7ZM410.3,477.3l-.4,2.4h-17.9l.4-2.4h17.9Z"/>
      <path class="st5" d="M436.6,491.9l-.5,3.5c-.3,1.9-.9,3.8-1.6,5.6-.8,1.8-1.8,3.4-3,4.9-1.2,1.4-2.7,2.6-4.4,3.4-1.7.8-3.6,1.2-5.8,1.2-2.1,0-3.8-.5-5.2-1.4-1.4-.9-2.5-2.1-3.3-3.5s-1.3-3.1-1.5-4.8c-.2-1.8-.2-3.6,0-5.4l.6-3.5c.3-1.9.8-3.8,1.6-5.6.8-1.8,1.8-3.4,3-4.9s2.7-2.6,4.4-3.4,3.6-1.2,5.7-1.2c2.1,0,3.8.5,5.3,1.3,1.4.9,2.5,2.1,3.3,3.5.8,1.5,1.3,3.1,1.5,4.8.2,1.8.2,3.6,0,5.4ZM433.3,495.4l.6-3.5c.2-1.4.3-2.9.2-4.3,0-1.5-.4-2.8-.9-4.1-.5-1.2-1.3-2.2-2.4-3-1.1-.8-2.5-1.2-4.2-1.2-1.8,0-3.3.3-4.7,1-1.4.7-2.5,1.7-3.5,2.9-1,1.2-1.8,2.6-2.4,4.1-.6,1.5-1.1,3-1.3,4.6l-.6,3.5c-.2,1.4-.3,2.8-.2,4.3.1,1.5.4,2.8,1,4.1.5,1.2,1.3,2.3,2.4,3,1.1.8,2.5,1.2,4.2,1.2,1.8,0,3.3-.3,4.7-1,1.4-.7,2.5-1.7,3.5-2.9,1-1.2,1.8-2.6,2.4-4.1.6-1.5,1-3,1.3-4.6Z"/>
      <path class="st5" d="M465.9,494.5l-1.9,11.7c-.9,1.1-2,2-3.3,2.6-1.3.6-2.7,1.1-4.2,1.3-1.5.3-2.9.4-4.2.4-2.1,0-3.8-.5-5.3-1.3s-2.6-2-3.4-3.4c-.8-1.4-1.4-3-1.7-4.8-.3-1.8-.3-3.6,0-5.4l.6-4c.3-1.9.9-3.8,1.6-5.5.8-1.8,1.8-3.3,3-4.7,1.2-1.4,2.7-2.5,4.4-3.3,1.7-.8,3.6-1.2,5.7-1.2,2,0,3.7.4,5.2,1.2s2.6,1.9,3.5,3.3c.8,1.4,1.3,3.2,1.3,5.1h-2.7c0-1.5-.4-2.8-1-3.9-.6-1.1-1.4-1.9-2.5-2.5-1.1-.6-2.4-.9-3.9-.9-1.7,0-3.3.3-4.6,1s-2.5,1.6-3.5,2.8c-1,1.2-1.8,2.5-2.4,4-.6,1.5-1,3-1.3,4.5l-.7,4c-.2,1.4-.3,2.9-.1,4.3.1,1.5.5,2.8,1.1,4.1.6,1.2,1.4,2.2,2.5,3,1.1.8,2.5,1.1,4.2,1.2,1,0,2.1,0,3.2-.2s2.1-.5,3.1-.9c1-.4,1.9-1,2.7-1.7l1.5-8.4h-8.5l.4-2.4h11.3Z"/>
      <path class="st5" d="M476.4,477.3h10.1c1.9,0,3.6.4,5.1,1.2,1.5.7,2.6,1.8,3.4,3.2.8,1.4,1,3.1.8,5.2-.2,1.7-.7,3.1-1.5,4.3-.8,1.2-1.8,2.2-3.1,3-1.3.8-2.6,1.4-4.1,1.9l-1,.4h-11.2l.4-2.4h9c1.5,0,2.8-.3,4.1-.9s2.3-1.4,3.2-2.5,1.4-2.3,1.6-3.8c.2-1.5.1-2.8-.4-3.9s-1.3-1.8-2.4-2.4c-1.1-.6-2.4-.8-3.8-.9h-7.8l-5.3,30.3h-2.7l5.7-32.7ZM490.4,510l-5.7-14.6h2.8s5.8,14.3,5.8,14.3v.3h-2.9Z"/>
      <path class="st5" d="M514.9,479.4l-16.2,30.6h-2.9l17.6-32.7h2l-.5,2.1ZM519.6,498.5l-.4,2.4h-16.9l.4-2.4h16.9ZM519.6,510l-5.7-30.9.2-1.8h1.9l6.4,32.7h-2.7Z"/>
      <path class="st5" d="M540.3,496.7h-9.3l.4-2.4h8.9c1.6,0,3-.3,4.3-.8,1.3-.5,2.4-1.4,3.3-2.4.9-1.1,1.5-2.4,1.7-4.1.2-1.5.1-2.8-.4-3.9-.5-1.1-1.3-1.9-2.3-2.5-1.1-.6-2.3-.9-3.8-.9h-8.3l-5.3,30.3h-2.7l5.7-32.7h10.6c1.9,0,3.6.4,5.1,1.2,1.5.8,2.6,1.8,3.3,3.3.7,1.4,1,3.2.7,5.2-.3,2.2-1,4-2.1,5.4s-2.6,2.5-4.3,3.2c-1.7.7-3.6,1.1-5.7,1.1Z"/>
      <path class="st5" d="M562.8,477.3l-5.7,32.7h-2.7l5.7-32.7h2.7ZM578.9,492l-.4,2.4h-19.3l.4-2.4h19.3ZM583.6,477.3l-5.6,32.7h-2.7l5.7-32.7h2.7Z"/>
      <path class="st5" d="M595,477.3l-5.7,32.7h-2.7l5.7-32.7h2.7Z"/>
      <path class="st5" d="M619.4,499.9h2.7c-.5,2.1-1.4,4-2.6,5.6-1.2,1.6-2.7,2.9-4.5,3.7-1.8.9-3.8,1.3-6.1,1.3-2,0-3.7-.5-5.1-1.4-1.4-.9-2.4-2-3.1-3.5s-1.2-3-1.4-4.8c-.2-1.7-.2-3.5,0-5.2l.7-4.1c.3-1.9.8-3.7,1.6-5.5s1.8-3.4,3-4.8,2.6-2.5,4.3-3.3c1.7-.8,3.5-1.2,5.6-1.2,2.2,0,4,.5,5.5,1.4,1.5.9,2.6,2.2,3.3,3.8.7,1.6,1.1,3.4,1.1,5.6h-2.7c0-1.6-.2-3.1-.7-4.3-.5-1.2-1.3-2.2-2.4-2.9s-2.5-1.1-4.2-1.1c-1.7,0-3.2.3-4.6,1-1.3.7-2.5,1.7-3.4,2.9s-1.8,2.5-2.4,4c-.6,1.5-1,3-1.3,4.5l-.7,4.1c-.2,1.3-.3,2.7-.2,4.1,0,1.4.4,2.8.9,4,.5,1.2,1.2,2.2,2.3,3,1,.8,2.4,1.2,4,1.2,1.9,0,3.5-.3,4.8-1,1.4-.7,2.5-1.6,3.4-2.9.9-1.2,1.6-2.7,2.2-4.4Z"/>
    </g>
    <path class="st5" d="M256.1,220.4h-20.4v53h-12.3v-53h-20.4v-10.9h53.1v10.9Z"/>
    <path class="st5" d="M317.8,209.5v63.9h-12.3v-27.3h-29v27.3h-12.4v-63.9h12.4v25.8h29v-25.8h12.3Z"/>
    <path class="st5" d="M331.1,273.4v-63.9h28.3c2.9,0,5.7.6,8.1,1.8,2.5,1.2,4.6,2.8,6.5,4.9,1.8,2,3.2,4.3,4.2,6.8s1.5,5.1,1.5,7.7-.5,5.3-1.4,7.8-2.3,4.7-4,6.5c-1.7,1.9-3.8,3.3-6.1,4.3l14.6,24h-13.7l-13.1-21.4h-12.4v21.4h-12.5ZM343.5,241.1h15.6c1.6,0,2.9-.5,4.1-1.4s2.2-2.2,2.9-3.7c.7-1.6,1.1-3.3,1.1-5.2s-.4-3.8-1.3-5.4c-.8-1.5-1.9-2.7-3.2-3.6-1.3-.9-2.7-1.3-4.2-1.3h-15v20.6Z"/>
    <path class="st5" d="M390.9,273.4v-63.9h12.4v63.9h-12.4Z"/>
    <path class="st5" d="M416.8,273.4v-63.9h42.9v10.9h-30.5v16.5h25.4v10.1h-25.4v26.5h-12.4Z"/>
    <path class="st5" d="M520.6,220.4h-20.4v53h-12.2v-53h-20.4v-10.9h53.2v10.9h-.2Z"/>
    <g>
      <path class="st5" d="M212.9,315.6c-.4-.4-1.2-1-2.3-1.7s-2.5-1.4-4.1-2.1-3.3-1.2-5.2-1.8c-1.9-.5-3.8-.8-5.7-.8-3.4,0-5.9.6-7.6,1.9s-2.6,3-2.6,5.3.5,3.1,1.6,4.1,2.7,1.9,4.9,2.6,4.9,1.5,8.1,2.3c4.2,1,7.8,2.3,10.9,3.7,3.1,1.5,5.5,3.4,7.1,5.7,1.6,2.4,2.5,5.5,2.5,9.4s-.6,6.3-1.9,8.7c-1.3,2.4-3,4.4-5.2,5.9s-4.7,2.6-7.6,3.3c-2.8.7-5.8,1-9,1s-6.4-.3-9.5-1c-3.2-.7-6.2-1.6-9.2-2.8-2.9-1.2-5.6-2.7-8.1-4.5l5.5-10.7c.5.5,1.5,1.2,2.9,2.1s3.1,1.7,5,2.6c2,.9,4.1,1.6,6.5,2.2,2.3.6,4.7.9,7.1.9,3.4,0,5.9-.6,7.6-1.7,1.7-1.1,2.6-2.7,2.6-4.8s-.7-3.4-2.1-4.5c-1.4-1.1-3.3-2-5.8-2.8s-5.4-1.7-8.7-2.6c-4-1.1-7.4-2.4-10.1-3.8-2.7-1.4-4.7-3.2-6-5.3-1.3-2.1-2-4.8-2-8.1s1-8,3.1-11,4.9-5.2,8.4-6.7,7.5-2.3,11.8-2.3,5.8.3,8.5,1,5.2,1.5,7.5,2.6,4.4,2.2,6.3,3.5l-5.2,10.2Z"/>
      <path class="st5" d="M245.9,298.8h12.6l23.5,63.9h-12.8l-5.3-15.9h-23.5l-5.3,15.9h-12.8l23.6-63.9ZM261,338.1l-8.8-26.4-8.8,26.4h17.6Z"/>
      <path class="st5" d="M290.4,298.8l17.3,49.1,17.1-49.1h13.1l-24.2,63.9h-12l-24.3-63.9h13Z"/>
      <path class="st5" d="M344.6,362.7v-63.9h12.4v63.9h-12.4Z"/>
      <path class="st5" d="M382.8,321.7v41h-12.4v-63.9h9.9l33,42.1v-42h12.4v63.8h-10.3l-32.6-41Z"/>
      <path class="st5" d="M465.6,363.2c-4.1,0-8.1-.8-11.7-2.5-3.7-1.7-6.9-4-9.7-7-2.8-3-5-6.4-6.5-10.4-1.6-4-2.3-8.2-2.3-12.9s.8-8.5,2.3-12.4c1.6-3.9,3.7-7.3,6.6-10.2,2.8-2.9,6.1-5.2,9.9-6.9,3.8-1.7,7.9-2.5,12.3-2.5s11.1,1.3,15.4,3.8c4.3,2.6,7.5,5.9,9.7,10.1l-9.3,6.8c-1.6-3.2-3.9-5.6-6.8-7.3-2.9-1.7-6.1-2.5-9.5-2.5s-5.2.6-7.4,1.7-4.1,2.7-5.8,4.7c-1.6,2-2.9,4.3-3.7,6.8-.9,2.6-1.3,5.3-1.3,8.2s.5,5.9,1.4,8.5,2.2,4.8,4,6.8c1.7,1.9,3.7,3.4,6,4.5s4.8,1.7,7.6,1.7,6.3-.8,9.3-2.5,5.7-4.1,8.3-7.4v12.2c-5.4,5.8-11.6,8.7-18.8,8.7ZM483.4,339h-12.9v-9.1h23.1v32.9h-10.3v-23.8h0Z"/>
      <path class="st5" d="M542.3,315.6c-.4-.4-1.2-1-2.3-1.7s-2.5-1.4-4.1-2.1-3.3-1.2-5.2-1.8c-1.9-.5-3.8-.8-5.7-.8-3.4,0-5.9.6-7.6,1.9s-2.6,3-2.6,5.3.5,3.1,1.6,4.1,2.7,1.9,4.9,2.6,4.9,1.5,8.1,2.3c4.2,1,7.8,2.3,10.9,3.7,3.1,1.5,5.5,3.4,7.1,5.7,1.6,2.4,2.5,5.5,2.5,9.4s-.6,6.3-1.9,8.7c-1.3,2.4-3,4.4-5.2,5.9s-4.7,2.6-7.6,3.3c-2.8.7-5.8,1-9,1s-6.4-.3-9.5-1c-3.2-.7-6.2-1.6-9.2-2.8-2.9-1.2-5.6-2.7-8.1-4.5l5.5-10.7c.5.5,1.5,1.2,2.9,2.1s3.1,1.7,5,2.6c2,.9,4.1,1.6,6.5,2.2,2.3.6,4.7.9,7.1.9,3.4,0,5.9-.6,7.6-1.7s2.6-2.7,2.6-4.8-.7-3.4-2.1-4.5c-1.4-1.1-3.3-2-5.8-2.8s-5.4-1.7-8.7-2.6c-4-1.1-7.4-2.4-10.1-3.8-2.7-1.4-4.7-3.2-6-5.3-1.3-2.1-2-4.8-2-8.1s1-8,3.1-11,4.9-5.2,8.4-6.7c3.5-1.5,7.5-2.3,11.8-2.3s5.8.3,8.5,1,5.2,1.5,7.5,2.6,4.4,2.2,6.3,3.5l-5.2,10.2Z"/>
    </g>
    <g>
      <path class="st5" d="M248.2,452v-63.9h27.1c2.9,0,5.6.6,8.1,1.8,2.5,1.2,4.6,2.8,6.4,4.9,1.8,2,3.3,4.3,4.3,6.8s1.5,5.1,1.5,7.7-.8,7-2.5,10.3c-1.7,3.2-4,5.9-6.9,7.9s-6.4,3.1-10.4,3.1h-15.1v21.4h-12.5ZM260.8,419.7h14.4c1.5,0,2.8-.4,4-1.3,1.2-.8,2.2-2.1,2.9-3.6.7-1.6,1.1-3.4,1.1-5.4s-.4-4.1-1.2-5.7c-.8-1.6-1.9-2.7-3.1-3.5-1.3-.8-2.7-1.2-4.2-1.2h-13.9v20.7h0Z"/>
      <path class="st5" d="M304.3,452v-63.9h12.4v53h32.6v10.9h-45Z"/>
      <path class="st5" d="M374.2,388.1h12.6l23.5,63.9h-12.8l-5.3-15.9h-23.5l-5.3,15.9h-12.8l23.6-63.9ZM389.3,427.4l-8.8-26.4-8.8,26.4h17.6Z"/>
      <path class="st5" d="M429.8,411v41h-12.4v-63.9h9.9l33,42.1v-42h12.4v63.8h-10.3l-32.6-41Z"/>
    </g>
  </g>
</svg>