<?xml version="1.0" encoding="UTF-8"?>
<svg id="Layer_1" xmlns="http://www.w3.org/2000/svg" version="1.1" viewBox="0 0 720 720">
  <!-- Generator: Adobe Illustrator 29.5.1, SVG Export Plug-In . SVG Version: 2.1.0 Build 141)  -->
  <defs>
    <style>
      .st0, .st1, .st2, .st3, .st4 {
        isolation: isolate;
      }

      .st0, .st2 {
        font-family: Raleway-Bold, Raleway;
        font-size: 90px;
        font-weight: 700;
      }

      .st5 {
        fill: #fff;
      }

      .st6 {
        fill: none;
      }

      .st2 {
        letter-spacing: 0em;
      }

      .st3 {
        font-family: Roboto-LightItalic, Roboto;
        font-size: 46px;
        font-style: italic;
        font-weight: 300;
      }

      .st4 {
        opacity: .4;
      }
    </style>
  </defs>
  <rect class="st4" width="720" height="720"/>
  <rect class="st6" x="-739.1" y="300" width="720" height="407"/>
  <text class="st0" transform="translate(-661.8 365.7)"><tspan x="0" y="0">WONDERSIP</tspan></text>
  <text class="st3" transform="translate(-659.3 420.9)"><tspan x="0" y="0">BRANDING</tspan></text>
  <g>
    <g class="st1">
      <path class="st5" d="M117.3,299h11.5l7.3,21.1,7.4-21.1h11.4l-11,29.1,8.1,20.3,18.1-49.6h13.5l-25.6,63.9h-10.7l-11.2-26.8-11.2,26.8h-10.7l-25.5-63.9h13.3l18.2,49.6,7.9-20.3-10.9-29.1Z"/>
      <path class="st5" d="M215.1,363.2c-4.7,0-8.9-.9-12.7-2.7-3.8-1.8-7.1-4.2-9.8-7.3-2.7-3.1-4.8-6.6-6.3-10.4-1.5-3.9-2.2-7.8-2.2-11.9s.8-8.3,2.4-12.2c1.6-3.9,3.8-7.3,6.6-10.4,2.8-3,6.1-5.4,9.9-7.2,3.8-1.8,8-2.7,12.6-2.7s8.8.9,12.6,2.8c3.8,1.9,7.1,4.4,9.8,7.5,2.7,3.1,4.8,6.6,6.3,10.4,1.5,3.8,2.2,7.8,2.2,11.9s-.8,8.2-2.3,12.1c-1.6,3.9-3.7,7.3-6.5,10.3-2.8,3-6.1,5.4-9.9,7.2-3.8,1.7-8,2.6-12.5,2.6ZM196.5,330.8c0,2.8.4,5.4,1.3,8,.8,2.6,2.1,4.9,3.6,6.9,1.6,2,3.5,3.6,5.9,4.8,2.3,1.2,4.9,1.8,7.9,1.8s5.7-.6,8-1.8c2.3-1.2,4.3-2.9,5.9-5,1.6-2.1,2.7-4.4,3.6-6.9.8-2.5,1.2-5.1,1.2-7.7s-.4-5.4-1.3-8c-.9-2.5-2.1-4.8-3.7-6.8-1.6-2-3.5-3.6-5.8-4.8-2.3-1.2-4.9-1.8-7.8-1.8s-5.7.6-8.1,1.8c-2.3,1.2-4.2,2.9-5.8,4.9-1.6,2-2.7,4.3-3.6,6.8-.8,2.5-1.2,5.1-1.2,7.7Z"/>
      <path class="st5" d="M268.2,321.7v41h-12.4v-63.9h9.9l33,42.1v-42h12.4v63.8h-10.3l-32.6-41Z"/>
      <path class="st5" d="M324.5,362.8v-63.9h23.2c7,0,12.8,1.4,17.5,4.3,4.7,2.9,8.2,6.7,10.5,11.5,2.3,4.8,3.5,10.2,3.5,16.1s-1.3,12.1-3.9,16.9c-2.6,4.8-6.2,8.5-10.9,11.2-4.7,2.6-10.3,4-16.7,4h-23.2ZM366.7,330.7c0-4.1-.8-7.8-2.2-10.9-1.5-3.2-3.7-5.6-6.5-7.4-2.8-1.8-6.2-2.7-10.3-2.7h-10.8v42.1h10.8c4.1,0,7.5-.9,10.4-2.7,2.8-1.8,5-4.3,6.4-7.6,1.5-3.2,2.2-6.8,2.2-10.8Z"/>
      <path class="st5" d="M433.3,351.9v10.9h-44.4v-63.9h43.6v10.9h-31.1v15.4h26.9v10.1h-26.9v16.7h32Z"/>
      <path class="st5" d="M443,362.8v-63.9h28.3c2.9,0,5.7.6,8.1,1.8,2.5,1.2,4.6,2.8,6.5,4.9,1.8,2,3.2,4.3,4.2,6.8,1,2.5,1.5,5.1,1.5,7.7s-.5,5.3-1.4,7.8c-.9,2.5-2.3,4.7-4,6.5-1.7,1.9-3.8,3.3-6.1,4.3l14.6,24h-13.7l-13.1-21.4h-12.4v21.4h-12.4ZM455.4,330.4h15.6c1.6,0,2.9-.5,4.1-1.4,1.2-.9,2.2-2.2,2.9-3.7.7-1.6,1.1-3.3,1.1-5.2s-.4-3.8-1.3-5.4c-.8-1.5-1.9-2.7-3.2-3.6-1.3-.9-2.7-1.3-4.2-1.3h-15v20.7Z"/>
      <path class="st5" d="M540.9,315.6c-.4-.4-1.2-1-2.3-1.7s-2.5-1.4-4-2.1c-1.6-.7-3.3-1.2-5.2-1.8-1.9-.5-3.8-.8-5.7-.8-3.4,0-5.9.6-7.6,1.9-1.7,1.3-2.6,3-2.6,5.3s.5,3.1,1.6,4.1c1.1,1,2.7,1.9,4.9,2.6,2.2.7,4.9,1.5,8.1,2.3,4.2,1,7.8,2.3,10.9,3.7,3.1,1.5,5.5,3.4,7.1,5.7,1.6,2.4,2.5,5.5,2.5,9.4s-.6,6.3-1.9,8.7c-1.3,2.4-3,4.4-5.2,5.9-2.2,1.5-4.7,2.6-7.6,3.3-2.8.7-5.8,1-9,1s-6.4-.3-9.5-1c-3.2-.7-6.2-1.6-9.2-2.8-2.9-1.2-5.6-2.7-8.1-4.5l5.5-10.7c.5.5,1.5,1.2,2.9,2.1,1.4.9,3.1,1.7,5,2.6,2,.9,4.1,1.6,6.5,2.2,2.3.6,4.7.9,7.1.9s5.9-.6,7.6-1.7c1.7-1.1,2.6-2.7,2.6-4.8s-.7-3.4-2.1-4.5c-1.4-1.1-3.3-2-5.8-2.8-2.5-.8-5.4-1.7-8.7-2.6-4-1.1-7.4-2.4-10.1-3.8-2.7-1.4-4.7-3.2-6-5.3-1.3-2.2-2-4.8-2-8.1s1-8,3.1-11c2.1-3,4.9-5.2,8.4-6.7,3.5-1.5,7.5-2.3,11.8-2.3s5.8.3,8.5,1c2.7.7,5.2,1.5,7.5,2.6s4.4,2.2,6.3,3.5l-5.5,10.1Z"/>
      <path class="st5" d="M558,362.8v-63.9h12.4v63.9h-12.4Z"/>
      <path class="st5" d="M583.8,362.8v-63.9h27.1c2.9,0,5.6.6,8.1,1.8,2.5,1.2,4.6,2.8,6.4,4.9,1.8,2,3.3,4.3,4.3,6.8,1,2.5,1.5,5.1,1.5,7.7s-.8,7-2.5,10.3c-1.7,3.2-4,5.9-6.9,7.9-2.9,2-6.4,3.1-10.4,3.1h-15.1v21.4h-12.4ZM596.2,330.4h14.4c1.5,0,2.8-.4,4-1.3,1.2-.8,2.2-2.1,2.9-3.6.7-1.6,1.1-3.4,1.1-5.4s-.4-4.1-1.2-5.7c-.8-1.6-1.9-2.7-3.2-3.5-1.3-.8-2.7-1.2-4.2-1.2h-13.9v20.7Z"/>
    </g>
    <g class="st1">
      <path class="st5" d="M266.3,405.4h-9.1l.4-2.4h7.5c1.4,0,2.7-.2,3.9-.7s2.2-1.1,3.1-2c.8-.9,1.4-2.1,1.6-3.6.2-1.5,0-2.6-.5-3.5-.5-.9-1.3-1.5-2.4-1.9-1.1-.4-2.2-.6-3.5-.6h-6.9l-5.3,30.3h-2.7l5.7-32.7h9.2c1.3,0,2.6.2,3.8.5,1.2.3,2.2.8,3.1,1.5.9.7,1.5,1.5,1.9,2.6.4,1.1.5,2.3.3,3.8-.2,1.5-.6,2.8-1.4,3.9-.8,1-1.8,1.9-3,2.5-1.2.6-2.5,1.1-3.9,1.3l-1.8.9ZM263.4,421.1h-9.9l1.8-2.4h8.2c1.5,0,2.8-.3,4-.8,1.2-.5,2.3-1.3,3.1-2.3.8-1,1.4-2.3,1.6-3.8.2-1.3,0-2.5-.4-3.4-.5-1-1.2-1.7-2.2-2.2-1-.5-2.1-.8-3.4-.8h-5.8l.4-2.4h7.7s.4.9.4.9c1.3.2,2.4.7,3.4,1.5.9.7,1.6,1.7,2.1,2.8.4,1.1.6,2.3.4,3.6-.2,2-.9,3.7-2,5.1-1.1,1.4-2.5,2.4-4.2,3.1-1.7.7-3.5,1.1-5.4,1.1Z"/>
      <path class="st5" d="M285.4,388.4h10.1c1.9,0,3.6.4,5.1,1.2,1.5.7,2.6,1.8,3.4,3.2.8,1.4,1,3.1.8,5.2-.2,1.7-.7,3.1-1.5,4.3-.8,1.2-1.8,2.2-3.1,3-1.3.8-2.6,1.4-4.1,1.9l-1,.4h-11.2l.4-2.4h9c1.5,0,2.8-.3,4.1-.9s2.3-1.4,3.2-2.5,1.4-2.3,1.6-3.8c.2-1.5.1-2.8-.4-3.9s-1.3-1.8-2.4-2.4c-1.1-.6-2.4-.8-3.8-.9h-7.8l-5.3,30.3h-2.7l5.7-32.7ZM299.4,421.1l-5.7-14.6h2.8s5.8,14.3,5.8,14.3v.3h-2.9Z"/>
      <path class="st5" d="M323.9,390.5l-16.2,30.6h-2.9l17.6-32.7h2l-.5,2.1ZM328.6,409.6l-.4,2.4h-16.9l.4-2.4h16.9ZM328.6,421.1l-5.7-30.9.2-1.8h1.9l6.4,32.7h-2.7Z"/>
      <path class="st5" d="M365.3,388.4l-5.6,32.7h-2.7l-13.4-28.1-4.9,28.1h-2.7l5.6-32.7h2.7l13.5,28,4.9-28h2.7Z"/>
      <path class="st5" d="M376.1,388.4l-5.7,32.7h-2.7l5.7-32.7h2.7ZM376.6,421.1h-7.4l.4-2.4h7c2.4,0,4.6-.6,6.4-1.7,1.9-1.1,3.4-2.6,4.6-4.5s2-4,2.4-6.3l.5-3c.2-1.6.3-3.1,0-4.5-.2-1.5-.6-2.8-1.3-4-.7-1.2-1.6-2.1-2.8-2.8s-2.7-1.1-4.4-1.1h-7.7l.4-2.4h7.3c2.1,0,3.9.5,5.4,1.3,1.5.8,2.8,1.9,3.7,3.3.9,1.4,1.6,3,1.9,4.7s.4,3.6.1,5.5l-.5,3c-.3,2.1-1,4-1.9,5.8-.9,1.8-2.1,3.4-3.5,4.7-1.4,1.3-3,2.4-4.8,3.2-1.8.8-3.8,1.2-6,1.2Z"/>
      <path class="st5" d="M405.9,388.4l-5.7,32.7h-2.7l5.7-32.7h2.7Z"/>
      <path class="st5" d="M438.2,388.4l-5.6,32.7h-2.7l-13.4-28.1-4.9,28.1h-2.7l5.6-32.7h2.7l13.5,28,4.9-28h2.7Z"/>
      <path class="st5" d="M466.2,405.6l-1.9,11.7c-.9,1.1-2,2-3.3,2.6-1.3.6-2.7,1.1-4.2,1.3s-2.9.4-4.2.4c-2.1,0-3.8-.5-5.3-1.3s-2.6-2-3.4-3.4c-.8-1.4-1.4-3-1.7-4.8-.3-1.8-.3-3.6,0-5.4l.6-4c.3-1.9.9-3.8,1.6-5.5.8-1.8,1.8-3.3,3-4.7,1.2-1.4,2.7-2.5,4.4-3.3,1.7-.8,3.6-1.2,5.7-1.2,2,0,3.7.4,5.2,1.2s2.6,1.9,3.5,3.3,1.3,3.2,1.3,5.1h-2.7c0-1.5-.4-2.8-1-3.9-.6-1.1-1.4-1.9-2.5-2.5-1.1-.6-2.4-.9-3.9-.9-1.7,0-3.3.3-4.6,1s-2.5,1.6-3.5,2.8c-1,1.2-1.8,2.5-2.4,4s-1,3-1.3,4.5l-.7,4c-.2,1.4-.3,2.9-.1,4.3.1,1.5.5,2.8,1.1,4.1.6,1.2,1.4,2.2,2.5,3,1.1.8,2.5,1.1,4.2,1.2,1,0,2.1,0,3.2-.2s2.1-.5,3.1-.9c1-.4,1.9-1,2.7-1.7l1.5-8.4h-8.5l.4-2.4h11.3Z"/>
    </g>
  </g>
  <rect class="st6" x="-626.3" y="-148" width="571.4" height="347.1"/>
  <text class="st0" transform="translate(-501.9 -82.3)"><tspan x="0" y="0">THRI</tspan></text>
  <text class="st2" transform="translate(-293.6 -82.3)"><tspan x="0" y="0">FT</tspan></text>
  <text class="st0" transform="translate(-172.7 -82.3)"><tspan x="0" y="0"> </tspan></text>
  <text class="st0" transform="translate(-536.3 25.7)"><tspan x="0" y="0">SAVINGS </tspan></text>
  <text class="st0" transform="translate(-459.6 133.7)"><tspan x="0" y="0">PLAN</tspan></text>
  <text class="st3" transform="translate(-484.6 191.7)"><tspan x="0" y="0">INFOGRAPHIC</tspan></text>
</svg>