<?xml version="1.0" encoding="utf-8"?>
<!-- Generator: Adobe Illustrator 26.2.1, SVG Export Plug-In . SVG Version: 6.00 Build 0)  -->
<svg version="1.1" id="Layer_1" xmlns="http://www.w3.org/2000/svg" xmlns:xlink="http://www.w3.org/1999/xlink" x="0px" y="0px"
	 viewBox="0 0 331.7 400" style="enable-background:new 0 0 331.7 400;" xml:space="preserve">
<style type="text/css">
	.st0{fill:#CD87FF;}
</style>
<path class="st0" d="M279.1,400H52.6C23.6,400,0,376.4,0,347.4V52.6C0,23.6,23.6,0,52.6,0H228c14.1,0,27.3,5.5,37.2,15.4l51.1,51.1
	c9.9,9.9,15.4,23.2,15.4,37.2v243.6C331.7,376.4,308.1,400,279.1,400z M52.6,31.3c-11.8,0-21.4,9.6-21.4,21.4v294.7
	c0,11.8,9.6,21.4,21.4,21.4h226.5c11.8,0,21.4-9.6,21.4-21.4V103.8c0-5.7-2.2-11.1-6.3-15.1l-51.1-51.1c-4-4-9.4-6.3-15.1-6.3H52.6z
	"/>
<path class="st0" d="M139.3,239.7h-47l-12.1,43.9c-0.1,1.3-0.9,2-2.2,2H55.9c-1.5,0-2-0.8-1.5-2.5l42.6-147c1-3.2,1.6-7.7,1.8-13.7
	c0-1,0.4-1.5,1.3-1.5h30.9c0.9,0,1.4,0.4,1.5,1.2l47.6,161.2c0.4,1.5,0.1,2.2-1.1,2.2h-24.7c-1,0-1.8-0.5-2.2-1.5L139.3,239.7z
	 M97.6,216h36.6c-0.9-3.5-2.7-10.3-5.5-20.5c-2.8-10.1-5.4-19.6-7.7-28.4c-2.4-8.8-4.1-15.8-5.3-21h-0.2
	C113.8,154.7,107.9,178,97.6,216z"/>
<path class="st0" d="M248.5,230.2h-40.4c0.1,10.7,2.8,19,7.9,25.2c5.1,6.2,12.9,9.2,23.2,9.2c9.4,0,17.8-1.8,25.1-5.5
	c0.9-0.7,1.3-0.3,1.3,1v18.2c0,1.2-0.4,2.2-1.3,3c-8.4,4.3-18.7,6.5-30.9,6.5c-18.1,0-31.4-5.9-39.8-17.6
	c-8.5-11.7-12.7-26.4-12.7-44c0-18.3,4.4-33.6,13.2-45.9c8.8-12.3,20.9-18.5,36.2-18.5c14.6,0,25.4,5.1,32.5,15.2
	c7.1,10.2,10.7,22.1,10.7,35.7c0,6.8-0.3,11.6-0.9,14.5c-0.2,1.2-0.7,1.8-1.8,2C267.2,229.8,259.7,230.2,248.5,230.2z M208.2,211
	h29.1c6.3,0,9.9-0.2,10.8-0.5c0.1-0.7,0.2-1.8,0.2-3.5c0-6.3-1.5-12-4.4-17c-2.9-5-7.7-7.5-14.3-7.5c-6.5,0-11.5,2.7-15,8
	C211,195.8,208.9,202.7,208.2,211z"/>
</svg>
