<?xml version="1.0" encoding="utf-8"?>
<!-- Generator: Adobe Illustrator 26.2.1, SVG Export Plug-In . SVG Version: 6.00 Build 0)  -->
<svg version="1.1" id="Layer_1" xmlns="http://www.w3.org/2000/svg" xmlns:xlink="http://www.w3.org/1999/xlink" x="0px" y="0px"
	 viewBox="0 0 720 720" style="enable-background:new 0 0 720 720;" xml:space="preserve">
<style type="text/css">
	.st0{opacity:0.39;enable-background:new    ;}
	.st1{fill:none;}
	.st2{fill:#FFFFFF;}
</style>
<rect class="st0" width="720" height="720"/>
<rect x="-739.1" y="300" class="st1" width="720" height="407"/>
<text transform="matrix(1 0 0 1 -661.8281 365.6877)" style="font-family:'Raleway-Bold'; font-size:90px;">JUNE &amp; JULY</text>
<text transform="matrix(1 0 0 1 -659.3281 420.8877)" style="font-family:'Roboto-LightItalic'; font-size:46px;">CALENDER ILLUSTRATIONS</text>
<rect x="-678.2" y="3.4" class="st1" width="571.4" height="248.8"/>
<text transform="matrix(1 0 0 1 -510.5484 69.1435)"><tspan x="0" y="0" style="font-family:'Raleway-Bold'; font-size:90px;">POLY </tspan><tspan x="-45.2" y="108" style="font-family:'Raleway-Bold'; font-size:90px;">KROMA</tspan><tspan x="-112.9" y="166" style="font-family:'Roboto-LightItalic'; font-size:46px;">3D MOTION GRAPHICS</tspan></text>
<g>
	<path class="st2" d="M92.8,245h12.6l23.5,63.9h-12.8l-5.3-15.9H87.4L82,308.9H69.3L92.8,245z M107.9,284.3l-8.8-26.4l-8.8,26.4
		H107.9z"/>
	<path class="st2" d="M135.9,308.9V245h28.3c2.9,0,5.7,0.6,8.1,1.8c2.5,1.2,4.6,2.8,6.5,4.9c1.8,2,3.2,4.3,4.2,6.8
		c1,2.5,1.5,5.1,1.5,7.7c0,2.7-0.5,5.3-1.4,7.8c-0.9,2.5-2.3,4.7-4,6.5c-1.7,1.9-3.8,3.3-6.1,4.3l14.6,24h-13.7l-13.1-21.4h-12.4
		v21.4H135.9z M148.4,276.6h15.6c1.6,0,2.9-0.5,4.1-1.4c1.2-0.9,2.2-2.2,2.9-3.7c0.7-1.6,1.1-3.3,1.1-5.2c0-2-0.4-3.8-1.3-5.4
		c-0.8-1.5-1.9-2.7-3.2-3.6c-1.3-0.9-2.7-1.3-4.2-1.3h-15V276.6z"/>
	<path class="st2" d="M242.9,255.9h-20.4v53h-12.3v-53h-20.4V245h53.2V255.9z"/>
	<path class="st2" d="M323.5,245v63.9h-12.3v-27.3h-29v27.3h-12.4V245h12.4v25.8h29V245H323.5z"/>
	<path class="st2" d="M336.8,308.9V245h12.4v63.9H336.8z"/>
	<path class="st2" d="M400.6,261.8c-0.4-0.4-1.2-1-2.3-1.7c-1.1-0.7-2.5-1.4-4-2.1c-1.6-0.7-3.3-1.2-5.2-1.8
		c-1.9-0.5-3.8-0.8-5.7-0.8c-3.4,0-5.9,0.6-7.6,1.9s-2.6,3-2.6,5.3c0,1.7,0.5,3.1,1.6,4.1c1.1,1,2.7,1.9,4.9,2.6
		c2.2,0.7,4.9,1.5,8.1,2.3c4.2,1,7.8,2.3,10.9,3.7c3.1,1.5,5.5,3.4,7.1,5.7c1.6,2.4,2.5,5.5,2.5,9.4c0,3.4-0.6,6.3-1.9,8.7
		c-1.3,2.4-3,4.4-5.2,5.9c-2.2,1.5-4.7,2.6-7.6,3.3c-2.8,0.7-5.8,1-9,1c-3.2,0-6.4-0.3-9.5-1c-3.2-0.7-6.2-1.6-9.2-2.8
		c-2.9-1.2-5.6-2.7-8.1-4.5l5.5-10.7c0.5,0.5,1.5,1.2,2.9,2.1c1.4,0.9,3.1,1.7,5,2.6c2,0.9,4.1,1.6,6.5,2.2c2.3,0.6,4.7,0.9,7.1,0.9
		c3.4,0,5.9-0.6,7.7-1.7c1.7-1.1,2.6-2.7,2.6-4.8c0-1.9-0.7-3.4-2.1-4.5c-1.4-1.1-3.3-2-5.8-2.8c-2.5-0.8-5.4-1.7-8.7-2.6
		c-4-1.1-7.4-2.4-10.1-3.8c-2.7-1.4-4.7-3.2-6-5.3c-1.3-2.1-2-4.8-2-8.1c0-4.4,1-8,3.1-11c2.1-3,4.9-5.2,8.4-6.7
		c3.5-1.5,7.5-2.3,11.8-2.3c3,0,5.8,0.3,8.5,1c2.7,0.7,5.2,1.5,7.5,2.6s4.4,2.2,6.3,3.5L400.6,261.8z"/>
	<path class="st2" d="M465.5,255.9h-20.4v53h-12.3v-53h-20.4V245h53.2V255.9z"/>
	<path class="st2" d="M499.3,309.4c-4.7,0-8.9-0.9-12.7-2.7c-3.8-1.8-7.1-4.2-9.8-7.3c-2.7-3.1-4.8-6.6-6.3-10.4
		c-1.5-3.9-2.2-7.8-2.2-11.9c0-4.3,0.8-8.3,2.4-12.2s3.8-7.3,6.6-10.4c2.8-3,6.1-5.4,9.9-7.2c3.8-1.8,8-2.7,12.6-2.7
		c4.6,0,8.8,0.9,12.6,2.8c3.8,1.9,7.1,4.4,9.8,7.5c2.7,3.1,4.8,6.6,6.3,10.4c1.5,3.8,2.2,7.8,2.2,11.9c0,4.2-0.8,8.2-2.3,12.1
		c-1.6,3.9-3.7,7.3-6.5,10.4c-2.8,3-6.1,5.4-9.9,7.2C507.9,308.5,503.8,309.4,499.3,309.4z M480.7,277c0,2.8,0.4,5.4,1.3,8
		c0.8,2.6,2.1,4.9,3.6,6.9c1.6,2,3.5,3.6,5.9,4.8c2.3,1.2,4.9,1.8,7.9,1.8c3,0,5.7-0.6,8-1.8c2.3-1.2,4.3-2.9,5.8-5
		c1.6-2.1,2.7-4.4,3.6-6.9c0.8-2.5,1.2-5.1,1.2-7.7c0-2.8-0.4-5.4-1.3-8c-0.9-2.5-2.1-4.8-3.7-6.8c-1.6-2-3.5-3.6-5.8-4.8
		c-2.3-1.2-4.9-1.8-7.8-1.8c-3.1,0-5.7,0.6-8.1,1.8c-2.3,1.2-4.2,2.9-5.8,4.9c-1.6,2-2.7,4.3-3.6,6.8
		C481.1,271.8,480.7,274.3,480.7,277z"/>
	<path class="st2" d="M540,308.9V245h28.3c2.9,0,5.7,0.6,8.1,1.8c2.5,1.2,4.6,2.8,6.5,4.9c1.8,2,3.2,4.3,4.2,6.8
		c1,2.5,1.5,5.1,1.5,7.7c0,2.7-0.5,5.3-1.4,7.8c-0.9,2.5-2.3,4.7-4,6.5c-1.7,1.9-3.8,3.3-6.1,4.3l14.6,24H578l-13.1-21.4h-12.4v21.4
		H540z M552.5,276.6H568c1.6,0,2.9-0.5,4.1-1.4c1.2-0.9,2.2-2.2,2.9-3.7c0.7-1.6,1.1-3.3,1.1-5.2c0-2-0.4-3.8-1.3-5.4
		c-0.8-1.5-1.9-2.7-3.2-3.6c-1.3-0.9-2.7-1.3-4.2-1.3h-15V276.6z"/>
	<path class="st2" d="M603.9,245l15.8,30.1l16-30.1H649l-23.2,41.6v22.3h-12.3v-22.5L590.4,245H603.9z"/>
	<path class="st2" d="M75.1,375.9v41H62.6V353h9.9l33,42.1v-42H118v63.8h-10.3L75.1,375.9z"/>
	<path class="st2" d="M175.7,406v10.9h-44.4V353h43.6v10.9h-31.1v15.4h26.9v10.1h-26.9V406H175.7z"/>
	<path class="st2" d="M207.3,353.2h11.5l7.3,21.2l7.4-21.2h11.4l-11,29.1l8.1,20.3l18.1-49.6h13.5L248,416.9h-10.7l-11.2-26.8
		l-11.2,26.8h-10.7L178.7,353h13.3l18.2,49.6l7.9-20.3L207.3,353.2z"/>
	<path class="st2" d="M316.4,369.8c-0.4-0.4-1.2-1-2.3-1.7c-1.1-0.7-2.5-1.4-4.1-2.1c-1.6-0.7-3.3-1.2-5.2-1.8
		c-1.9-0.5-3.8-0.8-5.7-0.8c-3.4,0-5.9,0.6-7.6,1.9s-2.6,3-2.6,5.3c0,1.7,0.5,3.1,1.6,4.1c1.1,1,2.7,1.9,4.9,2.6
		c2.2,0.7,4.9,1.5,8.1,2.3c4.2,1,7.8,2.3,10.9,3.7c3.1,1.5,5.5,3.4,7.1,5.7c1.6,2.4,2.5,5.5,2.5,9.4c0,3.4-0.6,6.3-1.9,8.7
		c-1.3,2.4-3,4.4-5.2,5.9c-2.2,1.5-4.7,2.6-7.6,3.3c-2.8,0.7-5.8,1-9,1c-3.2,0-6.4-0.3-9.5-1c-3.2-0.7-6.2-1.6-9.2-2.8
		c-2.9-1.2-5.6-2.7-8.1-4.5l5.5-10.7c0.5,0.5,1.5,1.2,2.9,2.1c1.4,0.9,3.1,1.7,5,2.6c2,0.9,4.1,1.6,6.5,2.2c2.3,0.6,4.7,0.9,7.1,0.9
		c3.4,0,5.9-0.6,7.6-1.7c1.7-1.1,2.6-2.7,2.6-4.8c0-1.9-0.7-3.4-2.1-4.5c-1.4-1.1-3.3-2-5.8-2.8c-2.5-0.8-5.4-1.7-8.7-2.6
		c-4-1.1-7.4-2.4-10.1-3.8c-2.7-1.4-4.7-3.2-6-5.3c-1.3-2.1-2-4.8-2-8.1c0-4.4,1-8,3.1-11c2.1-3,4.9-5.2,8.4-6.7
		c3.5-1.5,7.5-2.3,11.8-2.3c3,0,5.8,0.3,8.5,1c2.7,0.7,5.2,1.5,7.5,2.6s4.4,2.2,6.3,3.5L316.4,369.8z"/>
	<path class="st2" d="M333.5,416.9V353H346v53h32.6v10.9H333.5z"/>
	<path class="st2" d="M430.5,406v10.9h-44.4V353h43.6v10.9h-31.1v15.4h26.9v10.1h-26.9V406H430.5z"/>
	<path class="st2" d="M488,363.9h-20.4v53h-12.3v-53h-20.4V353H488V363.9z"/>
	<path class="st2" d="M543.7,363.9h-20.4v53h-12.3v-53h-20.4V353h53.2V363.9z"/>
	<path class="st2" d="M596,406v10.9h-44.4V353h43.6v10.9H564v15.4h26.9v10.1H564V406H596z"/>
	<path class="st2" d="M605.7,416.9V353H634c2.9,0,5.7,0.6,8.1,1.8c2.5,1.2,4.6,2.8,6.5,4.9c1.8,2,3.2,4.3,4.2,6.8
		c1,2.5,1.5,5.1,1.5,7.7c0,2.7-0.5,5.3-1.4,7.8c-0.9,2.5-2.3,4.7-4,6.5c-1.7,1.9-3.8,3.3-6.1,4.3l14.6,24h-13.7l-13.1-21.4h-12.4
		v21.4H605.7z M618.1,384.6h15.6c1.6,0,2.9-0.5,4.1-1.4c1.2-0.9,2.2-2.2,2.9-3.7c0.7-1.6,1.1-3.3,1.1-5.2c0-2-0.4-3.8-1.3-5.4
		c-0.8-1.5-1.9-2.7-3.2-3.6c-1.3-0.9-2.7-1.3-4.2-1.3h-15V384.6z"/>
	<path class="st2" d="M85.9,474.9l5.7-32.7l9.2,0c3.1,0.1,5.5,0.8,7.1,2.3c1.6,1.5,2.3,3.5,2,6.1c-0.2,1.7-0.8,3.2-1.9,4.5
		c-1.1,1.3-2.5,2.2-4.4,2.9c1.6,0.5,2.8,1.4,3.6,2.8c0.9,1.4,1.2,3,1.1,4.8c-0.2,2.8-1.4,5.1-3.4,6.8c-2.1,1.7-4.8,2.6-8.1,2.6H85.9
		z M91.3,459.2L89,472.6l7.9,0c2.4,0,4.4-0.6,6-1.9c1.6-1.2,2.5-3,2.8-5.1c0.2-1.9-0.2-3.4-1.3-4.5s-2.6-1.7-4.6-1.8L91.3,459.2z
		 M91.7,456.9l7.2,0c2.3,0,4.2-0.6,5.7-1.8s2.3-2.7,2.5-4.6c0.4-3.8-1.8-5.8-6.4-5.9l-6.8,0L91.7,456.9z"/>
	<path class="st2" d="M127.7,461.3h-9.2l-2.4,13.6h-2.8l5.7-32.7l9.7,0c3.3,0,5.8,0.9,7.5,2.5c1.8,1.7,2.5,4,2.2,6.9
		c-0.2,2.2-1,4.1-2.5,5.7c-1.4,1.6-3.3,2.7-5.6,3.5l5.6,13.8l0,0.3H133L127.7,461.3z M118.9,459l8.1,0c2.3,0,4.3-0.7,5.9-2
		c1.6-1.4,2.6-3.1,2.8-5.3c0.3-2.1-0.2-3.8-1.4-5.1c-1.2-1.3-2.9-1.9-5.2-2l-7.7,0L118.9,459z"/>
	<path class="st2" d="M160.7,465.8h-14.3l-4.9,9.2h-3l17.7-32.7h2.6l6.3,32.7h-2.7L160.7,465.8z M147.6,463.4h12.6l-3.2-17.7
		L147.6,463.4z"/>
	<path class="st2" d="M193.8,474.9h-2.7l-13.4-28l-4.9,28h-2.8l5.7-32.7h2.7l13.4,28.1l4.9-28.1h2.7L193.8,474.9z"/>
	<path class="st2" d="M202,474.9l5.7-32.7l8.5,0c2.5,0,4.7,0.6,6.6,1.9c1.9,1.3,3.2,3.1,4,5.4c0.8,2.3,1.1,4.8,0.7,7.5l-0.4,2.7
		c-0.7,4.5-2.5,8.2-5.4,11c-2.9,2.8-6.5,4.2-10.8,4.2H202z M210,444.6l-4.9,28l5.8,0c2.3,0,4.4-0.5,6.3-1.6c1.9-1,3.4-2.5,4.7-4.4
		s2-4.1,2.4-6.5s0.6-4.1,0.6-5c0-0.9,0-1.8-0.1-2.7c-0.3-2.4-1.3-4.3-2.7-5.7c-1.5-1.4-3.4-2.1-5.8-2.2L210,444.6z"/>
	<path class="st2" d="M234.7,474.9H232l5.7-32.7h2.7L234.7,474.9z"/>
	<path class="st2" d="M267.2,474.9h-2.7l-13.4-28l-4.9,28h-2.8l5.7-32.7h2.7l13.4,28.1l4.9-28.1h2.7L267.2,474.9z"/>
	<path class="st2" d="M299.2,471.1c-1.1,1.4-2.7,2.5-4.8,3.3c-2.1,0.8-4.4,1.1-6.9,1.1c-3,0-5.5-1.1-7.4-3.1
		c-1.9-2.1-2.9-4.8-3.1-8.2c-0.1-1.2,0-2.4,0.1-3.6l0.6-3.7c0.7-4.6,2.4-8.2,5-11c2.6-2.7,5.9-4.1,9.7-4c3,0.1,5.4,0.9,7.2,2.7
		s2.7,4,2.8,7h-2.7c-0.1-2.3-0.8-4.1-2.1-5.3c-1.3-1.3-3.1-1.9-5.4-2c-3.1-0.1-5.6,1-7.8,3.3c-2.1,2.3-3.5,5.4-4.1,9.4l-0.5,3.5
		c-0.1,1-0.2,2-0.2,3c0,3,0.8,5.3,2.2,7.1s3.3,2.6,5.7,2.6c3.8,0.1,6.8-0.9,8.9-2.8l1.5-8.5h-8.5l0.4-2.3h11.3L299.2,471.1z"/>
	<path class="st2" d="M325.2,457.1l-0.8-1.5c-1.2-2.3-1.8-4.4-1.6-6.2c0.2-2.3,1-4.1,2.5-5.5c1.5-1.4,3.4-2.1,5.7-2.1
		c1.9,0.1,3.4,0.7,4.6,1.9c1.1,1.2,1.6,2.6,1.5,4.4c-0.2,2.5-1.9,4.9-5.1,7.1l-3.4,2.3l7,10.4c1.7-2.2,2.7-4.7,3.2-7.5h2.4
		c-0.5,3.7-1.9,6.9-4.2,9.5l3.4,5.1h-3l-2.2-3.2c-2.9,2.5-6,3.7-9.3,3.7c-2.7,0-4.9-0.8-6.5-2.4c-1.7-1.6-2.4-3.6-2.2-6.2
		c0.1-1.6,0.8-3.2,2-4.8C320.4,460.5,322.4,458.8,325.2,457.1z M326.1,473.1c2.6,0,5.2-1.1,7.7-3.4l-7.1-10.5l-0.2-0.3l-1.1,0.8
		l-1.2,0.9c-2.6,2.1-4,4.2-4.2,6.2c-0.3,1.8,0.2,3.3,1.4,4.5C322.5,472.5,324.1,473.1,326.1,473.1z M325.4,449.3
		c-0.2,1.8,0.4,3.9,1.9,6.3l4-2.9c1.9-1.5,2.9-3,3-4.7c0.1-1.1-0.2-2.1-0.9-2.8c-0.7-0.7-1.6-1.1-2.8-1.1c-1.4,0-2.6,0.5-3.6,1.5
		C326.1,446.5,325.6,447.8,325.4,449.3z"/>
	<path class="st2" d="M361,461.6l-2.3,13.3H356l5.7-32.7l10.6,0c3.1,0.1,5.4,1,7.1,2.7c1.7,1.7,2.4,4,2.1,6.9
		c-0.3,3.1-1.5,5.5-3.7,7.2c-2.2,1.7-5,2.6-8.5,2.6L361,461.6z M361.4,459.3l8,0c2.6,0,4.7-0.7,6.4-2c1.7-1.3,2.7-3.1,2.9-5.5
		c0.2-2.2-0.2-4-1.4-5.2s-2.9-2-5.1-2l-8.2,0L361.4,459.3z"/>
	<path class="st2" d="M411.3,442.2l-3.8,22.1c-0.5,3.4-2,6.2-4.3,8.2c-2.4,2-5.2,3-8.6,2.9c-2.1,0-3.9-0.5-5.5-1.5
		c-1.5-0.9-2.7-2.2-3.3-3.9c-0.7-1.7-0.9-3.6-0.7-5.6l3.8-22.2h2.7l-3.8,22.2c-0.3,2.5,0.1,4.6,1.4,6.1c1.2,1.6,3.1,2.4,5.5,2.5
		c2.5,0.1,4.7-0.6,6.5-2.1c1.8-1.5,3-3.5,3.5-6.2l3.9-22.6H411.3z"/>
	<path class="st2" d="M413.2,474.9l5.7-32.7l9.2,0c3.1,0.1,5.5,0.8,7.1,2.3c1.6,1.5,2.3,3.5,2,6.1c-0.2,1.7-0.8,3.2-1.9,4.5
		c-1.1,1.3-2.5,2.2-4.4,2.9c1.6,0.5,2.8,1.4,3.6,2.8c0.9,1.4,1.2,3,1.1,4.8c-0.2,2.8-1.4,5.1-3.4,6.8c-2.1,1.7-4.8,2.6-8.1,2.6
		H413.2z M418.7,459.2l-2.3,13.3l7.9,0c2.4,0,4.4-0.6,6-1.9s2.5-3,2.8-5.1c0.2-1.9-0.2-3.4-1.3-4.5s-2.6-1.7-4.6-1.8L418.7,459.2z
		 M419.1,456.9l7.2,0c2.3,0,4.2-0.6,5.7-1.8s2.3-2.7,2.5-4.6c0.4-3.8-1.8-5.8-6.4-5.9l-6.8,0L419.1,456.9z"/>
	<path class="st2" d="M443.9,472.6h15.7l-0.4,2.3h-18.4l5.7-32.7h2.8L443.9,472.6z"/>
	<path class="st2" d="M467.8,474.9h-2.7l5.7-32.7h2.7L467.8,474.9z"/>
	<path class="st2" d="M500.8,464.7c-0.8,3.4-2.3,6-4.6,7.9s-5.2,2.8-8.6,2.7c-2.9-0.1-5.2-1.1-7-3.1c-1.7-2-2.7-4.7-2.8-8.1
		c0-1.2,0-2.3,0.2-3.5l0.6-4c0.5-3,1.4-5.7,2.8-8c1.4-2.3,3.1-4.1,5.1-5.2c2-1.2,4.2-1.7,6.6-1.7c3.1,0.1,5.5,1,7.3,3
		c1.8,1.9,2.6,4.5,2.6,7.7l-2.7,0c0-2.6-0.6-4.7-1.9-6.1c-1.3-1.4-3.1-2.2-5.4-2.3c-3-0.1-5.5,1-7.6,3.3c-2.1,2.3-3.4,5.4-4.1,9.5
		l-0.7,4.5l-0.1,2c0,1.8,0.2,3.4,0.8,4.9c0.5,1.5,1.4,2.7,2.5,3.5c1.1,0.8,2.4,1.2,3.9,1.3c2.6,0.1,4.8-0.6,6.5-2
		c1.8-1.4,3-3.5,3.9-6.3L500.8,464.7z"/>
	<path class="st2" d="M524.6,465.8h-14.3l-4.9,9.2h-3l17.7-32.7h2.6l6.3,32.7h-2.7L524.6,465.8z M511.5,463.4h12.6l-3.2-17.7
		L511.5,463.4z"/>
	<path class="st2" d="M557.9,444.6H547l-5.3,30.4H539l5.3-30.4h-10.9l0.4-2.3h24.5L557.9,444.6z"/>
	<path class="st2" d="M561.2,474.9h-2.7l5.7-32.7h2.7L561.2,474.9z"/>
	<path class="st2" d="M581.3,475.4c-3.1-0.1-5.5-1.1-7.3-3.2c-1.8-2.1-2.8-4.8-2.9-8.3c-0.1-1.2,0-2.4,0.2-3.6l0.4-3.1
		c0.7-4.6,2.3-8.3,4.9-11.2c2.7-2.9,6-4.4,9.9-4.3c2,0,3.8,0.5,5.3,1.5c1.5,0.9,2.7,2.3,3.5,4.1c0.8,1.8,1.3,3.8,1.4,5.9
		c0,1.3,0,2.5-0.2,3.8l-0.5,3.5c-0.5,3.1-1.5,5.8-2.9,8.1c-1.4,2.3-3.1,4-5.2,5.2S583.7,475.4,581.3,475.4z M593.9,456.8
		c0.1-0.9,0.2-1.9,0.2-2.9c0-1.8-0.3-3.5-0.9-5c-0.6-1.5-1.4-2.6-2.6-3.4c-1.1-0.8-2.5-1.2-4.2-1.3c-3-0.1-5.5,1-7.7,3.2
		s-3.5,5.2-4.2,9c-0.5,3.1-0.8,5.3-0.8,6.8c0,3,0.7,5.4,2,7.1s3.2,2.6,5.6,2.7c3.2,0.1,5.8-1.1,7.9-3.5s3.4-5.5,4-9.4L593.9,456.8z"
		/>
	<path class="st2" d="M624.1,474.9h-2.7l-13.4-28l-4.9,28h-2.8l5.7-32.7h2.7l13.4,28.1l4.9-28.1h2.7L624.1,474.9z"/>
</g>
</svg>
