<?xml version="1.0" encoding="utf-8"?>
<!-- Generator: Adobe Illustrator 26.2.1, SVG Export Plug-In . SVG Version: 6.00 Build 0)  -->
<svg version="1.1" id="Layer_1" xmlns="http://www.w3.org/2000/svg" xmlns:xlink="http://www.w3.org/1999/xlink" x="0px" y="0px"
	 viewBox="0 0 491.9 400" style="enable-background:new 0 0 491.9 400;" xml:space="preserve">
<style type="text/css">
	.st0{fill:#26C9FF;}
	.st1{fill:#FFFFFF;}
	.st2{fill:#005385;}
	.st3{fill:#FF7021;}
</style>
<path class="st0" d="M-326.6,378.3"/>
<path class="st0" d="M889.6,414.5"/>
<path class="st0" d="M819.1,377.4"/>
<g>
	<path class="st1" d="M398.3,293.8c-19.9,20.3-47.7,31.8-77.9,31.8c-30.2,0.1-58-11.3-77.9-31.6c-9.7-9.9-16.9-21.2-21.3-33.3
		c-4.3-11.9-6-24.6-4.9-37.2c1.1-12.3,4.7-24.2,10.7-35c5.8-10.6,13.8-20.1,23.7-28.1c19.3-15.8,43.9-24.3,69.7-24.3
		c25.8,0,50.4,8.4,69.7,24.1c9.8,8,17.8,17.5,23.6,28c6,10.8,9.6,22.7,10.7,35c1.1,12.6-0.6,25.3-4.9,37.2
		C415.2,272.6,408,283.9,398.3,293.8L398.3,293.8z"/>
	<path class="st2" d="M256.1,224.9c0.9-16.4,9-30.9,21.1-41.1c11.9-10.1,27.9-16.2,45.4-16.2c17.5,0,33.5,6.2,45.4,16.2
		c12.1,10.3,20.2,24.7,21.1,41.1c0.9,16.9-5.9,32.6-17.8,44.2c-12.1,11.8-29.4,19.2-48.7,19.2c-19.3,0-36.6-7.4-48.7-19.2
		C262,257.5,255.2,241.8,256.1,224.9L256.1,224.9z"/>
	<path class="st3" d="M150.3,258.1c0.1,6.4,2.2,18.9,5.2,28.7c6.5,20.6,17.4,39.7,32.7,56.6c15.7,17.3,34.9,31.2,57.2,41
		c23.4,10.4,48.8,15.7,75.1,15.6c26.3,0,51.7-5.4,75.1-15.9c22.2-10,41.5-23.9,57.1-41.2c15.2-16.9,26.2-36,32.6-56.7
		c3.2-10.3,5.3-20.9,6.1-31.6c0.8-10.5,0.5-21-1-31.4c-2.9-20.4-10-39.6-20.8-57c-10-16-22.8-30.1-38-41.9l0,0L277.8,6.1
		c-0.1-0.1-0.3-0.2-0.4-0.3c-10.1-7.7-27.1-7.7-38.2,0.1c-11.2,7.9-12.5,20.8-2.5,29l0,0l64.2,52.2l-195.6,0.2H105
		c-16.1,0-31.7,10.6-34.8,24c-3.1,13.7,7.8,25,24.6,25l0,0.1l99.1-0.2L17.1,272c-0.2,0.2-0.5,0.3-0.7,0.5
		c-16.7,12.8-22.1,34-11.6,47.5c10.7,13.7,33.3,13.7,50.2,0.1l96.5-79C151.6,241,150.2,251.7,150.3,258.1L150.3,258.1z M398.3,293.8
		c-19.9,20.3-47.7,31.8-77.9,31.8c-30.2,0.1-58-11.3-77.9-31.6c-9.7-9.9-16.9-21.2-21.3-33.3c-4.3-11.9-6-24.6-4.9-37.2
		c1.1-12.3,4.7-24.2,10.7-35c5.8-10.6,13.8-20.1,23.7-28.1c19.3-15.8,43.9-24.3,69.7-24.3s50.4,8.4,69.7,24.1
		c9.8,8,17.8,17.5,23.6,28c6,10.8,9.6,22.7,10.7,35c1.1,12.6-0.6,25.3-4.9,37.2C415.2,272.6,408,283.9,398.3,293.8L398.3,293.8z"/>
</g>
</svg>
