<?xml version="1.0" encoding="utf-8"?>
<!-- Generator: Adobe Illustrator 26.2.1, SVG Export Plug-In . SVG Version: 6.00 Build 0)  -->
<svg version="1.1" id="Layer_1" xmlns="http://www.w3.org/2000/svg" xmlns:xlink="http://www.w3.org/1999/xlink" x="0px" y="0px"
	 viewBox="0 0 720 720" style="enable-background:new 0 0 720 720;" xml:space="preserve">
<style type="text/css">
	.st0{opacity:0.39;}
	.st1{fill:#FFFFFF;}
</style>
<rect class="st0" width="720" height="720"/>
<rect x="-739.1" y="300" style="fill:none;" width="720" height="407"/>
<text transform="matrix(1 0 0 1 -661.8281 365.6877)"><tspan x="0" y="0" style="font-family:'Raleway-Bold'; font-size:90px;">JUNE &amp; JULY</tspan><tspan x="2.5" y="55.2" style="font-family:'Roboto-LightItalic'; font-size:46px;">CALENDER ILLUSTRATIONS</tspan></text>
<g>
	<path class="st1" d="M86.8,350.7c0.8,0.5,2.2,1.2,4.1,1.9c2,0.8,4.3,1.1,7,1.1c2.3,0,4.3-0.4,5.8-1.2c1.5-0.8,2.7-2,3.5-3.6
		s1.3-3.7,1.6-6.2s0.4-5.6,0.4-9.2v-33.1h12.4v32.2c0,4.8-0.3,9.1-0.8,13c-0.5,3.9-1.6,7.3-3.1,10.2c-1.6,2.9-3.9,5.1-7.1,6.6
		s-7.3,2.3-12.6,2.3c-2.9,0-5.5-0.3-7.7-1c-2.3-0.7-4.4-1.6-6.3-3L86.8,350.7z"/>
	<path class="st1" d="M161.4,364.8c-5.1,0-9.4-0.9-13-2.6c-3.6-1.7-6.5-4.1-8.6-7.1c-2.2-3-3.8-6.4-4.8-10.2
		c-1-3.8-1.5-7.8-1.5-11.9v-32.6h12.4V333c0,2.6,0.3,5.2,0.8,7.7c0.5,2.5,1.4,4.7,2.6,6.7c1.2,2,2.8,3.5,4.8,4.7
		c2,1.1,4.4,1.7,7.4,1.7c3,0,5.5-0.6,7.5-1.8c2-1.2,3.6-2.7,4.8-4.7c1.2-2,2-4.2,2.6-6.7c0.5-2.5,0.8-5,0.8-7.6v-32.6h12.3V333
		c0,4.4-0.5,8.5-1.6,12.3c-1.1,3.8-2.7,7.2-5,10.1c-2.2,2.9-5.1,5.2-8.7,6.8C170.5,364,166.3,364.8,161.4,364.8z"/>
	<path class="st1" d="M214.2,323.3v41h-12.4v-63.9h9.9l33,42.1v-42h12.4v63.8h-10.3L214.2,323.3z"/>
	<path class="st1" d="M314.8,353.4v10.9h-44.4v-63.9H314v10.9h-31.1v15.4h26.9v10.1h-26.9v16.6H314.8z"/>
	<path class="st1" d="M387.7,364.3l-30.1-31.9c-2.5-2.7-4.5-5-6.1-6.9c-1.5-1.9-2.6-3.7-3.3-5.3c-0.7-1.6-1-3.3-1-5.2
		c0-3,0.8-5.7,2.3-8c1.5-2.3,3.6-4,6.3-5.3c2.7-1.2,5.7-1.9,9-1.9c3,0,5.8,0.5,8.3,1.6c2.5,1,4.6,2.6,6.3,4.7s2.4,4.7,2.4,7.7
		c0,2.8-0.7,5.3-2.1,7.6c-1.4,2.3-3.3,4.3-5.6,6.2c-2.3,1.9-5,3.7-7.9,5.5c-2.2,1.4-4.1,2.7-5.9,4c-1.8,1.3-3.1,2.7-4.1,4.1
		c-1,1.4-1.5,3-1.5,4.7c0,1.7,0.5,3.2,1.4,4.6c1,1.4,2.3,2.5,4,3.4c1.7,0.9,3.6,1.3,5.7,1.3c2.6,0,5.1-0.6,7.5-1.9
		c2.4-1.3,4.6-3,6.5-5.4c1.9-2.3,3.4-5.1,4.5-8.3c1.1-3.2,1.7-6.9,1.7-10.9h9.8c0,5.7-0.9,10.8-2.6,15.2c-1.7,4.4-4.1,8.2-7,11.2
		c-2.9,3.1-6.3,5.4-10,7.1c-3.7,1.6-7.6,2.4-11.6,2.4c-4.4,0-8.2-0.9-11.4-2.6c-3.2-1.7-5.7-4-7.5-6.9c-1.8-2.8-2.7-5.9-2.7-9.2
		s0.8-6.2,2.3-8.7c1.6-2.5,3.5-4.7,5.9-6.6c2.4-1.9,4.8-3.6,7.2-5.1c2.6-1.6,4.9-3,6.7-4.2c1.8-1.1,3.2-2.3,4.1-3.4
		c1-1.1,1.4-2.4,1.4-3.8c0-1.6-0.6-2.9-1.7-3.8c-1.1-1-2.5-1.5-4.3-1.5c-1.3,0-2.5,0.3-3.5,0.8c-1,0.5-1.8,1.2-2.3,2.1
		s-0.8,1.9-0.8,3c0,0.8,0.3,1.6,0.8,2.5c0.5,0.8,1.4,1.9,2.7,3.2c1.3,1.3,3.1,3.2,5.4,5.6l36.5,38.2H387.7z"/>
	<path class="st1" d="M426.1,350.7c0.8,0.5,2.2,1.2,4.1,1.9c2,0.8,4.3,1.1,7,1.1c2.3,0,4.3-0.4,5.8-1.2c1.5-0.8,2.7-2,3.5-3.6
		c0.8-1.6,1.3-3.7,1.6-6.2c0.3-2.6,0.4-5.6,0.4-9.2v-33.1H461v32.2c0,4.8-0.3,9.1-0.8,13c-0.5,3.9-1.6,7.3-3.2,10.2
		c-1.6,2.9-3.9,5.1-7.1,6.6c-3.2,1.5-7.3,2.3-12.6,2.3c-2.9,0-5.5-0.3-7.7-1c-2.3-0.7-4.4-1.6-6.3-3L426.1,350.7z"/>
	<path class="st1" d="M500.7,364.8c-5.1,0-9.4-0.9-13-2.6c-3.6-1.7-6.5-4.1-8.6-7.1c-2.2-3-3.8-6.4-4.8-10.2
		c-1-3.8-1.5-7.8-1.5-11.9v-32.6h12.4V333c0,2.6,0.3,5.2,0.8,7.7c0.5,2.5,1.4,4.7,2.6,6.7c1.2,2,2.8,3.5,4.8,4.7
		c2,1.1,4.4,1.7,7.4,1.7c3,0,5.5-0.6,7.5-1.8c2-1.2,3.6-2.7,4.8-4.7c1.2-2,2-4.2,2.6-6.7c0.5-2.5,0.8-5,0.8-7.6v-32.6h12.3V333
		c0,4.4-0.5,8.5-1.6,12.3c-1.1,3.8-2.7,7.2-5,10.1c-2.2,2.9-5.1,5.2-8.7,6.8C509.8,364,505.6,364.8,500.7,364.8z"/>
	<path class="st1" d="M541.1,364.3v-63.9h12.4v53h32.6v10.9H541.1z"/>
	<path class="st1" d="M591.6,300.4l15.8,30.1l16-30.1h13.4L613.5,342v22.3h-12.3v-22.5l-23.1-41.4H591.6z"/>
	<path class="st1" d="M106.3,409.3c-0.8,3.4-2.3,6-4.6,7.9s-5.2,2.8-8.6,2.7c-2.9-0.1-5.2-1.1-7-3.1s-2.7-4.7-2.8-8.1
		c0-1.2,0-2.3,0.2-3.5l0.6-4c0.5-3,1.4-5.7,2.8-8c1.4-2.3,3.1-4.1,5.1-5.2c2-1.2,4.2-1.7,6.6-1.7c3.1,0.1,5.5,1,7.3,3
		c1.8,1.9,2.6,4.5,2.6,7.7l-2.7,0c0-2.6-0.6-4.7-1.9-6.1s-3.1-2.2-5.4-2.3c-3-0.1-5.5,1-7.6,3.3s-3.4,5.4-4.1,9.5l-0.7,4.5l-0.1,2
		c0,1.8,0.2,3.4,0.8,4.9c0.5,1.5,1.4,2.7,2.5,3.5c1.1,0.8,2.4,1.2,3.9,1.3c2.6,0.1,4.8-0.6,6.5-2s3-3.5,3.9-6.3L106.3,409.3z"/>
	<path class="st1" d="M130,410.4h-14.3l-4.9,9.2h-3l17.7-32.7h2.6l6.3,32.7h-2.7L130,410.4z M116.9,408h12.6l-3.2-17.7L116.9,408z"
		/>
	<path class="st1" d="M142.5,417.2h15.7l-0.4,2.3h-18.4l5.7-32.7h2.8L142.5,417.2z"/>
	<path class="st1" d="M183.4,403.9h-14.8l-2.3,13.3h17.1l-0.4,2.3h-19.8l5.7-32.7h19.7l-0.4,2.3h-16.9l-2.2,12.4h14.8L183.4,403.9z"
		/>
	<path class="st1" d="M212.4,419.5h-2.7l-13.4-28l-4.9,28h-2.8l5.7-32.7h2.7l13.4,28.1l4.9-28.1h2.7L212.4,419.5z"/>
	<path class="st1" d="M220.6,419.5l5.7-32.7l8.5,0c2.5,0,4.7,0.6,6.6,1.9c1.9,1.3,3.2,3.1,4,5.4s1.1,4.8,0.7,7.5l-0.4,2.7
		c-0.7,4.5-2.5,8.2-5.4,11c-2.9,2.8-6.5,4.2-10.8,4.2H220.6z M228.6,389.2l-4.9,28l5.8,0c2.3,0,4.4-0.5,6.3-1.6
		c1.9-1,3.4-2.5,4.7-4.4s2-4.1,2.4-6.5s0.6-4.1,0.6-5c0-0.9,0-1.8-0.1-2.7c-0.3-2.4-1.3-4.3-2.7-5.7c-1.5-1.4-3.4-2.1-5.8-2.2
		L228.6,389.2z"/>
	<path class="st1" d="M270.4,403.9h-14.8l-2.3,13.3h17.1l-0.4,2.3H250l5.7-32.7h19.7l-0.4,2.3h-16.9l-2.2,12.4h14.8L270.4,403.9z"/>
	<path class="st1" d="M290,405.9h-9.2l-2.4,13.6h-2.8l5.7-32.7l9.7,0c3.3,0,5.8,0.9,7.5,2.5c1.8,1.7,2.5,4,2.2,6.9
		c-0.2,2.2-1,4.1-2.5,5.7c-1.4,1.6-3.3,2.7-5.6,3.5l5.6,13.8l0,0.3h-2.9L290,405.9z M281.1,403.6l8.1,0c2.3,0,4.3-0.7,5.9-2
		s2.6-3.1,2.8-5.3c0.3-2.1-0.2-3.8-1.4-5.1c-1.2-1.3-2.9-1.9-5.2-2l-7.7,0L281.1,403.6z"/>
	<path class="st1" d="M318.6,419.5h-2.7l5.7-32.7h2.7L318.6,419.5z"/>
	<path class="st1" d="M330.5,417.2h15.7l-0.4,2.3h-18.4l5.7-32.7h2.8L330.5,417.2z"/>
	<path class="st1" d="M354.3,417.2H370l-0.4,2.3h-18.4l5.7-32.7h2.8L354.3,417.2z"/>
	<path class="st1" d="M401.3,386.8l-3.8,22.1c-0.5,3.4-2,6.2-4.3,8.2c-2.4,2-5.2,3-8.6,2.9c-2.1,0-3.9-0.5-5.5-1.5
		c-1.5-0.9-2.7-2.2-3.3-3.9c-0.7-1.7-0.9-3.6-0.7-5.6l3.8-22.2h2.7l-3.8,22.2c-0.3,2.5,0.1,4.6,1.4,6.1c1.2,1.6,3.1,2.4,5.5,2.5
		c2.5,0.1,4.7-0.6,6.5-2.1s3-3.5,3.5-6.2l3.9-22.6H401.3z"/>
	<path class="st1" d="M422.6,411.4c0.3-2.8-1.2-4.9-4.5-6.2l-4.3-1.6l-1.4-0.6c-4.3-1.8-6.2-4.5-5.9-8c0.1-1.7,0.7-3.3,1.8-4.6
		c1.1-1.3,2.5-2.3,4.3-3c1.8-0.7,3.7-1,5.7-1c1.9,0,3.7,0.5,5.2,1.3c1.5,0.8,2.7,2,3.4,3.5c0.8,1.5,1.1,3.1,0.9,5h-2.8
		c0.2-2.2-0.3-4-1.6-5.3c-1.3-1.3-3-2-5.3-2.1c-2.4,0-4.4,0.5-6.1,1.6c-1.7,1.1-2.6,2.6-2.9,4.6c-0.2,1.5,0.3,2.9,1.4,4s3,2,5.7,2.8
		c3.5,1.1,5.9,2.4,7.2,4c1.4,1.5,1.9,3.4,1.8,5.6c-0.2,1.8-0.8,3.4-1.9,4.7s-2.6,2.3-4.4,3c-1.8,0.7-3.8,1-5.9,1
		c-2.1,0-4-0.4-5.6-1.3c-1.7-0.8-2.9-2-3.8-3.4s-1.2-3.1-1-5.1h2.7c-0.2,2.3,0.4,4.1,1.8,5.4c1.4,1.3,3.4,2,5.9,2.1
		c2.5,0,4.6-0.5,6.3-1.7C421.4,414.8,422.4,413.3,422.6,411.4z"/>
	<path class="st1" d="M456.7,389.2h-10.8l-5.3,30.4h-2.7l5.3-30.4h-10.9l0.4-2.3h24.5L456.7,389.2z"/>
	<path class="st1" d="M471,405.9h-9.2l-2.4,13.6h-2.8l5.7-32.7l9.7,0c3.3,0,5.8,0.9,7.5,2.5s2.5,4,2.2,6.9c-0.2,2.2-1,4.1-2.5,5.7
		c-1.4,1.6-3.3,2.7-5.6,3.5l5.6,13.8l0,0.3h-2.9L471,405.9z M462.2,403.6l8.1,0c2.3,0,4.3-0.7,5.9-2s2.6-3.1,2.8-5.3
		c0.3-2.1-0.2-3.8-1.4-5.1c-1.2-1.3-2.9-1.9-5.2-2l-7.7,0L462.2,403.6z"/>
	<path class="st1" d="M504.1,410.4h-14.3l-4.9,9.2h-3l17.7-32.7h2.6l6.3,32.7h-2.7L504.1,410.4z M491,408h12.6l-3.2-17.7L491,408z"
		/>
	<path class="st1" d="M537.3,389.2h-10.8l-5.3,30.4h-2.7l5.3-30.4h-10.9l0.4-2.3h24.5L537.3,389.2z"/>
	<path class="st1" d="M540.7,419.5h-2.7l5.7-32.7h2.7L540.7,419.5z"/>
	<path class="st1" d="M560.8,420c-3.1-0.1-5.5-1.1-7.3-3.2c-1.8-2.1-2.8-4.8-2.9-8.3c-0.1-1.2,0-2.4,0.2-3.6l0.4-3.1
		c0.7-4.6,2.3-8.3,4.9-11.2c2.7-2.9,6-4.4,9.9-4.3c2,0,3.8,0.5,5.3,1.5s2.7,2.3,3.5,4.1s1.3,3.8,1.4,5.9c0,1.3,0,2.5-0.2,3.8
		l-0.5,3.5c-0.5,3.1-1.5,5.8-2.9,8.1c-1.4,2.3-3.1,4-5.2,5.2S563.2,420,560.8,420z M573.3,401.4c0.1-0.9,0.2-1.9,0.2-2.9
		c0-1.8-0.3-3.5-0.9-5c-0.6-1.5-1.4-2.6-2.6-3.4s-2.5-1.2-4.2-1.3c-3-0.1-5.5,1-7.7,3.2s-3.5,5.2-4.2,9c-0.5,3.1-0.8,5.3-0.8,6.8
		c0,3,0.7,5.4,2,7.1s3.2,2.6,5.6,2.7c3.2,0.1,5.8-1.1,7.9-3.5s3.4-5.5,4-9.4L573.3,401.4z"/>
	<path class="st1" d="M603.6,419.5h-2.7l-13.4-28l-4.9,28h-2.8l5.7-32.7h2.7l13.4,28.1l4.9-28.1h2.7L603.6,419.5z"/>
	<path class="st1" d="M631.1,411.4c0.3-2.8-1.2-4.9-4.5-6.2l-4.3-1.6l-1.4-0.6c-4.3-1.8-6.2-4.5-5.9-8c0.1-1.7,0.7-3.3,1.8-4.6
		c1.1-1.3,2.5-2.3,4.3-3c1.8-0.7,3.7-1,5.7-1c1.9,0,3.7,0.5,5.2,1.3c1.5,0.8,2.7,2,3.4,3.5c0.8,1.5,1.1,3.1,0.9,5h-2.8
		c0.2-2.2-0.3-4-1.6-5.3c-1.3-1.3-3-2-5.3-2.1c-2.4,0-4.4,0.5-6.1,1.6c-1.7,1.1-2.6,2.6-2.9,4.6c-0.2,1.5,0.3,2.9,1.4,4s3,2,5.7,2.8
		c3.5,1.1,5.9,2.4,7.2,4c1.4,1.5,1.9,3.4,1.8,5.6c-0.2,1.8-0.8,3.4-1.9,4.7s-2.6,2.3-4.4,3c-1.8,0.7-3.8,1-5.9,1
		c-2.1,0-4-0.4-5.6-1.3c-1.7-0.8-2.9-2-3.8-3.4s-1.2-3.1-1-5.1h2.7c-0.2,2.3,0.4,4.1,1.8,5.4c1.4,1.3,3.4,2,5.9,2.1
		c2.5,0,4.6-0.5,6.3-1.7C629.9,414.8,630.9,413.3,631.1,411.4z"/>
</g>
</svg>
