<?xml version="1.0" encoding="utf-8"?>
<!-- Generator: Adobe Illustrator 26.2.1, SVG Export Plug-In . SVG Version: 6.00 Build 0)  -->
<svg version="1.1" id="Layer_1" xmlns="http://www.w3.org/2000/svg" xmlns:xlink="http://www.w3.org/1999/xlink" x="0px" y="0px"
	 viewBox="0 0 720 720" style="enable-background:new 0 0 720 720;" xml:space="preserve">
<style type="text/css">
	.st0{opacity:0.39;enable-background:new    ;}
	.st1{fill:none;}
	.st2{fill:#FFFFFF;}
</style>
<rect class="st0" width="720" height="720"/>
<rect x="-739.1" y="300" class="st1" width="720" height="407"/>
<text transform="matrix(1 0 0 1 -661.8281 365.6877)" style="font-family:'Raleway-Bold'; font-size:90px;">JUNE &amp; JULY</text>
<text transform="matrix(1 0 0 1 -659.3281 420.8877)" style="font-family:'Roboto-LightItalic'; font-size:46px;">CALENDER ILLUSTRATIONS</text>
<rect x="-678.2" y="3.4" class="st1" width="561.2" height="248.8"/>
<text transform="matrix(1 0 0 1 -648.7148 69.1435)"><tspan x="0" y="0" style="font-family:'Raleway-Bold'; font-size:90px;">DEMOCRAT </tspan><tspan x="-4.6" y="83" style="font-family:'Raleway-Bold'; font-size:90px;">ANIMATION</tspan><tspan x="-21.3" y="141" style="font-family:'Roboto-LightItalic'; font-size:46px;">3D CHARCTER ANIMATION</tspan></text>
<g>
	<path class="st2" d="M119.5,321.4v-63.9h23.2c7,0,12.8,1.4,17.5,4.3c4.7,2.9,8.2,6.7,10.5,11.5c2.3,4.8,3.5,10.2,3.5,16.1
		c0,6.5-1.3,12.1-3.9,16.9c-2.6,4.8-6.2,8.5-10.9,11.2c-4.7,2.6-10.3,4-16.7,4H119.5z M161.7,289.4c0-4.1-0.8-7.8-2.2-10.9
		c-1.5-3.1-3.7-5.6-6.5-7.4c-2.8-1.8-6.2-2.7-10.3-2.7h-10.8v42.1h10.8c4.1,0,7.5-0.9,10.4-2.7c2.8-1.8,5-4.3,6.4-7.6
		C161,297,161.7,293.4,161.7,289.4z"/>
	<path class="st2" d="M228.3,310.6v10.9h-44.4v-63.9h43.6v10.9h-31.1v15.4h26.9v10.1h-26.9v16.6H228.3z"/>
	<path class="st2" d="M290.1,321.4v-41.9l-16.4,31.2h-6.9l-16.4-31.2v41.9H238v-63.9h13.3l18.9,36.4l19.1-36.4h13.2v63.9H290.1z"/>
	<path class="st2" d="M343.2,321.9c-4.7,0-8.9-0.9-12.7-2.7c-3.8-1.8-7.1-4.2-9.8-7.3c-2.7-3.1-4.8-6.6-6.3-10.4
		c-1.5-3.9-2.2-7.8-2.2-11.9c0-4.3,0.8-8.3,2.4-12.2c1.6-3.9,3.8-7.3,6.6-10.4c2.8-3,6.1-5.4,9.9-7.2c3.8-1.8,8-2.7,12.6-2.7
		c4.6,0,8.8,0.9,12.6,2.8c3.8,1.9,7.1,4.4,9.8,7.5c2.7,3.1,4.8,6.6,6.3,10.4c1.5,3.8,2.2,7.8,2.2,11.9c0,4.2-0.8,8.2-2.3,12.1
		c-1.6,3.9-3.7,7.3-6.5,10.4c-2.8,3-6.1,5.4-9.9,7.2C351.8,321,347.7,321.9,343.2,321.9z M324.6,289.5c0,2.8,0.4,5.4,1.3,8
		c0.8,2.6,2.1,4.9,3.6,6.9c1.6,2,3.5,3.6,5.9,4.8c2.3,1.2,4.9,1.8,7.9,1.8c3,0,5.7-0.6,8-1.8c2.3-1.2,4.3-2.9,5.9-5
		c1.6-2.1,2.7-4.4,3.6-6.9c0.8-2.5,1.2-5.1,1.2-7.7c0-2.8-0.4-5.4-1.3-8c-0.9-2.5-2.1-4.8-3.7-6.8c-1.6-2-3.5-3.6-5.8-4.8
		c-2.3-1.2-4.9-1.8-7.8-1.8c-3.1,0-5.7,0.6-8.1,1.8c-2.3,1.2-4.2,2.9-5.8,4.9c-1.6,2-2.7,4.3-3.6,6.8S324.6,286.9,324.6,289.5z"/>
	<path class="st2" d="M380.1,289c0-3.9,0.7-7.7,2.1-11.5c1.4-3.7,3.5-7.2,6.2-10.3c2.7-3.1,6-5.5,9.9-7.4c3.9-1.8,8.3-2.7,13.3-2.7
		c5.9,0,11,1.3,15.3,3.9c4.3,2.6,7.5,5.9,9.6,10.1l-9.5,6.6c-1.1-2.4-2.5-4.3-4.2-5.7c-1.7-1.4-3.6-2.4-5.6-3
		c-2-0.6-3.9-0.9-5.8-0.9c-3.1,0-5.8,0.6-8.1,1.9c-2.3,1.3-4.2,2.9-5.8,5c-1.6,2-2.7,4.3-3.5,6.8c-0.8,2.5-1.1,5-1.1,7.6
		c0,2.8,0.4,5.5,1.4,8.1c0.9,2.6,2.2,4.9,3.8,6.9c1.6,2,3.6,3.6,5.9,4.8c2.3,1.2,4.8,1.8,7.6,1.8c2,0,4-0.3,6-1
		c2-0.7,3.9-1.7,5.7-3.1c1.7-1.4,3.1-3.3,4-5.6l10.2,5.9c-1.3,3.2-3.3,5.9-6.2,8.1c-2.9,2.2-6,3.9-9.6,5c-3.5,1.1-7.1,1.7-10.5,1.7
		c-4.6,0-8.7-0.9-12.5-2.8c-3.8-1.9-7-4.4-9.8-7.6c-2.7-3.2-4.9-6.7-6.4-10.6C380.8,297,380.1,293,380.1,289z"/>
	<path class="st2" d="M445.7,321.4v-63.9h28.3c2.9,0,5.7,0.6,8.1,1.8c2.5,1.2,4.6,2.8,6.5,4.9c1.8,2,3.2,4.3,4.2,6.8
		s1.5,5.1,1.5,7.7c0,2.7-0.5,5.3-1.4,7.8c-0.9,2.5-2.3,4.7-4,6.5c-1.7,1.9-3.8,3.3-6.1,4.3l14.6,24h-13.7L470.5,300h-12.4v21.4
		H445.7z M458.1,289.1h15.6c1.6,0,2.9-0.5,4.1-1.4c1.2-0.9,2.2-2.2,2.9-3.7c0.7-1.6,1.1-3.3,1.1-5.2c0-2-0.4-3.8-1.3-5.4
		c-0.8-1.5-1.9-2.7-3.2-3.6c-1.3-0.9-2.7-1.3-4.2-1.3h-15V289.1z"/>
	<path class="st2" d="M522.9,257.5h12.6l23.5,63.9h-12.8l-5.3-15.9h-23.5l-5.3,15.9h-12.8L522.9,257.5z M538,296.8l-8.8-26.4
		l-8.8,26.4H538z"/>
	<path class="st2" d="M607.8,268.4h-20.4v53h-12.3v-53h-20.4v-10.9h53.2V268.4z"/>
	<path class="st2" d="M131,340.5h12.6l23.5,63.9h-12.8l-5.3-15.9h-23.5l-5.3,15.9h-12.8L131,340.5z M146.1,379.8l-8.8-26.4
		l-8.8,26.4H146.1z"/>
	<path class="st2" d="M186.5,363.4v41h-12.4v-63.9h9.9l33,42.1v-42h12.4v63.8h-10.3L186.5,363.4z"/>
	<path class="st2" d="M242.8,404.4v-63.9h12.4v63.9H242.8z"/>
	<path class="st2" d="M320.6,404.4v-41.9l-16.4,31.2h-6.9l-16.4-31.2v41.9h-12.4v-63.9h13.3l18.9,36.4l19.1-36.4H333v63.9H320.6z"/>
	<path class="st2" d="M363.7,340.5h12.6l23.5,63.9H387l-5.3-15.9h-23.5l-5.3,15.9h-12.8L363.7,340.5z M378.8,379.8l-8.8-26.4
		l-8.8,26.4H378.8z"/>
	<path class="st2" d="M448.7,351.4h-20.4v53h-12.3v-53h-20.4v-10.9h53.2V351.4z"/>
	<path class="st2" d="M456.6,404.4v-63.9H469v63.9H456.6z"/>
	<path class="st2" d="M509.6,404.9c-4.7,0-8.9-0.9-12.7-2.7c-3.8-1.8-7.1-4.2-9.8-7.3c-2.7-3.1-4.8-6.6-6.3-10.4
		c-1.5-3.9-2.2-7.8-2.2-11.9c0-4.3,0.8-8.3,2.4-12.2c1.6-3.9,3.8-7.3,6.6-10.4c2.8-3,6.1-5.4,9.9-7.2c3.8-1.8,8-2.7,12.6-2.7
		c4.6,0,8.8,0.9,12.6,2.8c3.8,1.9,7.1,4.4,9.8,7.5c2.7,3.1,4.8,6.6,6.3,10.4c1.5,3.8,2.2,7.8,2.2,11.9c0,4.2-0.8,8.2-2.3,12.1
		c-1.6,3.9-3.7,7.3-6.5,10.4c-2.8,3-6.1,5.4-9.9,7.2C518.3,404,514.1,404.9,509.6,404.9z M491.1,372.5c0,2.8,0.4,5.4,1.3,8
		c0.8,2.6,2.1,4.9,3.6,6.9c1.6,2,3.5,3.6,5.8,4.8c2.3,1.2,4.9,1.8,7.9,1.8c3,0,5.7-0.6,8-1.8c2.3-1.2,4.3-2.9,5.9-5
		c1.6-2.1,2.7-4.4,3.6-6.9c0.8-2.5,1.2-5.1,1.2-7.7c0-2.8-0.4-5.4-1.3-8c-0.9-2.5-2.1-4.8-3.7-6.8c-1.6-2-3.5-3.6-5.8-4.8
		c-2.3-1.2-4.9-1.8-7.8-1.8c-3.1,0-5.7,0.6-8.1,1.8c-2.3,1.2-4.2,2.9-5.8,4.9c-1.6,2-2.7,4.3-3.6,6.8
		C491.5,367.3,491.1,369.9,491.1,372.5z"/>
	<path class="st2" d="M562.8,363.4v41h-12.4v-63.9h9.9l33,42.1v-42h12.4v63.8h-10.3L562.8,363.4z"/>
	<path class="st2" d="M98.3,444.6l2.6,0c2.3,0,4.2-0.6,5.8-1.8c1.6-1.2,2.5-2.8,2.7-4.8c0.2-2-0.2-3.5-1.2-4.7s-2.5-1.8-4.4-1.8
		c-2.1,0-3.8,0.6-5.2,1.8c-1.4,1.2-2.3,2.9-2.7,4.9l-2.6,0c0.3-2.7,1.5-4.9,3.5-6.6c2-1.7,4.4-2.5,7.2-2.5c2.7,0.1,4.8,0.9,6.3,2.6
		c1.5,1.7,2.1,3.8,1.9,6.4c-0.1,1.6-0.8,3.1-1.9,4.4c-1.1,1.3-2.7,2.4-4.7,3.2c1.6,0.6,2.9,1.5,3.7,2.9s1.2,2.9,1,4.7
		c-0.2,2.9-1.4,5.2-3.4,6.9c-2.1,1.8-4.6,2.6-7.5,2.6c-2.8-0.1-5-1-6.7-2.7s-2.4-3.9-2.2-6.6h2.7c-0.2,2,0.3,3.7,1.5,5
		c1.2,1.3,2.8,2,4.9,2.1c2.2,0.1,4.1-0.6,5.6-1.9c1.5-1.3,2.4-3.1,2.6-5.3c0.2-1.9-0.3-3.4-1.3-4.6c-1.1-1.1-2.7-1.8-4.9-1.9l-0.5,0
		l-2.8,0L98.3,444.6z"/>
	<path class="st2" d="M115.3,462.4l5.7-32.7l8.5,0c2.5,0,4.7,0.6,6.6,1.9c1.9,1.3,3.2,3.1,4,5.4c0.8,2.3,1.1,4.8,0.7,7.5l-0.4,2.7
		c-0.7,4.5-2.5,8.2-5.4,11c-2.9,2.8-6.5,4.2-10.8,4.2H115.3z M123.3,432.1l-4.9,28l5.8,0c2.3,0,4.4-0.5,6.3-1.6
		c1.9-1,3.4-2.5,4.7-4.4s2-4.1,2.4-6.5s0.6-4.1,0.6-5c0-0.9,0-1.8-0.1-2.7c-0.3-2.4-1.3-4.3-2.7-5.7c-1.5-1.4-3.4-2.1-5.8-2.2
		L123.3,432.1z"/>
	<path class="st2" d="M180,452.3c-0.8,3.4-2.3,6-4.6,7.9s-5.2,2.8-8.6,2.7c-2.9-0.1-5.2-1.1-7-3.1c-1.7-2-2.7-4.7-2.8-8.1
		c0-1.2,0-2.3,0.2-3.5l0.6-4c0.5-3,1.4-5.7,2.8-8c1.4-2.3,3.1-4.1,5.1-5.2c2-1.2,4.2-1.7,6.6-1.7c3.1,0.1,5.5,1,7.3,3
		c1.8,1.9,2.6,4.5,2.6,7.7l-2.7,0c0-2.6-0.6-4.7-1.9-6.1c-1.3-1.4-3.1-2.2-5.4-2.3c-3-0.1-5.5,1-7.6,3.3c-2.1,2.3-3.4,5.4-4.1,9.5
		l-0.7,4.5l-0.1,2c0,1.8,0.2,3.4,0.8,4.9c0.5,1.5,1.4,2.7,2.5,3.5c1.1,0.8,2.4,1.2,3.9,1.3c2.6,0.1,4.8-0.6,6.5-2
		c1.8-1.4,3-3.5,3.9-6.3L180,452.3z"/>
	<path class="st2" d="M208.6,462.4h-2.8l2.7-15.7h-18.1l-2.7,15.7H185l5.7-32.7h2.7l-2.6,14.7h18.1l2.6-14.7h2.8L208.6,462.4z"/>
	<path class="st2" d="M236,453.3h-14.3l-4.9,9.2h-3l17.7-32.7h2.6l6.3,32.7h-2.7L236,453.3z M222.9,450.9h12.6l-3.2-17.7
		L222.9,450.9z"/>
	<path class="st2" d="M259.6,448.8h-9.2l-2.4,13.6h-2.8l5.7-32.7l9.7,0c3.3,0,5.8,0.9,7.5,2.5c1.8,1.7,2.5,4,2.2,6.9
		c-0.2,2.2-1,4.1-2.5,5.7c-1.4,1.6-3.3,2.7-5.6,3.5l5.6,13.8l0,0.3h-2.9L259.6,448.8z M250.8,446.5l8.1,0c2.3,0,4.3-0.7,5.9-2
		c1.6-1.4,2.6-3.1,2.8-5.3c0.3-2.1-0.2-3.8-1.4-5.1c-1.2-1.3-2.9-1.9-5.2-2l-7.7,0L250.8,446.5z"/>
	<path class="st2" d="M298,452.3c-0.8,3.4-2.3,6-4.6,7.9s-5.2,2.8-8.6,2.7c-2.9-0.1-5.2-1.1-7-3.1c-1.7-2-2.7-4.7-2.8-8.1
		c0-1.2,0-2.3,0.2-3.5l0.6-4c0.5-3,1.4-5.7,2.8-8c1.4-2.3,3.1-4.1,5.1-5.2c2-1.2,4.2-1.7,6.6-1.7c3.1,0.1,5.5,1,7.3,3
		c1.8,1.9,2.6,4.5,2.6,7.7l-2.7,0c0-2.6-0.6-4.7-1.9-6.1c-1.3-1.4-3.1-2.2-5.4-2.3c-3-0.1-5.5,1-7.6,3.3c-2.1,2.3-3.4,5.4-4.1,9.5
		l-0.7,4.5l-0.1,2c0,1.8,0.2,3.4,0.8,4.9c0.5,1.5,1.4,2.7,2.5,3.5c1.1,0.8,2.4,1.2,3.9,1.3c2.6,0.1,4.8-0.6,6.5-2
		c1.8-1.4,3-3.5,3.9-6.3L298,452.3z"/>
	<path class="st2" d="M329.2,432.1h-10.8l-5.3,30.4h-2.7l5.3-30.4h-10.9l0.4-2.3h24.5L329.2,432.1z"/>
	<path class="st2" d="M349.6,446.8h-14.8l-2.3,13.3h17.1l-0.4,2.3h-19.8l5.7-32.7h19.7l-0.4,2.3h-16.9l-2.2,12.4H350L349.6,446.8z"
		/>
	<path class="st2" d="M369.2,448.8h-9.2l-2.4,13.6h-2.8l5.7-32.7l9.7,0c3.3,0,5.8,0.9,7.5,2.5c1.8,1.7,2.5,4,2.2,6.9
		c-0.2,2.2-1,4.1-2.5,5.7c-1.4,1.6-3.3,2.7-5.6,3.5l5.6,13.8l0,0.3h-2.9L369.2,448.8z M360.3,446.5l8.1,0c2.3,0,4.3-0.7,5.9-2
		c1.6-1.4,2.6-3.1,2.8-5.3c0.3-2.1-0.2-3.8-1.4-5.1c-1.2-1.3-2.9-1.9-5.2-2l-7.7,0L360.3,446.5z"/>
	<path class="st2" d="M413.3,453.3h-14.3l-4.9,9.2h-3l17.7-32.7h2.6l6.3,32.7H415L413.3,453.3z M400.2,450.9h12.6l-3.2-17.7
		L400.2,450.9z"/>
	<path class="st2" d="M446.3,462.4h-2.7l-13.4-28l-4.9,28h-2.8l5.7-32.7h2.7l13.4,28.1l4.9-28.1h2.7L446.3,462.4z"/>
	<path class="st2" d="M457.8,462.4h-2.7l5.7-32.7h2.7L457.8,462.4z"/>
	<path class="st2" d="M475.8,429.7l6.7,28.8l16.7-28.8h3.7l-5.7,32.7h-2.7l2.5-14.4l2.7-14.2L483,462.4h-2.1l-6.8-28.7l-2.3,14.5
		l-2.5,14.2h-2.7l5.7-32.7H475.8z"/>
	<path class="st2" d="M524.6,453.3h-14.3l-4.9,9.2h-3l17.7-32.7h2.6l6.3,32.7h-2.7L524.6,453.3z M511.5,450.9h12.6l-3.2-17.7
		L511.5,450.9z"/>
	<path class="st2" d="M557.9,432.1H547l-5.3,30.4H539l5.3-30.4h-10.9l0.4-2.3h24.5L557.9,432.1z"/>
	<path class="st2" d="M561.2,462.4h-2.7l5.7-32.7h2.7L561.2,462.4z"/>
	<path class="st2" d="M581.3,462.9c-3.1-0.1-5.5-1.1-7.3-3.2c-1.8-2.1-2.8-4.8-2.9-8.3c-0.1-1.2,0-2.4,0.2-3.6l0.4-3.1
		c0.7-4.6,2.3-8.3,4.9-11.2c2.7-2.9,6-4.4,9.9-4.3c2,0,3.8,0.5,5.3,1.5c1.5,0.9,2.7,2.3,3.5,4.1c0.8,1.8,1.3,3.8,1.4,5.9
		c0,1.3,0,2.5-0.2,3.8L596,448c-0.5,3.1-1.5,5.8-2.9,8.1c-1.4,2.3-3.1,4-5.2,5.2S583.7,462.9,581.3,462.9z M593.9,444.3
		c0.1-0.9,0.2-1.9,0.2-2.9c0-1.8-0.3-3.5-0.9-5c-0.6-1.5-1.4-2.6-2.6-3.4c-1.1-0.8-2.5-1.2-4.2-1.3c-3-0.1-5.5,1-7.7,3.2
		s-3.5,5.2-4.2,9c-0.5,3.1-0.8,5.3-0.8,6.8c0,3,0.7,5.4,2,7.1s3.2,2.6,5.6,2.7c3.2,0.1,5.8-1.1,7.9-3.5s3.4-5.5,4-9.4L593.9,444.3z"
		/>
	<path class="st2" d="M624.1,462.4h-2.7l-13.4-28l-4.9,28h-2.8l5.7-32.7h2.7l13.4,28.1l4.9-28.1h2.7L624.1,462.4z"/>
</g>
</svg>
