<?xml version="1.0" encoding="utf-8"?>
<!-- Generator: Adobe Illustrator 26.2.1, SVG Export Plug-In . SVG Version: 6.00 Build 0)  -->
<svg version="1.1" id="Layer_1" xmlns="http://www.w3.org/2000/svg" xmlns:xlink="http://www.w3.org/1999/xlink" x="0px" y="0px"
	 viewBox="0 0 120 120" style="enable-background:new 0 0 120 120;" xml:space="preserve">
<style type="text/css">
	.st0{fill:#0288D1;}
	.st1{fill:#E53935;}
</style>
<path class="st0" d="M215.3,9.9c-33.1,0-60,26.9-60,60c0,33.1,26.9,60,60,60c33.1,0,60-26.9,60-60C275.3,36.8,248.4,9.9,215.3,9.9z
	 M197.3,99.9h-12v-45h12V99.9z M191.3,48.9L191.3,48.9c-3.7,0-6-2.7-6-6c0-3.4,2.4-6,6-6c3.6,0,5.9,2.6,6,6
	C197.3,46.2,195,48.9,191.3,48.9z M248.3,99.9h-12v-24c0-5-4-9-9-9c-5,0-9,4-9,9v24h-12v-45h12v7c3-4.2,7.9-7,13.5-7
	c9.1,0,16.5,7.4,16.5,16.5C248.3,72.7,248.3,99.9,248.3,99.9z"/>
<path class="st0" d="M-103.8,125.3c-33.1,0-60,26.9-60,60s26.9,60,60,60s60-26.9,60-60S-70.6,125.3-103.8,125.3z"/>
<g>
	<g>
		<path class="st1" d="M-69.1,174.7v32.9c0,2.1-1.7,3.7-3.7,3.7h-10.6v-25.9L-69.1,174.7z"/>
	</g>
	<g>
		<path class="st1" d="M-124.1,185.5v25.9h-10.6c-2.1,0-3.7-1.7-3.7-3.7v-32.9L-124.1,185.5z"/>
	</g>
	<g>
		<path class="st1" d="M-69.1,165.2v6l-17.2,12.9l-17.5,13.1l-17.5-13.1l-17.2-12.9v-6c0-1.6,0.6-3.1,1.7-4.2
			c1.1-1.1,2.6-1.7,4.2-1.7c1.3,0,2.6,0.4,3.6,1.2l25.2,18.9l25.2-18.9c1-0.8,2.3-1.2,3.6-1.2c1.6,0,3.1,0.6,4.2,1.7
			C-69.7,162.1-69.1,163.6-69.1,165.2z"/>
	</g>
</g>
<path class="st1" d="M60,0C26.9,0,0,26.9,0,60s26.9,60,60,60c33.1,0,60-26.9,60-60S93.1,0,60,0z M39.7,86.1H29c-2,0-3.7-1.7-3.7-3.7
	V49.5l14.3,10.8V86.1z M94.7,82.4c0,2.1-1.7,3.7-3.7,3.7H80.4V60.2l14.3-10.8V82.4z M94.7,45.9L77.5,58.8L60,71.9L42.5,58.8
	L25.3,45.9v-6c0-1.6,0.6-3.1,1.8-4.2c1.1-1.1,2.6-1.7,4.2-1.7c1.3,0,2.6,0.4,3.6,1.2L60,54l25.2-18.9c1-0.8,2.3-1.2,3.6-1.2
	c1.6,0,3.1,0.6,4.2,1.8c1.1,1.1,1.8,2.6,1.8,4.2V45.9z"/>
</svg>
