<?xml version="1.0" encoding="utf-8"?>
<!-- Generator: Adobe Illustrator 26.2.1, SVG Export Plug-In . SVG Version: 6.00 Build 0)  -->
<svg version="1.1" id="Layer_1" xmlns="http://www.w3.org/2000/svg" xmlns:xlink="http://www.w3.org/1999/xlink" x="0px" y="0px"
	 viewBox="0 0 329.4 400" style="enable-background:new 0 0 329.4 400;" xml:space="preserve">
<style type="text/css">
	.st0{fill:#FF860D;}
</style>
<path class="st0" d="M281.8,399.3H47.6C21.3,399.3,0,378,0,351.7V47.6C0,21.3,21.3,0,47.6,0h179.7c12.6,0,25,5.2,33.9,14.2
	l54.6,55.6c8.8,9,13.6,20.8,13.6,33.3v248.6C329.4,378,308,399.3,281.8,399.3z M47.6,27.9c-10.9,0-19.7,8.8-19.7,19.7v304.2
	c0,10.9,8.8,19.7,19.7,19.7h234.3c10.9,0,19.7-8.8,19.7-19.7V103.2c0-5.2-2-10.1-5.7-13.8l-54.6-55.6c-3.7-3.7-8.8-5.9-14-5.9
	C227.3,27.9,47.6,27.9,47.6,27.9z"/>
<g>
	<path class="st0" d="M161,239.7h-48.4L100,283.6c-0.1,1.3-0.9,2-2.3,2H75c-1.5,0-2-0.8-1.6-2.5l43.9-147c1.1-3.2,1.7-7.7,1.8-13.7
		c0-1,0.5-1.5,1.4-1.5h31.8c0.9,0,1.4,0.4,1.6,1.2L203,283.3c0.5,1.5,0.1,2.2-1.1,2.2h-25.5c-1.1,0-1.8-0.5-2.3-1.5L161,239.7z
		 M118,215.9h37.7c-0.9-3.5-2.8-10.3-5.7-20.5c-2.9-10.1-5.5-19.6-8-28.5c-2.4-8.8-4.2-15.8-5.5-21h-0.2
		C134.7,154.7,128.6,178,118,215.9z"/>
	<path class="st0" d="M229,145.9c-4.4,0-8-1.4-10.8-4.2s-4.1-6.6-4.1-11.4c0-4.8,1.4-8.6,4.2-11.5s6.4-4.3,10.9-4.3
		c4.6,0,8.2,1.4,10.9,4.3s4,6.7,4,11.5s-1.4,8.6-4.1,11.4S233.6,145.9,229,145.9z"/>
	<path class="st0" d="M215.8,283.2V165.9c0-1.3,0.6-2,1.8-2h23.2c1.2,0,1.7,0.7,1.7,2v117.6c0,1.3-0.6,2-1.7,2h-23
		C216.4,285.4,215.8,284.7,215.8,283.2z"/>
</g>
</svg>
