<?xml version="1.0" encoding="utf-8"?>
<!-- Generator: Adobe Illustrator 26.2.1, SVG Export Plug-In . SVG Version: 6.00 Build 0)  -->
<svg version="1.1" id="Layer_1" xmlns="http://www.w3.org/2000/svg" xmlns:xlink="http://www.w3.org/1999/xlink" x="0px" y="0px"
	 viewBox="0 0 331.7 400" style="enable-background:new 0 0 331.7 400;" xml:space="preserve">
<style type="text/css">
	.st0{fill:#FF3388;}
	.st1{fill:#2E0918;}
	.st2{fill:#FFFFFF;}
</style>
<path class="st0" d="M279.1,400H52.6C23.6,400,0,376.4,0,347.4V52.6C0,23.6,23.6,0,52.6,0H228c14.1,0,27.3,5.5,37.2,15.4l51.1,51.1
	c9.9,9.9,15.4,23.2,15.4,37.2v243.6C331.7,376.4,308.1,400,279.1,400z M52.6,31.3c-11.8,0-21.4,9.6-21.4,21.4v294.7
	c0,11.8,9.6,21.4,21.4,21.4h226.5c11.8,0,21.4-9.6,21.4-21.4V103.8c0-5.7-2.2-11.1-6.3-15.1l-51.1-51.1c-4-4-9.4-6.3-15.1-6.3H52.6z
	"/>
<g>
	<path class="st0" d="M445.6,224.9h108.5c9.8,0,17.7-7.9,17.7-17.7V90.4c0-4.7-1.9-9.2-5.2-12.5l-24.5-24.5
		c-3.3-3.3-7.8-5.2-12.5-5.2h-84c-9.8,0-17.7,7.9-17.7,17.7v141.3C427.9,216.9,435.8,224.9,445.6,224.9z"/>
	<path class="st1" d="M444.6,219h110.5c5.9,0,10.7-4.8,10.7-10.7V91c0-2.8-1.1-5.5-3.1-7.5L537,57.3c-2-2.1-4.8-3.2-7.6-3.2h-84.7
		c-5.9,0-10.7,4.8-10.7,10.7v143.4C433.9,214.2,438.7,219,444.6,219z"/>
</g>
<g>
	<path class="st0" d="M122.3,134.2v149.4c0,1.4-0.5,2.1-1.6,2.1H99.4c-1.1,0-1.6-0.7-1.6-2.1V134.2c0-1.2,0.5-1.9,1.6-1.9h21.5
		C121.9,132.4,122.3,133,122.3,134.2z"/>
	<path class="st0" d="M194.6,287.8c-15.1,0-27.2-4.9-36.3-14.6c-9.1-9.8-13.6-24.2-13.6-43.2c0-17.3,4.9-31.6,14.6-42.8
		c9.7-11.2,22.7-16.7,39-16.7c4,0,7.6,0.4,10.6,1.2v-50.2c0-0.9,0.4-1.4,1.2-1.4h22.3c0.7,0,1,0.5,1,1.4v139.2
		c0,5.9,0.2,11,0.6,15.3c0.1,0.9-0.2,1.6-1,2.1C221.2,284.6,208.4,287.8,194.6,287.8z M208.8,264.8V193c-2.7-1.7-6.4-2.6-11-2.6
		c-8.3,0-14.9,3.3-20.1,10c-5.1,6.7-7.7,16.1-7.7,28.3c0,13,2.5,22.6,7.6,28.8c5.1,6.2,11.5,9.3,19.4,9.3
		C201.9,266.9,205.8,266.2,208.8,264.8z"/>
</g>
<g>
	<path class="st2" d="M467.4,173v26.3c0,0.2-0.1,0.4-0.3,0.4h-3.8c-0.2,0-0.3-0.1-0.3-0.4V173c0-0.2,0.1-0.3,0.3-0.3h3.8
		C467.4,172.6,467.4,172.7,467.4,173z"/>
	<path class="st2" d="M476.9,199.6h-3.5c-0.2,0-0.3-0.1-0.3-0.4v-26.3c0-0.2,0.1-0.3,0.3-0.3h4.9c0.2,0,0.3,0.1,0.4,0.3
		c4.6,10,7.4,16.7,8.7,19.9h0c-0.1-1.5-0.1-3.7-0.1-6.5V173c0-0.2,0.1-0.3,0.3-0.3h3.5c0.2,0,0.3,0.1,0.3,0.3v26.3
		c0,0.2-0.1,0.4-0.4,0.4h-4.5c-0.2,0-0.4-0.1-0.4-0.3c-0.4-1-1.9-4.3-4.4-10.2c-2.6-5.8-4.1-9.5-4.6-11.1h0c0.1,1.7,0.2,4.3,0.2,7.7
		v13.5C477.2,199.5,477.1,199.6,476.9,199.6z"/>
	<path class="st2" d="M496.9,199.2V173c0-0.2,0.1-0.3,0.2-0.3c2.6-0.1,4.9-0.1,6.9-0.1c3.8,0,6.7,1.2,8.7,3.6c2,2.4,3,5.6,3,9.6
		c0,2.1-0.3,4-0.8,5.6c-0.5,1.7-1.2,3-2,4c-0.8,1-1.8,1.9-2.9,2.5c-1.1,0.7-2.2,1.1-3.3,1.4c-1.1,0.3-2.2,0.4-3.4,0.4
		c-2.3,0-4.3,0-6.3-0.1C497,199.6,496.9,199.5,496.9,199.2z M501.3,176.3v19.5c0.8,0.1,1.5,0.1,2.3,0.1c2.4,0,4.2-0.8,5.6-2.4
		c1.3-1.6,2-4.2,2-7.7c0-3.3-0.6-5.7-1.9-7.3c-1.3-1.6-3-2.3-5.3-2.3C502.6,176.3,501.7,176.3,501.3,176.3z"/>
	<path class="st2" d="M520.1,199.2V173c0-0.2,0.1-0.3,0.2-0.3c2.6-0.1,4.9-0.1,6.9-0.1c3.8,0,6.7,1.2,8.7,3.6c2,2.4,3,5.6,3,9.6
		c0,2.1-0.3,4-0.8,5.6c-0.5,1.7-1.2,3-2,4c-0.8,1-1.8,1.9-2.9,2.5c-1.1,0.7-2.2,1.1-3.3,1.4s-2.2,0.4-3.4,0.4c-2.3,0-4.3,0-6.3-0.1
		C520.2,199.6,520.1,199.5,520.1,199.2z M524.5,176.3v19.5c0.8,0.1,1.5,0.1,2.3,0.1c2.4,0,4.2-0.8,5.6-2.4c1.3-1.6,2-4.2,2-7.7
		c0-3.3-0.6-5.7-1.9-7.3c-1.3-1.6-3-2.3-5.3-2.3C525.8,176.3,524.9,176.3,524.5,176.3z"/>
</g>
</svg>
