<?xml version="1.0" encoding="utf-8"?>
<!-- Generator: Adobe Illustrator 26.2.1, SVG Export Plug-In . SVG Version: 6.00 Build 0)  -->
<svg version="1.1" id="Layer_1" xmlns="http://www.w3.org/2000/svg" xmlns:xlink="http://www.w3.org/1999/xlink" x="0px" y="0px"
	 viewBox="0 0 720 720" style="enable-background:new 0 0 720 720;" xml:space="preserve">
<style type="text/css">
	.st0{opacity:0.39;enable-background:new    ;}
	.st1{fill:none;}
	.st2{fill:#FFFFFF;}
</style>
<rect class="st0" width="720" height="720"/>
<rect x="-739.1" y="300" class="st1" width="720" height="407"/>
<text transform="matrix(1 0 0 1 -661.8281 365.6877)" style="font-family:'Raleway-Bold'; font-size:90px;">JUNE &amp; JULY</text>
<text transform="matrix(1 0 0 1 -659.3281 420.8877)" style="font-family:'Roboto-LightItalic'; font-size:46px;">CALENDER ILLUSTRATIONS</text>
<rect x="-678.2" y="3.4" class="st1" width="561.2" height="248.8"/>
<text transform="matrix(1 0 0 1 -512.2764 69.1435)"><tspan x="0" y="0" style="font-family:'Raleway-Bold'; font-size:90px;">LIVID </tspan><tspan x="-141" y="108" style="font-family:'Raleway-Bold'; font-size:90px;">ANIMATION</tspan><tspan x="-157.7" y="166" style="font-family:'Roboto-LightItalic'; font-size:46px;">2D CHARCTER ANIMATION</tspan></text>
<g>
	<path class="st2" d="M252,308.7v-63.9h12.4v53H297v10.9H252z"/>
	<path class="st2" d="M304.6,308.7v-63.9H317v63.9H304.6z"/>
	<path class="st2" d="M336.9,244.8l17.3,49.1l17.1-49.1h13.1l-24.2,63.9h-12l-24.3-63.9H336.9z"/>
	<path class="st2" d="M391.2,308.7v-63.9h12.4v63.9H391.2z"/>
	<path class="st2" d="M416.9,308.7v-63.9h23.2c7,0,12.8,1.4,17.5,4.3c4.7,2.9,8.2,6.7,10.5,11.5c2.3,4.8,3.5,10.2,3.5,16.1
		c0,6.5-1.3,12.1-3.9,16.9c-2.6,4.8-6.2,8.5-10.9,11.2c-4.7,2.6-10.3,4-16.7,4H416.9z M459.1,276.7c0-4.1-0.8-7.8-2.2-10.9
		c-1.5-3.1-3.7-5.6-6.5-7.4c-2.8-1.8-6.2-2.7-10.3-2.7h-10.8v42.1h10.8c4.1,0,7.5-0.9,10.4-2.7c2.8-1.8,5-4.3,6.4-7.6
		C458.4,284.3,459.1,280.7,459.1,276.7z"/>
	<path class="st2" d="M131.3,352.8h12.6l23.5,63.9h-12.8l-5.3-15.9h-23.5l-5.3,15.9h-12.8L131.3,352.8z M146.4,392.1l-8.8-26.4
		l-8.8,26.4H146.4z"/>
	<path class="st2" d="M186.9,375.7v41h-12.4v-63.9h9.9l33,42.1v-42h12.4v63.8h-10.3L186.9,375.7z"/>
	<path class="st2" d="M243.1,416.7v-63.9h12.4v63.9H243.1z"/>
	<path class="st2" d="M321,416.7v-41.9L304.6,406h-6.9l-16.4-31.2v41.9h-12.4v-63.9h13.3l18.9,36.4l19.1-36.4h13.2v63.9H321z"/>
	<path class="st2" d="M364.1,352.8h12.6l23.5,63.9h-12.8l-5.3-15.9h-23.5l-5.3,15.9h-12.8L364.1,352.8z M379.2,392.1l-8.8-26.4
		l-8.8,26.4H379.2z"/>
	<path class="st2" d="M449,363.7h-20.4v53h-12.3v-53h-20.4v-10.9H449V363.7z"/>
	<path class="st2" d="M457,416.7v-63.9h12.4v63.9H457z"/>
	<path class="st2" d="M510,417.2c-4.7,0-8.9-0.9-12.7-2.7c-3.8-1.8-7.1-4.2-9.8-7.3c-2.7-3.1-4.8-6.6-6.3-10.4
		c-1.5-3.9-2.2-7.8-2.2-11.9c0-4.3,0.8-8.3,2.4-12.2c1.6-3.9,3.8-7.3,6.6-10.4c2.8-3,6.1-5.4,9.9-7.2c3.8-1.8,8-2.7,12.6-2.7
		c4.6,0,8.8,0.9,12.6,2.8c3.8,1.9,7.1,4.4,9.8,7.5c2.7,3.1,4.8,6.6,6.3,10.4c1.5,3.8,2.2,7.8,2.2,11.9c0,4.2-0.8,8.2-2.3,12.1
		c-1.6,3.9-3.7,7.3-6.5,10.4c-2.8,3-6.1,5.4-9.9,7.2C518.6,416.3,514.5,417.2,510,417.2z M491.4,384.8c0,2.8,0.4,5.4,1.3,8
		c0.8,2.6,2.1,4.9,3.6,6.9c1.6,2,3.5,3.6,5.9,4.8c2.3,1.2,4.9,1.8,7.9,1.8c3,0,5.7-0.6,8-1.8c2.3-1.2,4.3-2.9,5.8-5
		c1.6-2.1,2.7-4.4,3.6-6.9c0.8-2.5,1.2-5.1,1.2-7.7c0-2.8-0.4-5.4-1.3-8c-0.9-2.5-2.1-4.8-3.7-6.8c-1.6-2-3.5-3.6-5.8-4.8
		c-2.3-1.2-4.9-1.8-7.8-1.8c-3.1,0-5.7,0.6-8.1,1.8c-2.3,1.2-4.2,2.9-5.8,4.9c-1.6,2-2.7,4.3-3.6,6.8
		C491.8,379.6,491.4,382.1,491.4,384.8z"/>
	<path class="st2" d="M563.2,375.7v41h-12.4v-63.9h9.9l33,42.1v-42h12.4v63.8h-10.3L563.2,375.7z"/>
	<path class="st2" d="M109.8,474.7H89.9l0.3-2.2l14.2-14c3-3,4.6-5.7,4.9-8.1c0.2-1.9-0.1-3.4-1.1-4.6c-1-1.2-2.4-1.9-4.4-1.9
		c-2.1-0.1-3.9,0.6-5.4,2c-1.5,1.4-2.5,3.3-2.9,5.6l-2.6,0c0.4-2.9,1.5-5.3,3.6-7.2c2-1.9,4.5-2.8,7.4-2.7c2.7,0.1,4.8,0.9,6.3,2.5
		c1.5,1.6,2.1,3.7,1.9,6.1c-0.3,3-2.2,6.1-5.6,9.6l-12.8,12.7h16.6L109.8,474.7z"/>
	<path class="st2" d="M115.6,474.7l5.7-32.7l8.5,0c2.5,0,4.7,0.6,6.6,1.9c1.9,1.3,3.2,3.1,4,5.4c0.8,2.3,1.1,4.8,0.7,7.5l-0.4,2.7
		c-0.7,4.5-2.5,8.2-5.4,11c-2.9,2.8-6.5,4.2-10.8,4.2H115.6z M123.6,444.4l-4.9,28l5.8,0c2.3,0,4.4-0.5,6.3-1.6
		c1.9-1,3.4-2.5,4.7-4.4s2-4.1,2.4-6.5s0.6-4.1,0.6-5c0-0.9,0-1.8-0.1-2.7c-0.3-2.4-1.3-4.3-2.7-5.7c-1.5-1.4-3.4-2.1-5.8-2.2
		L123.6,444.4z"/>
	<path class="st2" d="M180.3,464.5c-0.8,3.4-2.3,6-4.6,7.9s-5.2,2.8-8.6,2.7c-2.9-0.1-5.2-1.1-7-3.1c-1.7-2-2.7-4.7-2.8-8.1
		c0-1.2,0-2.3,0.2-3.5l0.6-4c0.5-3,1.4-5.7,2.8-8c1.4-2.3,3.1-4.1,5.1-5.2c2-1.2,4.2-1.7,6.6-1.7c3.1,0.1,5.5,1,7.3,3
		c1.8,1.9,2.6,4.5,2.6,7.7l-2.7,0c0-2.6-0.6-4.7-1.9-6.1c-1.3-1.4-3.1-2.2-5.4-2.3c-3-0.1-5.5,1-7.6,3.3c-2.1,2.3-3.4,5.4-4.1,9.5
		l-0.7,4.5l-0.1,2c0,1.8,0.2,3.4,0.8,4.9c0.5,1.5,1.4,2.7,2.5,3.5c1.1,0.8,2.4,1.2,3.9,1.3c2.6,0.1,4.8-0.6,6.5-2
		c1.8-1.4,3-3.5,3.9-6.3L180.3,464.5z"/>
	<path class="st2" d="M208.9,474.7h-2.8l2.7-15.7h-18.1l-2.7,15.7h-2.7L191,442h2.7l-2.6,14.7h18.1l2.6-14.7h2.8L208.9,474.7z"/>
	<path class="st2" d="M236.3,465.5H222l-4.9,9.2h-3l17.7-32.7h2.6l6.3,32.7H238L236.3,465.5z M223.2,463.2h12.6l-3.2-17.7
		L223.2,463.2z"/>
	<path class="st2" d="M260,461.1h-9.2l-2.4,13.6h-2.8l5.7-32.7l9.7,0c3.3,0,5.8,0.9,7.5,2.5c1.8,1.7,2.5,4,2.2,6.9
		c-0.2,2.2-1,4.1-2.5,5.7c-1.4,1.6-3.3,2.7-5.6,3.5l5.6,13.8l0,0.3h-2.9L260,461.1z M251.1,458.8l8.1,0c2.3,0,4.3-0.7,5.9-2
		c1.6-1.4,2.6-3.1,2.8-5.3c0.3-2.1-0.2-3.8-1.4-5.1c-1.2-1.3-2.9-1.9-5.2-2l-7.7,0L251.1,458.8z"/>
	<path class="st2" d="M298.4,464.5c-0.8,3.4-2.3,6-4.6,7.9s-5.2,2.8-8.6,2.7c-2.9-0.1-5.2-1.1-7-3.1c-1.7-2-2.7-4.7-2.8-8.1
		c0-1.2,0-2.3,0.2-3.5l0.6-4c0.5-3,1.4-5.7,2.8-8c1.4-2.3,3.1-4.1,5.1-5.2c2-1.2,4.2-1.7,6.6-1.7c3.1,0.1,5.5,1,7.3,3
		c1.8,1.9,2.6,4.5,2.6,7.7l-2.7,0c0-2.6-0.6-4.7-1.9-6.1c-1.3-1.4-3.1-2.2-5.4-2.3c-3-0.1-5.5,1-7.6,3.3c-2.1,2.3-3.4,5.4-4.1,9.5
		l-0.7,4.5l-0.1,2c0,1.8,0.2,3.4,0.8,4.9c0.5,1.5,1.4,2.7,2.5,3.5c1.1,0.8,2.4,1.2,3.9,1.3c2.6,0.1,4.8-0.6,6.5-2
		c1.8-1.4,3-3.5,3.9-6.3L298.4,464.5z"/>
	<path class="st2" d="M329.6,444.4h-10.8l-5.3,30.4h-2.7l5.3-30.4h-10.9l0.4-2.3H330L329.6,444.4z"/>
	<path class="st2" d="M349.9,459h-14.8l-2.3,13.3h17.1l-0.4,2.3h-19.8l5.7-32.7H355l-0.4,2.3h-16.9l-2.2,12.4h14.8L349.9,459z"/>
	<path class="st2" d="M369.5,461.1h-9.2l-2.4,13.6h-2.8l5.7-32.7l9.7,0c3.3,0,5.8,0.9,7.5,2.5c1.8,1.7,2.5,4,2.2,6.9
		c-0.2,2.2-1,4.1-2.5,5.7c-1.4,1.6-3.3,2.7-5.6,3.5l5.6,13.8l0,0.3h-2.9L369.5,461.1z M360.7,458.8l8.1,0c2.3,0,4.3-0.7,5.9-2
		c1.6-1.4,2.6-3.1,2.8-5.3c0.3-2.1-0.2-3.8-1.4-5.1c-1.2-1.3-2.9-1.9-5.2-2l-7.7,0L360.7,458.8z"/>
	<path class="st2" d="M413.6,465.5h-14.3l-4.9,9.2h-3l17.7-32.7h2.6l6.3,32.7h-2.7L413.6,465.5z M400.5,463.2h12.6l-3.2-17.7
		L400.5,463.2z"/>
	<path class="st2" d="M446.6,474.7H444l-13.4-28l-4.9,28h-2.8l5.7-32.7h2.7l13.4,28.1l4.9-28.1h2.7L446.6,474.7z"/>
	<path class="st2" d="M458.2,474.7h-2.7l5.7-32.7h2.7L458.2,474.7z"/>
	<path class="st2" d="M476.2,442l6.7,28.8l16.7-28.8h3.7l-5.7,32.7h-2.7l2.5-14.4l2.7-14.2l-16.6,28.5h-2.1l-6.8-28.7l-2.3,14.5
		l-2.5,14.2h-2.7l5.7-32.7H476.2z"/>
	<path class="st2" d="M525,465.5h-14.3l-4.9,9.2h-3l17.7-32.7h2.6l6.3,32.7h-2.7L525,465.5z M511.9,463.2h12.6l-3.2-17.7
		L511.9,463.2z"/>
	<path class="st2" d="M558.2,444.4h-10.8l-5.3,30.4h-2.7l5.3-30.4h-10.9l0.4-2.3h24.5L558.2,444.4z"/>
	<path class="st2" d="M561.6,474.7h-2.7l5.7-32.7h2.7L561.6,474.7z"/>
	<path class="st2" d="M581.7,475.2c-3.1-0.1-5.5-1.1-7.3-3.2c-1.8-2.1-2.8-4.8-2.9-8.3c-0.1-1.2,0-2.4,0.2-3.6l0.4-3.1
		c0.7-4.6,2.3-8.3,4.9-11.2c2.7-2.9,6-4.4,9.9-4.3c2,0,3.8,0.5,5.3,1.5c1.5,0.9,2.7,2.3,3.5,4.1c0.8,1.8,1.3,3.8,1.4,5.9
		c0,1.3,0,2.5-0.2,3.8l-0.5,3.5c-0.5,3.1-1.5,5.8-2.9,8.1c-1.4,2.3-3.1,4-5.2,5.2S584.1,475.2,581.7,475.2z M594.2,456.6
		c0.1-0.9,0.2-1.9,0.2-2.9c0-1.8-0.3-3.5-0.9-5c-0.6-1.5-1.4-2.6-2.6-3.4c-1.1-0.8-2.5-1.2-4.2-1.3c-3-0.1-5.5,1-7.7,3.2
		s-3.5,5.2-4.2,9c-0.5,3.1-0.8,5.3-0.8,6.8c0,3,0.7,5.4,2,7.1s3.2,2.6,5.6,2.7c3.2,0.1,5.8-1.1,7.9-3.5s3.4-5.5,4-9.4L594.2,456.6z"
		/>
	<path class="st2" d="M624.5,474.7h-2.7l-13.4-28l-4.9,28h-2.8l5.7-32.7h2.7l13.4,28.1l4.9-28.1h2.7L624.5,474.7z"/>
</g>
</svg>
