<?xml version="1.0" encoding="utf-8"?>
<!-- Generator: Adobe Illustrator 26.2.1, SVG Export Plug-In . SVG Version: 6.00 Build 0)  -->
<svg version="1.1" id="Layer_1" xmlns="http://www.w3.org/2000/svg" xmlns:xlink="http://www.w3.org/1999/xlink" x="0px" y="0px"
	 viewBox="0 0 507 150.9" style="enable-background:new 0 0 507 150.9;" xml:space="preserve">
<style type="text/css">
	.st0{fill:none;}
</style>
<rect x="-1231.4" y="422.5" class="st0" width="720" height="407"/>
<rect x="-1017.5" y="409.4" class="st0" width="464.5" height="176.2"/>
<text transform="matrix(1 0 0 1 -1017.5027 475.1204)" style="font-family:'Raleway-Bold'; font-size:90px;">PREVIOUS </text>
<text transform="matrix(1 0 0 1 -1017.5027 561.1204)" style="font-family:'Raleway-Bold'; font-size:90px;">PROJECT</text>
<rect x="-1024.9" y="177.6" class="st0" width="464.5" height="176.2"/>
<text transform="matrix(1 0 0 1 -796.9921 243.2381)" style="font-family:'Raleway-Bold'; font-size:90px;">NEXT </text>
<text transform="matrix(1 0 0 1 -960.0921 329.238)" style="font-family:'Raleway-Bold'; font-size:90px;">PROJECT</text>
<g>
	<path d="M-432.9-151.6v-63.9h27.1c2.9,0,5.6,0.6,8.1,1.8s4.6,2.8,6.4,4.9c1.8,2,3.3,4.3,4.3,6.8s1.5,5.1,1.5,7.7
		c0,3.6-0.8,7-2.5,10.3c-1.7,3.2-4,5.9-6.9,7.9s-6.4,3.1-10.4,3.1h-15.1v21.4H-432.9z M-420.5-183.9h14.4c1.5,0,2.8-0.4,4-1.3
		c1.2-0.8,2.2-2.1,2.9-3.6c0.7-1.6,1.1-3.4,1.1-5.4c0-2.2-0.4-4.1-1.2-5.7c-0.8-1.6-1.9-2.7-3.1-3.5c-1.3-0.8-2.7-1.2-4.2-1.2h-13.9
		C-420.5-204.6-420.5-183.9-420.5-183.9z"/>
	<path d="M-376.9-151.6v-63.9h28.3c2.9,0,5.7,0.6,8.1,1.8c2.5,1.2,4.6,2.8,6.5,4.9c1.8,2,3.2,4.3,4.2,6.8s1.5,5.1,1.5,7.7
		c0,2.7-0.5,5.3-1.4,7.8s-2.3,4.7-4,6.5c-1.7,1.9-3.8,3.3-6.1,4.3l14.6,24h-13.7L-352-173h-12.4v21.4H-376.9z M-364.4-183.9h15.6
		c1.6,0,2.9-0.5,4.1-1.4s2.2-2.2,2.9-3.7c0.7-1.6,1.1-3.3,1.1-5.2c0-2-0.4-3.8-1.3-5.4c-0.8-1.5-1.9-2.7-3.2-3.6
		c-1.3-0.9-2.7-1.3-4.2-1.3h-15L-364.4-183.9L-364.4-183.9z"/>
	<path d="M-272.6-162.5v10.9H-317v-63.9h43.6v10.9h-31.1v15.4h26.9v10.1h-26.9v16.6H-272.6z"/>
	<path d="M-256.3-215.5l17.3,49.1l17.1-49.1h13.1l-24.2,63.9h-12l-24.3-63.9H-256.3z"/>
	<path d="M-202.1-151.6v-63.9h12.4v63.9H-202.1z"/>
	<path d="M-149.1-151.1c-4.7,0-8.9-0.9-12.7-2.7c-3.8-1.8-7.1-4.2-9.8-7.3c-2.7-3.1-4.8-6.6-6.3-10.4c-1.5-3.9-2.2-7.8-2.2-11.9
		c0-4.3,0.8-8.3,2.4-12.2s3.8-7.3,6.6-10.4c2.8-3,6.1-5.4,9.9-7.2s8-2.7,12.6-2.7s8.8,0.9,12.6,2.8c3.8,1.9,7.1,4.4,9.8,7.5
		c2.7,3.1,4.8,6.6,6.3,10.4c1.5,3.8,2.2,7.8,2.2,11.9c0,4.2-0.8,8.2-2.3,12.1c-1.6,3.9-3.7,7.3-6.5,10.4c-2.8,3-6.1,5.4-9.9,7.2
		C-140.4-152-144.6-151.1-149.1-151.1z M-167.6-183.5c0,2.8,0.4,5.4,1.3,8c0.8,2.6,2.1,4.9,3.6,6.9c1.6,2,3.5,3.6,5.9,4.8
		c2.3,1.2,4.9,1.8,7.9,1.8s5.7-0.6,8-1.8s4.3-2.9,5.9-5s2.7-4.4,3.6-6.9c0.8-2.5,1.2-5.1,1.2-7.7c0-2.8-0.4-5.4-1.3-8
		c-0.9-2.5-2.1-4.8-3.7-6.8s-3.5-3.6-5.8-4.8s-4.9-1.8-7.8-1.8c-3.1,0-5.7,0.6-8.1,1.8c-2.3,1.2-4.2,2.9-5.8,4.9
		c-1.6,2-2.7,4.3-3.6,6.8S-167.6-186.2-167.6-183.5z"/>
	<path d="M-81.2-151.1c-5.1,0-9.4-0.9-13-2.6s-6.5-4.1-8.6-7.1c-2.2-3-3.8-6.4-4.8-10.2s-1.5-7.8-1.5-11.9v-32.6h12.4v32.6
		c0,2.6,0.3,5.2,0.8,7.7s1.4,4.7,2.6,6.7s2.8,3.5,4.8,4.7c2,1.1,4.4,1.7,7.4,1.7s5.5-0.6,7.5-1.8s3.6-2.7,4.8-4.7
		c1.2-2,2-4.2,2.6-6.7c0.5-2.5,0.8-5,0.8-7.6v-32.6h12.3v32.6c0,4.4-0.5,8.5-1.6,12.3s-2.7,7.2-5,10.1c-2.2,2.9-5.1,5.2-8.7,6.8
		C-72.1-152-76.3-151.1-81.2-151.1z"/>
	<path d="M-2.7-198.7c-0.4-0.4-1.2-1-2.3-1.7s-2.5-1.4-4.1-2.1c-1.6-0.7-3.3-1.2-5.2-1.8c-1.9-0.5-3.8-0.8-5.7-0.8
		c-3.4,0-5.9,0.6-7.6,1.9s-2.6,3-2.6,5.3c0,1.7,0.5,3.1,1.6,4.1s2.7,1.9,4.9,2.6c2.2,0.7,4.9,1.5,8.1,2.3c4.2,1,7.8,2.3,10.9,3.7
		c3.1,1.5,5.5,3.4,7.1,5.7c1.6,2.4,2.5,5.5,2.5,9.4c0,3.4-0.6,6.3-1.9,8.7c-1.3,2.4-3,4.4-5.2,5.9s-4.7,2.6-7.6,3.3
		c-2.8,0.7-5.8,1-9,1s-6.4-0.3-9.5-1c-3.2-0.7-6.2-1.6-9.2-2.8c-2.9-1.2-5.6-2.7-8.1-4.5l5.5-10.7c0.5,0.5,1.5,1.2,2.9,2.1
		c1.4,0.9,3.1,1.7,5,2.6c2,0.9,4.1,1.6,6.5,2.2c2.3,0.6,4.7,0.9,7.1,0.9c3.4,0,5.9-0.6,7.6-1.7c1.7-1.1,2.6-2.7,2.6-4.8
		c0-1.9-0.7-3.4-2.1-4.5c-1.4-1.1-3.3-2-5.8-2.8s-5.4-1.7-8.7-2.6c-4-1.1-7.4-2.4-10.1-3.8c-2.7-1.4-4.7-3.2-6-5.3s-2-4.8-2-8.1
		c0-4.4,1-8,3.1-11s4.9-5.2,8.4-6.7s7.5-2.3,11.8-2.3c3,0,5.8,0.3,8.5,1s5.2,1.5,7.5,2.6s4.4,2.2,6.3,3.5L-2.7-198.7z"/>
	<path d="M-432.9-65.6v-63.9h27.1c2.9,0,5.6,0.6,8.1,1.8s4.6,2.8,6.4,4.9c1.8,2,3.3,4.3,4.3,6.8s1.5,5.1,1.5,7.7
		c0,3.6-0.8,7-2.5,10.3c-1.7,3.2-4,5.9-6.9,7.9s-6.4,3.1-10.4,3.1h-15.1v21.4C-420.4-65.6-432.9-65.6-432.9-65.6z M-420.5-97.9h14.4
		c1.5,0,2.8-0.4,4-1.3c1.2-0.8,2.2-2.1,2.9-3.6c0.7-1.6,1.1-3.4,1.1-5.4c0-2.2-0.4-4.1-1.2-5.7c-0.8-1.6-1.9-2.7-3.1-3.5
		c-1.3-0.8-2.7-1.2-4.2-1.2h-13.9C-420.5-118.6-420.5-97.9-420.5-97.9z"/>
	<path d="M-376.9-65.6v-63.9h28.3c2.9,0,5.7,0.6,8.1,1.8c2.5,1.2,4.6,2.8,6.5,4.9c1.8,2,3.2,4.3,4.2,6.8s1.5,5.1,1.5,7.7
		c0,2.7-0.5,5.3-1.4,7.8s-2.3,4.7-4,6.5c-1.7,1.9-3.8,3.3-6.1,4.3l14.6,24h-13.7L-352-87h-12.4v21.4H-376.9z M-364.4-97.9h15.6
		c1.6,0,2.9-0.5,4.1-1.4s2.2-2.2,2.9-3.7c0.7-1.6,1.1-3.3,1.1-5.2c0-2-0.4-3.8-1.3-5.4c-0.8-1.5-1.9-2.7-3.2-3.6
		c-1.3-0.9-2.7-1.3-4.2-1.3h-15L-364.4-97.9L-364.4-97.9z"/>
	<path d="M-290.1-65.1c-4.7,0-8.9-0.9-12.7-2.7c-3.8-1.8-7.1-4.2-9.8-7.3c-2.7-3.1-4.8-6.6-6.3-10.4c-1.5-3.9-2.2-7.8-2.2-11.9
		c0-4.3,0.8-8.3,2.4-12.2c1.6-3.9,3.8-7.3,6.6-10.4c2.8-3,6.1-5.4,9.9-7.2c3.8-1.8,8-2.7,12.6-2.7s8.8,0.9,12.6,2.8
		c3.8,1.9,7.1,4.4,9.8,7.5c2.7,3.1,4.8,6.6,6.3,10.4s2.2,7.8,2.2,11.9c0,4.2-0.8,8.2-2.3,12.1c-1.6,3.9-3.7,7.3-6.5,10.4
		c-2.8,3-6.1,5.4-9.9,7.2C-281.4-66-285.6-65.1-290.1-65.1z M-308.6-97.5c0,2.8,0.4,5.4,1.3,8c0.8,2.6,2.1,4.9,3.6,6.9
		c1.6,2,3.5,3.6,5.9,4.8c2.3,1.2,4.9,1.8,7.9,1.8s5.7-0.6,8-1.8c2.3-1.2,4.3-2.9,5.9-5c1.6-2.1,2.7-4.4,3.6-6.9
		c0.8-2.5,1.2-5.1,1.2-7.7c0-2.8-0.4-5.4-1.3-8c-0.9-2.5-2.1-4.8-3.7-6.8s-3.5-3.6-5.8-4.8c-2.3-1.2-4.9-1.8-7.8-1.8
		c-3.1,0-5.7,0.6-8.1,1.8c-2.3,1.2-4.2,2.9-5.8,4.9s-2.7,4.3-3.6,6.8C-308.2-102.8-308.6-100.2-308.6-97.5z"/>
	<path d="M-254.5-79.2c0.8,0.5,2.2,1.2,4.1,1.9c2,0.8,4.3,1.1,7,1.1c2.3,0,4.3-0.4,5.8-1.2s2.7-2,3.5-3.6s1.3-3.7,1.6-6.2
		s0.4-5.6,0.4-9.2v-33.1h12.4v32.2c0,4.8-0.3,9.1-0.8,13s-1.6,7.3-3.1,10.2c-1.6,2.9-3.9,5.1-7.1,6.6s-7.3,2.3-12.6,2.3
		c-2.9,0-5.5-0.3-7.7-1c-2.3-0.7-4.4-1.6-6.3-3L-254.5-79.2z"/>
	<path d="M-162.7-76.5v10.9h-44.4v-63.9h43.6v10.9h-31.1v15.4h26.9v10.1h-26.9v16.6H-162.7z"/>
	<path d="M-158.1-98.1c0-3.9,0.7-7.7,2.1-11.5c1.4-3.7,3.5-7.2,6.2-10.3c2.7-3.1,6-5.5,9.9-7.4c3.9-1.8,8.3-2.7,13.3-2.7
		c5.9,0,11,1.3,15.3,3.9s7.5,5.9,9.6,10.1l-9.5,6.6c-1.1-2.4-2.5-4.3-4.2-5.7c-1.7-1.4-3.6-2.4-5.6-3s-3.9-0.9-5.8-0.9
		c-3.1,0-5.8,0.6-8.1,1.9c-2.3,1.3-4.2,2.9-5.8,5c-1.6,2-2.7,4.3-3.5,6.8s-1.1,5-1.1,7.6c0,2.8,0.4,5.5,1.4,8.1
		c0.9,2.6,2.2,4.9,3.8,6.9c1.6,2,3.6,3.6,5.9,4.8c2.3,1.2,4.8,1.8,7.6,1.8c2,0,4-0.3,6-1s3.9-1.7,5.7-3.1c1.7-1.4,3.1-3.3,4-5.6
		l10.2,5.9c-1.3,3.2-3.3,5.9-6.2,8.1c-2.9,2.2-6,3.9-9.6,5c-3.5,1.1-7.1,1.7-10.5,1.7c-4.6,0-8.7-0.9-12.5-2.8
		c-3.8-1.9-7-4.4-9.8-7.6c-2.7-3.2-4.9-6.7-6.4-10.6C-157.3-90.1-158.1-94-158.1-98.1z"/>
	<path d="M-44.7-118.6h-20.4v53h-12.3v-53h-20.4v-10.9h53.2v10.9H-44.7z"/>
	<polygon points="-475.2,-65.6 -551.7,-142.1 -477.8,-215.9 -465.1,-203.2 -526.2,-142.1 -462.4,-78.4 	"/>
</g>
<g>
	<g>
		<path d="M171.9,23.3v41h-12.4V0.5h9.9l33,42.1v-42h12.4v63.8h-10.3L171.9,23.3z"/>
		<path d="M272.6,53.5v10.9h-44.4V0.5h43.6v10.9h-31.1v15.4h26.9v10.1h-26.9v16.6H272.6z"/>
		<path d="M288.9,0.5l15.8,23.6l15.8-23.6H334l-22.1,32.4l21.4,31.5h-13.5l-15-22.7l-15.1,22.7h-13.6l21.4-31.5L275.4,0.5
			C275.4,0.5,288.9,0.5,288.9,0.5z"/>
		<path d="M388.2,11.3h-20.4v53h-12.3v-53H335V0.5h53.2V11.3z"/>
		<path d="M0,150.3V86.4h27c2.9,0,5.6,0.6,8.1,1.8c2.5,1.2,4.6,2.8,6.4,4.9c1.8,2,3.3,4.3,4.3,6.8s1.5,5.1,1.5,7.7
			c0,3.6-0.8,7-2.5,10.3c-1.7,3.2-4,5.9-6.9,7.9s-6.4,3.1-10.4,3.1H12.4v21.4H0z M12.4,118h14.4c1.5,0,2.8-0.4,4-1.3
			c1.2-0.8,2.2-2.1,2.9-3.6c0.7-1.6,1.1-3.4,1.1-5.4c0-2.2-0.4-4.1-1.2-5.7c-0.8-1.6-1.9-2.7-3.1-3.5c-1.3-0.8-2.7-1.2-4.2-1.2H12.4
			V118z"/>
		<path d="M56,150.3V86.4h28.3c2.9,0,5.7,0.6,8.1,1.8c2.5,1.2,4.6,2.8,6.5,4.9c1.8,2,3.2,4.3,4.2,6.8s1.5,5.1,1.5,7.7
			c0,2.7-0.5,5.3-1.4,7.8s-2.3,4.7-4,6.5c-1.7,1.9-3.8,3.3-6.1,4.3l14.6,24H94l-13.1-21.4H68.5v21.4L56,150.3L56,150.3z M68.4,118
			H84c1.6,0,2.9-0.5,4.1-1.4c1.2-0.9,2.2-2.2,2.9-3.7c0.7-1.6,1.1-3.3,1.1-5.2c0-2-0.4-3.8-1.3-5.4c-0.8-1.5-1.9-2.7-3.2-3.6
			s-2.7-1.3-4.2-1.3h-15C68.4,97.4,68.4,118,68.4,118z"/>
		<path d="M142.8,150.8c-4.7,0-8.9-0.9-12.7-2.7s-7.1-4.2-9.8-7.3s-4.8-6.6-6.3-10.4c-1.5-3.9-2.2-7.8-2.2-11.9
			c0-4.3,0.8-8.3,2.4-12.2c1.6-3.9,3.8-7.3,6.6-10.4c2.8-3,6.1-5.4,9.9-7.2c3.8-1.8,8-2.7,12.6-2.7s8.8,0.9,12.6,2.8
			s7.1,4.4,9.8,7.5s4.8,6.6,6.3,10.4s2.2,7.8,2.2,11.9c0,4.2-0.8,8.2-2.3,12.1c-1.6,3.9-3.7,7.3-6.5,10.4c-2.8,3-6.1,5.4-9.9,7.2
			C151.4,149.9,147.3,150.8,142.8,150.8z M124.2,118.4c0,2.8,0.4,5.4,1.3,8c0.8,2.6,2.1,4.9,3.6,6.9c1.6,2,3.5,3.6,5.9,4.8
			c2.3,1.2,4.9,1.8,7.9,1.8s5.7-0.6,8-1.8s4.3-2.9,5.9-5c1.6-2.1,2.7-4.4,3.6-6.9c0.8-2.5,1.2-5.1,1.2-7.7c0-2.8-0.4-5.4-1.3-8
			c-0.9-2.5-2.1-4.8-3.7-6.8c-1.6-2-3.5-3.6-5.8-4.8c-2.3-1.2-4.9-1.8-7.8-1.8c-3.1,0-5.7,0.6-8.1,1.8c-2.3,1.2-4.2,2.9-5.8,4.9
			c-1.6,2-2.7,4.3-3.6,6.8S124.2,115.8,124.2,118.4z"/>
		<path d="M178.3,136.8c0.8,0.5,2.2,1.2,4.1,1.9c2,0.8,4.3,1.1,7,1.1c2.3,0,4.3-0.4,5.8-1.2s2.7-2,3.5-3.6c0.8-1.6,1.3-3.7,1.6-6.2
			c0.3-2.5,0.4-5.6,0.4-9.2V86.5h12.4v32.2c0,4.8-0.3,9.1-0.8,13c-0.5,3.9-1.6,7.3-3.1,10.2c-1.6,2.9-3.9,5.1-7.1,6.6
			s-7.3,2.3-12.6,2.3c-2.9,0-5.5-0.3-7.7-1c-2.3-0.7-4.4-1.6-6.3-3L178.3,136.8z"/>
		<path d="M270.1,139.5v10.9h-44.4V86.5h43.6v10.9h-31.1v15.4h26.9v10.1h-26.9v16.6H270.1z"/>
		<path d="M274.8,117.9c0-3.9,0.7-7.7,2.1-11.5c1.4-3.7,3.5-7.2,6.2-10.3c2.7-3.1,6-5.5,9.9-7.4c3.9-1.8,8.3-2.7,13.3-2.7
			c5.9,0,11,1.3,15.3,3.9s7.5,5.9,9.6,10.1l-9.5,6.6c-1.1-2.4-2.5-4.3-4.2-5.7c-1.7-1.4-3.6-2.4-5.6-3S308,97,306.1,97
			c-3.1,0-5.8,0.6-8.1,1.9c-2.3,1.3-4.2,2.9-5.8,5c-1.6,2-2.7,4.3-3.5,6.8s-1.1,5-1.1,7.6c0,2.8,0.4,5.5,1.3,8.1
			c0.9,2.6,2.2,4.9,3.8,6.9c1.6,2,3.6,3.6,5.9,4.8s4.8,1.8,7.6,1.8c2,0,4-0.3,6-1s3.9-1.7,5.7-3.1c1.7-1.4,3.1-3.3,4-5.6l10.2,5.9
			c-1.3,3.2-3.3,5.9-6.2,8.1c-2.9,2.2-6,3.9-9.6,5c-3.5,1.1-7.1,1.7-10.5,1.7c-4.6,0-8.7-0.9-12.5-2.8c-3.8-1.9-7-4.4-9.8-7.6
			c-2.7-3.2-4.9-6.7-6.4-10.6C275.6,125.9,274.8,121.9,274.8,117.9z"/>
		<path d="M388.2,97.3h-20.4v53h-12.3v-53H335V86.4h53.2V97.3z"/>
	</g>
	<polygon points="430.5,150.3 507,73.9 433.1,0 420.3,12.8 481.4,73.9 417.7,137.6 	"/>
</g>
</svg>
