<?xml version="1.0" encoding="utf-8"?>
<!-- Generator: Adobe Illustrator 26.2.1, SVG Export Plug-In . SVG Version: 6.00 Build 0)  -->
<svg version="1.1" id="Layer_1" xmlns="http://www.w3.org/2000/svg" xmlns:xlink="http://www.w3.org/1999/xlink" x="0px" y="0px"
	 viewBox="0 0 331.1 400" style="enable-background:new 0 0 331.1 400;" xml:space="preserve">
<style type="text/css">
	.st0{fill:#26C9FF;}
	.st1{fill:#FF860D;}
</style>
<path class="st0" d="M-488,378.3"/>
<g>
	<path class="st1" d="M-554.2,273.2h-34.2l-8.8,31.1c-0.1,0.9-0.6,1.4-1.6,1.4h-16.1c-1.1,0-1.4-0.6-1.1-1.8l31-103.9
		c0.8-2.2,1.2-5.5,1.3-9.7c0-0.7,0.3-1.1,1-1.1h22.5c0.6,0,1,0.3,1.1,0.9l34.7,114c0.3,1.1,0.1,1.6-0.8,1.6h-18
		c-0.8,0-1.3-0.4-1.6-1.1L-554.2,273.2z M-584.6,256.5h26.7c-0.6-2.5-2-7.3-4-14.5c-2-7.2-3.9-13.9-5.6-20.1
		c-1.7-6.2-3-11.2-3.9-14.8h-0.2C-572.7,213.2-577.1,229.6-584.6,256.5z"/>
	<path class="st1" d="M-506.1,206.9c-3.1,0-5.7-1-7.6-3c-1.9-2-2.9-4.7-2.9-8.1c0-3.4,1-6.1,3-8.1c2-2,4.6-3.1,7.7-3.1
		c3.2,0,5.8,1,7.7,3.1s2.8,4.8,2.8,8.1c0,3.4-1,6.1-2.9,8.1S-502.8,206.9-506.1,206.9z"/>
	<path class="st1" d="M-515.4,304V221c0-0.9,0.4-1.4,1.2-1.4h16.4c0.8,0,1.2,0.5,1.2,1.4v83.1c0,0.9-0.4,1.4-1.2,1.4H-514
		C-515,305.6-515.4,305-515.4,304z"/>
</g>
<path class="st0" d="M728.2,414.5"/>
<path class="st0" d="M657.7,377.4"/>
<path class="st0" d="M279.8,400H51.3C23,400,0,377,0,348.7V51.3C0,23,23,0,51.3,0h176.9c13.7,0,26.6,5.3,36.3,15l51.6,51.6
	c9.7,9.7,15,22.6,15,36.3v245.8C331.1,377,308.1,400,279.8,400z M51.3,27.9c-12.9,0-23.4,10.5-23.4,23.4v297.4
	c0,12.9,10.5,23.4,23.4,23.4h228.5c12.9,0,23.4-10.5,23.4-23.4V102.9c0-6.2-2.4-12.1-6.8-16.5l-51.6-51.6
	c-4.4-4.4-10.3-6.8-16.5-6.8H51.3z"/>
<g>
	<path class="st0" d="M77.8,283.8V123.1c0-1.2,0.4-1.7,1.3-1.7c9.3-0.3,22.5-0.5,39.5-0.5c19.3,0,33.5,5,42.6,15.1
		c9.1,10,13.7,22.6,13.7,37.7c0,18.2-5.6,32-16.8,41.2c-11.2,9.2-25.3,13.8-42.4,13.8c-2.1,0-4.4,0-7.1-0.1
		c-2.7-0.1-4.1-0.1-4.3-0.1v55.5c0,1.2-0.6,1.7-1.7,1.7H79.3C78.3,285.5,77.8,285,77.8,283.8z M104.3,144v61.2
		c2.1,0.3,6.3,0.5,12.7,0.5c9.2,0,16.7-2.4,22.6-7.3c5.8-4.9,8.8-13,8.8-24.3c0-9.6-2.6-17.1-7.8-22.5c-5.2-5.4-12.5-8.1-22-8.1
		C110.8,143.5,106.1,143.7,104.3,144z"/>
	<path class="st0" d="M254.2,192.2c-7.3-5.5-15.3-8.2-23.9-8.2c-5,0-8.6,1.1-11,3.2c-2.3,2.2-3.5,4.7-3.5,7.7c0,3.2,1,5.9,3,8.2
		c2,2.3,6.3,5.1,12.8,8.5c11.4,5.5,19.4,11.2,23.9,17c4.5,5.9,6.8,13.3,6.8,22.3c0,11.3-3.7,20.2-11.1,26.9
		c-7.4,6.6-17.1,9.9-29.3,9.9c-12.3,0-22.2-2.4-29.8-7.2c-0.9-0.7-1.3-1.6-1.3-2.7v-22.4c0-0.7,0.2-1.1,0.5-1.4
		c0.4-0.2,0.7-0.2,1,0.1c9,7.6,18.7,11.4,28.9,11.4c4.8,0,8.5-1.1,11.2-3.2c2.6-2.1,4-4.9,4-8.2c0-3.5-1.1-6.4-3.2-8.8
		c-2.1-2.4-6.4-5.3-12.8-8.6c-10.8-5.3-18.4-10.9-22.8-16.8c-4.4-5.9-6.6-13.2-6.6-22c0-10.3,3.4-18.8,10.1-25.6
		c6.7-6.8,16.1-10.2,28.1-10.2c11.3,0,19.9,1.8,25.9,5.5c0.7,0.3,1.1,1.3,1.1,3v19.9C256.2,192.5,255.6,193.1,254.2,192.2z"/>
</g>
</svg>
