<?xml version="1.0" encoding="utf-8"?>
<!-- Generator: Adobe Illustrator 26.3.1, SVG Export Plug-In . SVG Version: 6.00 Build 0)  -->
<svg version="1.1" id="Layer_1" xmlns="http://www.w3.org/2000/svg" xmlns:xlink="http://www.w3.org/1999/xlink" x="0px" y="0px"
	 viewBox="0 0 556.6 150.9" style="enable-background:new 0 0 556.6 150.9;" xml:space="preserve">
<g>
	<path d="M118.8,64.4V0.5h27.1c2.9,0,5.6,0.6,8.1,1.8s4.6,2.8,6.4,4.9c1.8,2,3.3,4.3,4.3,6.8s1.5,5.1,1.5,7.7c0,3.6-0.8,7-2.5,10.3
		c-1.7,3.2-4,5.9-6.9,7.9s-6.4,3.1-10.4,3.1h-15.1v21.4H118.8z M131.2,32.1h14.4c1.5,0,2.8-0.4,4-1.3c1.2-0.8,2.2-2.1,2.9-3.6
		c0.7-1.6,1.1-3.4,1.1-5.4c0-2.2-0.4-4.1-1.2-5.7s-1.9-2.7-3.1-3.5c-1.3-0.8-2.7-1.2-4.2-1.2h-13.9
		C131.2,11.4,131.2,32.1,131.2,32.1z"/>
	<path d="M174.8,64.4V0.5h28.3c2.9,0,5.7,0.6,8.1,1.8c2.5,1.2,4.6,2.8,6.5,4.9c1.8,2,3.2,4.3,4.2,6.8s1.5,5.1,1.5,7.7
		c0,2.7-0.5,5.3-1.4,7.8s-2.3,4.7-4,6.5c-1.7,1.9-3.8,3.3-6.1,4.3l14.6,24h-13.7L199.7,43h-12.4v21.4H174.8z M187.3,32.1h15.6
		c1.6,0,2.9-0.5,4.1-1.4c1.2-0.9,2.2-2.2,2.9-3.7c0.7-1.6,1.1-3.3,1.1-5.2c0-2-0.4-3.8-1.3-5.4c-0.8-1.5-1.9-2.7-3.2-3.6
		c-1.3-0.9-2.7-1.3-4.2-1.3h-15L187.3,32.1L187.3,32.1z"/>
	<path d="M279.1,53.5v10.9h-44.4V0.5h43.6v10.9h-31.1v15.4h26.9v10.1h-26.9v16.6H279.1z"/>
	<path d="M295.4,0.5l17.3,49.1l17.1-49.1h13.1l-24.2,63.9h-12L282.4,0.5H295.4z"/>
	<path d="M349.6,64.4V0.5H362v63.9H349.6z"/>
	<path d="M402.6,64.9c-4.7,0-8.9-0.9-12.7-2.7c-3.8-1.8-7.1-4.2-9.8-7.3c-2.7-3.1-4.8-6.6-6.3-10.4c-1.5-3.9-2.2-7.8-2.2-11.9
		c0-4.3,0.8-8.3,2.4-12.2s3.8-7.3,6.6-10.4c2.8-3,6.1-5.4,9.9-7.2s8-2.7,12.6-2.7s8.8,0.9,12.6,2.8c3.8,1.9,7.1,4.4,9.8,7.5
		c2.7,3.1,4.8,6.6,6.3,10.4s2.2,7.8,2.2,11.9c0,4.2-0.8,8.2-2.3,12.1c-1.6,3.9-3.7,7.3-6.5,10.4c-2.8,3-6.1,5.4-9.9,7.2
		C411.3,64,407.1,64.9,402.6,64.9z M384.1,32.5c0,2.8,0.4,5.4,1.3,8c0.8,2.6,2.1,4.9,3.6,6.9c1.6,2,3.5,3.6,5.9,4.8
		c2.3,1.2,4.9,1.8,7.9,1.8s5.7-0.6,8-1.8s4.3-2.9,5.9-5s2.7-4.4,3.6-6.9c0.8-2.5,1.2-5.1,1.2-7.7c0-2.8-0.4-5.4-1.3-8
		c-0.9-2.5-2.1-4.8-3.7-6.8s-3.5-3.6-5.8-4.8s-4.9-1.8-7.8-1.8c-3.1,0-5.7,0.6-8.1,1.8c-2.3,1.2-4.2,2.9-5.8,4.9
		c-1.6,2-2.7,4.3-3.6,6.8S384.1,29.8,384.1,32.5z"/>
	<path d="M470.5,64.9c-5.1,0-9.4-0.9-13-2.6s-6.5-4.1-8.6-7.1c-2.2-3-3.8-6.4-4.8-10.2s-1.5-7.8-1.5-11.9V0.5H455v32.6
		c0,2.6,0.3,5.2,0.8,7.7s1.4,4.7,2.6,6.7s2.8,3.5,4.8,4.7c2,1.1,4.4,1.7,7.4,1.7s5.5-0.6,7.5-1.8s3.6-2.7,4.8-4.7
		c1.2-2,2-4.2,2.6-6.7c0.5-2.5,0.8-5,0.8-7.6V0.5h12.3v32.6c0,4.4-0.5,8.5-1.6,12.3s-2.7,7.2-5,10.1c-2.2,2.9-5.1,5.2-8.7,6.8
		C479.6,64,475.4,64.9,470.5,64.9z"/>
	<path d="M549,17.3c-0.4-0.4-1.2-1-2.3-1.7s-2.5-1.4-4.1-2.1s-3.3-1.2-5.2-1.8c-1.9-0.5-3.8-0.8-5.7-0.8c-3.4,0-5.9,0.6-7.6,1.9
		s-2.6,3-2.6,5.3c0,1.7,0.5,3.1,1.6,4.1s2.7,1.9,4.9,2.6s4.9,1.5,8.1,2.3c4.2,1,7.8,2.3,10.9,3.7c3.1,1.5,5.5,3.4,7.1,5.7
		c1.6,2.4,2.5,5.5,2.5,9.4c0,3.4-0.6,6.3-1.9,8.7c-1.3,2.4-3,4.4-5.2,5.9s-4.7,2.6-7.6,3.3c-2.8,0.7-5.8,1-9,1s-6.4-0.3-9.5-1
		c-3.2-0.7-6.2-1.6-9.2-2.8c-2.9-1.2-5.6-2.7-8.1-4.5l5.5-10.7c0.5,0.5,1.5,1.2,2.9,2.1c1.4,0.9,3.1,1.7,5,2.6
		c2,0.9,4.1,1.6,6.5,2.2c2.3,0.6,4.7,0.9,7.1,0.9c3.4,0,5.9-0.6,7.6-1.7c1.7-1.1,2.6-2.7,2.6-4.8c0-1.9-0.7-3.4-2.1-4.5
		c-1.4-1.1-3.3-2-5.8-2.8s-5.4-1.7-8.7-2.6c-4-1.1-7.4-2.4-10.1-3.8c-2.7-1.4-4.7-3.2-6-5.3s-2-4.8-2-8.1c0-4.4,1-8,3.1-11
		s4.9-5.2,8.4-6.7S527.6,0,531.9,0c3,0,5.8,0.3,8.5,1s5.2,1.5,7.5,2.6s4.4,2.2,6.3,3.5L549,17.3z"/>
	<path d="M118.8,150.4V86.5h27.1c2.9,0,5.6,0.6,8.1,1.8c2.5,1.2,4.6,2.8,6.4,4.9c1.8,2,3.3,4.3,4.3,6.8s1.5,5.1,1.5,7.7
		c0,3.6-0.8,7-2.5,10.3c-1.7,3.2-4,5.9-6.9,7.9s-6.4,3.1-10.4,3.1h-15.1v21.4C131.3,150.4,118.8,150.4,118.8,150.4z M131.2,118.1
		h14.4c1.5,0,2.8-0.4,4-1.3c1.2-0.8,2.2-2.1,2.9-3.6c0.7-1.6,1.1-3.4,1.1-5.4c0-2.2-0.4-4.1-1.2-5.7s-1.9-2.7-3.1-3.5
		c-1.3-0.8-2.7-1.2-4.2-1.2h-13.9V118.1z"/>
	<path d="M174.8,150.4V86.5h28.3c2.9,0,5.7,0.6,8.1,1.8c2.5,1.2,4.6,2.8,6.5,4.9c1.8,2,3.2,4.3,4.2,6.8s1.5,5.1,1.5,7.7
		c0,2.7-0.5,5.3-1.4,7.8s-2.3,4.7-4,6.5c-1.7,1.9-3.8,3.3-6.1,4.3l14.6,24h-13.7L199.7,129h-12.4v21.4H174.8z M187.3,118.1h15.6
		c1.6,0,2.9-0.5,4.1-1.4c1.2-0.9,2.2-2.2,2.9-3.7c0.7-1.6,1.1-3.3,1.1-5.2c0-2-0.4-3.8-1.3-5.4c-0.8-1.5-1.9-2.7-3.2-3.6
		s-2.7-1.3-4.2-1.3h-15L187.3,118.1L187.3,118.1z"/>
	<path d="M261.6,150.9c-4.7,0-8.9-0.9-12.7-2.7s-7.1-4.2-9.8-7.3s-4.8-6.6-6.3-10.4c-1.5-3.9-2.2-7.8-2.2-11.9
		c0-4.3,0.8-8.3,2.4-12.2c1.6-3.9,3.8-7.3,6.6-10.4c2.8-3,6.1-5.4,9.9-7.2c3.8-1.8,8-2.7,12.6-2.7s8.8,0.9,12.6,2.8
		c3.8,1.9,7.1,4.4,9.8,7.5c2.7,3.1,4.8,6.6,6.3,10.4s2.2,7.8,2.2,11.9c0,4.2-0.8,8.2-2.3,12.1c-1.6,3.9-3.7,7.3-6.5,10.4
		c-2.8,3-6.1,5.4-9.9,7.2C270.3,150,266.1,150.9,261.6,150.9z M243.1,118.5c0,2.8,0.4,5.4,1.3,8c0.8,2.6,2.1,4.9,3.6,6.9
		c1.6,2,3.5,3.6,5.9,4.8c2.3,1.2,4.9,1.8,7.9,1.8s5.7-0.6,8-1.8s4.3-2.9,5.9-5s2.7-4.4,3.6-6.9c0.8-2.5,1.2-5.1,1.2-7.7
		c0-2.8-0.4-5.4-1.3-8c-0.9-2.5-2.1-4.8-3.7-6.8s-3.5-3.6-5.8-4.8c-2.3-1.2-4.9-1.8-7.8-1.8c-3.1,0-5.7,0.6-8.1,1.8
		c-2.3,1.2-4.2,2.9-5.8,4.9s-2.7,4.3-3.6,6.8S243.1,115.8,243.1,118.5z"/>
	<path d="M297.2,136.8c0.8,0.5,2.2,1.2,4.1,1.9c2,0.8,4.3,1.1,7,1.1c2.3,0,4.3-0.4,5.8-1.2s2.7-2,3.5-3.6s1.3-3.7,1.6-6.2
		s0.4-5.6,0.4-9.2V86.5H332v32.2c0,4.8-0.3,9.1-0.8,13c-0.5,3.9-1.6,7.3-3.1,10.2c-1.6,2.9-3.9,5.1-7.1,6.6s-7.3,2.3-12.6,2.3
		c-2.9,0-5.5-0.3-7.7-1c-2.3-0.7-4.4-1.6-6.3-3L297.2,136.8z"/>
	<path d="M389,139.5v10.9h-44.4V86.5h43.6v10.9h-31.1v15.4H384v10.1h-26.9v16.6H389z"/>
	<path d="M393.6,117.9c0-3.9,0.7-7.7,2.1-11.5c1.4-3.7,3.5-7.2,6.2-10.3c2.7-3.1,6-5.5,9.9-7.4c3.9-1.8,8.3-2.7,13.3-2.7
		c5.9,0,11,1.3,15.3,3.9s7.5,5.9,9.6,10.1l-9.5,6.6c-1.1-2.4-2.5-4.3-4.2-5.7c-1.7-1.4-3.6-2.4-5.6-3s-3.9-0.9-5.8-0.9
		c-3.1,0-5.8,0.6-8.1,1.9c-2.3,1.3-4.2,2.9-5.8,5c-1.6,2-2.7,4.3-3.5,6.8s-1.1,5-1.1,7.6c0,2.8,0.4,5.5,1.4,8.1
		c0.9,2.6,2.2,4.9,3.8,6.9c1.6,2,3.6,3.6,5.9,4.8s4.8,1.8,7.6,1.8c2,0,4-0.3,6-1s3.9-1.7,5.7-3.1c1.7-1.4,3.1-3.3,4-5.6l10.2,5.9
		c-1.3,3.2-3.3,5.9-6.2,8.1c-2.9,2.2-6,3.9-9.6,5c-3.5,1.1-7.1,1.7-10.5,1.7c-4.6,0-8.7-0.9-12.5-2.8s-7-4.4-9.8-7.6
		c-2.7-3.2-4.9-6.7-6.4-10.6C394.4,125.9,393.6,122,393.6,117.9z"/>
	<path d="M507,97.4h-20.4v53h-12.3v-53h-20.4V86.5h53.2v10.9H507z"/>
	<polygon points="76.5,150.4 0,73.9 73.9,0.1 86.6,12.8 25.5,73.9 89.3,137.6 	"/>
</g>
</svg>
