<?xml version="1.0" encoding="utf-8"?>
<!-- Generator: Adobe Illustrator 26.2.1, SVG Export Plug-In . SVG Version: 6.00 Build 0)  -->
<svg version="1.1" xmlns="http://www.w3.org/2000/svg" xmlns:xlink="http://www.w3.org/1999/xlink" x="0px" y="0px"
	 viewBox="0 0 688.5 515.7" style="enable-background:new 0 0 688.5 515.7;" xml:space="preserve">
<g id="Layer_1">
	<g>
		<g>
			<path d="M364.4,203.1c-18.7,12-37.2,24.3-56.4,35.4c-20.5,11.8-42.7,20.1-65,28c-10.7,3.8-14.8,15.8-9.3,25.7
				c15.6,27.9,24.9,57.5,22.8,90c-0.4,5.2-1.3,10.4-2.5,15.5c-0.4,1.8-1.5,4.4-4,4.5c-3,0.1-4.4-2-5.1-3.8
				c-20.1-48.6-54.5-84.9-98.1-112.9c-24.5-15.7-51.8-23.1-81-22.7c-16.7,0.2-33.2,2.7-49.5,6.9c-1.2,0.3-2.5,0.6-3.7,0.8
				c-6.2,1.2-9.8-0.3-10.7-6.4c-1.3-9.6-2.2-19.4-1.8-29.1c0.5-13,2.8-25.9,9-37.7c3.8-7.3,9.2-12.8,18-13c9-0.2,18.1-0.1,27.2,0.5
				c18.7,1.2,36.9,5.1,55.6,11.4c2.2-9.9,4.5-19.2,6.4-28.6c4.5-21.8,4.6-44,2.4-66C116.8,84.4,111,68,101,53.5
				c-3.7-5.5-7.6-10.9-11.4-16.3c-3.2-4.6-2.6-7.1,2.5-9.2c30-12.4,60.8-22.3,93-27c5-0.7,10.2-1,15.2-1c9.7,0.1,16.9,4.7,19.6,13.9
				c2.5,8.3,4.6,17.1,5,25.7c2.5,51-9.7,98.5-36.3,142.1c-5.5,9.1-11.5,17.9-17.4,26.7c-5,7.5-3.3,16.4,3.5,22.3
				c12.5,10.8,21.7,9,32.3-4.1c36.2-44.7,56.6-95.9,64.1-152.5c1.7-12.9,1.7-26,2.6-38.9c0.2-2,0.9-5.1,2.3-5.7
				c1.7-0.8,4.8-0.2,6.5,1c19.4,13.3,34.8,30.6,48.7,49.3c20.1,27,34.5,56.7,42.3,89.5c0.7,3,1.1,6.1,1.5,9.2
				C376.5,188.9,373.2,197.4,364.4,203.1z"/>
			<path d="M682.9,233.5c-2.8,1-5.6,2.2-8,3.9c-10.6,7.5-21.3,15-31.5,23c-23.8,18.5-47.1,37.7-72.8,53.6
				c-17.9,11-36.1,21.3-56.5,27c-10.1,2.8-20.1,3.8-29.3-2.8c-6.1-4.4-6.4-7.9-0.8-12.8c4.9-4.3,10.1-8.3,14.6-13
				c9.1-9.6,15.6-20.8,18.6-33.8c1.4-6.3-1.2-8.8-7.3-7c-5.8,1.8-11.5,4-17,6.4c-11.3,4.9-22.8,8.7-35.2,8.1
				c-14.1-0.7-27.5-3.6-36.6-15.6c-6-8-11.6-16.3-16.5-25c-6.5-11.6-12.1-23.7-18.1-35.5c-2.7-5.4-4.7-5.8-9.4-2.1
				c-25.2,19.9-52.2,36.8-82.2,48.8c-6.5,2.6-12.8,6.1-18.5,10.2c-8.4,6-11.4,14.9-10.3,25c1,9.3,5.1,13.3,14.4,14.1
				c10.7,0.9,21.5,1.6,32.2,2.7c3.1,0.3,6.2,1.4,9.3,2.1l-0.2,1.2c-1.1,0.2-2.2,0.4-3.3,0.6c-5.3,0.7-10.4,5.5-11.7,10.7
				c-1.3,5.5,2.2,8.4,6,11.1c1.2,0.8,2.4,1.5,3.6,2.3c7.5,5,15,10.1,22.6,15c4.1,2.7,8.3,5.5,12.8,7.5c4.8,2.2,8.4,1.3,11.2-2
				c4.5-5.2,5.1-9.3,2.2-14.6c-0.5-1-1.3-2.1-0.8-2.5c0.8-0.8,2.4-0.8,3.7-1c3.7-0.4,7.6-0.3,11.2-1.3c6.4-1.7,12.5-4.4,18.9-6.1
				c3.8-1,9.3-1.7,11.4-1.5c2.1,0.1,3.8,1.2,3.8,2.9c-0.1,2.4-3.3,3.3-5.1,4.1c-1.8,0.8-12,5.2-17.1,9
				c-10.1,7.5-15.7,18.4-19.7,30.1c-1.8,5.3-3.1,10.9-5.2,16.1C362,403,350,408,339.5,403.9c-6.6-2.6-13.1-5.3-19.5-8.4
				c-9-4.4-18-8.9-26.7-13.9c-6-3.5-8.1-9.3-7.3-16.4c1.1-9.8,2-19.7,2.3-29.6c0.2-5.9-0.6-11.8-1.6-17.7c-0.5-3-2.8-5-6.2-4.5
				c-3.3,0.5-3.6,3.3-3.7,5.9c-0.1,4.5,0.3,9.1-0.2,13.5c-1.6,12.5-3,25-5.4,37.3c-2.9,14.4,0.7,25.3,14,32.5
				c11.1,6,21.9,12.5,32.9,18.6c36.4,20.3,71.3,42.9,101.8,71.7c7.4,7,15.2,13.5,23.2,19.9c3.1,2.5,7.2,4.1,11,1.2
				c3.8-3,5.5-7.5,3.4-11.8c-3.5-7-8.1-12.2-12.3-17c-9.8-11.1-17.4-19.2-28-29.6c-1.1-1.1-2-2.4-2.9-3.6c0.4-0.4,0.8-0.8,1.2-1.2
				c1.2,0.6,2.4,1.2,3.4,2c18.7,12.6,35,27.8,48.8,45.6c3.9,5,7.5,5.8,12.9,2.5c4.8-3,9.6-6,14-9.6c17.6-14.4,26.8-32.5,24.2-55.8
				c-0.3-2.7,0.7-5.9,2-8.4c1.5-3,3.9-5.6,6-8.2c13.5-17.2,30.3-30.8,47.2-44.4c20.2-16.2,40.6-32.2,58.1-51.5
				c19.1-21.1,36.5-43.3,49.8-68.5c2.7-5.2,4.8-10.9,6.4-16.5C689.4,233.9,687,232.1,682.9,233.5z M347.8,345.7
				c-2.4,2.8-5.3,2.2-8,0.4c-5.9-3.8-11.8-7.8-17.6-11.7c-2.4-1.6-3.4-3.9-2.3-6.6c1-2.6,2.5-4.9,6-4.6c1.6,0.5,3.4,0.7,4.8,1.6
				c5.8,3.9,11.7,7.7,17.2,12.2C350.7,339.4,350.3,342.9,347.8,345.7z M478.7,488.6c-3.1,3.2-5.6,3.2-8.6-0.1
				c-4.2-4.8-8.4-9.6-12.4-14.6c-3.2-4.1-4.3-8.9-3.6-14c1.2-8.7,8.7-12.4,17.7-9.1c8.2,3,13.8,11.2,13.8,20
				C485.6,477.7,483.5,483.7,478.7,488.6z"/>
		</g>
	</g>
</g>
<g id="Layer_2">
</g>
</svg>
