<?xml version="1.0" encoding="utf-8"?>
<!-- Generator: Adobe Illustrator 28.0.0, SVG Export Plug-In . SVG Version: 6.00 Build 0)  -->
<svg version="1.1" id="Layer_1" xmlns="http://www.w3.org/2000/svg" xmlns:xlink="http://www.w3.org/1999/xlink" x="0px" y="0px"
	 viewBox="0 0 600 600" style="enable-background:new 0 0 600 600;" xml:space="preserve">
<style type="text/css">
	.st0{fill:#FFFFFF;}
</style>
<path class="st0" d="M577.5,222.7c-1.2,0.7-2.5,1.3-3.9,1.1c-0.6-0.1-1.3-0.3-1.8-0.1c-12.1,3.2-24.4-1-36.7,1.5
	c-12.1,2.4-24.3,3.9-36.5,6.3c-38.8,7.5-77.2,16.8-115.6,25.8c-10.9,2.6-21.7,5.8-32.8,7.9c-16.6,3.1-32.1,9.7-48.5,13.2
	c-13.9,2.9-27.3,7.4-41,11.1c-1.2,0.3-2.5,0.4-3.6,1.6c1.7,1.8,4,2.6,6.1,3.7c15.9,8.2,31.9,16.2,47.7,24.6c5,2.7,10,5.5,14.7,8.8
	c3.8,2.7,8.4,4.3,12.5,6.5c5.7,3.1,11.4,6.1,16.9,9.5c12.5,7.7,25.1,15.1,36.5,24.5c3.6,2.9,7.1,5.9,10.4,9.2
	c6.6,6.4,6.2,14.4-2.5,18.4c-3.5,1.6-8.4,2.8-12.1,1.8c-1.8-0.5-3.2-1.5-5.1-1.9c-2.4-0.6-5.2-0.6-7.2-2.2c-1.9-1.5-2.7-5.5-4.3-7.7
	c-3.7-5-9.3-8.2-14.4-11.8c-13-9.1-26.8-17-40.7-24.7c-20.8-11.5-42.2-21.7-63.4-32.5c-1.4-0.7-2.8-2-4.9-1.6
	c0.6,9.5,1.8,19,3.1,28.4c1.2,9.6,2.4,19.3,3.6,28.9c1.2,9.5,2.5,18.9,3.8,28.4c1.3,9.5,2.6,18.9,3.7,28.4
	c1.1,9.7,3.3,19.1,4.8,28.7c1.2,7.5,2.5,15.1,3.7,22.6c1.2,7.3,1.1,14.7,1.1,22c0,3.2,0.1,7.1,1.1,10.1c1.8,5.6,2.2,11,3.7,16.5
	c2.4,9.1,4.2,18.2,7.1,27.2c2.1,6.5-1,10.1-6.5,14.2c-5.4,4.1-12.8,9.6-18.8,3.1c-5.3-5.9-7.7-16.8-9.8-24.2
	c-5.5-19.1-9.6-38.6-13.8-58.1c-6.7-31.5-12.5-63.2-18.1-95c-3.8-21.6-7.8-43.1-10.7-64.8c-0.5-3.5-0.8-7-1.2-10.6
	c-0.2-1.8-0.4-3.6-1.6-5.5c-3,2-5.2,4.6-7.4,7.1c-5.5,6-11,12.1-16.5,18.1c-12.3,13.4-24.5,26.9-36.3,40.7
	c-8.6,10.1-17.4,20-26,30.1c-7.9,9.2-15.6,18.7-23.7,27.8c-3.2,3.7-6.8,7.2-9.9,10.9c-5.2,6.1-10.9,11.8-16.1,17.8
	c-6.6,7.6-13.9,14.5-21.1,21.4c-1.8,1.7-3.8,2.9-6.7,1.8c-1.8-0.7-3.6,0.6-5.2,1.3c-4.3,2-8.5,1.4-11.8-1.6
	c-0.7-0.6-1.2-1.4-1.4-2.3c-0.8-3.4,2.3-9.7,5.6-10.6c1.8-0.5,2.9-1.6,4-2.9c14.5-17.8,28.4-36.1,42.4-54.3
	c17.9-23.4,36.3-46.4,55.2-69c10.7-12.8,21.7-25.3,32.6-37.8c0.5-0.6,0.9-1.2,1.3-1.8c-0.7-1.6-1.9-1-2.9-0.9
	c-21.8,3.3-43.5,6.6-65.3,10c-3.1,0.5-6,1.6-9.1,2.3c-2.8,0.6-5.6,1.3-8.5,0.9c-2-0.3-4.3-1.2-6.3-1.7c-2.9-0.8-5.5-1.6-8.4-2.2
	c-2.4-0.4-4.7,0-3.8-3c0.8-2.7,3.2-4.5,5.7-5.8c6.7-3.5,14-5.7,21.4-7.3c14.1-3.2,28.4-5.7,42.7-8.4c18.2-3.4,36.3-7.3,54.2-11.8
	c1.6-0.4,3.3-0.4,4.8-2.1c-3-1.7-5.8-3.3-8.6-4.8c-17.5-9.5-35.1-18.8-52.9-27.5c-15.3-7.5-31.1-13.5-48.1-15.9
	c-4.3-0.6-8.6-1.2-12.8-1.3c-4-0.1-8.2-0.1-12.3,0.5c-2.8,0.4-5.3,0-6.6-3c-0.6-1.4-2-1.2-3.1-1.6c-2.4-0.9-3.3-2.7-2.5-5.1
	c0.9-2.6,2.7-4.5,5.5-5.1c9.8-2,19.7-2.9,29.8-2c8.9,0.8,17.6,2.5,26.4,3.7c8.6,1.2,16.7,4.2,24.8,7.3c21.4,8.1,41.8,18.4,62,29
	c2.2,1.1,4.4,2.3,6.6,3.3c1.9,0.8,2.6,0.3,2.5-1.8c-0.2-2.9-0.5-5.8-0.8-8.7c-1.1-11.8-2.3-23.6-3.3-35.4
	c-0.8-9.1-1.5-18.1-2.1-27.2c-0.9-12.8-1.8-25.5-2.6-38.3c-0.4-6-0.8-12-1-18c-0.2-8.9-0.7-17.9-1.3-26.8
	c-1.1-14.3-1.4-28.6-2.3-42.9c-0.6-8.3-0.4-16.7,0.8-24.9c0.3-2.3,1.1-4.5,2-6.6c1.5-3.2,3.4-5.5,7.5-4.5c0.7,0.2,1.6,0.1,2.2-0.2
	c5.5-3.1,11.2-2.1,16.8-0.4c4.4,1.3,4.3,1.3,5,5.7c0.9-0.1,0.6-0.9,0.8-1.4c0.3-0.6,0.5-1.2,1.2-1.2c0.7,0,1.1,0.6,1.2,1.2
	c0.4,2.3,0.9,4.5,1.1,6.8c0.7,11.2,1.9,22.4,2.6,33.6c0.9,14.1,2.4,28.2,3.2,42.4c0.7,12.5,2.2,24.9,3.2,37.3
	c0.8,9.1,1.3,18.1,2.1,27.2c1,11.8,2.2,23.6,3.3,35.4c0.5,5.4,0.9,10.8,1.4,16.1c0.2,1.8-0.1,4.3,1.6,5c2,0.8,3.1-1.6,4.3-2.8
	c15.4-15.3,31.5-30,47.7-44.5c10.1-9,20.1-18.2,30.9-26.5c3.8-2.9,7.6-5.8,11.5-8.5c2.7-1.9,5.5-2.5,9.1-1.8
	c3.3,0.6,6.9,0.6,10.4,1.2c4.4,0.8,7.3,3.7,10.2,6.8c0.6,0.7,0.5,1.4,0.1,2.1c-0.9,1.6-1.8,3.2-3.4,4.3c-8.8,6-16.1,13.9-24.5,20.4
	c-6.3,4.9-11.9,10.6-18.1,15.8c-1.6,1.4-2.8,3.3-4.4,4.8c-12.9,12.7-25.8,25.2-38.9,37.6c-7.5,7.1-14.3,14.9-21.8,21.9
	c-0.6,0.5-1.1,1.1-0.7,2.2c2.1,0.6,4.1-0.4,6.1-0.9c18.5-4.7,37.1-9.5,55.6-14.1c47.9-12,95.9-23.5,144.3-33
	c18.9-3.7,37.9-6.9,57-9.4c9.6-1.3,19.3-2.3,29-2.2c8.5,0.1,16.9,1.3,25.1,3.7c3.6,1,7,2.5,9.7,5.1
	C580.7,216.9,580.1,221.2,577.5,222.7z"/>
</svg>
