<?xml version="1.0" encoding="utf-8"?>
<!-- Generator: Adobe Illustrator 28.0.0, SVG Export Plug-In . SVG Version: 6.00 Build 0)  -->
<svg version="1.1" id="Layer_1" xmlns="http://www.w3.org/2000/svg" xmlns:xlink="http://www.w3.org/1999/xlink" x="0px" y="0px"
	 viewBox="0 0 600 600" style="enable-background:new 0 0 600 600;" xml:space="preserve">
<style type="text/css">
	.st0{fill:#FFFFFF;}
</style>
<path class="st0" d="M240.2,294.5c-2.5-0.3-3.8,1.3-5.3,2.3c-21.9,14.6-43.7,29.4-65.6,44c-18.7,12.4-37.5,24.6-56.2,36.9
	c-1.9,1.2-4,2.3-5.3,4c-2.2,2.9-4.9,3.1-8,2.3c-7.4-1.8-14.9-3.6-22.3-5.6c-4.9-1.4-5.6-4.6-1.8-8.1c1.5-1.4,3.3-2.5,5-3.6
	c6.9-4.5,12.8-8.9,18.9-14.3c5.3-4.7,11.8-6.1,18-9.2c5-2.6,9.1-6.7,13.8-9.6c5.2-3.2,11.3-4.6,16.5-7.9c5-3.2,10.4-7.2,15.1-10.9
	c4.6-3.7,8.8-7.6,13.7-10.9c9.2-6.3,18.5-12.1,27.5-18.3c6.9-4.8,13.1-8.3,20.5-11.9c4.8-2.3,9.1-5.8,13.8-8.1
	c5.6-2.7,1.9-4.7-0.3-8.3c-1.4-2.3-1.9-4.2-3.6-6.4c-2.8-3.5-6.6-6.6-9.8-9.8c-12.6-12.7-25.1-25.4-38.1-37.7
	c-18.9-18-37.3-36.6-57.3-53.4c-5.7-4.8-11.1-10-16.6-15.1c-1.1-1-2.1-2.1-3-3.3c-0.8-1.1-0.9-2.4-0.1-3.7c0.8-1.3,2.1-1.5,3.4-1.1
	c2.1,0.6,4.3,1.4,6.4,2.2c1.8,0.6,3.5,1.5,5.3,1.9c9.8,2.6,17.6,8.2,25,15c15,13.7,30,27.5,44.8,41.4c19.6,18.4,38.2,37.8,57.5,56.6
	c1.2,1.2,2.3,2.5,3.7,3.5c2,1.5,3.6,1,4-1.5c0.6-3.5,1.1-7,1.2-10.6c0.3-11.2,1.7-22.2,1.6-33.4c0-4.2,1.3-8.4,2.8-12.4
	c3-8.5,3.5-16.9,5.3-25.7c0.9-4.6,0.7-9.7,0.7-14.7c0-11.4,0-22.8,1-34.2c0.9-10.1,2.2-20.3,2.9-30.3c0.8-11.8,2.6-23.5,3.9-35.2
	c1.1-9.8,2.3-19.7,3.6-29.4c0.8-5.6,2.5-6.6,8-5c6.8,1.9,13.7,3.7,20.5,5.7c4.4,1.3,5.1,2.4,4.7,6.9c-1.1,10.9-2.5,21.9-3.7,32.8
	c-1.7,15.4-3.4,30.8-5.1,46.2c-1.4,12.2-2.7,24.5-4,36.7c-1.4,13-2.7,26-3.8,39c-0.3,3-1.7,6.1-0.4,9.6c2.2-1.2,3-3.2,4-4.9
	c20.9-34.1,42.8-67.5,67.1-99.3c5.4-7.1,11-14.1,17.5-20.4c3.8-3.7,7.6-5,12.6-3c6.9,2.8,14,5.2,21,7.8c1.4,0.5,2.8,1,3.8,2.3
	c1.7,2.2,0.9,5-1.6,5.1c-4.8,0-7.5,3.1-10.2,6.2c-8.8,10.2-17.4,20.5-25.4,31.3c-19.1,25.9-36.5,52.8-53.6,80
	c-0.6,0.9-1.4,1.8-0.9,3.1c1.5,1,2.4-0.2,3.4-0.9c23.2-14.6,46.6-28.9,70.6-42.4c23.8-13.4,48-25.9,73.5-35.7
	c3.7-1.4,7.5-2.3,11.2-3.5c2.2-0.7,4.4-0.6,6.6,0.2c8.1,2.9,16.2,5.8,24.2,8.8c0.2,0.1,0.3,0.1,0.5,0.2c1.9,0.7,3.5,1.7,3.1,4
	c-0.3,2.3-2.2,2.9-4.2,2.8c-4.6-0.2-8.8,1.3-13.1,2.8c-11,3.9-21.4,9-32,14c-12.7,5.9-25.5,12.7-38.3,18
	c-7.3,3.1-13.8,7.7-20.7,11.4c-12.6,6.9-24.2,14.5-35.8,22.9c-6.7,4.8-15,6-21.6,11.2c-10.6,8.5-22.6,15-34,22.4
	c-7.5,4.9-15.4,9.3-22.4,14.8c-9.5,7.5-14.2,17.6-12.9,30c0.2,1.5,0.8,2.9,1.9,4c1.2,1.2,2.3,2.4,3.5,3.6
	c16.2,16.2,32.4,32.6,48.8,48.7c18.2,18,36.7,35.6,55.8,52.7c17.7,15.8,35.5,31.5,54.6,45.5c7.7,5.6,15.5,11,23.3,16.5
	c1.5,1.1,3,2.2,4.4,3.4c1,0.9,1.6,2.1,1.1,3.5c-0.5,1.5-1.8,1.8-3.2,1.8c-3.2,0-6.4,0.2-9.5-0.2c-4.6-0.6-9.3-0.9-14-0.9
	c-4.7,0-8.4-1.4-11.9-5c-5.3-5.4-11.5-9.3-17.5-13.7c-6.5-4.7-11.4-11.7-17.1-17.3c-3.3-3.2-6.3-6.9-9.8-9.8
	c-5-4.2-11.2-7.2-16.4-11c-8.8-6.4-17.1-13.4-24.6-21.3c-10.9-11.6-20.2-24.7-30.8-36.6c-11-12.3-24-22.6-35.7-34.2
	c-0.4-0.4-0.8-0.8-1.2-1.2c-0.7-0.6-1.4-1.4-2.4-1.2c-1.4,0.3-1.5,1.6-1.4,2.7c0.2,5.4-0.9,10.8-1.1,16.2c-1.5,30.2-1.4,60.5-1,90.7
	c0.2,12.5,1,25,1.8,37.4c0.6,10.8,1.5,21.6,2.6,32.3c2.4,23.8,6.4,47.3,15.5,69.7c1.7,4.1,3.3,7.6,8.8,6c1.9-0.5,3.2,0.9,3.4,2.8
	c0.4,3.5,0.8,7,1,10.6c0.1,2.6-1.3,4.3-3.8,4.8c-8.6,1.6-17.3,3.1-25.9,4.6c-3.2,0.6-5.2-1.2-6.9-3.7c-5.6-8.3-9.9-17.2-12.9-26.6
	c-5.7-17.9-8.5-36.3-10.9-54.8c-2-15.4-2.5-30.8-4.1-46.2c0-0.4-0.1-0.7-0.1-1.1c-1.5-33.8-1.4-67.6-1.1-101.4c0-2,0.5-4.1,0.7-6.1
	c0.2-2.3,0.7-4.7-0.3-7c-1.8,0-2,1.3-2.5,2.2c-12.9,23.6-24.3,48-35.7,72.3c-10.7,22.7-20.8,45.5-29.9,68.8
	c-1.5,3.7-2.4,4.3-6.4,3.6c-7.6-1.2-15.1-2.5-22.6-3.9c-5.3-1-5.6-1.8-3.8-6.8c5.6-15.5,12.3-30.5,19-45.5
	c11.2-25.1,23-49.9,35.5-74.3c9.5-18.6,19.5-37,29.2-55.5C238.9,298.4,240,296.9,240.2,294.5z"/>
</svg>
