<?xml version="1.0" encoding="utf-8"?>
<!-- Generator: Adobe Illustrator 28.0.0, SVG Export Plug-In . SVG Version: 6.00 Build 0)  -->
<svg version="1.1" id="Layer_1" xmlns="http://www.w3.org/2000/svg" xmlns:xlink="http://www.w3.org/1999/xlink" x="0px" y="0px"
	 viewBox="0 0 600 600" style="enable-background:new 0 0 600 600;" xml:space="preserve">
<style type="text/css">
	.st0{fill:#FFFFFF;}
</style>
<path class="st0" d="M315.5,209.4c4.4-0.5,8.4-0.8,12.3-1.5c17.5-3.3,35.1-4.5,52.7-6.6c12.6-1.5,25.2-1.9,37.9-2.1
	c17.5-0.3,34.9-0.6,52.4,0.1c14,0.6,28.1,1.1,41.9,5c2,0.6,4,1.1,5.8,2.4c4.1,3,4.3,8.9,0.5,12.6c-1.2,1.1-2.5,2.1-3.8,2.7
	c-13.3,5.5-26.4,12.7-40.1,15.9c-8.3,1.9-16.4,0.1-24.5-2.7c-1.6-0.6-3.3-1.3-3.5-4.2c-0.2-3,1.4-4,2.9-5c1.2-0.8,2.8-0.8,3.4-3.8
	c-1.7-2-3.7-1.3-5.6-1.4c-13.2-0.5-26.6-1.6-39.7-1c-16.6,0.8-33.3-0.7-49.9,2.2c-7.5,1.3-15.2,1.4-22.8,2
	c-11.2,0.9-22.4,3.1-33.6,4.1c-6.6,0.6-10.5,8.1-15.2,13.7c-1.2,1.4-0.8,3.4,0.3,4.5c2.2,2.2,4.4,4.3,6.7,6.1
	c33.3,25.9,67.4,49.6,102.6,69.3c3,1.7,5.8,3.9,8.7,6.2c1.5,1.1,2.6,3,2.4,5.8c-0.2,2.9-1.7,4-3.3,4.5c-9.8,3.4-19.5,6.8-29.3,10
	c-2,0.7-4-0.3-5.9-1.4c-3.5-2.1-7.3-3.8-10.5-6.6c-14.2-12-29.7-19.7-44.4-30c-11.4-8.1-23-15.6-34.3-24.2c-1.3-1-2.5-2-3.8-2.8
	c-3.1-1.9-4.1-1-3.9,4c0.4,8.1,1,16.1,1.5,24.2c1.4,20.3,2.9,40.6,4.3,60.9c1.9,27.1,3.9,54.3,5.7,81.4c1.3,19.1,2.6,38.2,2.9,57.4
	c0.2,11.4,1.6,22.6,0.1,34.1c-0.7,5.1-2,8.1-5.3,9.5c-8.3,3.5-16.6,7.3-24.9,10.6c-4.5,1.8-5.9,0.6-7-6c-1.4-8.4-2.3-17.1-3.4-25.6
	c-0.4-2.9,0-5.4,1.7-7.1c2.6-2.6,2.7-6.5,2.5-10.4c-0.4-9-0.7-18-1.3-26.9c-1.8-26.9-3.8-53.7-5.6-80.6c-1.8-26-3.5-51.9-5.2-77.9
	c-0.5-6.9-0.8-13.8-1.4-20.6c-0.7-7.6-1.9-8.3-6-3.9c-13.1,14.3-26.2,28.7-39.3,43.1c-8.9,9.8-18.2,18.8-26.1,30.4
	c-1,1.5-2.3,2.3-3.7,2.9c-8.5,3.6-17,7.2-25.5,10.8c-0.8,0.3-1.6,0.6-2.4,0.7c-3,0.3-4.4-2.8-3.2-6.9c0.7-2.2,1.9-3.8,3.2-5.3
	c10.4-11.7,20.9-23.3,31.4-35c21.5-24.1,43.3-47.8,64.5-72.5c3.2-3.7,3.9-7.8,3.6-13.3c-0.8-13.5-2.9-19.9-14.2-17.4
	c-29.4,6.4-58.6,14.5-87.6,24.5c-5.1,1.8-10,4.7-14.7,8.2c-10.7,8-22.5,10.9-33.7,16.3c-1.5,0.7-3.3,1.5-4.2-1.3
	c-1-3.1,0.3-5.3,2-6.5c3.8-2.7,7.7-5.3,11.6-7.4c17-9.1,34.5-16.2,51.9-23.5c19.7-8.3,39.7-14.7,59.9-20.4c1.9-0.5,4-0.5,5.7-2.9
	c-0.6-3.4-2.7-4.1-4.3-5.5c-18.1-15.7-36.1-31.3-53.2-49.3c-4.6-4.8-9-10.1-13.4-15.3c-1.5-1.7-2.9-3.5-2.6-6.6
	c0.4-3.8,2.6-4.2,4.5-4.9c8.4-2.9,16.8-5.7,25.3-8.6c2.4-0.8,4.3,0.1,6.1,2.3c14.8,18.1,31.2,32.8,47.6,47.4c2.4,2.1,5,6.4,7.4,4.5
	c2.5-2,0.4-7.2,0.1-10.8c-2.9-41.8-6.2-83.5-11.9-124.7c-0.6-4.1-1.4-8.1-2-12.2c-1-6.7,0.1-9.5,4.4-9.8c8.6-0.5,17.2-2.2,25.8-3
	c3.6-0.4,5.1,1.3,6.5,7.3c2.3,10,3.4,20.4,4.6,30.7c4.2,37,7.3,74.2,10,111.5c0.7,9.5,1.5,19.1,2.2,28.6c0.3,4.2,1.6,5.5,4.4,5.2
	c3.7-0.4,7.1-1.5,10.1-5.1c14.6-18.4,29.2-36.7,42.9-56.4c2.1-3,4.1-5.7,2.5-10.8c-0.8-2.5,0.7-4.5,2.1-5.9
	c7.8-7.9,15.1-16.8,24.8-19.5c6.7-1.9,13.2-4.9,19.9-7.3c2.1-0.8,4.5-2.4,6,1.3c1.4,3.5-0.1,6.3-1.7,8.7c-5.6,8.3-11,16.7-16.8,24.6
	c-8.6,11.7-17.4,23-26.2,34.5c-5.3,6.9-10.6,13.7-15.9,20.6C317.5,203.8,315.7,205,315.5,209.4z"/>
</svg>
