<?xml version="1.0" encoding="utf-8"?>
<!-- Generator: Adobe Illustrator 28.0.0, SVG Export Plug-In . SVG Version: 6.00 Build 0)  -->
<svg version="1.1" id="Layer_1" xmlns="http://www.w3.org/2000/svg" xmlns:xlink="http://www.w3.org/1999/xlink" x="0px" y="0px"
	 viewBox="0 0 600 600" style="enable-background:new 0 0 600 600;" xml:space="preserve">
<style type="text/css">
	.st0{fill:#003D4E;}
</style>
<path class="st0" d="M325.6,223.7c9-7.8,18-15.6,26.4-24.3c0.6-0.6,1.1-1.4,1.5-2.2c4.8-8.1,5.3-8.3,13.8-4.1
	c4.3,2.1,8.7,4,13.2,5.5c3.9,1.3,7.7,2.6,11.6,4.2c6.1,2.4,6.7,5.1,2.2,10c-4.2,4.6-8.5,8.8-13.1,13c-11.3,10.2-22.7,20.2-34,30.4
	c-12,10.8-23.7,21.7-35.6,32.7c-2,1.8-5.7,3.6-4.2,7c1.3,2.7,5,1.6,7.5,1.6c20.4-0.1,40.9,1,61.2,1.8c33.8,1.3,67.5,2.7,101.4,2.3
	c4.6,0,9,0.3,13.3-2c2.1-1.1,4.5-0.4,6.7,0.1c9,2.1,18.1,4.2,27.2,6.3c2.9,0.7,6.1,1.7,5.7,5.6c-0.3,3.6-3.4,4.6-6.5,4.9
	c-12.7,1-25.3,2.4-38,1.2c-10.8-1-21.8-0.4-32.6-1.1c-17.8-1.1-35.8-0.7-53.6-2.3c-0.7-0.1-1.3-0.1-2-0.1
	c-23.4,0.4-46.7-2.1-70.1-1.6c-5.5,0.1-10.8-0.7-16.3-1.1c-7.8-0.5-8.4,0-10.2,7.5c-0.9,4-1.4,8.1-2.6,12c-1.7,5.6,0.1,9.5,4.5,13
	c6.6,5.2,13,10.6,19.4,16c35.1,29.4,71.9,56.9,107.6,85.6c7.6,6.1,15.3,12.2,20.9,20.4c2.8,4.3,5,8.6,3.4,14
	c-1.4,4.9-3.1,6.1-7.9,4.4c-9.3-3.4-18.7-7.2-27.9-10.8c-2.2-0.9-4.1-2.3-3.4-5.1c1.2-5.9-2-9.9-5.6-13.9
	c-8.7-9.6-18.8-17.7-29-25.7c-27.3-21.1-54.5-42.2-81.2-64.1c-1-0.9-2-1.8-3.2-2.5c-1.7-1-3.1-0.5-3.8,1.3c-0.5,1.5-0.8,3-1.1,4.7
	c-8.8,45.6-16.1,91.6-23,137.6c-3.6,24.4-7.1,49-12.1,73.2c-1.1,5.4-2.4,10.6-4.1,15.8c-1.3,4.3-3.4,5.8-7.6,5.2
	c-10.7-1.7-21.4-3.9-32.1-5.9c-2.4-0.5-3.8-2.4-4.4-4.8c-1.2-4.5-0.9-9-1.3-13.5c-0.2-2,1-3.9,3-4c5.7-0.3,6.2-4.5,6.8-8.5
	c2.7-17,5.6-34.1,8.3-51c8.3-52.6,16.4-105.3,27-157.7c0.4-1.9,1.2-3.9,0.2-7.1c-6.5,6.8-12.6,13.1-18.7,19.4
	c-7.7,8-14.5,16.7-21.5,25.4c-2.3,2.9-4.9,3.8-8.3,2.5c-8.8-3-17.6-5.8-26.5-9c-6.1-2.2-6.9-5.7-2.7-10.9c4-5,7.8-10.1,12.1-14.7
	c7.9-8.4,15.3-17.3,23.6-25.4c6.3-6.2,12.2-12.8,18.2-19.3c1-1.1,2.7-2.1,1.8-4c-0.8-1.7-2.7-1.2-4.3-1.3c-0.9-0.1-1.8,0-2.7,0
	c-33.6-0.1-67.2-0.1-100.8-0.1c-3.6,0-7.3-0.4-10.3,2.3c-1.5,1.4-3.4,0.8-5.2,0.4c-9.9-2.3-19.9-4.7-29.8-7.1
	c-1.7-0.4-3.3-1.3-5-2.1c-1.7-1-2.5-2.6-2.1-4.6c0.4-2,1.7-3.2,3.6-3.4c2.4-0.3,5-0.4,7.5-0.4c41.3,0,82.6,0,123.9,0
	c2.6,0,5.5,0.5,8-0.6c0.6-2.2-1.3-2.7-2.4-3.6c-23-19.5-46.8-38-71.9-55c-1.7-1.1-3.4-2.2-5.1-3.4c-1.6-1.1-2.6-2.6-1.5-4.7
	c1-1.9,2.8-2.1,4.8-1.6c1.5,0.4,3,0.9,4.6,1.5c13.3,5.3,26.6,10.6,39.8,15.9c3.2,1.3,6.4,2.5,7,6.6c0.3,1.9,1.9,3,3.3,4.1
	c17.2,11.9,33.4,25,49.8,37.9c5.7,4.5,6.4,4.1,12.1-0.7c10.7-8.8,16.4-19.8,19.7-33.6c12.6-54.1,27.4-107.8,44.4-160.7
	c8.4-26.2,16.7-52.3,27.1-77.8c2.2-5.5,4.9-10.7,7.7-15.9c2.1-4,4.1-4.5,7.8-2.5c9,4.7,18,9.4,27,14.4c4.9,2.7,4.9,3.3,1.4,8.2
	c-2.5,3.5-4.1,7.6-5.6,11.7c-11.6,29.5-21.6,60.1-31.1,90.9c-8.8,28.6-16.9,57.5-24.8,86.4c-0.9,3.4-1.7,6.9-2.6,10.3
	C324.6,223.2,325.1,223.5,325.6,223.7z"/>
</svg>
