<?xml version="1.0" encoding="utf-8"?>
<!-- Generator: Adobe Illustrator 26.2.1, SVG Export Plug-In . SVG Version: 6.00 Build 0)  -->
<svg version="1.1" id="Layer_1" xmlns="http://www.w3.org/2000/svg" xmlns:xlink="http://www.w3.org/1999/xlink" x="0px" y="0px"
	 viewBox="0 0 720 720" style="enable-background:new 0 0 720 720;" xml:space="preserve">
<style type="text/css">
	.st0{opacity:0.39;enable-background:new    ;}
	.st1{fill:none;}
	.st2{fill:#FFFFFF;}
</style>
<rect class="st0" width="720" height="720"/>
<rect x="-739.1" y="300" class="st1" width="720" height="407"/>
<text transform="matrix(1 0 0 1 -661.8281 365.6877)" style="font-family:'Raleway-Bold'; font-size:90px;">JUNE &amp; JULY</text>
<text transform="matrix(1 0 0 1 -659.3281 420.8877)" style="font-family:'Roboto-LightItalic'; font-size:46px;">CALENDER ILLUSTRATIONS</text>
<rect x="-626.3" y="-148" class="st1" width="571.4" height="347.1"/>
<text transform="matrix(1 0 0 1 -501.8652 -82.2682)"><tspan x="0" y="0" style="font-family:'Raleway-Bold'; font-size:90px;">THRI</tspan><tspan x="208.3" y="0" style="font-family:'Raleway-Bold'; font-size:90px; letter-spacing:6;">FT</tspan><tspan x="329.2" y="0" style="font-family:'Raleway-Bold'; font-size:90px;"> </tspan><tspan x="-34.4" y="108" style="font-family:'Raleway-Bold'; font-size:90px;">SAVINGS </tspan><tspan x="42.3" y="216" style="font-family:'Raleway-Bold'; font-size:90px;">PLAN</tspan><tspan x="17.3" y="274" style="font-family:'Roboto-LightItalic'; font-size:46px;">INFOGRAPHIC</tspan></text>
<g>
	<path class="st2" d="M256,201.7h-20.4v53h-12.3v-53h-20.4v-10.9H256V201.7z"/>
	<path class="st2" d="M317.7,190.8v63.9h-12.3v-27.3h-29v27.3h-12.4v-63.9h12.4v25.8h29v-25.8H317.7z"/>
	<path class="st2" d="M331,254.7v-63.9h28.3c2.9,0,5.7,0.6,8.1,1.8c2.5,1.2,4.6,2.8,6.5,4.9c1.8,2,3.2,4.3,4.2,6.8
		c1,2.5,1.5,5.1,1.5,7.7c0,2.7-0.5,5.3-1.4,7.8c-0.9,2.5-2.3,4.7-4,6.5c-1.7,1.9-3.8,3.3-6.1,4.3l14.6,24H369l-13.1-21.4h-12.4v21.4
		H331z M343.4,222.4H359c1.6,0,2.9-0.5,4.1-1.4c1.2-0.9,2.2-2.2,2.9-3.7c0.7-1.6,1.1-3.3,1.1-5.2c0-2-0.4-3.8-1.3-5.4
		c-0.8-1.5-1.9-2.7-3.2-3.6c-1.3-0.9-2.7-1.3-4.2-1.3h-15V222.4z"/>
	<path class="st2" d="M390.8,254.7v-63.9h12.4v63.9H390.8z"/>
	<path class="st2" d="M416.6,254.7v-63.9h42.9v10.9H429v16.5h25.4v10.1H429v26.5H416.6z"/>
	<path class="st2" d="M520.5,201.7h-20.4v53h-12.3v-53h-20.4v-10.9h53.2V201.7z"/>
	<path class="st2" d="M212.8,315.6c-0.4-0.4-1.2-1-2.3-1.7c-1.1-0.7-2.5-1.4-4.1-2.1c-1.6-0.7-3.3-1.2-5.2-1.8
		c-1.9-0.5-3.8-0.8-5.7-0.8c-3.4,0-5.9,0.6-7.6,1.9s-2.6,3-2.6,5.3c0,1.7,0.5,3.1,1.6,4.1c1.1,1,2.7,1.9,4.9,2.6
		c2.2,0.7,4.9,1.5,8.1,2.3c4.2,1,7.8,2.3,10.9,3.7c3.1,1.5,5.5,3.4,7.1,5.7c1.6,2.4,2.5,5.5,2.5,9.4c0,3.4-0.6,6.3-1.9,8.7
		c-1.3,2.4-3,4.4-5.2,5.9c-2.2,1.5-4.7,2.6-7.6,3.3c-2.8,0.7-5.8,1-9,1c-3.2,0-6.4-0.3-9.5-1c-3.2-0.7-6.2-1.6-9.2-2.8
		c-2.9-1.2-5.6-2.7-8.1-4.5l5.5-10.7c0.5,0.5,1.5,1.2,2.9,2.1c1.4,0.9,3.1,1.7,5,2.6c2,0.9,4.1,1.6,6.5,2.2c2.3,0.6,4.7,0.9,7.1,0.9
		c3.4,0,5.9-0.6,7.6-1.7c1.7-1.1,2.6-2.7,2.6-4.8c0-1.9-0.7-3.4-2.1-4.5c-1.4-1.1-3.3-2-5.8-2.8c-2.5-0.8-5.4-1.7-8.7-2.6
		c-4-1.1-7.4-2.4-10.1-3.8c-2.7-1.4-4.7-3.2-6-5.3c-1.3-2.1-2-4.8-2-8.1c0-4.4,1-8,3.1-11c2.1-3,4.9-5.2,8.4-6.7
		c3.5-1.5,7.5-2.3,11.8-2.3c3,0,5.8,0.3,8.5,1c2.7,0.7,5.2,1.5,7.5,2.6s4.4,2.2,6.3,3.5L212.8,315.6z"/>
	<path class="st2" d="M245.8,298.8h12.6l23.5,63.9h-12.8l-5.3-15.9h-23.5l-5.3,15.9h-12.8L245.8,298.8z M260.9,338.1l-8.8-26.4
		l-8.8,26.4H260.9z"/>
	<path class="st2" d="M290.3,298.8l17.3,49.1l17.1-49.1h13.1l-24.2,63.9h-12l-24.3-63.9H290.3z"/>
	<path class="st2" d="M344.5,362.7v-63.9h12.4v63.9H344.5z"/>
	<path class="st2" d="M382.7,321.7v41h-12.4v-63.9h9.9l33,42.1v-42h12.4v63.8h-10.3L382.7,321.7z"/>
	<path class="st2" d="M465.5,363.2c-4.1,0-8.1-0.8-11.7-2.5c-3.7-1.7-6.9-4-9.7-7c-2.8-3-5-6.4-6.5-10.4c-1.6-4-2.3-8.2-2.3-12.9
		c0-4.4,0.8-8.5,2.3-12.4c1.6-3.9,3.7-7.3,6.6-10.2c2.8-2.9,6.1-5.2,9.9-6.9c3.8-1.7,7.9-2.5,12.3-2.5c6,0,11.1,1.3,15.4,3.8
		c4.3,2.6,7.5,5.9,9.7,10.1l-9.3,6.8c-1.6-3.2-3.9-5.6-6.8-7.3c-2.9-1.7-6.1-2.5-9.5-2.5c-2.7,0-5.2,0.6-7.4,1.7
		c-2.2,1.1-4.1,2.7-5.8,4.7c-1.6,2-2.9,4.3-3.7,6.8c-0.9,2.6-1.3,5.3-1.3,8.2c0,3.1,0.5,5.9,1.4,8.5c0.9,2.6,2.2,4.8,4,6.8
		c1.7,1.9,3.7,3.4,6,4.5c2.3,1.1,4.8,1.7,7.6,1.7c3.2,0,6.3-0.8,9.3-2.5c3-1.7,5.7-4.1,8.3-7.4v12.2
		C478.9,360.3,472.6,363.2,465.5,363.2z M483.3,339h-12.9v-9.1h23.1v32.9h-10.3V339z"/>
	<path class="st2" d="M542.2,315.6c-0.4-0.4-1.2-1-2.3-1.7c-1.1-0.7-2.5-1.4-4.1-2.1c-1.6-0.7-3.3-1.2-5.2-1.8
		c-1.9-0.5-3.8-0.8-5.7-0.8c-3.4,0-5.9,0.6-7.6,1.9s-2.6,3-2.6,5.3c0,1.7,0.5,3.1,1.6,4.1s2.7,1.9,4.9,2.6c2.2,0.7,4.9,1.5,8.1,2.3
		c4.2,1,7.8,2.3,10.9,3.7c3.1,1.5,5.5,3.4,7.1,5.7c1.6,2.4,2.5,5.5,2.5,9.4c0,3.4-0.6,6.3-1.9,8.7c-1.3,2.4-3,4.4-5.2,5.9
		c-2.2,1.5-4.7,2.6-7.6,3.3c-2.8,0.7-5.8,1-9,1c-3.2,0-6.4-0.3-9.5-1c-3.2-0.7-6.2-1.6-9.2-2.8c-2.9-1.2-5.6-2.7-8.1-4.5l5.5-10.7
		c0.5,0.5,1.5,1.2,2.9,2.1c1.4,0.9,3.1,1.7,5,2.6c2,0.9,4.1,1.6,6.5,2.2c2.3,0.6,4.7,0.9,7.1,0.9c3.4,0,5.9-0.6,7.6-1.7
		s2.6-2.7,2.6-4.8c0-1.9-0.7-3.4-2.1-4.5c-1.4-1.1-3.3-2-5.8-2.8c-2.5-0.8-5.4-1.7-8.7-2.6c-4-1.1-7.4-2.4-10.1-3.8
		c-2.7-1.4-4.7-3.2-6-5.3c-1.3-2.1-2-4.8-2-8.1c0-4.4,1-8,3.1-11c2.1-3,4.9-5.2,8.4-6.7c3.5-1.5,7.5-2.3,11.8-2.3c3,0,5.8,0.3,8.5,1
		c2.7,0.7,5.2,1.5,7.5,2.6s4.4,2.2,6.3,3.5L542.2,315.6z"/>
	<path class="st2" d="M248.1,470.7v-63.9h27.1c2.9,0,5.6,0.6,8.1,1.8c2.5,1.2,4.6,2.8,6.4,4.9c1.8,2,3.3,4.3,4.3,6.8
		c1,2.5,1.5,5.1,1.5,7.7c0,3.6-0.8,7-2.5,10.3c-1.7,3.2-4,5.9-6.9,7.9c-2.9,2-6.4,3.1-10.4,3.1h-15.1v21.4H248.1z M260.6,438.4H275
		c1.5,0,2.8-0.4,4-1.3c1.2-0.8,2.2-2.1,2.9-3.6c0.7-1.6,1.1-3.4,1.1-5.4c0-2.2-0.4-4.1-1.2-5.7c-0.8-1.6-1.9-2.7-3.1-3.5
		c-1.3-0.8-2.7-1.2-4.2-1.2h-13.9V438.4z"/>
	<path class="st2" d="M304.2,470.7v-63.9h12.4v53h32.6v10.9H304.2z"/>
	<path class="st2" d="M374.1,406.8h12.6l23.5,63.9h-12.8l-5.3-15.9h-23.5l-5.3,15.9h-12.8L374.1,406.8z M389.2,446.1l-8.8-26.4
		l-8.8,26.4H389.2z"/>
	<path class="st2" d="M429.7,429.7v41h-12.4v-63.9h9.9l33,42.1v-42h12.4v63.8h-10.3L429.7,429.7z"/>
	<path class="st2" d="M221.4,528.7h-2.7l5.7-32.7h2.7L221.4,528.7z"/>
	<path class="st2" d="M253.8,528.7h-2.7l-13.4-28l-4.9,28h-2.8l5.7-32.7h2.7l13.4,28.1l4.9-28.1h2.7L253.8,528.7z"/>
	<path class="st2" d="M282.2,513.4h-14.8l-2.7,15.3H262l5.7-32.7h19.7l-0.4,2.3h-17l-2.2,12.7h14.8L282.2,513.4z"/>
	<path class="st2" d="M298.7,529.2c-3.1-0.1-5.5-1.1-7.3-3.2c-1.8-2.1-2.8-4.8-2.9-8.3c-0.1-1.2,0-2.4,0.2-3.6l0.4-3.1
		c0.7-4.6,2.3-8.3,4.9-11.2c2.7-3,6-4.4,9.9-4.3c2,0,3.8,0.5,5.3,1.5c1.5,0.9,2.7,2.3,3.5,4.1c0.8,1.8,1.3,3.8,1.4,5.9
		c0,1.3,0,2.5-0.2,3.8l-0.5,3.5c-0.5,3.1-1.5,5.8-2.9,8.1s-3.1,4-5.2,5.2S301.1,529.2,298.7,529.2z M311.2,510.6
		c0.1-0.9,0.2-1.9,0.2-2.9c0-1.8-0.3-3.5-0.9-5c-0.6-1.5-1.4-2.6-2.6-3.4c-1.1-0.8-2.5-1.2-4.2-1.3c-3-0.1-5.5,1-7.7,3.2
		s-3.5,5.2-4.2,9c-0.5,3.1-0.8,5.3-0.8,6.8c0,3,0.7,5.4,2,7.1s3.2,2.6,5.6,2.7c3.2,0.1,5.8-1.1,7.9-3.5s3.4-5.5,4-9.4L311.2,510.6z"
		/>
	<path class="st2" d="M341.5,524.8c-1.1,1.4-2.7,2.5-4.8,3.3c-2.1,0.8-4.4,1.1-6.9,1.1c-3,0-5.5-1.1-7.4-3.1s-2.9-4.8-3.1-8.2
		c-0.1-1.2,0-2.4,0.1-3.6l0.6-3.7c0.7-4.6,2.4-8.2,5-11c2.6-2.7,5.9-4.1,9.7-4c3,0.1,5.4,0.9,7.2,2.7s2.7,4,2.8,7h-2.7
		c-0.1-2.3-0.8-4.1-2.1-5.3c-1.3-1.3-3.1-1.9-5.4-2c-3.1-0.1-5.6,1-7.8,3.3c-2.1,2.3-3.5,5.4-4.1,9.4l-0.5,3.5c-0.1,1-0.2,2-0.2,3
		c0,3,0.8,5.3,2.2,7.1s3.3,2.6,5.7,2.6c3.8,0.1,6.8-0.9,8.9-2.8l1.5-8.5h-8.5l0.4-2.3h11.3L341.5,524.8z"/>
	<path class="st2" d="M362.8,515.1h-9.2l-2.4,13.6h-2.8l5.7-32.7l9.7,0c3.3,0,5.8,0.8,7.5,2.5c1.8,1.7,2.5,4,2.2,6.9
		c-0.2,2.2-1,4.1-2.5,5.7c-1.4,1.6-3.3,2.7-5.6,3.5l5.6,13.8l0,0.3h-2.9L362.8,515.1z M354,512.8l8.1,0c2.3,0,4.3-0.7,5.9-2
		c1.6-1.4,2.6-3.1,2.8-5.3c0.3-2.1-0.2-3.8-1.4-5.1c-1.2-1.3-2.9-1.9-5.2-2l-7.7,0L354,512.8z"/>
	<path class="st2" d="M395.8,519.5h-14.3l-4.9,9.2h-3l17.7-32.7h2.6l6.3,32.7h-2.7L395.8,519.5z M382.7,517.2h12.6l-3.2-17.7
		L382.7,517.2z"/>
	<path class="st2" d="M410.2,515.4l-2.3,13.3h-2.7l5.7-32.7l10.6,0c3.1,0.1,5.4,1,7.1,2.7c1.7,1.7,2.4,4,2.1,6.9
		c-0.3,3.1-1.5,5.5-3.7,7.2c-2.2,1.7-5,2.6-8.5,2.6L410.2,515.4z M410.6,513.1l8,0c2.6,0,4.7-0.7,6.4-2c1.7-1.3,2.7-3.1,2.9-5.5
		c0.2-2.2-0.2-4-1.4-5.2s-2.9-2-5.1-2l-8.2,0L410.6,513.1z"/>
	<path class="st2" d="M456.4,528.7h-2.8l2.7-15.7h-18.1l-2.7,15.7h-2.7l5.7-32.7h2.7l-2.6,14.7h18.1l2.6-14.7h2.8L456.4,528.7z"/>
	<path class="st2" d="M468,528.7h-2.7l5.7-32.7h2.7L468,528.7z"/>
	<path class="st2" d="M500.9,518.5c-0.8,3.4-2.3,6-4.6,7.9s-5.2,2.8-8.6,2.7c-2.9-0.1-5.2-1.1-7-3.1c-1.7-2-2.7-4.7-2.8-8.1
		c0-1.2,0-2.3,0.2-3.5l0.6-4c0.5-3,1.4-5.7,2.8-8s3.1-4.1,5.1-5.2c2-1.2,4.2-1.7,6.6-1.7c3.1,0.1,5.5,1,7.3,3s2.6,4.5,2.6,7.7
		l-2.7,0c0-2.6-0.6-4.7-1.9-6.1c-1.3-1.4-3.1-2.2-5.4-2.3c-3-0.1-5.5,1-7.6,3.3c-2.1,2.3-3.4,5.4-4.1,9.5l-0.7,4.5l-0.1,2
		c0,1.8,0.2,3.4,0.8,4.9s1.4,2.7,2.5,3.5c1.1,0.8,2.4,1.2,3.9,1.3c2.6,0.1,4.8-0.6,6.5-2c1.8-1.4,3-3.5,3.9-6.3L500.9,518.5z"/>
</g>
</svg>
